%TF.GenerationSoftware,KiCad,Pcbnew,6.0.2-378541a8eb~116~ubuntu20.04.1*%
%TF.CreationDate,2022-03-07T20:32:18+02:00*%
%TF.ProjectId,ActionPCB,41637469-6f6e-4504-9342-2e6b69636164,rev?*%
%TF.SameCoordinates,Original*%
%TF.FileFunction,Copper,L1,Top*%
%TF.FilePolarity,Positive*%
%FSLAX46Y46*%
G04 Gerber Fmt 4.6, Leading zero omitted, Abs format (unit mm)*
G04 Created by KiCad (PCBNEW 6.0.2-378541a8eb~116~ubuntu20.04.1) date 2022-03-07 20:32:18*
%MOMM*%
%LPD*%
G01*
G04 APERTURE LIST*
G04 Aperture macros list*
%AMRoundRect*
0 Rectangle with rounded corners*
0 $1 Rounding radius*
0 $2 $3 $4 $5 $6 $7 $8 $9 X,Y pos of 4 corners*
0 Add a 4 corners polygon primitive as box body*
4,1,4,$2,$3,$4,$5,$6,$7,$8,$9,$2,$3,0*
0 Add four circle primitives for the rounded corners*
1,1,$1+$1,$2,$3*
1,1,$1+$1,$4,$5*
1,1,$1+$1,$6,$7*
1,1,$1+$1,$8,$9*
0 Add four rect primitives between the rounded corners*
20,1,$1+$1,$2,$3,$4,$5,0*
20,1,$1+$1,$4,$5,$6,$7,0*
20,1,$1+$1,$6,$7,$8,$9,0*
20,1,$1+$1,$8,$9,$2,$3,0*%
%AMFreePoly0*
4,1,6,1.000000,0.000000,0.500000,-0.750000,-0.500000,-0.750000,-0.500000,0.750000,0.500000,0.750000,1.000000,0.000000,1.000000,0.000000,$1*%
%AMFreePoly1*
4,1,6,0.500000,-0.750000,-0.650000,-0.750000,-0.150000,0.000000,-0.650000,0.750000,0.500000,0.750000,0.500000,-0.750000,0.500000,-0.750000,$1*%
G04 Aperture macros list end*
%TA.AperFunction,SMDPad,CuDef*%
%ADD10RoundRect,0.075000X-0.350000X-0.075000X0.350000X-0.075000X0.350000X0.075000X-0.350000X0.075000X0*%
%TD*%
%TA.AperFunction,SMDPad,CuDef*%
%ADD11RoundRect,0.075000X0.075000X-0.350000X0.075000X0.350000X-0.075000X0.350000X-0.075000X-0.350000X0*%
%TD*%
%TA.AperFunction,SMDPad,CuDef*%
%ADD12RoundRect,0.250000X-0.250000X-0.750000X0.250000X-0.750000X0.250000X0.750000X-0.250000X0.750000X0*%
%TD*%
%TA.AperFunction,SMDPad,CuDef*%
%ADD13RoundRect,0.218750X0.218750X0.256250X-0.218750X0.256250X-0.218750X-0.256250X0.218750X-0.256250X0*%
%TD*%
%TA.AperFunction,SMDPad,CuDef*%
%ADD14RoundRect,0.200000X0.200000X0.275000X-0.200000X0.275000X-0.200000X-0.275000X0.200000X-0.275000X0*%
%TD*%
%TA.AperFunction,SMDPad,CuDef*%
%ADD15FreePoly0,270.000000*%
%TD*%
%TA.AperFunction,SMDPad,CuDef*%
%ADD16FreePoly1,270.000000*%
%TD*%
%TA.AperFunction,SMDPad,CuDef*%
%ADD17RoundRect,0.225000X0.225000X0.250000X-0.225000X0.250000X-0.225000X-0.250000X0.225000X-0.250000X0*%
%TD*%
%TA.AperFunction,SMDPad,CuDef*%
%ADD18R,1.500000X2.000000*%
%TD*%
%TA.AperFunction,SMDPad,CuDef*%
%ADD19R,3.800000X2.000000*%
%TD*%
%TA.AperFunction,SMDPad,CuDef*%
%ADD20RoundRect,0.225000X-0.250000X0.225000X-0.250000X-0.225000X0.250000X-0.225000X0.250000X0.225000X0*%
%TD*%
%TA.AperFunction,SMDPad,CuDef*%
%ADD21RoundRect,0.200000X-0.275000X0.200000X-0.275000X-0.200000X0.275000X-0.200000X0.275000X0.200000X0*%
%TD*%
%TA.AperFunction,SMDPad,CuDef*%
%ADD22RoundRect,0.225000X0.250000X-0.225000X0.250000X0.225000X-0.250000X0.225000X-0.250000X-0.225000X0*%
%TD*%
%TA.AperFunction,SMDPad,CuDef*%
%ADD23RoundRect,0.225000X-0.225000X-0.250000X0.225000X-0.250000X0.225000X0.250000X-0.225000X0.250000X0*%
%TD*%
%TA.AperFunction,SMDPad,CuDef*%
%ADD24FreePoly0,180.000000*%
%TD*%
%TA.AperFunction,SMDPad,CuDef*%
%ADD25FreePoly1,180.000000*%
%TD*%
%TA.AperFunction,ViaPad*%
%ADD26C,0.800000*%
%TD*%
%TA.AperFunction,Conductor*%
%ADD27C,0.250000*%
%TD*%
%TA.AperFunction,Conductor*%
%ADD28C,0.750000*%
%TD*%
%TA.AperFunction,Conductor*%
%ADD29C,0.500000*%
%TD*%
%TA.AperFunction,Conductor*%
%ADD30C,0.550000*%
%TD*%
%TA.AperFunction,Conductor*%
%ADD31C,0.600000*%
%TD*%
%TA.AperFunction,Conductor*%
%ADD32C,0.300000*%
%TD*%
G04 APERTURE END LIST*
D10*
%TO.P,U1,1,CLKIN*%
%TO.N,GND*%
X124696000Y-41965000D03*
%TO.P,U1,2*%
%TO.N,N/C*%
X124696000Y-42465000D03*
%TO.P,U1,3*%
X124696000Y-42965000D03*
%TO.P,U1,4*%
X124696000Y-43465000D03*
%TO.P,U1,5*%
X124696000Y-43965000D03*
%TO.P,U1,6,AUX_SDA*%
%TO.N,unconnected-(U1-Pad6)*%
X124696000Y-44465000D03*
D11*
%TO.P,U1,7,AUX_SCL*%
%TO.N,unconnected-(U1-Pad7)*%
X125396000Y-45165000D03*
%TO.P,U1,8,VDDIO*%
%TO.N,Net-(C1-Pad1)*%
X125896000Y-45165000D03*
%TO.P,U1,9,AD0*%
%TO.N,/AD0*%
X126396000Y-45165000D03*
%TO.P,U1,10,REGOUT*%
%TO.N,Net-(C2-Pad1)*%
X126896000Y-45165000D03*
%TO.P,U1,11,FSYNC*%
%TO.N,Net-(JP1-Pad2)*%
X127396000Y-45165000D03*
%TO.P,U1,12,INT*%
%TO.N,/INT*%
X127896000Y-45165000D03*
D10*
%TO.P,U1,13,VDD*%
%TO.N,+3V3*%
X128596000Y-44465000D03*
%TO.P,U1,14*%
%TO.N,N/C*%
X128596000Y-43965000D03*
%TO.P,U1,15*%
X128596000Y-43465000D03*
%TO.P,U1,16*%
X128596000Y-42965000D03*
%TO.P,U1,17*%
X128596000Y-42465000D03*
%TO.P,U1,18,GND*%
%TO.N,GND*%
X128596000Y-41965000D03*
D11*
%TO.P,U1,19*%
%TO.N,N/C*%
X127896000Y-41265000D03*
%TO.P,U1,20,CPOUT*%
%TO.N,Net-(C3-Pad1)*%
X127396000Y-41265000D03*
%TO.P,U1,21*%
%TO.N,N/C*%
X126896000Y-41265000D03*
%TO.P,U1,22*%
X126396000Y-41265000D03*
%TO.P,U1,23,SCL*%
%TO.N,/SCL*%
X125896000Y-41265000D03*
%TO.P,U1,24,SDA*%
%TO.N,/SDA*%
X125396000Y-41265000D03*
%TD*%
D12*
%TO.P,P16,1,1*%
%TO.N,/CH4*%
X114990000Y-36000000D03*
%TD*%
%TO.P,P4,1,1*%
%TO.N,/SDA*%
X124642000Y-61000000D03*
%TD*%
D13*
%TO.P,D2,1,K*%
%TO.N,Net-(D2-Pad1)*%
X131294500Y-52765000D03*
%TO.P,D2,2,A*%
%TO.N,/AD0*%
X129719500Y-52765000D03*
%TD*%
D14*
%TO.P,R3,1*%
%TO.N,GND*%
X134748000Y-50987000D03*
%TO.P,R3,2*%
%TO.N,Net-(D1-Pad1)*%
X133098000Y-50987000D03*
%TD*%
D12*
%TO.P,P14,1,1*%
%TO.N,/CH2*%
X119562000Y-36000000D03*
%TD*%
D15*
%TO.P,JP2,1,A*%
%TO.N,/INT*%
X125478000Y-54834000D03*
D16*
%TO.P,JP2,2,B*%
%TO.N,+3V3*%
X125478000Y-56284000D03*
%TD*%
D17*
%TO.P,C4,1*%
%TO.N,VCC*%
X139194000Y-37779000D03*
%TO.P,C4,2*%
%TO.N,GND*%
X137644000Y-37779000D03*
%TD*%
D12*
%TO.P,P3,1,1*%
%TO.N,/SCL*%
X126928000Y-61000000D03*
%TD*%
%TO.P,P12,1,1*%
%TO.N,/SDA*%
X124642000Y-36000000D03*
%TD*%
%TO.P,P11,1,1*%
%TO.N,/SCL*%
X126928000Y-36000000D03*
%TD*%
D18*
%TO.P,U2,1,GND*%
%TO.N,GND*%
X133846000Y-47127000D03*
D19*
%TO.P,U2,2,VO*%
%TO.N,+3V3*%
X136146000Y-40827000D03*
D18*
X136146000Y-47127000D03*
%TO.P,U2,3,VI*%
%TO.N,VCC*%
X138446000Y-47127000D03*
%TD*%
D15*
%TO.P,JP7,1,A*%
%TO.N,/CH4*%
X107444000Y-43875000D03*
D16*
%TO.P,JP7,2,B*%
%TO.N,/AD0*%
X107444000Y-45325000D03*
%TD*%
D15*
%TO.P,JP6,1,A*%
%TO.N,/CH3*%
X111000000Y-43875000D03*
D16*
%TO.P,JP6,2,B*%
%TO.N,/AD0*%
X111000000Y-45325000D03*
%TD*%
D12*
%TO.P,P8,1,1*%
%TO.N,/CH4*%
X114990000Y-61000000D03*
%TD*%
D20*
%TO.P,C1,1*%
%TO.N,Net-(C1-Pad1)*%
X124970000Y-48929000D03*
%TO.P,C1,2*%
%TO.N,GND*%
X124970000Y-50479000D03*
%TD*%
D21*
%TO.P,R2,1*%
%TO.N,+3V3*%
X121668000Y-54734000D03*
%TO.P,R2,2*%
%TO.N,/SCL*%
X121668000Y-56384000D03*
%TD*%
D20*
%TO.P,C2,1*%
%TO.N,Net-(C2-Pad1)*%
X127510000Y-48942000D03*
%TO.P,C2,2*%
%TO.N,GND*%
X127510000Y-50492000D03*
%TD*%
D15*
%TO.P,JP5,1,A*%
%TO.N,/CH2*%
X114556000Y-43875000D03*
D16*
%TO.P,JP5,2,B*%
%TO.N,/AD0*%
X114556000Y-45325000D03*
%TD*%
D13*
%TO.P,D1,1,K*%
%TO.N,Net-(D1-Pad1)*%
X131320000Y-50987000D03*
%TO.P,D1,2,A*%
%TO.N,+3V3*%
X129745000Y-50987000D03*
%TD*%
D22*
%TO.P,C5,1*%
%TO.N,+3V3*%
X131701000Y-44275000D03*
%TO.P,C5,2*%
%TO.N,GND*%
X131701000Y-42725000D03*
%TD*%
D12*
%TO.P,P13,1,1*%
%TO.N,/CH1*%
X121848000Y-36000000D03*
%TD*%
D14*
%TO.P,R4,1*%
%TO.N,GND*%
X134749000Y-52765000D03*
%TO.P,R4,2*%
%TO.N,Net-(D2-Pad1)*%
X133099000Y-52765000D03*
%TD*%
D12*
%TO.P,P2,1,1*%
%TO.N,GND*%
X129214000Y-61000000D03*
%TD*%
%TO.P,P15,1,1*%
%TO.N,/CH3*%
X117276000Y-36000000D03*
%TD*%
D23*
%TO.P,C3,1*%
%TO.N,Net-(C3-Pad1)*%
X133733000Y-37779000D03*
%TO.P,C3,2*%
%TO.N,GND*%
X135283000Y-37779000D03*
%TD*%
D12*
%TO.P,P6,1,1*%
%TO.N,/CH2*%
X119562000Y-61000000D03*
%TD*%
%TO.P,P1,1,1*%
%TO.N,VCC*%
X131500000Y-61000000D03*
%TD*%
D24*
%TO.P,JP1,1,A*%
%TO.N,GND*%
X134077000Y-55813000D03*
D25*
%TO.P,JP1,2,B*%
%TO.N,Net-(JP1-Pad2)*%
X132627000Y-55813000D03*
%TD*%
D12*
%TO.P,P7,1,1*%
%TO.N,/CH3*%
X117276000Y-61000000D03*
%TD*%
D15*
%TO.P,JP4,1,A*%
%TO.N,/CH1*%
X118112000Y-43912000D03*
D16*
%TO.P,JP4,2,B*%
%TO.N,/AD0*%
X118112000Y-45362000D03*
%TD*%
D15*
%TO.P,JP3,1,A*%
%TO.N,/INT*%
X128272000Y-54797000D03*
D16*
%TO.P,JP3,2,B*%
%TO.N,GND*%
X128272000Y-56247000D03*
%TD*%
D12*
%TO.P,P9,1,1*%
%TO.N,VCC*%
X131500000Y-36000000D03*
%TD*%
%TO.P,P10,1,1*%
%TO.N,GND*%
X129214000Y-36000000D03*
%TD*%
%TO.P,P5,1,1*%
%TO.N,/CH1*%
X121848000Y-61000000D03*
%TD*%
D21*
%TO.P,R1,1*%
%TO.N,+3V3*%
X119890000Y-54734000D03*
%TO.P,R1,2*%
%TO.N,/SDA*%
X119890000Y-56384000D03*
%TD*%
D26*
%TO.N,GND*%
X132000000Y-48000000D03*
X131500000Y-39500000D03*
X132000000Y-47000000D03*
%TO.N,+3V3*%
X127510000Y-58607000D03*
X136781000Y-49717000D03*
%TO.N,/AD0*%
X130558000Y-55051000D03*
X126748000Y-52638000D03*
%TO.N,Net-(JP1-Pad2)*%
X131193000Y-56448000D03*
X127764000Y-47050000D03*
%TO.N,/CH1*%
X118112000Y-56321000D03*
X119636000Y-42605000D03*
%TO.N,/CH2*%
X116080000Y-56448000D03*
X116080000Y-42605000D03*
%TO.N,/CH3*%
X114810000Y-56448000D03*
X112524000Y-42605000D03*
%TO.N,/CH4*%
X108968000Y-42605000D03*
X113159000Y-56448000D03*
%TO.N,/SCL*%
X122557000Y-57845000D03*
X127000000Y-38000000D03*
%TO.N,/SDA*%
X124000000Y-38500000D03*
X120652000Y-57845000D03*
%TD*%
D27*
%TO.N,Net-(C1-Pad1)*%
X124970000Y-47304000D02*
X125896000Y-46378000D01*
X124970000Y-48929000D02*
X124970000Y-47304000D01*
X125896000Y-46378000D02*
X125896000Y-45165000D01*
%TO.N,Net-(C2-Pad1)*%
X127510000Y-48193000D02*
X127510000Y-48942000D01*
X126896000Y-47579000D02*
X127510000Y-48193000D01*
X126896000Y-45165000D02*
X126896000Y-47579000D01*
%TO.N,Net-(C3-Pad1)*%
X127396000Y-41265000D02*
X127396000Y-39658000D01*
X129275000Y-37779000D02*
X133733000Y-37779000D01*
X127396000Y-39658000D02*
X129275000Y-37779000D01*
D28*
%TO.N,VCC*%
X139194000Y-37779000D02*
X139194000Y-45907000D01*
D29*
X138446000Y-46655000D02*
X138446000Y-47127000D01*
D28*
X139194000Y-45907000D02*
X138446000Y-46655000D01*
X135000000Y-61000000D02*
X131500000Y-61000000D01*
X138686000Y-36000000D02*
X139194000Y-36508000D01*
X138446000Y-47127000D02*
X138446000Y-57554000D01*
X138446000Y-57554000D02*
X135000000Y-61000000D01*
X138686000Y-36000000D02*
X131500000Y-36000000D01*
X139194000Y-36508000D02*
X139194000Y-37779000D01*
D27*
%TO.N,+3V3*%
X131701000Y-44472000D02*
X131694000Y-44465000D01*
X121668000Y-54734000D02*
X119890000Y-54734000D01*
D29*
X136146000Y-45145000D02*
X135384000Y-44383000D01*
D27*
X121668000Y-54734000D02*
X122621000Y-54734000D01*
X125478000Y-56575000D02*
X127510000Y-58607000D01*
X122621000Y-54734000D02*
X124208000Y-56321000D01*
D29*
X135384000Y-43113000D02*
X136146000Y-42351000D01*
D30*
X136273000Y-49209000D02*
X130939000Y-49209000D01*
D27*
X125441000Y-56321000D02*
X125478000Y-56284000D01*
D30*
X130939000Y-49209000D02*
X129745000Y-50403000D01*
X129745000Y-50403000D02*
X129745000Y-50987000D01*
X136146000Y-47127000D02*
X136146000Y-49082000D01*
D31*
X135384000Y-44383000D02*
X131790000Y-44383000D01*
D27*
X125478000Y-56284000D02*
X125478000Y-56575000D01*
D32*
X131694000Y-44465000D02*
X128596000Y-44465000D01*
D27*
X136781000Y-49717000D02*
X136273000Y-49209000D01*
D29*
X136146000Y-47127000D02*
X136146000Y-45145000D01*
D27*
X124208000Y-56321000D02*
X125441000Y-56321000D01*
D30*
X136146000Y-49082000D02*
X136781000Y-49717000D01*
D29*
X135384000Y-44383000D02*
X135384000Y-43113000D01*
D27*
X131790000Y-44383000D02*
X131701000Y-44472000D01*
D29*
X136146000Y-42351000D02*
X136146000Y-40827000D01*
D27*
%TO.N,/AD0*%
X129719500Y-52765000D02*
X129719500Y-53069500D01*
X126396000Y-46767000D02*
X126240000Y-46923000D01*
X125478000Y-52511000D02*
X123700000Y-52511000D01*
X125922500Y-52066500D02*
X126494000Y-52638000D01*
X126240000Y-46923000D02*
X126240000Y-51749000D01*
X114593000Y-45362000D02*
X114556000Y-45325000D01*
X111000000Y-45325000D02*
X107444000Y-45325000D01*
X123700000Y-52511000D02*
X118112000Y-46923000D01*
X118112000Y-46923000D02*
X118112000Y-45362000D01*
X118112000Y-45362000D02*
X114593000Y-45362000D01*
X126494000Y-52638000D02*
X126748000Y-52638000D01*
X114556000Y-45325000D02*
X111000000Y-45325000D01*
X126396000Y-45165000D02*
X126396000Y-46767000D01*
X125922500Y-52066500D02*
X125478000Y-52511000D01*
X126240000Y-51749000D02*
X125922500Y-52066500D01*
X129719500Y-53069500D02*
X130558000Y-53908000D01*
X130558000Y-53908000D02*
X130558000Y-55051000D01*
%TO.N,Net-(JP1-Pad2)*%
X131828000Y-55813000D02*
X131193000Y-56448000D01*
X132627000Y-55813000D02*
X131828000Y-55813000D01*
X127396000Y-45165000D02*
X127396000Y-46682000D01*
X127396000Y-46682000D02*
X127764000Y-47050000D01*
%TO.N,/INT*%
X127896000Y-45658000D02*
X128653000Y-46415000D01*
X127896000Y-45165000D02*
X127896000Y-45658000D01*
X128653000Y-46415000D02*
X128653000Y-54416000D01*
X125478000Y-54834000D02*
X128235000Y-54834000D01*
X128653000Y-54416000D02*
X128272000Y-54797000D01*
X128235000Y-54834000D02*
X128272000Y-54797000D01*
%TO.N,/CH1*%
X118112000Y-43912000D02*
X118329000Y-43912000D01*
X120450000Y-59300000D02*
X121450000Y-59300000D01*
X118112000Y-56962000D02*
X120450000Y-59300000D01*
X121848000Y-37652000D02*
X118112000Y-41388000D01*
X121848000Y-59698000D02*
X121848000Y-61000000D01*
X121450000Y-59300000D02*
X121848000Y-59698000D01*
X118112000Y-56321000D02*
X118112000Y-56962000D01*
X121848000Y-36000000D02*
X121848000Y-37652000D01*
X118329000Y-43912000D02*
X119636000Y-42605000D01*
X118112000Y-41388000D02*
X118112000Y-43912000D01*
%TO.N,/CH2*%
X114810000Y-43875000D02*
X116080000Y-42605000D01*
X119562000Y-38138000D02*
X119562000Y-36000000D01*
X119562000Y-61000000D02*
X119562000Y-59962000D01*
X114556000Y-43144000D02*
X119562000Y-38138000D01*
X116080000Y-56480000D02*
X116080000Y-56448000D01*
X114556000Y-43875000D02*
X114556000Y-43144000D01*
X114556000Y-43875000D02*
X114810000Y-43875000D01*
X119562000Y-59962000D02*
X116080000Y-56480000D01*
%TO.N,/CH3*%
X117276000Y-36000000D02*
X117276000Y-37974000D01*
X117276000Y-59576000D02*
X117276000Y-61000000D01*
X114810000Y-57110000D02*
X117276000Y-59576000D01*
X111000000Y-42600000D02*
X111000000Y-43875000D01*
X111000000Y-43875000D02*
X111254000Y-43875000D01*
X113200000Y-40400000D02*
X111000000Y-42600000D01*
X114850000Y-40400000D02*
X113200000Y-40400000D01*
X111254000Y-43875000D02*
X112524000Y-42605000D01*
X117276000Y-37974000D02*
X114850000Y-40400000D01*
X114810000Y-56448000D02*
X114810000Y-57110000D01*
%TO.N,/CH4*%
X113159000Y-57709000D02*
X114990000Y-59540000D01*
X107698000Y-43875000D02*
X108968000Y-42605000D01*
X114990000Y-37810000D02*
X114990000Y-36000000D01*
X114990000Y-59540000D02*
X114990000Y-61000000D01*
X113159000Y-56448000D02*
X113159000Y-57709000D01*
X107444000Y-43875000D02*
X107698000Y-43875000D01*
X113300000Y-39500000D02*
X114990000Y-37810000D01*
X107444000Y-42908530D02*
X110852530Y-39500000D01*
X107444000Y-43875000D02*
X107444000Y-42908530D01*
X110852530Y-39500000D02*
X113300000Y-39500000D01*
%TO.N,/SCL*%
X125395000Y-57845000D02*
X126950000Y-59400000D01*
X121668000Y-56384000D02*
X121668000Y-56956000D01*
X125896000Y-39104000D02*
X125896000Y-41265000D01*
X122557000Y-57845000D02*
X125395000Y-57845000D01*
X126928000Y-36000000D02*
X126928000Y-37928000D01*
X126950000Y-60978000D02*
X126928000Y-61000000D01*
X126950000Y-59400000D02*
X126950000Y-60978000D01*
X126928000Y-37928000D02*
X127000000Y-38000000D01*
X121668000Y-56956000D02*
X122557000Y-57845000D01*
X127000000Y-38000000D02*
X125896000Y-39104000D01*
%TO.N,/SDA*%
X125396000Y-38896000D02*
X125396000Y-41265000D01*
X119890000Y-56384000D02*
X119890000Y-57591000D01*
X120652000Y-57845000D02*
X121245000Y-57845000D01*
X125000000Y-38500000D02*
X125396000Y-38896000D01*
X123300000Y-59900000D02*
X123300000Y-61000000D01*
X121245000Y-57845000D02*
X123300000Y-59900000D01*
X119890000Y-57591000D02*
X120144000Y-57845000D01*
X124600000Y-38500000D02*
X125000000Y-38500000D01*
X124642000Y-36000000D02*
X124642000Y-38458000D01*
X120144000Y-57845000D02*
X120652000Y-57845000D01*
X123300000Y-61000000D02*
X124642000Y-61000000D01*
X124000000Y-38500000D02*
X124600000Y-38500000D01*
X124642000Y-38458000D02*
X124600000Y-38500000D01*
%TO.N,Net-(D1-Pad1)*%
X131320000Y-50987000D02*
X133098000Y-50987000D01*
%TO.N,Net-(D2-Pad1)*%
X131294500Y-52765000D02*
X133099000Y-52765000D01*
%TD*%
%TA.AperFunction,Conductor*%
%TO.N,GND*%
G36*
X141497153Y-34176421D02*
G01*
X141510000Y-34178976D01*
X141522170Y-34176556D01*
X141534581Y-34176556D01*
X141534581Y-34176757D01*
X141545469Y-34175992D01*
X141810393Y-34190870D01*
X141824425Y-34192450D01*
X141969248Y-34217057D01*
X142114066Y-34241663D01*
X142127841Y-34244807D01*
X142214600Y-34269802D01*
X142410156Y-34326141D01*
X142423477Y-34330802D01*
X142694912Y-34443234D01*
X142707635Y-34449361D01*
X142862499Y-34534951D01*
X142964768Y-34591474D01*
X142976731Y-34598991D01*
X143196570Y-34754974D01*
X143216329Y-34768994D01*
X143227376Y-34777803D01*
X143386537Y-34920038D01*
X143446439Y-34973570D01*
X143456429Y-34983560D01*
X143648822Y-35198847D01*
X143652196Y-35202623D01*
X143661006Y-35213671D01*
X143831009Y-35453269D01*
X143838526Y-35465232D01*
X143980637Y-35722361D01*
X143986766Y-35735088D01*
X144099198Y-36006523D01*
X144103859Y-36019844D01*
X144132457Y-36119108D01*
X144185193Y-36302159D01*
X144188337Y-36315934D01*
X144232248Y-36574369D01*
X144237549Y-36605570D01*
X144239130Y-36619607D01*
X144253963Y-36883721D01*
X144254008Y-36884528D01*
X144253243Y-36895419D01*
X144253444Y-36895419D01*
X144253444Y-36907830D01*
X144251024Y-36920000D01*
X144253579Y-36932844D01*
X144256000Y-36957425D01*
X144256000Y-60882575D01*
X144253579Y-60907153D01*
X144251024Y-60920000D01*
X144253444Y-60932170D01*
X144253444Y-60944581D01*
X144253243Y-60944581D01*
X144254008Y-60955469D01*
X144242435Y-61161548D01*
X144239131Y-61220389D01*
X144237550Y-61234425D01*
X144220095Y-61337156D01*
X144188337Y-61524066D01*
X144185193Y-61537841D01*
X144163088Y-61614569D01*
X144103859Y-61820156D01*
X144099198Y-61833477D01*
X143986768Y-62104908D01*
X143980637Y-62117639D01*
X143838526Y-62374768D01*
X143831009Y-62386731D01*
X143661006Y-62626329D01*
X143652196Y-62637377D01*
X143456430Y-62856439D01*
X143446439Y-62866430D01*
X143227377Y-63062196D01*
X143216329Y-63071006D01*
X142976731Y-63241009D01*
X142964768Y-63248526D01*
X142707635Y-63390639D01*
X142694912Y-63396766D01*
X142423477Y-63509198D01*
X142410156Y-63513859D01*
X142214600Y-63570198D01*
X142127841Y-63595193D01*
X142114066Y-63598337D01*
X141969248Y-63622943D01*
X141824425Y-63647550D01*
X141810393Y-63649130D01*
X141545469Y-63664008D01*
X141534581Y-63663243D01*
X141534581Y-63663444D01*
X141522170Y-63663444D01*
X141510000Y-63661024D01*
X141497153Y-63663579D01*
X141472575Y-63666000D01*
X104547425Y-63666000D01*
X104522847Y-63663579D01*
X104510000Y-63661024D01*
X104497830Y-63663444D01*
X104485419Y-63663444D01*
X104485419Y-63663243D01*
X104474531Y-63664008D01*
X104209607Y-63649130D01*
X104195575Y-63647550D01*
X104050752Y-63622943D01*
X103905934Y-63598337D01*
X103892159Y-63595193D01*
X103805400Y-63570198D01*
X103609844Y-63513859D01*
X103596523Y-63509198D01*
X103325088Y-63396766D01*
X103312365Y-63390639D01*
X103055232Y-63248526D01*
X103043269Y-63241009D01*
X102803671Y-63071006D01*
X102792623Y-63062196D01*
X102573561Y-62866430D01*
X102563570Y-62856439D01*
X102367804Y-62637377D01*
X102358994Y-62626329D01*
X102188991Y-62386731D01*
X102181474Y-62374768D01*
X102039363Y-62117639D01*
X102033232Y-62104908D01*
X101920802Y-61833477D01*
X101916141Y-61820156D01*
X101856912Y-61614569D01*
X101834807Y-61537841D01*
X101831663Y-61524066D01*
X101799905Y-61337156D01*
X101782450Y-61234425D01*
X101780869Y-61220389D01*
X101777565Y-61161548D01*
X101765992Y-60955469D01*
X101766757Y-60944581D01*
X101766556Y-60944581D01*
X101766556Y-60932170D01*
X101768976Y-60920000D01*
X101766421Y-60907153D01*
X101764000Y-60882575D01*
X101764000Y-57512480D01*
X103325743Y-57512480D01*
X103326813Y-57518398D01*
X103333913Y-57625597D01*
X103338922Y-57701217D01*
X103340310Y-57722181D01*
X103388899Y-57926634D01*
X103390952Y-57931483D01*
X103390954Y-57931489D01*
X103443015Y-58054450D01*
X103470833Y-58120152D01*
X103583827Y-58297337D01*
X103622867Y-58340535D01*
X103660719Y-58382419D01*
X103724730Y-58453249D01*
X103742164Y-58467025D01*
X103885473Y-58580268D01*
X103885476Y-58580270D01*
X103889613Y-58583539D01*
X103894241Y-58586076D01*
X103894240Y-58586076D01*
X104069255Y-58682041D01*
X104069259Y-58682043D01*
X104073879Y-58684576D01*
X104078857Y-58686305D01*
X104078856Y-58686305D01*
X104267416Y-58751814D01*
X104267420Y-58751815D01*
X104272388Y-58753541D01*
X104370599Y-58770115D01*
X104474407Y-58787634D01*
X104474411Y-58787634D01*
X104479606Y-58788511D01*
X104689754Y-58788511D01*
X104694949Y-58787634D01*
X104694953Y-58787634D01*
X104798761Y-58770115D01*
X104896972Y-58753541D01*
X104901940Y-58751815D01*
X104901944Y-58751814D01*
X105090504Y-58686305D01*
X105090503Y-58686305D01*
X105095481Y-58684576D01*
X105100101Y-58682043D01*
X105100105Y-58682041D01*
X105275120Y-58586076D01*
X105275119Y-58586076D01*
X105279747Y-58583539D01*
X105283884Y-58580270D01*
X105283887Y-58580268D01*
X105427196Y-58467025D01*
X105444630Y-58453249D01*
X105508642Y-58382419D01*
X105546493Y-58340535D01*
X105585533Y-58297337D01*
X105698527Y-58120152D01*
X105726345Y-58054450D01*
X105778406Y-57931489D01*
X105778408Y-57931483D01*
X105780461Y-57926634D01*
X105829050Y-57722181D01*
X105830083Y-57706593D01*
X105841758Y-57530310D01*
X105842547Y-57518398D01*
X105843617Y-57512480D01*
X105840984Y-57500351D01*
X105840928Y-57497169D01*
X105838680Y-57476221D01*
X105838680Y-56441096D01*
X112499729Y-56441096D01*
X112506088Y-56498695D01*
X112515611Y-56584944D01*
X112517113Y-56598553D01*
X112519723Y-56605684D01*
X112519723Y-56605686D01*
X112555230Y-56702713D01*
X112571553Y-56747319D01*
X112575789Y-56753622D01*
X112575789Y-56753623D01*
X112629333Y-56833304D01*
X112659908Y-56878805D01*
X112665527Y-56883918D01*
X112665528Y-56883919D01*
X112738299Y-56950135D01*
X112775222Y-57010775D01*
X112779500Y-57043329D01*
X112779500Y-57655080D01*
X112776951Y-57679028D01*
X112776872Y-57680693D01*
X112774680Y-57690876D01*
X112775904Y-57701217D01*
X112778627Y-57724223D01*
X112778977Y-57730154D01*
X112779072Y-57730146D01*
X112779500Y-57735324D01*
X112779500Y-57740524D01*
X112780354Y-57745653D01*
X112780354Y-57745656D01*
X112782669Y-57759565D01*
X112783506Y-57765443D01*
X112786126Y-57787576D01*
X112789530Y-57816341D01*
X112793493Y-57824593D01*
X112794996Y-57833626D01*
X112818394Y-57876989D01*
X112819334Y-57878732D01*
X112822031Y-57884025D01*
X112840785Y-57923082D01*
X112840788Y-57923086D01*
X112844219Y-57930232D01*
X112847814Y-57934508D01*
X112849737Y-57936431D01*
X112851509Y-57938363D01*
X112851552Y-57938442D01*
X112851428Y-57938555D01*
X112851904Y-57939095D01*
X112854990Y-57944814D01*
X112862635Y-57951881D01*
X112894586Y-57981416D01*
X112898152Y-57984846D01*
X114520106Y-59606800D01*
X114554132Y-59669112D01*
X114549067Y-59739927D01*
X114506520Y-59796763D01*
X114499311Y-59801401D01*
X114495236Y-59802929D01*
X114379596Y-59889596D01*
X114374215Y-59896776D01*
X114298311Y-59998054D01*
X114298309Y-59998057D01*
X114292929Y-60005236D01*
X114242202Y-60140552D01*
X114235500Y-60202244D01*
X114235500Y-61797756D01*
X114242202Y-61859448D01*
X114292929Y-61994764D01*
X114298309Y-62001943D01*
X114298311Y-62001946D01*
X114345999Y-62065576D01*
X114379596Y-62110404D01*
X114386776Y-62115785D01*
X114488054Y-62191689D01*
X114488057Y-62191691D01*
X114495236Y-62197071D01*
X114578196Y-62228171D01*
X114623157Y-62245026D01*
X114623159Y-62245026D01*
X114630552Y-62247798D01*
X114638402Y-62248651D01*
X114638403Y-62248651D01*
X114688847Y-62254131D01*
X114692244Y-62254500D01*
X115287756Y-62254500D01*
X115291153Y-62254131D01*
X115341597Y-62248651D01*
X115341598Y-62248651D01*
X115349448Y-62247798D01*
X115356841Y-62245026D01*
X115356843Y-62245026D01*
X115401804Y-62228171D01*
X115484764Y-62197071D01*
X115491943Y-62191691D01*
X115491946Y-62191689D01*
X115593224Y-62115785D01*
X115600404Y-62110404D01*
X115634001Y-62065576D01*
X115681689Y-62001946D01*
X115681691Y-62001943D01*
X115687071Y-61994764D01*
X115737798Y-61859448D01*
X115744500Y-61797756D01*
X115744500Y-60202244D01*
X115737798Y-60140552D01*
X115687071Y-60005236D01*
X115681691Y-59998057D01*
X115681689Y-59998054D01*
X115605785Y-59896776D01*
X115600404Y-59889596D01*
X115546817Y-59849435D01*
X115491946Y-59808311D01*
X115491943Y-59808309D01*
X115484764Y-59802929D01*
X115451270Y-59790373D01*
X115394506Y-59747731D01*
X115369806Y-59681170D01*
X115369500Y-59672391D01*
X115369500Y-59593920D01*
X115372049Y-59569972D01*
X115372128Y-59568307D01*
X115374320Y-59558124D01*
X115370373Y-59524777D01*
X115370023Y-59518846D01*
X115369928Y-59518854D01*
X115369500Y-59513676D01*
X115369500Y-59508476D01*
X115367734Y-59497865D01*
X115366331Y-59489435D01*
X115365494Y-59483557D01*
X115360694Y-59442999D01*
X115360694Y-59442998D01*
X115359470Y-59432659D01*
X115355507Y-59424407D01*
X115354004Y-59415374D01*
X115329665Y-59370266D01*
X115326969Y-59364975D01*
X115308215Y-59325918D01*
X115308212Y-59325914D01*
X115304781Y-59318768D01*
X115301186Y-59314492D01*
X115299263Y-59312569D01*
X115297491Y-59310637D01*
X115297448Y-59310558D01*
X115297572Y-59310445D01*
X115297096Y-59309905D01*
X115294010Y-59304186D01*
X115254413Y-59267583D01*
X115250848Y-59264154D01*
X113575405Y-57588711D01*
X113541379Y-57526399D01*
X113538500Y-57499616D01*
X113538500Y-57042730D01*
X113558502Y-56974609D01*
X113582669Y-56946919D01*
X113638536Y-56899204D01*
X113644314Y-56894269D01*
X113736755Y-56765624D01*
X113795842Y-56618641D01*
X113818162Y-56461807D01*
X113818307Y-56448000D01*
X113817472Y-56441096D01*
X114150729Y-56441096D01*
X114157088Y-56498695D01*
X114166611Y-56584944D01*
X114168113Y-56598553D01*
X114170723Y-56605684D01*
X114170723Y-56605686D01*
X114206230Y-56702713D01*
X114222553Y-56747319D01*
X114226789Y-56753622D01*
X114226789Y-56753623D01*
X114280333Y-56833304D01*
X114310908Y-56878805D01*
X114316527Y-56883918D01*
X114316528Y-56883919D01*
X114389299Y-56950135D01*
X114426222Y-57010775D01*
X114430500Y-57043329D01*
X114430500Y-57056080D01*
X114427951Y-57080028D01*
X114427872Y-57081693D01*
X114425680Y-57091876D01*
X114426904Y-57102217D01*
X114429627Y-57125223D01*
X114429977Y-57131154D01*
X114430072Y-57131146D01*
X114430500Y-57136324D01*
X114430500Y-57141524D01*
X114431354Y-57146653D01*
X114431354Y-57146656D01*
X114433669Y-57160565D01*
X114434506Y-57166443D01*
X114440530Y-57217341D01*
X114444493Y-57225593D01*
X114445996Y-57234626D01*
X114450943Y-57243795D01*
X114450944Y-57243797D01*
X114470334Y-57279732D01*
X114473031Y-57285025D01*
X114491785Y-57324082D01*
X114491788Y-57324086D01*
X114495219Y-57331232D01*
X114498814Y-57335508D01*
X114500737Y-57337431D01*
X114502509Y-57339363D01*
X114502552Y-57339442D01*
X114502428Y-57339555D01*
X114502904Y-57340095D01*
X114505990Y-57345814D01*
X114513635Y-57352881D01*
X114545586Y-57382416D01*
X114549152Y-57385846D01*
X116784219Y-59620913D01*
X116818245Y-59683225D01*
X116813180Y-59754040D01*
X116770692Y-59810832D01*
X116665596Y-59889596D01*
X116660215Y-59896776D01*
X116584311Y-59998054D01*
X116584309Y-59998057D01*
X116578929Y-60005236D01*
X116528202Y-60140552D01*
X116521500Y-60202244D01*
X116521500Y-61797756D01*
X116528202Y-61859448D01*
X116578929Y-61994764D01*
X116584309Y-62001943D01*
X116584311Y-62001946D01*
X116631999Y-62065576D01*
X116665596Y-62110404D01*
X116672776Y-62115785D01*
X116774054Y-62191689D01*
X116774057Y-62191691D01*
X116781236Y-62197071D01*
X116864196Y-62228171D01*
X116909157Y-62245026D01*
X116909159Y-62245026D01*
X116916552Y-62247798D01*
X116924402Y-62248651D01*
X116924403Y-62248651D01*
X116974847Y-62254131D01*
X116978244Y-62254500D01*
X117573756Y-62254500D01*
X117577153Y-62254131D01*
X117627597Y-62248651D01*
X117627598Y-62248651D01*
X117635448Y-62247798D01*
X117642841Y-62245026D01*
X117642843Y-62245026D01*
X117687804Y-62228171D01*
X117770764Y-62197071D01*
X117777943Y-62191691D01*
X117777946Y-62191689D01*
X117879224Y-62115785D01*
X117886404Y-62110404D01*
X117920001Y-62065576D01*
X117967689Y-62001946D01*
X117967691Y-62001943D01*
X117973071Y-61994764D01*
X118023798Y-61859448D01*
X118030500Y-61797756D01*
X118030500Y-60202244D01*
X118023798Y-60140552D01*
X117973071Y-60005236D01*
X117967691Y-59998057D01*
X117967689Y-59998054D01*
X117891785Y-59896776D01*
X117886404Y-59889596D01*
X117832817Y-59849435D01*
X117777946Y-59808311D01*
X117777943Y-59808309D01*
X117770764Y-59802929D01*
X117737270Y-59790373D01*
X117680506Y-59747731D01*
X117655806Y-59681170D01*
X117655500Y-59672391D01*
X117655500Y-59629925D01*
X117658050Y-59605967D01*
X117658128Y-59604308D01*
X117660321Y-59594124D01*
X117659097Y-59583782D01*
X117659097Y-59583779D01*
X117656374Y-59560779D01*
X117656024Y-59554848D01*
X117655928Y-59554856D01*
X117655500Y-59549680D01*
X117655500Y-59544476D01*
X117652327Y-59525412D01*
X117651496Y-59519566D01*
X117646694Y-59479001D01*
X117645470Y-59468659D01*
X117641507Y-59460407D01*
X117640004Y-59451374D01*
X117628098Y-59429307D01*
X117615666Y-59406268D01*
X117612969Y-59400975D01*
X117594215Y-59361919D01*
X117594214Y-59361918D01*
X117590781Y-59354768D01*
X117587187Y-59350493D01*
X117585262Y-59348568D01*
X117583491Y-59346638D01*
X117583445Y-59346553D01*
X117583568Y-59346441D01*
X117583096Y-59345906D01*
X117580010Y-59340186D01*
X117540413Y-59303583D01*
X117536848Y-59300154D01*
X115301376Y-57064682D01*
X115267350Y-57002370D01*
X115272415Y-56931555D01*
X115295259Y-56894316D01*
X115295314Y-56894269D01*
X115342478Y-56828634D01*
X115398470Y-56784988D01*
X115469173Y-56778542D01*
X115532138Y-56811345D01*
X115549380Y-56831887D01*
X115576668Y-56872497D01*
X115576671Y-56872500D01*
X115580908Y-56878805D01*
X115586527Y-56883918D01*
X115586528Y-56883919D01*
X115680261Y-56969209D01*
X115698076Y-56985419D01*
X115837293Y-57061008D01*
X115990522Y-57101207D01*
X116116261Y-57103182D01*
X116184059Y-57124251D01*
X116203377Y-57140071D01*
X118874911Y-59811605D01*
X118908937Y-59873917D01*
X118903872Y-59944732D01*
X118886642Y-59976265D01*
X118864929Y-60005236D01*
X118814202Y-60140552D01*
X118807500Y-60202244D01*
X118807500Y-61797756D01*
X118814202Y-61859448D01*
X118864929Y-61994764D01*
X118870309Y-62001943D01*
X118870311Y-62001946D01*
X118917999Y-62065576D01*
X118951596Y-62110404D01*
X118958776Y-62115785D01*
X119060054Y-62191689D01*
X119060057Y-62191691D01*
X119067236Y-62197071D01*
X119150196Y-62228171D01*
X119195157Y-62245026D01*
X119195159Y-62245026D01*
X119202552Y-62247798D01*
X119210402Y-62248651D01*
X119210403Y-62248651D01*
X119260847Y-62254131D01*
X119264244Y-62254500D01*
X119859756Y-62254500D01*
X119863153Y-62254131D01*
X119913597Y-62248651D01*
X119913598Y-62248651D01*
X119921448Y-62247798D01*
X119928841Y-62245026D01*
X119928843Y-62245026D01*
X119973804Y-62228171D01*
X120056764Y-62197071D01*
X120063943Y-62191691D01*
X120063946Y-62191689D01*
X120165224Y-62115785D01*
X120172404Y-62110404D01*
X120206001Y-62065576D01*
X120253689Y-62001946D01*
X120253691Y-62001943D01*
X120259071Y-61994764D01*
X120309798Y-61859448D01*
X120316500Y-61797756D01*
X120316500Y-60202244D01*
X120309798Y-60140552D01*
X120259071Y-60005236D01*
X120253691Y-59998057D01*
X120253689Y-59998054D01*
X120177785Y-59896776D01*
X120172404Y-59889596D01*
X120118817Y-59849435D01*
X120063946Y-59808311D01*
X120063943Y-59808309D01*
X120056764Y-59802929D01*
X119921448Y-59752202D01*
X119916876Y-59751705D01*
X119861928Y-59722412D01*
X119826414Y-59689583D01*
X119822848Y-59686154D01*
X116766156Y-56629462D01*
X116732130Y-56567150D01*
X116730508Y-56522614D01*
X116738581Y-56465891D01*
X116738581Y-56465888D01*
X116739162Y-56461807D01*
X116739307Y-56448000D01*
X116720276Y-56290733D01*
X116664280Y-56142546D01*
X116638834Y-56105522D01*
X116578855Y-56018251D01*
X116578854Y-56018249D01*
X116574553Y-56011992D01*
X116564717Y-56003228D01*
X116461946Y-55911664D01*
X116456275Y-55906611D01*
X116448889Y-55902700D01*
X116359260Y-55855244D01*
X116316274Y-55832484D01*
X116162633Y-55793892D01*
X116155034Y-55793852D01*
X116155033Y-55793852D01*
X116089181Y-55793507D01*
X116004221Y-55793062D01*
X115996841Y-55794834D01*
X115996839Y-55794834D01*
X115857563Y-55828271D01*
X115857560Y-55828272D01*
X115850184Y-55830043D01*
X115709414Y-55902700D01*
X115590039Y-56006838D01*
X115585672Y-56013052D01*
X115585669Y-56013055D01*
X115548153Y-56066435D01*
X115492619Y-56110667D01*
X115421987Y-56117853D01*
X115358682Y-56085712D01*
X115341226Y-56065352D01*
X115331734Y-56051540D01*
X115328415Y-56046711D01*
X115308855Y-56018251D01*
X115308854Y-56018249D01*
X115304553Y-56011992D01*
X115294717Y-56003228D01*
X115191946Y-55911664D01*
X115186275Y-55906611D01*
X115178889Y-55902700D01*
X115089260Y-55855244D01*
X115046274Y-55832484D01*
X114892633Y-55793892D01*
X114885034Y-55793852D01*
X114885033Y-55793852D01*
X114819181Y-55793507D01*
X114734221Y-55793062D01*
X114726841Y-55794834D01*
X114726839Y-55794834D01*
X114587563Y-55828271D01*
X114587560Y-55828272D01*
X114580184Y-55830043D01*
X114439414Y-55902700D01*
X114320039Y-56006838D01*
X114228950Y-56136444D01*
X114217984Y-56164571D01*
X114174626Y-56275779D01*
X114171406Y-56284037D01*
X114170414Y-56291570D01*
X114170414Y-56291571D01*
X114153630Y-56419063D01*
X114150729Y-56441096D01*
X113817472Y-56441096D01*
X113799276Y-56290733D01*
X113743280Y-56142546D01*
X113717834Y-56105522D01*
X113657855Y-56018251D01*
X113657854Y-56018249D01*
X113653553Y-56011992D01*
X113643717Y-56003228D01*
X113540946Y-55911664D01*
X113535275Y-55906611D01*
X113527889Y-55902700D01*
X113438260Y-55855244D01*
X113395274Y-55832484D01*
X113241633Y-55793892D01*
X113234034Y-55793852D01*
X113234033Y-55793852D01*
X113168181Y-55793507D01*
X113083221Y-55793062D01*
X113075841Y-55794834D01*
X113075839Y-55794834D01*
X112936563Y-55828271D01*
X112936560Y-55828272D01*
X112929184Y-55830043D01*
X112788414Y-55902700D01*
X112669039Y-56006838D01*
X112577950Y-56136444D01*
X112566984Y-56164571D01*
X112523626Y-56275779D01*
X112520406Y-56284037D01*
X112519414Y-56291570D01*
X112519414Y-56291571D01*
X112502630Y-56419063D01*
X112499729Y-56441096D01*
X105838680Y-56441096D01*
X105838680Y-45825000D01*
X106434514Y-45825000D01*
X106454266Y-45924301D01*
X106510516Y-46008484D01*
X106594699Y-46064734D01*
X106694000Y-46084486D01*
X108194000Y-46084486D01*
X108293301Y-46064734D01*
X108377484Y-46008484D01*
X108433734Y-45924301D01*
X108453486Y-45825000D01*
X108453486Y-45818812D01*
X108453551Y-45818152D01*
X108480132Y-45752319D01*
X108538086Y-45711308D01*
X108578944Y-45704500D01*
X109865056Y-45704500D01*
X109933177Y-45724502D01*
X109979670Y-45778158D01*
X109990449Y-45818152D01*
X109990514Y-45818812D01*
X109990514Y-45825000D01*
X110010266Y-45924301D01*
X110066516Y-46008484D01*
X110150699Y-46064734D01*
X110250000Y-46084486D01*
X111750000Y-46084486D01*
X111849301Y-46064734D01*
X111933484Y-46008484D01*
X111989734Y-45924301D01*
X112009486Y-45825000D01*
X112009486Y-45818812D01*
X112009551Y-45818152D01*
X112036132Y-45752319D01*
X112094086Y-45711308D01*
X112134944Y-45704500D01*
X113421056Y-45704500D01*
X113489177Y-45724502D01*
X113535670Y-45778158D01*
X113546449Y-45818152D01*
X113546514Y-45818812D01*
X113546514Y-45825000D01*
X113566266Y-45924301D01*
X113622516Y-46008484D01*
X113706699Y-46064734D01*
X113806000Y-46084486D01*
X115306000Y-46084486D01*
X115405301Y-46064734D01*
X115489484Y-46008484D01*
X115545734Y-45924301D01*
X115561922Y-45842918D01*
X115594830Y-45780009D01*
X115656525Y-45744877D01*
X115685501Y-45741500D01*
X116977056Y-45741500D01*
X117045177Y-45761502D01*
X117091670Y-45815158D01*
X117102449Y-45855152D01*
X117102514Y-45855812D01*
X117102514Y-45862000D01*
X117122266Y-45961301D01*
X117178516Y-46045484D01*
X117262699Y-46101734D01*
X117362000Y-46121486D01*
X117606500Y-46121486D01*
X117674621Y-46141488D01*
X117721114Y-46195144D01*
X117732500Y-46247486D01*
X117732500Y-46869080D01*
X117729951Y-46893028D01*
X117729872Y-46894693D01*
X117727680Y-46904876D01*
X117728904Y-46915217D01*
X117731627Y-46938223D01*
X117731977Y-46944154D01*
X117732072Y-46944146D01*
X117732500Y-46949324D01*
X117732500Y-46954524D01*
X117733354Y-46959653D01*
X117733354Y-46959656D01*
X117735669Y-46973565D01*
X117736506Y-46979443D01*
X117741239Y-47019429D01*
X117742530Y-47030341D01*
X117746493Y-47038593D01*
X117747996Y-47047626D01*
X117752943Y-47056795D01*
X117752944Y-47056797D01*
X117772334Y-47092732D01*
X117775031Y-47098025D01*
X117793785Y-47137082D01*
X117793788Y-47137086D01*
X117797219Y-47144232D01*
X117800814Y-47148508D01*
X117802737Y-47150431D01*
X117804509Y-47152363D01*
X117804552Y-47152442D01*
X117804428Y-47152555D01*
X117804904Y-47153095D01*
X117807990Y-47158814D01*
X117815635Y-47165881D01*
X117847586Y-47195416D01*
X117851152Y-47198846D01*
X123393522Y-52741216D01*
X123408664Y-52759964D01*
X123409779Y-52761189D01*
X123415429Y-52769940D01*
X123423607Y-52776387D01*
X123423609Y-52776389D01*
X123441800Y-52790729D01*
X123446244Y-52794678D01*
X123446306Y-52794604D01*
X123450263Y-52797957D01*
X123453944Y-52801638D01*
X123469654Y-52812865D01*
X123474380Y-52816413D01*
X123514647Y-52848156D01*
X123523284Y-52851189D01*
X123530734Y-52856513D01*
X123540710Y-52859497D01*
X123540711Y-52859497D01*
X123556046Y-52864083D01*
X123579849Y-52871202D01*
X123585486Y-52873034D01*
X123626199Y-52887331D01*
X123633851Y-52890018D01*
X123639416Y-52890500D01*
X123642124Y-52890500D01*
X123644758Y-52890614D01*
X123644856Y-52890643D01*
X123644849Y-52890807D01*
X123645553Y-52890851D01*
X123651778Y-52892713D01*
X123705635Y-52890597D01*
X123710582Y-52890500D01*
X125424080Y-52890500D01*
X125448028Y-52893049D01*
X125449693Y-52893128D01*
X125459876Y-52895320D01*
X125470217Y-52894096D01*
X125493223Y-52891373D01*
X125499154Y-52891023D01*
X125499146Y-52890928D01*
X125504324Y-52890500D01*
X125509524Y-52890500D01*
X125514653Y-52889646D01*
X125514656Y-52889646D01*
X125528565Y-52887331D01*
X125534443Y-52886494D01*
X125575001Y-52881694D01*
X125575002Y-52881694D01*
X125585341Y-52880470D01*
X125593593Y-52876507D01*
X125602626Y-52875004D01*
X125611795Y-52870057D01*
X125611797Y-52870056D01*
X125647732Y-52850666D01*
X125653025Y-52847969D01*
X125692082Y-52829215D01*
X125692086Y-52829212D01*
X125699232Y-52825781D01*
X125703508Y-52822186D01*
X125705431Y-52820263D01*
X125707363Y-52818491D01*
X125707442Y-52818448D01*
X125707555Y-52818572D01*
X125708095Y-52818096D01*
X125713814Y-52815010D01*
X125750417Y-52775413D01*
X125753846Y-52771848D01*
X125833405Y-52692289D01*
X125895717Y-52658263D01*
X125966532Y-52663328D01*
X126011595Y-52692289D01*
X126085434Y-52766128D01*
X126114665Y-52811923D01*
X126157941Y-52930183D01*
X126157943Y-52930187D01*
X126160553Y-52937319D01*
X126164789Y-52943622D01*
X126164789Y-52943623D01*
X126219382Y-53024865D01*
X126248908Y-53068805D01*
X126254527Y-53073918D01*
X126254528Y-53073919D01*
X126360460Y-53170309D01*
X126366076Y-53175419D01*
X126505293Y-53251008D01*
X126658522Y-53291207D01*
X126742477Y-53292526D01*
X126809319Y-53293576D01*
X126809322Y-53293576D01*
X126816916Y-53293695D01*
X126971332Y-53258329D01*
X127051204Y-53218158D01*
X127106072Y-53190563D01*
X127106075Y-53190561D01*
X127112855Y-53187151D01*
X127118626Y-53182222D01*
X127118629Y-53182220D01*
X127227536Y-53089204D01*
X127227536Y-53089203D01*
X127233314Y-53084269D01*
X127325755Y-52955624D01*
X127384842Y-52808641D01*
X127401401Y-52692289D01*
X127406581Y-52655891D01*
X127406581Y-52655888D01*
X127407162Y-52651807D01*
X127407307Y-52638000D01*
X127388276Y-52480733D01*
X127332280Y-52332546D01*
X127242553Y-52201992D01*
X127124275Y-52096611D01*
X126984274Y-52022484D01*
X126830633Y-51983892D01*
X126823034Y-51983852D01*
X126823033Y-51983852D01*
X126787905Y-51983668D01*
X126737062Y-51983402D01*
X126669048Y-51963044D01*
X126622837Y-51909145D01*
X126613101Y-51838819D01*
X126615168Y-51830474D01*
X126614723Y-51830378D01*
X126616391Y-51822628D01*
X126619018Y-51815149D01*
X126619500Y-51809584D01*
X126619500Y-51806876D01*
X126619614Y-51804242D01*
X126619643Y-51804144D01*
X126619807Y-51804151D01*
X126619851Y-51803447D01*
X126621713Y-51797222D01*
X126619597Y-51743365D01*
X126619500Y-51738418D01*
X126619500Y-51408969D01*
X126639502Y-51340848D01*
X126693158Y-51294355D01*
X126763432Y-51284251D01*
X126811616Y-51301709D01*
X126941880Y-51382004D01*
X126955061Y-51388151D01*
X127103814Y-51437491D01*
X127117190Y-51440358D01*
X127208097Y-51449672D01*
X127214513Y-51450000D01*
X127237885Y-51450000D01*
X127253124Y-51445525D01*
X127254329Y-51444135D01*
X127256000Y-51436452D01*
X127256000Y-50364000D01*
X127276002Y-50295879D01*
X127329658Y-50249386D01*
X127382000Y-50238000D01*
X127638000Y-50238000D01*
X127706121Y-50258002D01*
X127752614Y-50311658D01*
X127764000Y-50364000D01*
X127764000Y-51431885D01*
X127768475Y-51447124D01*
X127769865Y-51448329D01*
X127777548Y-51450000D01*
X127805438Y-51450000D01*
X127811953Y-51449663D01*
X127904057Y-51440106D01*
X127917456Y-51437212D01*
X128066107Y-51387619D01*
X128079284Y-51381446D01*
X128081201Y-51380260D01*
X128082691Y-51379850D01*
X128085906Y-51378344D01*
X128086164Y-51378894D01*
X128149654Y-51361425D01*
X128217423Y-51382589D01*
X128262992Y-51437031D01*
X128273500Y-51487407D01*
X128273500Y-53911514D01*
X128253498Y-53979635D01*
X128199842Y-54026128D01*
X128147500Y-54037514D01*
X127522000Y-54037514D01*
X127422699Y-54057266D01*
X127338516Y-54113516D01*
X127282266Y-54197699D01*
X127262514Y-54297000D01*
X127262514Y-54328500D01*
X127242512Y-54396621D01*
X127188856Y-54443114D01*
X127136514Y-54454500D01*
X126612944Y-54454500D01*
X126544823Y-54434498D01*
X126498330Y-54380842D01*
X126487551Y-54340848D01*
X126487486Y-54340187D01*
X126487486Y-54334000D01*
X126467734Y-54234699D01*
X126411484Y-54150516D01*
X126327301Y-54094266D01*
X126228000Y-54074514D01*
X124728000Y-54074514D01*
X124628699Y-54094266D01*
X124544516Y-54150516D01*
X124488266Y-54234699D01*
X124468514Y-54334000D01*
X124468514Y-55334000D01*
X124473553Y-55384889D01*
X124488609Y-55421129D01*
X124493253Y-55432308D01*
X124500915Y-55502890D01*
X124494192Y-55525830D01*
X124488266Y-55534699D01*
X124485846Y-55546868D01*
X124485845Y-55546869D01*
X124476860Y-55592042D01*
X124468514Y-55634000D01*
X124468514Y-55740630D01*
X124448512Y-55808751D01*
X124394856Y-55855244D01*
X124324582Y-55865348D01*
X124260002Y-55835854D01*
X124253419Y-55829725D01*
X122927478Y-54503784D01*
X122912336Y-54485036D01*
X122911221Y-54483811D01*
X122905571Y-54475060D01*
X122897393Y-54468613D01*
X122897391Y-54468611D01*
X122879200Y-54454271D01*
X122874759Y-54450325D01*
X122874697Y-54450398D01*
X122870733Y-54447039D01*
X122867056Y-54443362D01*
X122851308Y-54432108D01*
X122846638Y-54428602D01*
X122806353Y-54396844D01*
X122797719Y-54393812D01*
X122790266Y-54388486D01*
X122741150Y-54373797D01*
X122735508Y-54371964D01*
X122694633Y-54357610D01*
X122694632Y-54357610D01*
X122687149Y-54354982D01*
X122681584Y-54354500D01*
X122678876Y-54354500D01*
X122676242Y-54354386D01*
X122676144Y-54354357D01*
X122676151Y-54354193D01*
X122675447Y-54354149D01*
X122669222Y-54352287D01*
X122615365Y-54354403D01*
X122610418Y-54354500D01*
X122439064Y-54354500D01*
X122370943Y-54334498D01*
X122337713Y-54303359D01*
X122273605Y-54216564D01*
X122273602Y-54216561D01*
X122268010Y-54208990D01*
X122158076Y-54127791D01*
X122029127Y-54082507D01*
X122021485Y-54081785D01*
X122021482Y-54081784D01*
X122006579Y-54080376D01*
X121997315Y-54079500D01*
X121668223Y-54079500D01*
X121338686Y-54079501D01*
X121335738Y-54079780D01*
X121335729Y-54079780D01*
X121314522Y-54081784D01*
X121314520Y-54081784D01*
X121306873Y-54082507D01*
X121177924Y-54127791D01*
X121067990Y-54208990D01*
X121062398Y-54216561D01*
X121062395Y-54216564D01*
X120998287Y-54303359D01*
X120941726Y-54346270D01*
X120896936Y-54354500D01*
X120661064Y-54354500D01*
X120592943Y-54334498D01*
X120559713Y-54303359D01*
X120495605Y-54216564D01*
X120495602Y-54216561D01*
X120490010Y-54208990D01*
X120380076Y-54127791D01*
X120251127Y-54082507D01*
X120243485Y-54081785D01*
X120243482Y-54081784D01*
X120228579Y-54080376D01*
X120219315Y-54079500D01*
X119890223Y-54079500D01*
X119560686Y-54079501D01*
X119557738Y-54079780D01*
X119557729Y-54079780D01*
X119536522Y-54081784D01*
X119536520Y-54081784D01*
X119528873Y-54082507D01*
X119399924Y-54127791D01*
X119289990Y-54208990D01*
X119208791Y-54318924D01*
X119163507Y-54447873D01*
X119162785Y-54455515D01*
X119162784Y-54455518D01*
X119162721Y-54456187D01*
X119160500Y-54479685D01*
X119160501Y-54988314D01*
X119163507Y-55020127D01*
X119208791Y-55149076D01*
X119289990Y-55259010D01*
X119399924Y-55340209D01*
X119528873Y-55385493D01*
X119536515Y-55386215D01*
X119536518Y-55386216D01*
X119551421Y-55387624D01*
X119560685Y-55388500D01*
X119889777Y-55388500D01*
X120219314Y-55388499D01*
X120222262Y-55388220D01*
X120222271Y-55388220D01*
X120243478Y-55386216D01*
X120243480Y-55386216D01*
X120251127Y-55385493D01*
X120380076Y-55340209D01*
X120490010Y-55259010D01*
X120495602Y-55251439D01*
X120495605Y-55251436D01*
X120559713Y-55164641D01*
X120616274Y-55121730D01*
X120661064Y-55113500D01*
X120896936Y-55113500D01*
X120965057Y-55133502D01*
X120998287Y-55164641D01*
X121062395Y-55251436D01*
X121062398Y-55251439D01*
X121067990Y-55259010D01*
X121177924Y-55340209D01*
X121306873Y-55385493D01*
X121314515Y-55386215D01*
X121314518Y-55386216D01*
X121329421Y-55387624D01*
X121338685Y-55388500D01*
X121667777Y-55388500D01*
X121997314Y-55388499D01*
X122000262Y-55388220D01*
X122000271Y-55388220D01*
X122021478Y-55386216D01*
X122021480Y-55386216D01*
X122029127Y-55385493D01*
X122158076Y-55340209D01*
X122268010Y-55259010D01*
X122326053Y-55180426D01*
X122382613Y-55137517D01*
X122453394Y-55131997D01*
X122516498Y-55166192D01*
X123901522Y-56551216D01*
X123916664Y-56569964D01*
X123917779Y-56571189D01*
X123923429Y-56579940D01*
X123931607Y-56586387D01*
X123931609Y-56586389D01*
X123949800Y-56600729D01*
X123954241Y-56604675D01*
X123954303Y-56604602D01*
X123958267Y-56607961D01*
X123961944Y-56611638D01*
X123977692Y-56622892D01*
X123982362Y-56626398D01*
X124022647Y-56658156D01*
X124031281Y-56661188D01*
X124038734Y-56666514D01*
X124087850Y-56681203D01*
X124093492Y-56683036D01*
X124130204Y-56695928D01*
X124141851Y-56700018D01*
X124147416Y-56700500D01*
X124150124Y-56700500D01*
X124152758Y-56700614D01*
X124152856Y-56700643D01*
X124152849Y-56700807D01*
X124153553Y-56700851D01*
X124159778Y-56702713D01*
X124213635Y-56700597D01*
X124218582Y-56700500D01*
X124348499Y-56700500D01*
X124416620Y-56720502D01*
X124463113Y-56774158D01*
X124472078Y-56801918D01*
X124488266Y-56883301D01*
X124544516Y-56967484D01*
X124628699Y-57023734D01*
X124728000Y-57043486D01*
X125357602Y-57043486D01*
X125425723Y-57063488D01*
X125446697Y-57080391D01*
X125641694Y-57275388D01*
X125675720Y-57337700D01*
X125670655Y-57408515D01*
X125628108Y-57465351D01*
X125561588Y-57490162D01*
X125516529Y-57485209D01*
X125515141Y-57484794D01*
X125509508Y-57482964D01*
X125468633Y-57468610D01*
X125468632Y-57468610D01*
X125461149Y-57465982D01*
X125455584Y-57465500D01*
X125452876Y-57465500D01*
X125450242Y-57465386D01*
X125450144Y-57465357D01*
X125450151Y-57465193D01*
X125449447Y-57465149D01*
X125443222Y-57463287D01*
X125389365Y-57465403D01*
X125384418Y-57465500D01*
X123156682Y-57465500D01*
X123088561Y-57445498D01*
X123062114Y-57419860D01*
X123060878Y-57420949D01*
X123055855Y-57415251D01*
X123051553Y-57408992D01*
X122933275Y-57303611D01*
X122925889Y-57299700D01*
X122805730Y-57236079D01*
X122793274Y-57229484D01*
X122639633Y-57190892D01*
X122632034Y-57190852D01*
X122632033Y-57190852D01*
X122571626Y-57190536D01*
X122490335Y-57190110D01*
X122422321Y-57169752D01*
X122401901Y-57153207D01*
X122297851Y-57049157D01*
X122263825Y-56986845D01*
X122268890Y-56916030D01*
X122285595Y-56885202D01*
X122294979Y-56872497D01*
X122349209Y-56799076D01*
X122394493Y-56670127D01*
X122395219Y-56662454D01*
X122396888Y-56644793D01*
X122397500Y-56638315D01*
X122397499Y-56129686D01*
X122394493Y-56097873D01*
X122349209Y-55968924D01*
X122268010Y-55858990D01*
X122158076Y-55777791D01*
X122029127Y-55732507D01*
X122021485Y-55731785D01*
X122021482Y-55731784D01*
X122006579Y-55730376D01*
X121997315Y-55729500D01*
X121668223Y-55729500D01*
X121338686Y-55729501D01*
X121335738Y-55729780D01*
X121335729Y-55729780D01*
X121314522Y-55731784D01*
X121314520Y-55731784D01*
X121306873Y-55732507D01*
X121177924Y-55777791D01*
X121067990Y-55858990D01*
X120986791Y-55968924D01*
X120941507Y-56097873D01*
X120940785Y-56105515D01*
X120940784Y-56105518D01*
X120939618Y-56117853D01*
X120938500Y-56129685D01*
X120938501Y-56638314D01*
X120938780Y-56641262D01*
X120938780Y-56641271D01*
X120940782Y-56662454D01*
X120941507Y-56670127D01*
X120986791Y-56799076D01*
X121067990Y-56909010D01*
X121177924Y-56990209D01*
X121186808Y-56993329D01*
X121186812Y-56993331D01*
X121230431Y-57008648D01*
X121288076Y-57050091D01*
X121303731Y-57079032D01*
X121303996Y-57080626D01*
X121318188Y-57106928D01*
X121328334Y-57125732D01*
X121331031Y-57131025D01*
X121349785Y-57170082D01*
X121349788Y-57170086D01*
X121353219Y-57177232D01*
X121356814Y-57181508D01*
X121358737Y-57183431D01*
X121360509Y-57185363D01*
X121360552Y-57185442D01*
X121360428Y-57185555D01*
X121360904Y-57186095D01*
X121363990Y-57191814D01*
X121371635Y-57198881D01*
X121403586Y-57228416D01*
X121407152Y-57231846D01*
X121430928Y-57255622D01*
X121464954Y-57317934D01*
X121459889Y-57388749D01*
X121417342Y-57445585D01*
X121350822Y-57470396D01*
X121316918Y-57468008D01*
X121311149Y-57465982D01*
X121305584Y-57465500D01*
X121302876Y-57465500D01*
X121300242Y-57465386D01*
X121300144Y-57465357D01*
X121300151Y-57465193D01*
X121299447Y-57465149D01*
X121293222Y-57463287D01*
X121256174Y-57464743D01*
X121187322Y-57447431D01*
X121157438Y-57419574D01*
X121155878Y-57420949D01*
X121150855Y-57415251D01*
X121146553Y-57408992D01*
X121028275Y-57303611D01*
X121020889Y-57299700D01*
X120900730Y-57236079D01*
X120888274Y-57229484D01*
X120734633Y-57190892D01*
X120727034Y-57190852D01*
X120727033Y-57190852D01*
X120661181Y-57190507D01*
X120576221Y-57190062D01*
X120568841Y-57191834D01*
X120568839Y-57191834D01*
X120488283Y-57211174D01*
X120417375Y-57207627D01*
X120359641Y-57166307D01*
X120333411Y-57100333D01*
X120347013Y-57030652D01*
X120384009Y-56987304D01*
X120393479Y-56980309D01*
X120490010Y-56909010D01*
X120571209Y-56799076D01*
X120616493Y-56670127D01*
X120617219Y-56662454D01*
X120618888Y-56644793D01*
X120619500Y-56638315D01*
X120619499Y-56129686D01*
X120616493Y-56097873D01*
X120571209Y-55968924D01*
X120490010Y-55858990D01*
X120380076Y-55777791D01*
X120251127Y-55732507D01*
X120243485Y-55731785D01*
X120243482Y-55731784D01*
X120228579Y-55730376D01*
X120219315Y-55729500D01*
X119890223Y-55729500D01*
X119560686Y-55729501D01*
X119557738Y-55729780D01*
X119557729Y-55729780D01*
X119536522Y-55731784D01*
X119536520Y-55731784D01*
X119528873Y-55732507D01*
X119399924Y-55777791D01*
X119289990Y-55858990D01*
X119208791Y-55968924D01*
X119163507Y-56097873D01*
X119162785Y-56105515D01*
X119162784Y-56105518D01*
X119161618Y-56117853D01*
X119160500Y-56129685D01*
X119160501Y-56638314D01*
X119160780Y-56641262D01*
X119160780Y-56641271D01*
X119162782Y-56662454D01*
X119163507Y-56670127D01*
X119208791Y-56799076D01*
X119289990Y-56909010D01*
X119399924Y-56990209D01*
X119426250Y-56999454D01*
X119483895Y-57040898D01*
X119509982Y-57106928D01*
X119510500Y-57118336D01*
X119510500Y-57519616D01*
X119490498Y-57587737D01*
X119436842Y-57634230D01*
X119366568Y-57644334D01*
X119301988Y-57614840D01*
X119295405Y-57608711D01*
X118613068Y-56926374D01*
X118579042Y-56864062D01*
X118584107Y-56793247D01*
X118599839Y-56763756D01*
X118689755Y-56638624D01*
X118748842Y-56491641D01*
X118771162Y-56334807D01*
X118771307Y-56321000D01*
X118752276Y-56163733D01*
X118696280Y-56015546D01*
X118622152Y-55907689D01*
X118610855Y-55891251D01*
X118610854Y-55891249D01*
X118606553Y-55884992D01*
X118488275Y-55779611D01*
X118480889Y-55775700D01*
X118354988Y-55709039D01*
X118354989Y-55709039D01*
X118348274Y-55705484D01*
X118194633Y-55666892D01*
X118187034Y-55666852D01*
X118187033Y-55666852D01*
X118121181Y-55666507D01*
X118036221Y-55666062D01*
X118028841Y-55667834D01*
X118028839Y-55667834D01*
X117889563Y-55701271D01*
X117889560Y-55701272D01*
X117882184Y-55703043D01*
X117741414Y-55775700D01*
X117622039Y-55879838D01*
X117530950Y-56009444D01*
X117508730Y-56066435D01*
X117479056Y-56142546D01*
X117473406Y-56157037D01*
X117472414Y-56164570D01*
X117472414Y-56164571D01*
X117455805Y-56290733D01*
X117452729Y-56314096D01*
X117461421Y-56392824D01*
X117468582Y-56457682D01*
X117470113Y-56471553D01*
X117472723Y-56478684D01*
X117472723Y-56478686D01*
X117521185Y-56611115D01*
X117524553Y-56620319D01*
X117528789Y-56626622D01*
X117528789Y-56626623D01*
X117605100Y-56740185D01*
X117612908Y-56751805D01*
X117689816Y-56821785D01*
X117726737Y-56882425D01*
X117727739Y-56923169D01*
X117730363Y-56923293D01*
X117729872Y-56933694D01*
X117727680Y-56943876D01*
X117728904Y-56954217D01*
X117731627Y-56977223D01*
X117731977Y-56983154D01*
X117732072Y-56983146D01*
X117732500Y-56988324D01*
X117732500Y-56993524D01*
X117733354Y-56998653D01*
X117733354Y-56998656D01*
X117735669Y-57012565D01*
X117736506Y-57018443D01*
X117740961Y-57056080D01*
X117742530Y-57069341D01*
X117746493Y-57077593D01*
X117747996Y-57086626D01*
X117752943Y-57095795D01*
X117752944Y-57095797D01*
X117769881Y-57127186D01*
X117771953Y-57131025D01*
X117772334Y-57131732D01*
X117775031Y-57137025D01*
X117793785Y-57176082D01*
X117793788Y-57176086D01*
X117797219Y-57183232D01*
X117800814Y-57187508D01*
X117802737Y-57189431D01*
X117804509Y-57191363D01*
X117804552Y-57191442D01*
X117804428Y-57191555D01*
X117804904Y-57192095D01*
X117807990Y-57197814D01*
X117815635Y-57204881D01*
X117847586Y-57234416D01*
X117851152Y-57237846D01*
X120143522Y-59530216D01*
X120158664Y-59548964D01*
X120159779Y-59550189D01*
X120165429Y-59558940D01*
X120173607Y-59565387D01*
X120173609Y-59565389D01*
X120191800Y-59579729D01*
X120196244Y-59583678D01*
X120196306Y-59583604D01*
X120200263Y-59586957D01*
X120203944Y-59590638D01*
X120219654Y-59601865D01*
X120224380Y-59605413D01*
X120264647Y-59637156D01*
X120273284Y-59640189D01*
X120280734Y-59645513D01*
X120290710Y-59648497D01*
X120290711Y-59648497D01*
X120306046Y-59653083D01*
X120329849Y-59660202D01*
X120335486Y-59662034D01*
X120373551Y-59675401D01*
X120383851Y-59679018D01*
X120389416Y-59679500D01*
X120392124Y-59679500D01*
X120394758Y-59679614D01*
X120394856Y-59679643D01*
X120394849Y-59679807D01*
X120395553Y-59679851D01*
X120401778Y-59681713D01*
X120455635Y-59679597D01*
X120460582Y-59679500D01*
X121145301Y-59679500D01*
X121213422Y-59699502D01*
X121259915Y-59753158D01*
X121270019Y-59823432D01*
X121240949Y-59887083D01*
X121237596Y-59889596D01*
X121232215Y-59896776D01*
X121156311Y-59998054D01*
X121156309Y-59998057D01*
X121150929Y-60005236D01*
X121100202Y-60140552D01*
X121093500Y-60202244D01*
X121093500Y-61797756D01*
X121100202Y-61859448D01*
X121150929Y-61994764D01*
X121156309Y-62001943D01*
X121156311Y-62001946D01*
X121203999Y-62065576D01*
X121237596Y-62110404D01*
X121244776Y-62115785D01*
X121346054Y-62191689D01*
X121346057Y-62191691D01*
X121353236Y-62197071D01*
X121436196Y-62228171D01*
X121481157Y-62245026D01*
X121481159Y-62245026D01*
X121488552Y-62247798D01*
X121496402Y-62248651D01*
X121496403Y-62248651D01*
X121546847Y-62254131D01*
X121550244Y-62254500D01*
X122145756Y-62254500D01*
X122149153Y-62254131D01*
X122199597Y-62248651D01*
X122199598Y-62248651D01*
X122207448Y-62247798D01*
X122214841Y-62245026D01*
X122214843Y-62245026D01*
X122259804Y-62228171D01*
X122342764Y-62197071D01*
X122349943Y-62191691D01*
X122349946Y-62191689D01*
X122451224Y-62115785D01*
X122458404Y-62110404D01*
X122492001Y-62065576D01*
X122539689Y-62001946D01*
X122539691Y-62001943D01*
X122545071Y-61994764D01*
X122595798Y-61859448D01*
X122602500Y-61797756D01*
X122602500Y-60202244D01*
X122595798Y-60140552D01*
X122575873Y-60087400D01*
X122555224Y-60032319D01*
X122550041Y-59961512D01*
X122583962Y-59899143D01*
X122646218Y-59865014D01*
X122717042Y-59869961D01*
X122762301Y-59898995D01*
X122883595Y-60020289D01*
X122917621Y-60082601D01*
X122920500Y-60109384D01*
X122920500Y-60977854D01*
X122920030Y-60988726D01*
X122916439Y-61030187D01*
X122918950Y-61040295D01*
X122926880Y-61072219D01*
X122928886Y-61081906D01*
X122935996Y-61124626D01*
X122940942Y-61133793D01*
X122942485Y-61138300D01*
X122944386Y-61142693D01*
X122946897Y-61152801D01*
X122952545Y-61161548D01*
X122970392Y-61189188D01*
X122975415Y-61197681D01*
X122995990Y-61235814D01*
X123003641Y-61242886D01*
X123006566Y-61246657D01*
X123009778Y-61250187D01*
X123015429Y-61258940D01*
X123049459Y-61285767D01*
X123056953Y-61292167D01*
X123088765Y-61321574D01*
X123098295Y-61325787D01*
X123102292Y-61328412D01*
X123106469Y-61330708D01*
X123114647Y-61337156D01*
X123124471Y-61340606D01*
X123155513Y-61351507D01*
X123164713Y-61355150D01*
X123194791Y-61368448D01*
X123194793Y-61368449D01*
X123204317Y-61372659D01*
X123214694Y-61373558D01*
X123222390Y-61375534D01*
X123226370Y-61376391D01*
X123233851Y-61379018D01*
X123239416Y-61379500D01*
X123277854Y-61379500D01*
X123288727Y-61379970D01*
X123330187Y-61383561D01*
X123340295Y-61381050D01*
X123350678Y-61380233D01*
X123350728Y-61380873D01*
X123361952Y-61379500D01*
X123761500Y-61379500D01*
X123829621Y-61399502D01*
X123876114Y-61453158D01*
X123887500Y-61505500D01*
X123887500Y-61797756D01*
X123894202Y-61859448D01*
X123944929Y-61994764D01*
X123950309Y-62001943D01*
X123950311Y-62001946D01*
X123997999Y-62065576D01*
X124031596Y-62110404D01*
X124038776Y-62115785D01*
X124140054Y-62191689D01*
X124140057Y-62191691D01*
X124147236Y-62197071D01*
X124230196Y-62228171D01*
X124275157Y-62245026D01*
X124275159Y-62245026D01*
X124282552Y-62247798D01*
X124290402Y-62248651D01*
X124290403Y-62248651D01*
X124340847Y-62254131D01*
X124344244Y-62254500D01*
X124939756Y-62254500D01*
X124943153Y-62254131D01*
X124993597Y-62248651D01*
X124993598Y-62248651D01*
X125001448Y-62247798D01*
X125008841Y-62245026D01*
X125008843Y-62245026D01*
X125053804Y-62228171D01*
X125136764Y-62197071D01*
X125143943Y-62191691D01*
X125143946Y-62191689D01*
X125245224Y-62115785D01*
X125252404Y-62110404D01*
X125286001Y-62065576D01*
X125333689Y-62001946D01*
X125333691Y-62001943D01*
X125339071Y-61994764D01*
X125389798Y-61859448D01*
X125396500Y-61797756D01*
X125396500Y-60202244D01*
X125389798Y-60140552D01*
X125339071Y-60005236D01*
X125333691Y-59998057D01*
X125333689Y-59998054D01*
X125257785Y-59896776D01*
X125252404Y-59889596D01*
X125198817Y-59849435D01*
X125143946Y-59808311D01*
X125143943Y-59808309D01*
X125136764Y-59802929D01*
X125008848Y-59754976D01*
X125008843Y-59754974D01*
X125008841Y-59754974D01*
X125001448Y-59752202D01*
X124993598Y-59751349D01*
X124993597Y-59751349D01*
X124943153Y-59745869D01*
X124943152Y-59745869D01*
X124939756Y-59745500D01*
X124344244Y-59745500D01*
X124340848Y-59745869D01*
X124340847Y-59745869D01*
X124290403Y-59751349D01*
X124290402Y-59751349D01*
X124282552Y-59752202D01*
X124275159Y-59754974D01*
X124275157Y-59754974D01*
X124275152Y-59754976D01*
X124147236Y-59802929D01*
X124140057Y-59808309D01*
X124140054Y-59808311D01*
X124085183Y-59849435D01*
X124031596Y-59889596D01*
X124026215Y-59896776D01*
X123950311Y-59998054D01*
X123950309Y-59998057D01*
X123944929Y-60005236D01*
X123941779Y-60013639D01*
X123923482Y-60062447D01*
X123880841Y-60119212D01*
X123814280Y-60143912D01*
X123744931Y-60128705D01*
X123694812Y-60078419D01*
X123679500Y-60018218D01*
X123679500Y-59953920D01*
X123682049Y-59929972D01*
X123682128Y-59928307D01*
X123684320Y-59918124D01*
X123680373Y-59884777D01*
X123680023Y-59878846D01*
X123679928Y-59878854D01*
X123679500Y-59873676D01*
X123679500Y-59868476D01*
X123678646Y-59863344D01*
X123676331Y-59849435D01*
X123675494Y-59843557D01*
X123670694Y-59802999D01*
X123670694Y-59802998D01*
X123669470Y-59792659D01*
X123665507Y-59784407D01*
X123664004Y-59775374D01*
X123649079Y-59747712D01*
X123639666Y-59730268D01*
X123636969Y-59724975D01*
X123618215Y-59685918D01*
X123618212Y-59685914D01*
X123614781Y-59678768D01*
X123611186Y-59674492D01*
X123609263Y-59672569D01*
X123607491Y-59670637D01*
X123607448Y-59670558D01*
X123607572Y-59670445D01*
X123607096Y-59669905D01*
X123604010Y-59664186D01*
X123564413Y-59627583D01*
X123560848Y-59624154D01*
X122633585Y-58696891D01*
X122599559Y-58634579D01*
X122604624Y-58563764D01*
X122647171Y-58506928D01*
X122694550Y-58484976D01*
X122772929Y-58467025D01*
X122772933Y-58467024D01*
X122780332Y-58465329D01*
X122850742Y-58429917D01*
X122915072Y-58397563D01*
X122915075Y-58397561D01*
X122921855Y-58394151D01*
X122927626Y-58389222D01*
X122927629Y-58389220D01*
X123036542Y-58296199D01*
X123036543Y-58296198D01*
X123042314Y-58291269D01*
X123052586Y-58276974D01*
X123108581Y-58233326D01*
X123154909Y-58224500D01*
X125185616Y-58224500D01*
X125253737Y-58244502D01*
X125274711Y-58261405D01*
X126533595Y-59520289D01*
X126567621Y-59582601D01*
X126570500Y-59609384D01*
X126570500Y-59664144D01*
X126550498Y-59732265D01*
X126496842Y-59778758D01*
X126488732Y-59782125D01*
X126433236Y-59802929D01*
X126426057Y-59808309D01*
X126426054Y-59808311D01*
X126371183Y-59849435D01*
X126317596Y-59889596D01*
X126312215Y-59896776D01*
X126236311Y-59998054D01*
X126236309Y-59998057D01*
X126230929Y-60005236D01*
X126180202Y-60140552D01*
X126173500Y-60202244D01*
X126173500Y-61797756D01*
X126180202Y-61859448D01*
X126230929Y-61994764D01*
X126236309Y-62001943D01*
X126236311Y-62001946D01*
X126283999Y-62065576D01*
X126317596Y-62110404D01*
X126324776Y-62115785D01*
X126426054Y-62191689D01*
X126426057Y-62191691D01*
X126433236Y-62197071D01*
X126516196Y-62228171D01*
X126561157Y-62245026D01*
X126561159Y-62245026D01*
X126568552Y-62247798D01*
X126576402Y-62248651D01*
X126576403Y-62248651D01*
X126626847Y-62254131D01*
X126630244Y-62254500D01*
X127225756Y-62254500D01*
X127229153Y-62254131D01*
X127279597Y-62248651D01*
X127279598Y-62248651D01*
X127287448Y-62247798D01*
X127294841Y-62245026D01*
X127294843Y-62245026D01*
X127339804Y-62228171D01*
X127422764Y-62197071D01*
X127429943Y-62191691D01*
X127429946Y-62191689D01*
X127531224Y-62115785D01*
X127538404Y-62110404D01*
X127572001Y-62065576D01*
X127619689Y-62001946D01*
X127619691Y-62001943D01*
X127625071Y-61994764D01*
X127675798Y-61859448D01*
X127682500Y-61797756D01*
X127682500Y-61797095D01*
X128206001Y-61797095D01*
X128206338Y-61803614D01*
X128216257Y-61899206D01*
X128219149Y-61912600D01*
X128270588Y-62066784D01*
X128276761Y-62079962D01*
X128362063Y-62217807D01*
X128371099Y-62229208D01*
X128485829Y-62343739D01*
X128497240Y-62352751D01*
X128635243Y-62437816D01*
X128648424Y-62443963D01*
X128802710Y-62495138D01*
X128816086Y-62498005D01*
X128910438Y-62507672D01*
X128916854Y-62508000D01*
X128941885Y-62508000D01*
X128957124Y-62503525D01*
X128958329Y-62502135D01*
X128960000Y-62494452D01*
X128960000Y-62489884D01*
X129468000Y-62489884D01*
X129472475Y-62505123D01*
X129473865Y-62506328D01*
X129481548Y-62507999D01*
X129511095Y-62507999D01*
X129517614Y-62507662D01*
X129613206Y-62497743D01*
X129626600Y-62494851D01*
X129780784Y-62443412D01*
X129793962Y-62437239D01*
X129931807Y-62351937D01*
X129943208Y-62342901D01*
X130057739Y-62228171D01*
X130066751Y-62216760D01*
X130151816Y-62078757D01*
X130157963Y-62065576D01*
X130209138Y-61911290D01*
X130212005Y-61897914D01*
X130221672Y-61803562D01*
X130222000Y-61797146D01*
X130222000Y-61272115D01*
X130217525Y-61256876D01*
X130216135Y-61255671D01*
X130208452Y-61254000D01*
X129486115Y-61254000D01*
X129470876Y-61258475D01*
X129469671Y-61259865D01*
X129468000Y-61267548D01*
X129468000Y-62489884D01*
X128960000Y-62489884D01*
X128960000Y-61272115D01*
X128955525Y-61256876D01*
X128954135Y-61255671D01*
X128946452Y-61254000D01*
X128224116Y-61254000D01*
X128208877Y-61258475D01*
X128207672Y-61259865D01*
X128206001Y-61267548D01*
X128206001Y-61797095D01*
X127682500Y-61797095D01*
X127682500Y-60727885D01*
X128206000Y-60727885D01*
X128210475Y-60743124D01*
X128211865Y-60744329D01*
X128219548Y-60746000D01*
X128941885Y-60746000D01*
X128957124Y-60741525D01*
X128958329Y-60740135D01*
X128960000Y-60732452D01*
X128960000Y-60727885D01*
X129468000Y-60727885D01*
X129472475Y-60743124D01*
X129473865Y-60744329D01*
X129481548Y-60746000D01*
X130203884Y-60746000D01*
X130219123Y-60741525D01*
X130220328Y-60740135D01*
X130221999Y-60732452D01*
X130221999Y-60202905D01*
X130221662Y-60196386D01*
X130211743Y-60100794D01*
X130208851Y-60087400D01*
X130157412Y-59933216D01*
X130151239Y-59920038D01*
X130065937Y-59782193D01*
X130056901Y-59770792D01*
X129942171Y-59656261D01*
X129930760Y-59647249D01*
X129792757Y-59562184D01*
X129779576Y-59556037D01*
X129625290Y-59504862D01*
X129611914Y-59501995D01*
X129517562Y-59492328D01*
X129511145Y-59492000D01*
X129486115Y-59492000D01*
X129470876Y-59496475D01*
X129469671Y-59497865D01*
X129468000Y-59505548D01*
X129468000Y-60727885D01*
X128960000Y-60727885D01*
X128960000Y-59510116D01*
X128955525Y-59494877D01*
X128954135Y-59493672D01*
X128946452Y-59492001D01*
X128916905Y-59492001D01*
X128910386Y-59492338D01*
X128814794Y-59502257D01*
X128801400Y-59505149D01*
X128647216Y-59556588D01*
X128634038Y-59562761D01*
X128496193Y-59648063D01*
X128484792Y-59657099D01*
X128370261Y-59771829D01*
X128361249Y-59783240D01*
X128276184Y-59921243D01*
X128270037Y-59934424D01*
X128218862Y-60088710D01*
X128215995Y-60102086D01*
X128206328Y-60196438D01*
X128206000Y-60202855D01*
X128206000Y-60727885D01*
X127682500Y-60727885D01*
X127682500Y-60202244D01*
X127675798Y-60140552D01*
X127625071Y-60005236D01*
X127619691Y-59998057D01*
X127619689Y-59998054D01*
X127543785Y-59896776D01*
X127538404Y-59889596D01*
X127484817Y-59849435D01*
X127429946Y-59808311D01*
X127429943Y-59808309D01*
X127422764Y-59802929D01*
X127414359Y-59799778D01*
X127414357Y-59799777D01*
X127411266Y-59798618D01*
X127408648Y-59796651D01*
X127406485Y-59795467D01*
X127406656Y-59795155D01*
X127354503Y-59755975D01*
X127329806Y-59689412D01*
X127329500Y-59680638D01*
X127329500Y-59453920D01*
X127332049Y-59429972D01*
X127332128Y-59428307D01*
X127334320Y-59418124D01*
X127332366Y-59401611D01*
X127344224Y-59331612D01*
X127392043Y-59279135D01*
X127459472Y-59260819D01*
X127571318Y-59262576D01*
X127571321Y-59262576D01*
X127578916Y-59262695D01*
X127733332Y-59227329D01*
X127803742Y-59191917D01*
X127868072Y-59159563D01*
X127868075Y-59159561D01*
X127874855Y-59156151D01*
X127880626Y-59151222D01*
X127880629Y-59151220D01*
X127989536Y-59058204D01*
X127989536Y-59058203D01*
X127995314Y-59053269D01*
X128087755Y-58924624D01*
X128146842Y-58777641D01*
X128158334Y-58696891D01*
X128168581Y-58624891D01*
X128168581Y-58624888D01*
X128169162Y-58620807D01*
X128169307Y-58607000D01*
X128150276Y-58449733D01*
X128094280Y-58301546D01*
X128040997Y-58224018D01*
X128008855Y-58177251D01*
X128008854Y-58177249D01*
X128004553Y-58170992D01*
X127886275Y-58065611D01*
X127746274Y-57991484D01*
X127592633Y-57952892D01*
X127585034Y-57952852D01*
X127585033Y-57952852D01*
X127524626Y-57952536D01*
X127443335Y-57952110D01*
X127375321Y-57931752D01*
X127354901Y-57915207D01*
X126482878Y-57043184D01*
X126448852Y-56980872D01*
X126453917Y-56910057D01*
X126456398Y-56905213D01*
X126456090Y-56905085D01*
X126460839Y-56893620D01*
X126467734Y-56883301D01*
X126487486Y-56784000D01*
X126487486Y-55634000D01*
X126482553Y-55583643D01*
X126462648Y-55535446D01*
X126455132Y-55464850D01*
X126461801Y-55442180D01*
X126467734Y-55433301D01*
X126487486Y-55334000D01*
X126487486Y-55327812D01*
X126487551Y-55327152D01*
X126514132Y-55261319D01*
X126572086Y-55220308D01*
X126612944Y-55213500D01*
X127140106Y-55213500D01*
X127208227Y-55233502D01*
X127254720Y-55287158D01*
X127265493Y-55327085D01*
X127267553Y-55347889D01*
X127306396Y-55441388D01*
X127378063Y-55512905D01*
X128128063Y-56012905D01*
X128221111Y-56051447D01*
X128233487Y-56051460D01*
X128301684Y-56051531D01*
X128322357Y-56051553D01*
X128415937Y-56012905D01*
X128421363Y-56009288D01*
X129163352Y-55514629D01*
X129163361Y-55514622D01*
X129165937Y-55512905D01*
X129205484Y-55480484D01*
X129215931Y-55464850D01*
X129254839Y-55406620D01*
X129261734Y-55396301D01*
X129281486Y-55297000D01*
X129281486Y-54297000D01*
X129261734Y-54197699D01*
X129205484Y-54113516D01*
X129176675Y-54094266D01*
X129131619Y-54064160D01*
X129131618Y-54064159D01*
X129121301Y-54057266D01*
X129109873Y-54054993D01*
X129055002Y-54010776D01*
X129032500Y-53938914D01*
X129032500Y-53513663D01*
X129052502Y-53445542D01*
X129106158Y-53399049D01*
X129176432Y-53388945D01*
X129234065Y-53412837D01*
X129271147Y-53440628D01*
X129279548Y-53443778D01*
X129279551Y-53443779D01*
X129355475Y-53472242D01*
X129398081Y-53488214D01*
X129405934Y-53489067D01*
X129405938Y-53489068D01*
X129452548Y-53494131D01*
X129452552Y-53494131D01*
X129455947Y-53494500D01*
X129555616Y-53494500D01*
X129623737Y-53514502D01*
X129644711Y-53531405D01*
X130141595Y-54028289D01*
X130175621Y-54090601D01*
X130178500Y-54117384D01*
X130178500Y-54456187D01*
X130158498Y-54524308D01*
X130135330Y-54551135D01*
X130068039Y-54609838D01*
X129976950Y-54739444D01*
X129974190Y-54746524D01*
X129925026Y-54872623D01*
X129919406Y-54887037D01*
X129918414Y-54894570D01*
X129918414Y-54894571D01*
X129901885Y-55020127D01*
X129898729Y-55044096D01*
X129902160Y-55075171D01*
X129913781Y-55180428D01*
X129916113Y-55201553D01*
X129918723Y-55208684D01*
X129918723Y-55208686D01*
X129963442Y-55330886D01*
X129970553Y-55350319D01*
X129974789Y-55356622D01*
X129974789Y-55356623D01*
X130054165Y-55474746D01*
X130058908Y-55481805D01*
X130064527Y-55486918D01*
X130064528Y-55486919D01*
X130170460Y-55583309D01*
X130176076Y-55588419D01*
X130315293Y-55664008D01*
X130468522Y-55704207D01*
X130552477Y-55705526D01*
X130619319Y-55706576D01*
X130619322Y-55706576D01*
X130626916Y-55706695D01*
X130707721Y-55688188D01*
X130778587Y-55692477D01*
X130835885Y-55734399D01*
X130861423Y-55800643D01*
X130847092Y-55870179D01*
X130818680Y-55905957D01*
X130816695Y-55907689D01*
X130703039Y-56006838D01*
X130611950Y-56136444D01*
X130600984Y-56164571D01*
X130557626Y-56275779D01*
X130554406Y-56284037D01*
X130553414Y-56291570D01*
X130553414Y-56291571D01*
X130536630Y-56419063D01*
X130533729Y-56441096D01*
X130540088Y-56498695D01*
X130549611Y-56584944D01*
X130551113Y-56598553D01*
X130553723Y-56605684D01*
X130553723Y-56605686D01*
X130589230Y-56702713D01*
X130605553Y-56747319D01*
X130609789Y-56753622D01*
X130609789Y-56753623D01*
X130663333Y-56833304D01*
X130693908Y-56878805D01*
X130699527Y-56883918D01*
X130699528Y-56883919D01*
X130793261Y-56969209D01*
X130811076Y-56985419D01*
X130950293Y-57061008D01*
X131103522Y-57101207D01*
X131187477Y-57102526D01*
X131254319Y-57103576D01*
X131254322Y-57103576D01*
X131261916Y-57103695D01*
X131416332Y-57068329D01*
X131494448Y-57029041D01*
X131551072Y-57000563D01*
X131551075Y-57000561D01*
X131557855Y-56997151D01*
X131563626Y-56992222D01*
X131563629Y-56992220D01*
X131672536Y-56899204D01*
X131672536Y-56899203D01*
X131678314Y-56894269D01*
X131756841Y-56784988D01*
X131765879Y-56772410D01*
X131821873Y-56728762D01*
X131892577Y-56722316D01*
X131942035Y-56748700D01*
X131943516Y-56746484D01*
X131982317Y-56772410D01*
X132027699Y-56802734D01*
X132127000Y-56822486D01*
X133277000Y-56822486D01*
X133296782Y-56820548D01*
X133318123Y-56818458D01*
X133318126Y-56818457D01*
X133327357Y-56817553D01*
X133420937Y-56778905D01*
X133492604Y-56707388D01*
X133531447Y-56613889D01*
X133531553Y-56512643D01*
X133492905Y-56419063D01*
X133439457Y-56338891D01*
X133135458Y-55882892D01*
X133114314Y-55815117D01*
X133135458Y-55743108D01*
X133491195Y-55209502D01*
X133492905Y-55206937D01*
X133507057Y-55180428D01*
X133512366Y-55170484D01*
X133512367Y-55170481D01*
X133516734Y-55162301D01*
X133536486Y-55063000D01*
X133516734Y-54963699D01*
X133460484Y-54879516D01*
X133376301Y-54823266D01*
X133277000Y-54803514D01*
X132127000Y-54803514D01*
X132027699Y-54823266D01*
X131943516Y-54879516D01*
X131887266Y-54963699D01*
X131867514Y-55063000D01*
X131867514Y-55314182D01*
X131847512Y-55382303D01*
X131793856Y-55428796D01*
X131756326Y-55439308D01*
X131720659Y-55443530D01*
X131712407Y-55447493D01*
X131703374Y-55448996D01*
X131694205Y-55453943D01*
X131694203Y-55453944D01*
X131658268Y-55473334D01*
X131652975Y-55476031D01*
X131631413Y-55486385D01*
X131606768Y-55498219D01*
X131602493Y-55501813D01*
X131600568Y-55503738D01*
X131598638Y-55505509D01*
X131598553Y-55505555D01*
X131598441Y-55505432D01*
X131597906Y-55505904D01*
X131592186Y-55508990D01*
X131585119Y-55516635D01*
X131555584Y-55548586D01*
X131552154Y-55552152D01*
X131347411Y-55756895D01*
X131285099Y-55790921D01*
X131257658Y-55793798D01*
X131117221Y-55793062D01*
X131109841Y-55794834D01*
X131109839Y-55794834D01*
X131042998Y-55810881D01*
X130972090Y-55807333D01*
X130914356Y-55766014D01*
X130888126Y-55700040D01*
X130901729Y-55630359D01*
X130931754Y-55592551D01*
X131037532Y-55502208D01*
X131037535Y-55502205D01*
X131043314Y-55497269D01*
X131135755Y-55368624D01*
X131194842Y-55221641D01*
X131217162Y-55064807D01*
X131217307Y-55051000D01*
X131198276Y-54893733D01*
X131142280Y-54745546D01*
X131052553Y-54614992D01*
X130979681Y-54550065D01*
X130942126Y-54489816D01*
X130937500Y-54455989D01*
X130937500Y-53961920D01*
X130940049Y-53937972D01*
X130940128Y-53936307D01*
X130942320Y-53926124D01*
X130938373Y-53892777D01*
X130938023Y-53886846D01*
X130937928Y-53886854D01*
X130937500Y-53881676D01*
X130937500Y-53876476D01*
X130936646Y-53871344D01*
X130934331Y-53857435D01*
X130933494Y-53851557D01*
X130928694Y-53810999D01*
X130928694Y-53810998D01*
X130927470Y-53800659D01*
X130923507Y-53792407D01*
X130922004Y-53783374D01*
X130897665Y-53738266D01*
X130894969Y-53732975D01*
X130876214Y-53693917D01*
X130876213Y-53693916D01*
X130872781Y-53686768D01*
X130869220Y-53682532D01*
X130849373Y-53615476D01*
X130869228Y-53547312D01*
X130922783Y-53500704D01*
X130988980Y-53489941D01*
X131030947Y-53494500D01*
X131294461Y-53494500D01*
X131558052Y-53494499D01*
X131615919Y-53488214D01*
X131670755Y-53467657D01*
X131734449Y-53443779D01*
X131734452Y-53443778D01*
X131742853Y-53440628D01*
X131851330Y-53359330D01*
X131932628Y-53250853D01*
X131941844Y-53226269D01*
X131984486Y-53169505D01*
X132051048Y-53144806D01*
X132059826Y-53144500D01*
X132364664Y-53144500D01*
X132432785Y-53164502D01*
X132479278Y-53218158D01*
X132483545Y-53228747D01*
X132492791Y-53255076D01*
X132573990Y-53365010D01*
X132683924Y-53446209D01*
X132812873Y-53491493D01*
X132820515Y-53492215D01*
X132820518Y-53492216D01*
X132835421Y-53493624D01*
X132844685Y-53494500D01*
X133098828Y-53494500D01*
X133353314Y-53494499D01*
X133356262Y-53494220D01*
X133356271Y-53494220D01*
X133377478Y-53492216D01*
X133377480Y-53492216D01*
X133385127Y-53491493D01*
X133514076Y-53446209D01*
X133624010Y-53365010D01*
X133676612Y-53293792D01*
X133733174Y-53250881D01*
X133803956Y-53245362D01*
X133866486Y-53278986D01*
X133891628Y-53320209D01*
X133893591Y-53319323D01*
X133902921Y-53339988D01*
X133983824Y-53473574D01*
X133993131Y-53485443D01*
X134103557Y-53595869D01*
X134115426Y-53605176D01*
X134249012Y-53686079D01*
X134262757Y-53692285D01*
X134412644Y-53739256D01*
X134425694Y-53741869D01*
X134480586Y-53746913D01*
X134492124Y-53743525D01*
X134493329Y-53742135D01*
X134495000Y-53734452D01*
X134495000Y-53729884D01*
X135003000Y-53729884D01*
X135007475Y-53745123D01*
X135008865Y-53746328D01*
X135013294Y-53747291D01*
X135072315Y-53741868D01*
X135085351Y-53739257D01*
X135235243Y-53692285D01*
X135248988Y-53686079D01*
X135382574Y-53605176D01*
X135394443Y-53595869D01*
X135504869Y-53485443D01*
X135514176Y-53473574D01*
X135595079Y-53339988D01*
X135601285Y-53326243D01*
X135648256Y-53176356D01*
X135650869Y-53163306D01*
X135656734Y-53099479D01*
X135657000Y-53093691D01*
X135657000Y-53037115D01*
X135652525Y-53021876D01*
X135651135Y-53020671D01*
X135643452Y-53019000D01*
X135021115Y-53019000D01*
X135005876Y-53023475D01*
X135004671Y-53024865D01*
X135003000Y-53032548D01*
X135003000Y-53729884D01*
X134495000Y-53729884D01*
X134495000Y-52013550D01*
X134494000Y-52006594D01*
X134494000Y-51738450D01*
X135002000Y-51738450D01*
X135003000Y-51745406D01*
X135003000Y-52492885D01*
X135007475Y-52508124D01*
X135008865Y-52509329D01*
X135016548Y-52511000D01*
X135638884Y-52511000D01*
X135654123Y-52506525D01*
X135655328Y-52505135D01*
X135656999Y-52497452D01*
X135656999Y-52436295D01*
X135656736Y-52430546D01*
X135650868Y-52366685D01*
X135648257Y-52353649D01*
X135601285Y-52203757D01*
X135595079Y-52190012D01*
X135514176Y-52056426D01*
X135504869Y-52044557D01*
X135424907Y-51964595D01*
X135390881Y-51902283D01*
X135395946Y-51831468D01*
X135424907Y-51786405D01*
X135503869Y-51707443D01*
X135513176Y-51695574D01*
X135594079Y-51561988D01*
X135600285Y-51548243D01*
X135647256Y-51398356D01*
X135649870Y-51385301D01*
X135655734Y-51321479D01*
X135656000Y-51315691D01*
X135656000Y-51259115D01*
X135651525Y-51243876D01*
X135650135Y-51242671D01*
X135642452Y-51241000D01*
X135020115Y-51241000D01*
X135004876Y-51245475D01*
X135003671Y-51246865D01*
X135002000Y-51254548D01*
X135002000Y-51738450D01*
X134494000Y-51738450D01*
X134494000Y-50714885D01*
X135002000Y-50714885D01*
X135006475Y-50730124D01*
X135007865Y-50731329D01*
X135015548Y-50733000D01*
X135637884Y-50733000D01*
X135653123Y-50728525D01*
X135654328Y-50727135D01*
X135655999Y-50719452D01*
X135655999Y-50658295D01*
X135655736Y-50652546D01*
X135649868Y-50588685D01*
X135647257Y-50575649D01*
X135600285Y-50425757D01*
X135594079Y-50412012D01*
X135513176Y-50278426D01*
X135503869Y-50266557D01*
X135393443Y-50156131D01*
X135381574Y-50146824D01*
X135247988Y-50065921D01*
X135234243Y-50059715D01*
X135084356Y-50012744D01*
X135071306Y-50010131D01*
X135016414Y-50005087D01*
X135004876Y-50008475D01*
X135003671Y-50009865D01*
X135002000Y-50017548D01*
X135002000Y-50714885D01*
X134494000Y-50714885D01*
X134494000Y-50022116D01*
X134489525Y-50006877D01*
X134488135Y-50005672D01*
X134483706Y-50004709D01*
X134424685Y-50010132D01*
X134411649Y-50012743D01*
X134261757Y-50059715D01*
X134248012Y-50065921D01*
X134114426Y-50146824D01*
X134102557Y-50156131D01*
X133992131Y-50266557D01*
X133982824Y-50278426D01*
X133901921Y-50412012D01*
X133892591Y-50432677D01*
X133890144Y-50431572D01*
X133857755Y-50480037D01*
X133792655Y-50508367D01*
X133722574Y-50497004D01*
X133675613Y-50458208D01*
X133628602Y-50394561D01*
X133623010Y-50386990D01*
X133513076Y-50305791D01*
X133384127Y-50260507D01*
X133376485Y-50259785D01*
X133376482Y-50259784D01*
X133361579Y-50258376D01*
X133352315Y-50257500D01*
X133098172Y-50257500D01*
X132843686Y-50257501D01*
X132840738Y-50257780D01*
X132840729Y-50257780D01*
X132819522Y-50259784D01*
X132819520Y-50259784D01*
X132811873Y-50260507D01*
X132682924Y-50305791D01*
X132572990Y-50386990D01*
X132491791Y-50496924D01*
X132482546Y-50523250D01*
X132441102Y-50580895D01*
X132375072Y-50606982D01*
X132363664Y-50607500D01*
X132085326Y-50607500D01*
X132017205Y-50587498D01*
X131970712Y-50533842D01*
X131967344Y-50525731D01*
X131961278Y-50509549D01*
X131961277Y-50509548D01*
X131958128Y-50501147D01*
X131876830Y-50392670D01*
X131768353Y-50311372D01*
X131759952Y-50308222D01*
X131759949Y-50308221D01*
X131656829Y-50269563D01*
X131641419Y-50263786D01*
X131633566Y-50262933D01*
X131633562Y-50262932D01*
X131586952Y-50257869D01*
X131586948Y-50257869D01*
X131583553Y-50257500D01*
X131320039Y-50257500D01*
X131056448Y-50257501D01*
X130998581Y-50263786D01*
X130991184Y-50266559D01*
X130958366Y-50278862D01*
X130887559Y-50284045D01*
X130825190Y-50250124D01*
X130791060Y-50187869D01*
X130796007Y-50117045D01*
X130825041Y-50071785D01*
X131121421Y-49775405D01*
X131183733Y-49741379D01*
X131210516Y-49738500D01*
X136001483Y-49738500D01*
X136069604Y-49758502D01*
X136090578Y-49775405D01*
X136102412Y-49787239D01*
X136136438Y-49849551D01*
X136137841Y-49858135D01*
X136138280Y-49860005D01*
X136139113Y-49867553D01*
X136141724Y-49874688D01*
X136190683Y-50008475D01*
X136193553Y-50016319D01*
X136197789Y-50022622D01*
X136197789Y-50022623D01*
X136272482Y-50133777D01*
X136281908Y-50147805D01*
X136287527Y-50152918D01*
X136287528Y-50152919D01*
X136388727Y-50245002D01*
X136399076Y-50254419D01*
X136538293Y-50330008D01*
X136691522Y-50370207D01*
X136775477Y-50371526D01*
X136842319Y-50372576D01*
X136842322Y-50372576D01*
X136849916Y-50372695D01*
X137004332Y-50337329D01*
X137077261Y-50300650D01*
X137139072Y-50269563D01*
X137139075Y-50269561D01*
X137145855Y-50266151D01*
X137151626Y-50261222D01*
X137151629Y-50261220D01*
X137260536Y-50168204D01*
X137260536Y-50168203D01*
X137266314Y-50163269D01*
X137358755Y-50034624D01*
X137417842Y-49887641D01*
X137436221Y-49758502D01*
X137439581Y-49734891D01*
X137439581Y-49734888D01*
X137440162Y-49730807D01*
X137440307Y-49717000D01*
X137421276Y-49559733D01*
X137365280Y-49411546D01*
X137275553Y-49280992D01*
X137157275Y-49175611D01*
X137017274Y-49101484D01*
X136913546Y-49075429D01*
X136855147Y-49042321D01*
X136712405Y-48899579D01*
X136678379Y-48837267D01*
X136675500Y-48810484D01*
X136675500Y-48507499D01*
X136695502Y-48439378D01*
X136749158Y-48392885D01*
X136801500Y-48381499D01*
X136921066Y-48381499D01*
X136956818Y-48374388D01*
X136983126Y-48369156D01*
X136983128Y-48369155D01*
X136995301Y-48366734D01*
X137005621Y-48359839D01*
X137005622Y-48359838D01*
X137069168Y-48317377D01*
X137079484Y-48310484D01*
X137135734Y-48226301D01*
X137150500Y-48152067D01*
X137150499Y-46101934D01*
X137141729Y-46057839D01*
X137138156Y-46039874D01*
X137138155Y-46039872D01*
X137135734Y-46027699D01*
X137113357Y-45994209D01*
X137086377Y-45953832D01*
X137079484Y-45943516D01*
X136995301Y-45887266D01*
X136921067Y-45872500D01*
X136776500Y-45872500D01*
X136708379Y-45852498D01*
X136661886Y-45798842D01*
X136650500Y-45746500D01*
X136650500Y-45215630D01*
X136651842Y-45203622D01*
X136651346Y-45203582D01*
X136652066Y-45194631D01*
X136654047Y-45185877D01*
X136650742Y-45132607D01*
X136650500Y-45124805D01*
X136650500Y-45108774D01*
X136649035Y-45098541D01*
X136648004Y-45088481D01*
X136645654Y-45050601D01*
X136645654Y-45050600D01*
X136645098Y-45041642D01*
X136642050Y-45033199D01*
X136641371Y-45029920D01*
X136637416Y-45014055D01*
X136636473Y-45010831D01*
X136635201Y-45001948D01*
X136631487Y-44993779D01*
X136631485Y-44993773D01*
X136615775Y-44959221D01*
X136611961Y-44949852D01*
X136610390Y-44945500D01*
X136596028Y-44905716D01*
X136590731Y-44898466D01*
X136589154Y-44895499D01*
X136580907Y-44881386D01*
X136579102Y-44878563D01*
X136575388Y-44870395D01*
X136544753Y-44834842D01*
X136538475Y-44826936D01*
X136530527Y-44816056D01*
X136519665Y-44805194D01*
X136513307Y-44798347D01*
X136486915Y-44767718D01*
X136481056Y-44760918D01*
X136473521Y-44756034D01*
X136466949Y-44750301D01*
X136455545Y-44741074D01*
X135925840Y-44211369D01*
X135902663Y-44179466D01*
X135902226Y-44178607D01*
X135888500Y-44121420D01*
X135888500Y-43374161D01*
X135908502Y-43306040D01*
X135925405Y-43285066D01*
X136452794Y-42757677D01*
X136462234Y-42750135D01*
X136461911Y-42749755D01*
X136468747Y-42743937D01*
X136476339Y-42739147D01*
X136511672Y-42699140D01*
X136517017Y-42693454D01*
X136528351Y-42682120D01*
X136531038Y-42678534D01*
X136531043Y-42678529D01*
X136534557Y-42673841D01*
X136540938Y-42666003D01*
X136566058Y-42637559D01*
X136572001Y-42630830D01*
X136575816Y-42622705D01*
X136577669Y-42619884D01*
X136586077Y-42605888D01*
X136587686Y-42602950D01*
X136593071Y-42595764D01*
X136599503Y-42578608D01*
X136609544Y-42551822D01*
X136613471Y-42542501D01*
X136614920Y-42539416D01*
X136633417Y-42500018D01*
X136634798Y-42491147D01*
X136635783Y-42487925D01*
X136639923Y-42472142D01*
X136640645Y-42468858D01*
X136643798Y-42460448D01*
X136647276Y-42413643D01*
X136648430Y-42403595D01*
X136649751Y-42395114D01*
X136649751Y-42395113D01*
X136650500Y-42390303D01*
X136650500Y-42374934D01*
X136650847Y-42365596D01*
X136653843Y-42325284D01*
X136653843Y-42325283D01*
X136654508Y-42316333D01*
X136652635Y-42307558D01*
X136652043Y-42298874D01*
X136650500Y-42284258D01*
X136650500Y-42207499D01*
X136670502Y-42139378D01*
X136724158Y-42092885D01*
X136776500Y-42081499D01*
X138071066Y-42081499D01*
X138106818Y-42074388D01*
X138133126Y-42069156D01*
X138133128Y-42069155D01*
X138145301Y-42066734D01*
X138155621Y-42059839D01*
X138155622Y-42059838D01*
X138219168Y-42017377D01*
X138229484Y-42010484D01*
X138269329Y-41950852D01*
X138278839Y-41936620D01*
X138285734Y-41926301D01*
X138300500Y-41852067D01*
X138300499Y-39801934D01*
X138285734Y-39727699D01*
X138229484Y-39643516D01*
X138145301Y-39587266D01*
X138071067Y-39572500D01*
X136146156Y-39572500D01*
X134220934Y-39572501D01*
X134185182Y-39579612D01*
X134158874Y-39584844D01*
X134158872Y-39584845D01*
X134146699Y-39587266D01*
X134136379Y-39594161D01*
X134136378Y-39594162D01*
X134113008Y-39609778D01*
X134062516Y-39643516D01*
X134006266Y-39727699D01*
X133991500Y-39801933D01*
X133991501Y-41852066D01*
X133993047Y-41859837D01*
X134002570Y-41907716D01*
X134006266Y-41926301D01*
X134013161Y-41936620D01*
X134013162Y-41936622D01*
X134039220Y-41975619D01*
X134062516Y-42010484D01*
X134146699Y-42066734D01*
X134220933Y-42081500D01*
X135397839Y-42081500D01*
X135465960Y-42101502D01*
X135512453Y-42155158D01*
X135522557Y-42225432D01*
X135493063Y-42290012D01*
X135486934Y-42296595D01*
X135077206Y-42706323D01*
X135067766Y-42713865D01*
X135068089Y-42714245D01*
X135061253Y-42720063D01*
X135053661Y-42724853D01*
X135047719Y-42731581D01*
X135018329Y-42764859D01*
X135012983Y-42770546D01*
X135001649Y-42781880D01*
X134998964Y-42785463D01*
X134998962Y-42785465D01*
X134995447Y-42790155D01*
X134989062Y-42797998D01*
X134957999Y-42833170D01*
X134954186Y-42841292D01*
X134952346Y-42844093D01*
X134943937Y-42858088D01*
X134942315Y-42861051D01*
X134936930Y-42868236D01*
X134933777Y-42876646D01*
X134933776Y-42876648D01*
X134920454Y-42912182D01*
X134916530Y-42921495D01*
X134896583Y-42963982D01*
X134895201Y-42972856D01*
X134894215Y-42976083D01*
X134890075Y-42991866D01*
X134889354Y-42995144D01*
X134886202Y-43003552D01*
X134885537Y-43012503D01*
X134882724Y-43050357D01*
X134881570Y-43060404D01*
X134880742Y-43065724D01*
X134879500Y-43073697D01*
X134879500Y-43089062D01*
X134879154Y-43098399D01*
X134875493Y-43147667D01*
X134877366Y-43156442D01*
X134877959Y-43165138D01*
X134879500Y-43179738D01*
X134879500Y-43702500D01*
X134859498Y-43770621D01*
X134805842Y-43817114D01*
X134753500Y-43828500D01*
X132447290Y-43828500D01*
X132379169Y-43808498D01*
X132346465Y-43778067D01*
X132323526Y-43747460D01*
X132321164Y-43744309D01*
X132296315Y-43677802D01*
X132311367Y-43608420D01*
X132355686Y-43561598D01*
X132403173Y-43532212D01*
X132414574Y-43523176D01*
X132524986Y-43412571D01*
X132533998Y-43401160D01*
X132616004Y-43268120D01*
X132622151Y-43254939D01*
X132671491Y-43106186D01*
X132674358Y-43092810D01*
X132683672Y-43001903D01*
X132683929Y-42996874D01*
X132679525Y-42981876D01*
X132678135Y-42980671D01*
X132670452Y-42979000D01*
X130736115Y-42979000D01*
X130720876Y-42983475D01*
X130719671Y-42984865D01*
X130718000Y-42992548D01*
X130718000Y-42995438D01*
X130718337Y-43001953D01*
X130727894Y-43094057D01*
X130730788Y-43107456D01*
X130780381Y-43256107D01*
X130786555Y-43269286D01*
X130868788Y-43402173D01*
X130877824Y-43413574D01*
X130988429Y-43523986D01*
X130999840Y-43532998D01*
X131046102Y-43561514D01*
X131093595Y-43614286D01*
X131105019Y-43684358D01*
X131080812Y-43744339D01*
X131031468Y-43810179D01*
X131031466Y-43810182D01*
X131026083Y-43817365D01*
X130977870Y-43945976D01*
X130977017Y-43953826D01*
X130975189Y-43961515D01*
X130972352Y-43960840D01*
X130950382Y-44013688D01*
X130892011Y-44054103D01*
X130852375Y-44060500D01*
X129401500Y-44060500D01*
X129333379Y-44040498D01*
X129286886Y-43986842D01*
X129275500Y-43934500D01*
X129275500Y-43851392D01*
X129269182Y-43803404D01*
X129252789Y-43768248D01*
X129242128Y-43698058D01*
X129252788Y-43661754D01*
X129269182Y-43626596D01*
X129275500Y-43578608D01*
X129275500Y-43351392D01*
X129269182Y-43303404D01*
X129252789Y-43268248D01*
X129242128Y-43198058D01*
X129252788Y-43161754D01*
X129269182Y-43126596D01*
X129275500Y-43078608D01*
X129275500Y-42851392D01*
X129269182Y-42803404D01*
X129252789Y-42768248D01*
X129242128Y-42698058D01*
X129252788Y-42661754D01*
X129269182Y-42626596D01*
X129275500Y-42578608D01*
X129275500Y-42575902D01*
X129299802Y-42509544D01*
X129324413Y-42484491D01*
X129355251Y-42460828D01*
X129362953Y-42453126D01*
X130718071Y-42453126D01*
X130722475Y-42468124D01*
X130723865Y-42469329D01*
X130731548Y-42471000D01*
X131428885Y-42471000D01*
X131444124Y-42466525D01*
X131445329Y-42465135D01*
X131447000Y-42457452D01*
X131447000Y-42452885D01*
X131955000Y-42452885D01*
X131959475Y-42468124D01*
X131960865Y-42469329D01*
X131968548Y-42471000D01*
X132665885Y-42471000D01*
X132681124Y-42466525D01*
X132682329Y-42465135D01*
X132684000Y-42457452D01*
X132684000Y-42454562D01*
X132683663Y-42448047D01*
X132674106Y-42355943D01*
X132671212Y-42342544D01*
X132621619Y-42193893D01*
X132615445Y-42180714D01*
X132533212Y-42047827D01*
X132524176Y-42036426D01*
X132413571Y-41926014D01*
X132402160Y-41917002D01*
X132269120Y-41834996D01*
X132255939Y-41828849D01*
X132107186Y-41779509D01*
X132093810Y-41776642D01*
X132002903Y-41767328D01*
X131996486Y-41767000D01*
X131973115Y-41767000D01*
X131957876Y-41771475D01*
X131956671Y-41772865D01*
X131955000Y-41780548D01*
X131955000Y-42452885D01*
X131447000Y-42452885D01*
X131447000Y-41785115D01*
X131442525Y-41769876D01*
X131441135Y-41768671D01*
X131433452Y-41767000D01*
X131405562Y-41767000D01*
X131399047Y-41767337D01*
X131306943Y-41776894D01*
X131293544Y-41779788D01*
X131144893Y-41829381D01*
X131131714Y-41835555D01*
X130998827Y-41917788D01*
X130987426Y-41926824D01*
X130877014Y-42037429D01*
X130868002Y-42048840D01*
X130785996Y-42181880D01*
X130779849Y-42195061D01*
X130730509Y-42343814D01*
X130727642Y-42357190D01*
X130718328Y-42448097D01*
X130718071Y-42453126D01*
X129362953Y-42453126D01*
X129366824Y-42449255D01*
X129450223Y-42340566D01*
X129458410Y-42326385D01*
X129510833Y-42199825D01*
X129515072Y-42184005D01*
X129521792Y-42132960D01*
X129519581Y-42118778D01*
X129506424Y-42115000D01*
X129163857Y-42115000D01*
X129110607Y-42103195D01*
X129041329Y-42070890D01*
X129041328Y-42070890D01*
X129032596Y-42066818D01*
X129023043Y-42065560D01*
X129013785Y-42062862D01*
X129014366Y-42060868D01*
X128960864Y-42037200D01*
X128921772Y-41977935D01*
X128920927Y-41906943D01*
X128958597Y-41846764D01*
X129022822Y-41816505D01*
X129042237Y-41815000D01*
X129506042Y-41815000D01*
X129519813Y-41810956D01*
X129521842Y-41797417D01*
X129515072Y-41745995D01*
X129510833Y-41730175D01*
X129458410Y-41603614D01*
X129450221Y-41589431D01*
X129366829Y-41480752D01*
X129355250Y-41469172D01*
X129246566Y-41385777D01*
X129232385Y-41377590D01*
X129105825Y-41325167D01*
X129090005Y-41320928D01*
X128988300Y-41307538D01*
X128980092Y-41307000D01*
X128764115Y-41307000D01*
X128748876Y-41311475D01*
X128747671Y-41312865D01*
X128746000Y-41320548D01*
X128746000Y-41796885D01*
X128750475Y-41812124D01*
X128761053Y-41821290D01*
X128805214Y-41845404D01*
X128839239Y-41907716D01*
X128834175Y-41978532D01*
X128791628Y-42035368D01*
X128725108Y-42060179D01*
X128716119Y-42060500D01*
X128572000Y-42060500D01*
X128503879Y-42040498D01*
X128457386Y-41986842D01*
X128446000Y-41934500D01*
X128446000Y-41325115D01*
X128441525Y-41309876D01*
X128440135Y-41308671D01*
X128432452Y-41307000D01*
X128426500Y-41307000D01*
X128358379Y-41286998D01*
X128311886Y-41233342D01*
X128300500Y-41181000D01*
X128300500Y-40876392D01*
X128294182Y-40828404D01*
X128290109Y-40819668D01*
X128249734Y-40733084D01*
X128249733Y-40733083D01*
X128245074Y-40723091D01*
X128162909Y-40640926D01*
X128152916Y-40636266D01*
X128066329Y-40595890D01*
X128066328Y-40595890D01*
X128057596Y-40591818D01*
X128048043Y-40590560D01*
X128048042Y-40590560D01*
X128013694Y-40586038D01*
X128013695Y-40586038D01*
X128009608Y-40585500D01*
X127901500Y-40585500D01*
X127833379Y-40565498D01*
X127786886Y-40511842D01*
X127775500Y-40459500D01*
X127775500Y-39867384D01*
X127795502Y-39799263D01*
X127812405Y-39778289D01*
X129395289Y-38195405D01*
X129457601Y-38161379D01*
X129484384Y-38158500D01*
X132957092Y-38158500D01*
X133025213Y-38178502D01*
X133071706Y-38232158D01*
X133075074Y-38240271D01*
X133083083Y-38261635D01*
X133088463Y-38268814D01*
X133088465Y-38268817D01*
X133144491Y-38343571D01*
X133165456Y-38371544D01*
X133172633Y-38376923D01*
X133268183Y-38448535D01*
X133268186Y-38448537D01*
X133275365Y-38453917D01*
X133283769Y-38457067D01*
X133283770Y-38457068D01*
X133396581Y-38499358D01*
X133396582Y-38499358D01*
X133403976Y-38502130D01*
X133411826Y-38502983D01*
X133411827Y-38502983D01*
X133459205Y-38508130D01*
X133462611Y-38508500D01*
X133732920Y-38508500D01*
X134003388Y-38508499D01*
X134006782Y-38508130D01*
X134006788Y-38508130D01*
X134054166Y-38502984D01*
X134054170Y-38502983D01*
X134062024Y-38502130D01*
X134190635Y-38453917D01*
X134197814Y-38448537D01*
X134197817Y-38448535D01*
X134263692Y-38399163D01*
X134330198Y-38374315D01*
X134399581Y-38389367D01*
X134446402Y-38433686D01*
X134475788Y-38481173D01*
X134484824Y-38492574D01*
X134595429Y-38602986D01*
X134606840Y-38611998D01*
X134739880Y-38694004D01*
X134753061Y-38700151D01*
X134901814Y-38749491D01*
X134915190Y-38752358D01*
X135006097Y-38761672D01*
X135011126Y-38761929D01*
X135026124Y-38757525D01*
X135027329Y-38756135D01*
X135029000Y-38748452D01*
X135029000Y-38743885D01*
X135537000Y-38743885D01*
X135541475Y-38759124D01*
X135542865Y-38760329D01*
X135550548Y-38762000D01*
X135553438Y-38762000D01*
X135559953Y-38761663D01*
X135652057Y-38752106D01*
X135665456Y-38749212D01*
X135814107Y-38699619D01*
X135827286Y-38693445D01*
X135960173Y-38611212D01*
X135971574Y-38602176D01*
X136081986Y-38491571D01*
X136090998Y-38480160D01*
X136173004Y-38347120D01*
X136179151Y-38333939D01*
X136228491Y-38185186D01*
X136231358Y-38171810D01*
X136240672Y-38080903D01*
X136241000Y-38074487D01*
X136241000Y-38074438D01*
X136686000Y-38074438D01*
X136686337Y-38080953D01*
X136695894Y-38173057D01*
X136698788Y-38186456D01*
X136748381Y-38335107D01*
X136754555Y-38348286D01*
X136836788Y-38481173D01*
X136845824Y-38492574D01*
X136956429Y-38602986D01*
X136967840Y-38611998D01*
X137100880Y-38694004D01*
X137114061Y-38700151D01*
X137262814Y-38749491D01*
X137276190Y-38752358D01*
X137367097Y-38761672D01*
X137372126Y-38761929D01*
X137387124Y-38757525D01*
X137388329Y-38756135D01*
X137390000Y-38748452D01*
X137390000Y-38051115D01*
X137385525Y-38035876D01*
X137384135Y-38034671D01*
X137376452Y-38033000D01*
X136704115Y-38033000D01*
X136688876Y-38037475D01*
X136687671Y-38038865D01*
X136686000Y-38046548D01*
X136686000Y-38074438D01*
X136241000Y-38074438D01*
X136241000Y-38051115D01*
X136236525Y-38035876D01*
X136235135Y-38034671D01*
X136227452Y-38033000D01*
X135555115Y-38033000D01*
X135539876Y-38037475D01*
X135538671Y-38038865D01*
X135537000Y-38046548D01*
X135537000Y-38743885D01*
X135029000Y-38743885D01*
X135029000Y-37651000D01*
X135049002Y-37582879D01*
X135102658Y-37536386D01*
X135155000Y-37525000D01*
X136222885Y-37525000D01*
X136238124Y-37520525D01*
X136239329Y-37519135D01*
X136241000Y-37511452D01*
X136241000Y-37483562D01*
X136240663Y-37477047D01*
X136231106Y-37384943D01*
X136228212Y-37371544D01*
X136178619Y-37222893D01*
X136172445Y-37209714D01*
X136090212Y-37076827D01*
X136081176Y-37065426D01*
X135970571Y-36955014D01*
X135959160Y-36946002D01*
X135824116Y-36862760D01*
X135776623Y-36809988D01*
X135765199Y-36739916D01*
X135793473Y-36674792D01*
X135852467Y-36635293D01*
X135890232Y-36629500D01*
X137036499Y-36629500D01*
X137104620Y-36649502D01*
X137151113Y-36703158D01*
X137161217Y-36773432D01*
X137131723Y-36838012D01*
X137102802Y-36862644D01*
X136966827Y-36946788D01*
X136955426Y-36955824D01*
X136845014Y-37066429D01*
X136836002Y-37077840D01*
X136753996Y-37210880D01*
X136747849Y-37224061D01*
X136698509Y-37372814D01*
X136695642Y-37386190D01*
X136686328Y-37477097D01*
X136686000Y-37483514D01*
X136686000Y-37506885D01*
X136690475Y-37522124D01*
X136691865Y-37523329D01*
X136699548Y-37525000D01*
X137772000Y-37525000D01*
X137840121Y-37545002D01*
X137886614Y-37598658D01*
X137898000Y-37651000D01*
X137898000Y-38743885D01*
X137902475Y-38759124D01*
X137903865Y-38760329D01*
X137911548Y-38762000D01*
X137914438Y-38762000D01*
X137920953Y-38761663D01*
X138013057Y-38752106D01*
X138026456Y-38749212D01*
X138175107Y-38699619D01*
X138188286Y-38693445D01*
X138321173Y-38611212D01*
X138332574Y-38602176D01*
X138349327Y-38585394D01*
X138411610Y-38551315D01*
X138482430Y-38556318D01*
X138539303Y-38598816D01*
X138564171Y-38665314D01*
X138564500Y-38674412D01*
X138564500Y-45594061D01*
X138544498Y-45662182D01*
X138527596Y-45683156D01*
X138375157Y-45835596D01*
X138312845Y-45869621D01*
X138286061Y-45872501D01*
X137670934Y-45872501D01*
X137635182Y-45879612D01*
X137608874Y-45884844D01*
X137608872Y-45884845D01*
X137596699Y-45887266D01*
X137586379Y-45894161D01*
X137586378Y-45894162D01*
X137559489Y-45912129D01*
X137512516Y-45943516D01*
X137456266Y-46027699D01*
X137441500Y-46101933D01*
X137441501Y-48152066D01*
X137456266Y-48226301D01*
X137463161Y-48236620D01*
X137463162Y-48236622D01*
X137483932Y-48267706D01*
X137512516Y-48310484D01*
X137596699Y-48366734D01*
X137670933Y-48381500D01*
X137690500Y-48381500D01*
X137758621Y-48401502D01*
X137805114Y-48455158D01*
X137816500Y-48507500D01*
X137816500Y-57241062D01*
X137796498Y-57309183D01*
X137779595Y-57330157D01*
X134776158Y-60333595D01*
X134713846Y-60367621D01*
X134687063Y-60370500D01*
X132380500Y-60370500D01*
X132312379Y-60350498D01*
X132265886Y-60296842D01*
X132254500Y-60244500D01*
X132254500Y-60202244D01*
X132247798Y-60140552D01*
X132197071Y-60005236D01*
X132191691Y-59998057D01*
X132191689Y-59998054D01*
X132115785Y-59896776D01*
X132110404Y-59889596D01*
X132056817Y-59849435D01*
X132001946Y-59808311D01*
X132001943Y-59808309D01*
X131994764Y-59802929D01*
X131866848Y-59754976D01*
X131866843Y-59754974D01*
X131866841Y-59754974D01*
X131859448Y-59752202D01*
X131851598Y-59751349D01*
X131851597Y-59751349D01*
X131801153Y-59745869D01*
X131801152Y-59745869D01*
X131797756Y-59745500D01*
X131202244Y-59745500D01*
X131198848Y-59745869D01*
X131198847Y-59745869D01*
X131148403Y-59751349D01*
X131148402Y-59751349D01*
X131140552Y-59752202D01*
X131133159Y-59754974D01*
X131133157Y-59754974D01*
X131133152Y-59754976D01*
X131005236Y-59802929D01*
X130998057Y-59808309D01*
X130998054Y-59808311D01*
X130943183Y-59849435D01*
X130889596Y-59889596D01*
X130884215Y-59896776D01*
X130808311Y-59998054D01*
X130808309Y-59998057D01*
X130802929Y-60005236D01*
X130752202Y-60140552D01*
X130745500Y-60202244D01*
X130745500Y-61797756D01*
X130752202Y-61859448D01*
X130802929Y-61994764D01*
X130808309Y-62001943D01*
X130808311Y-62001946D01*
X130855999Y-62065576D01*
X130889596Y-62110404D01*
X130896776Y-62115785D01*
X130998054Y-62191689D01*
X130998057Y-62191691D01*
X131005236Y-62197071D01*
X131088196Y-62228171D01*
X131133157Y-62245026D01*
X131133159Y-62245026D01*
X131140552Y-62247798D01*
X131148402Y-62248651D01*
X131148403Y-62248651D01*
X131198847Y-62254131D01*
X131202244Y-62254500D01*
X131797756Y-62254500D01*
X131801153Y-62254131D01*
X131851597Y-62248651D01*
X131851598Y-62248651D01*
X131859448Y-62247798D01*
X131866841Y-62245026D01*
X131866843Y-62245026D01*
X131911804Y-62228171D01*
X131994764Y-62197071D01*
X132001943Y-62191691D01*
X132001946Y-62191689D01*
X132103224Y-62115785D01*
X132110404Y-62110404D01*
X132144001Y-62065576D01*
X132191689Y-62001946D01*
X132191691Y-62001943D01*
X132197071Y-61994764D01*
X132247798Y-61859448D01*
X132254500Y-61797756D01*
X132254500Y-61755500D01*
X132274502Y-61687379D01*
X132328158Y-61640886D01*
X132380500Y-61629500D01*
X134921771Y-61629500D01*
X134932837Y-61630022D01*
X134940288Y-61631687D01*
X134948214Y-61631438D01*
X134948215Y-61631438D01*
X135007918Y-61629562D01*
X135011875Y-61629500D01*
X135039603Y-61629500D01*
X135043528Y-61629004D01*
X135043529Y-61629004D01*
X135055375Y-61628071D01*
X135084938Y-61627142D01*
X135091334Y-61626941D01*
X135091335Y-61626941D01*
X135099258Y-61626692D01*
X135118530Y-61621093D01*
X135137891Y-61617083D01*
X135140565Y-61616745D01*
X135149936Y-61615562D01*
X135149939Y-61615561D01*
X135157794Y-61614569D01*
X135165159Y-61611653D01*
X135165163Y-61611652D01*
X135198605Y-61598411D01*
X135209838Y-61594565D01*
X135244377Y-61584531D01*
X135244381Y-61584529D01*
X135251992Y-61582318D01*
X135269271Y-61572100D01*
X135287016Y-61563406D01*
X135305674Y-61556019D01*
X135312083Y-61551363D01*
X135312086Y-61551361D01*
X135341184Y-61530220D01*
X135351104Y-61523704D01*
X135382065Y-61505394D01*
X135382068Y-61505392D01*
X135388892Y-61501356D01*
X135403080Y-61487168D01*
X135418114Y-61474327D01*
X135427933Y-61467193D01*
X135434347Y-61462533D01*
X135462328Y-61428710D01*
X135470317Y-61419931D01*
X137151737Y-59738511D01*
X138835797Y-58054450D01*
X138844000Y-58046984D01*
X138850447Y-58042893D01*
X138896778Y-57993556D01*
X138899533Y-57990714D01*
X138919127Y-57971120D01*
X138921557Y-57967988D01*
X138921569Y-57967973D01*
X138929274Y-57958952D01*
X138953896Y-57932732D01*
X138959324Y-57926952D01*
X138968989Y-57909371D01*
X138979846Y-57892843D01*
X138987284Y-57883254D01*
X138987286Y-57883250D01*
X138992143Y-57876989D01*
X139006939Y-57842797D01*
X139009577Y-57836702D01*
X139014800Y-57826041D01*
X139032126Y-57794525D01*
X139032127Y-57794523D01*
X139035946Y-57787576D01*
X139040937Y-57768138D01*
X139047341Y-57749434D01*
X139052160Y-57738298D01*
X139052160Y-57738297D01*
X139055309Y-57731021D01*
X139059178Y-57706593D01*
X139062177Y-57687659D01*
X139064584Y-57676037D01*
X139069965Y-57655080D01*
X139075500Y-57633524D01*
X139075500Y-57613460D01*
X139077051Y-57593749D01*
X139078950Y-57581759D01*
X139080190Y-57573930D01*
X139076059Y-57530226D01*
X139075500Y-57518369D01*
X139075500Y-57512480D01*
X140325743Y-57512480D01*
X140326813Y-57518398D01*
X140333913Y-57625597D01*
X140338922Y-57701217D01*
X140340310Y-57722181D01*
X140388899Y-57926634D01*
X140390952Y-57931483D01*
X140390954Y-57931489D01*
X140443015Y-58054450D01*
X140470833Y-58120152D01*
X140583827Y-58297337D01*
X140622867Y-58340535D01*
X140660719Y-58382419D01*
X140724730Y-58453249D01*
X140742164Y-58467025D01*
X140885473Y-58580268D01*
X140885476Y-58580270D01*
X140889613Y-58583539D01*
X140894241Y-58586076D01*
X140894240Y-58586076D01*
X141069255Y-58682041D01*
X141069259Y-58682043D01*
X141073879Y-58684576D01*
X141078857Y-58686305D01*
X141078856Y-58686305D01*
X141267416Y-58751814D01*
X141267420Y-58751815D01*
X141272388Y-58753541D01*
X141370599Y-58770115D01*
X141474407Y-58787634D01*
X141474411Y-58787634D01*
X141479606Y-58788511D01*
X141689754Y-58788511D01*
X141694949Y-58787634D01*
X141694953Y-58787634D01*
X141798761Y-58770115D01*
X141896972Y-58753541D01*
X141901940Y-58751815D01*
X141901944Y-58751814D01*
X142090504Y-58686305D01*
X142090503Y-58686305D01*
X142095481Y-58684576D01*
X142100101Y-58682043D01*
X142100105Y-58682041D01*
X142275120Y-58586076D01*
X142275119Y-58586076D01*
X142279747Y-58583539D01*
X142283884Y-58580270D01*
X142283887Y-58580268D01*
X142427196Y-58467025D01*
X142444630Y-58453249D01*
X142508642Y-58382419D01*
X142546493Y-58340535D01*
X142585533Y-58297337D01*
X142698527Y-58120152D01*
X142726345Y-58054450D01*
X142778406Y-57931489D01*
X142778408Y-57931483D01*
X142780461Y-57926634D01*
X142829050Y-57722181D01*
X142830083Y-57706593D01*
X142841758Y-57530310D01*
X142842547Y-57518398D01*
X142843617Y-57512480D01*
X142840984Y-57500351D01*
X142840928Y-57497169D01*
X142838680Y-57476221D01*
X142838680Y-40057779D01*
X142840928Y-40036831D01*
X142840984Y-40033649D01*
X142843617Y-40021520D01*
X142842547Y-40015602D01*
X142829050Y-39811819D01*
X142780461Y-39607366D01*
X142778408Y-39602517D01*
X142778406Y-39602511D01*
X142700581Y-39418699D01*
X142700580Y-39418698D01*
X142698527Y-39413848D01*
X142585533Y-39236663D01*
X142508369Y-39151279D01*
X142448164Y-39084661D01*
X142448161Y-39084659D01*
X142444630Y-39080751D01*
X142363053Y-39016289D01*
X142283887Y-38953732D01*
X142283884Y-38953730D01*
X142279747Y-38950461D01*
X142232401Y-38924500D01*
X142100105Y-38851959D01*
X142100101Y-38851957D01*
X142095481Y-38849424D01*
X142053655Y-38834893D01*
X141901944Y-38782186D01*
X141901940Y-38782185D01*
X141896972Y-38780459D01*
X141795017Y-38763253D01*
X141694953Y-38746366D01*
X141694949Y-38746366D01*
X141689754Y-38745489D01*
X141479606Y-38745489D01*
X141474411Y-38746366D01*
X141474407Y-38746366D01*
X141374343Y-38763253D01*
X141272388Y-38780459D01*
X141267420Y-38782185D01*
X141267416Y-38782186D01*
X141115705Y-38834893D01*
X141073879Y-38849424D01*
X141069259Y-38851957D01*
X141069255Y-38851959D01*
X140936959Y-38924500D01*
X140889613Y-38950461D01*
X140885476Y-38953730D01*
X140885473Y-38953732D01*
X140806307Y-39016289D01*
X140724730Y-39080751D01*
X140721199Y-39084659D01*
X140721196Y-39084661D01*
X140660991Y-39151279D01*
X140583827Y-39236663D01*
X140470833Y-39413848D01*
X140468780Y-39418698D01*
X140468779Y-39418699D01*
X140390954Y-39602511D01*
X140390952Y-39602517D01*
X140388899Y-39607366D01*
X140340310Y-39811819D01*
X140339962Y-39817071D01*
X140339962Y-39817072D01*
X140335827Y-39879500D01*
X140326813Y-40015602D01*
X140325743Y-40021520D01*
X140328376Y-40033649D01*
X140328432Y-40036831D01*
X140330680Y-40057779D01*
X140330680Y-57476221D01*
X140328432Y-57497169D01*
X140328376Y-57500351D01*
X140325743Y-57512480D01*
X139075500Y-57512480D01*
X139075500Y-48507499D01*
X139095502Y-48439378D01*
X139149158Y-48392885D01*
X139201500Y-48381499D01*
X139221066Y-48381499D01*
X139256818Y-48374388D01*
X139283126Y-48369156D01*
X139283128Y-48369155D01*
X139295301Y-48366734D01*
X139305621Y-48359839D01*
X139305622Y-48359838D01*
X139369168Y-48317377D01*
X139379484Y-48310484D01*
X139435734Y-48226301D01*
X139450500Y-48152067D01*
X139450499Y-46592938D01*
X139470501Y-46524817D01*
X139487404Y-46503843D01*
X139583797Y-46407450D01*
X139592000Y-46399984D01*
X139598447Y-46395893D01*
X139610108Y-46383476D01*
X139644778Y-46346556D01*
X139647533Y-46343714D01*
X139667127Y-46324120D01*
X139669557Y-46320988D01*
X139669569Y-46320973D01*
X139677274Y-46311952D01*
X139701896Y-46285732D01*
X139707324Y-46279952D01*
X139716989Y-46262371D01*
X139727846Y-46245843D01*
X139735284Y-46236254D01*
X139735286Y-46236250D01*
X139740143Y-46229989D01*
X139743289Y-46222719D01*
X139743292Y-46222714D01*
X139757576Y-46189704D01*
X139762789Y-46179062D01*
X139783946Y-46140576D01*
X139788848Y-46121486D01*
X139788938Y-46121137D01*
X139795339Y-46102439D01*
X139800161Y-46091295D01*
X139800161Y-46091294D01*
X139803309Y-46084020D01*
X139810175Y-46040669D01*
X139812583Y-46029046D01*
X139821528Y-45994209D01*
X139821529Y-45994200D01*
X139823500Y-45986524D01*
X139823500Y-45966460D01*
X139825051Y-45946749D01*
X139826950Y-45934759D01*
X139828190Y-45926930D01*
X139824059Y-45883226D01*
X139823500Y-45871369D01*
X139823500Y-38328512D01*
X139838894Y-38268337D01*
X139843917Y-38261635D01*
X139847068Y-38253229D01*
X139889358Y-38140419D01*
X139889358Y-38140418D01*
X139892130Y-38133024D01*
X139896308Y-38094571D01*
X139898131Y-38077786D01*
X139898131Y-38077785D01*
X139898500Y-38074389D01*
X139898499Y-37483612D01*
X139898130Y-37480212D01*
X139892984Y-37432834D01*
X139892983Y-37432830D01*
X139892130Y-37424976D01*
X139843917Y-37296365D01*
X139838894Y-37289663D01*
X139823500Y-37229488D01*
X139823500Y-36586226D01*
X139824022Y-36575157D01*
X139825686Y-36567712D01*
X139823562Y-36500114D01*
X139823500Y-36496157D01*
X139823500Y-36468397D01*
X139823000Y-36464438D01*
X139822070Y-36452618D01*
X139820940Y-36416669D01*
X139820691Y-36408742D01*
X139815091Y-36389465D01*
X139811086Y-36370125D01*
X139808569Y-36350206D01*
X139805650Y-36342834D01*
X139805649Y-36342829D01*
X139792411Y-36309393D01*
X139788566Y-36298165D01*
X139785969Y-36289227D01*
X139776318Y-36256008D01*
X139766104Y-36238737D01*
X139757404Y-36220978D01*
X139752940Y-36209702D01*
X139752938Y-36209698D01*
X139750019Y-36202326D01*
X139724216Y-36166811D01*
X139717701Y-36156892D01*
X139699395Y-36125938D01*
X139699392Y-36125934D01*
X139695355Y-36119108D01*
X139681170Y-36104923D01*
X139668328Y-36089888D01*
X139656533Y-36073653D01*
X139622704Y-36045667D01*
X139613925Y-36037678D01*
X139186450Y-35610203D01*
X139178984Y-35602000D01*
X139174893Y-35595553D01*
X139125556Y-35549222D01*
X139122714Y-35546467D01*
X139103120Y-35526873D01*
X139099992Y-35524447D01*
X139099988Y-35524443D01*
X139099973Y-35524431D01*
X139090952Y-35516726D01*
X139064732Y-35492104D01*
X139058952Y-35486676D01*
X139041371Y-35477011D01*
X139024843Y-35466154D01*
X139015254Y-35458716D01*
X139015250Y-35458714D01*
X139008989Y-35453857D01*
X139001712Y-35450708D01*
X138968702Y-35436423D01*
X138958041Y-35431200D01*
X138926525Y-35413874D01*
X138926523Y-35413873D01*
X138919576Y-35410054D01*
X138900138Y-35405063D01*
X138881434Y-35398659D01*
X138870296Y-35393839D01*
X138870294Y-35393839D01*
X138863021Y-35390691D01*
X138855194Y-35389451D01*
X138855193Y-35389451D01*
X138831356Y-35385676D01*
X138819661Y-35383824D01*
X138808038Y-35381416D01*
X138773201Y-35372471D01*
X138773200Y-35372471D01*
X138765524Y-35370500D01*
X138745461Y-35370500D01*
X138725750Y-35368949D01*
X138713760Y-35367050D01*
X138705931Y-35365810D01*
X138672722Y-35368949D01*
X138662227Y-35369941D01*
X138650370Y-35370500D01*
X132380500Y-35370500D01*
X132312379Y-35350498D01*
X132265886Y-35296842D01*
X132254500Y-35244500D01*
X132254500Y-35202244D01*
X132247798Y-35140552D01*
X132197071Y-35005236D01*
X132191691Y-34998057D01*
X132191689Y-34998054D01*
X132115785Y-34896776D01*
X132110404Y-34889596D01*
X132089977Y-34874287D01*
X132001946Y-34808311D01*
X132001943Y-34808309D01*
X131994764Y-34802929D01*
X131904241Y-34768994D01*
X131866843Y-34754974D01*
X131866841Y-34754974D01*
X131859448Y-34752202D01*
X131851598Y-34751349D01*
X131851597Y-34751349D01*
X131801153Y-34745869D01*
X131801152Y-34745869D01*
X131797756Y-34745500D01*
X131202244Y-34745500D01*
X131198848Y-34745869D01*
X131198847Y-34745869D01*
X131148403Y-34751349D01*
X131148402Y-34751349D01*
X131140552Y-34752202D01*
X131133159Y-34754974D01*
X131133157Y-34754974D01*
X131095759Y-34768994D01*
X131005236Y-34802929D01*
X130998057Y-34808309D01*
X130998054Y-34808311D01*
X130910023Y-34874287D01*
X130889596Y-34889596D01*
X130884215Y-34896776D01*
X130808311Y-34998054D01*
X130808309Y-34998057D01*
X130802929Y-35005236D01*
X130752202Y-35140552D01*
X130745500Y-35202244D01*
X130745500Y-36797756D01*
X130752202Y-36859448D01*
X130802929Y-36994764D01*
X130808309Y-37001943D01*
X130808311Y-37001946D01*
X130865191Y-37077840D01*
X130889596Y-37110404D01*
X130896776Y-37115785D01*
X130972683Y-37172674D01*
X131015198Y-37229533D01*
X131020224Y-37300351D01*
X130986164Y-37362645D01*
X130923833Y-37396635D01*
X130897118Y-37399500D01*
X130179790Y-37399500D01*
X130111669Y-37379498D01*
X130065176Y-37325842D01*
X130055072Y-37255568D01*
X130072530Y-37207384D01*
X130151816Y-37078757D01*
X130157963Y-37065576D01*
X130209138Y-36911290D01*
X130212005Y-36897914D01*
X130221672Y-36803562D01*
X130222000Y-36797146D01*
X130222000Y-36272115D01*
X130217525Y-36256876D01*
X130216135Y-36255671D01*
X130208452Y-36254000D01*
X128224116Y-36254000D01*
X128208877Y-36258475D01*
X128207672Y-36259865D01*
X128206001Y-36267548D01*
X128206001Y-36797095D01*
X128206338Y-36803614D01*
X128216257Y-36899206D01*
X128219149Y-36912600D01*
X128270588Y-37066784D01*
X128276761Y-37079962D01*
X128362063Y-37217807D01*
X128371099Y-37229208D01*
X128485829Y-37343739D01*
X128497240Y-37352751D01*
X128635243Y-37437816D01*
X128648426Y-37443964D01*
X128773681Y-37485509D01*
X128832041Y-37525940D01*
X128859278Y-37591504D01*
X128846745Y-37661385D01*
X128823109Y-37694197D01*
X127165784Y-39351522D01*
X127147036Y-39366664D01*
X127145811Y-39367779D01*
X127137060Y-39373429D01*
X127130613Y-39381607D01*
X127130611Y-39381609D01*
X127116271Y-39399800D01*
X127112325Y-39404241D01*
X127112398Y-39404303D01*
X127109039Y-39408267D01*
X127105362Y-39411944D01*
X127094108Y-39427692D01*
X127090602Y-39432362D01*
X127058844Y-39472647D01*
X127055812Y-39481281D01*
X127050486Y-39488734D01*
X127047501Y-39498715D01*
X127035799Y-39537844D01*
X127033964Y-39543492D01*
X127023353Y-39573709D01*
X127016982Y-39591851D01*
X127016500Y-39597416D01*
X127016500Y-39600124D01*
X127016386Y-39602758D01*
X127016357Y-39602856D01*
X127016193Y-39602849D01*
X127016149Y-39603553D01*
X127014287Y-39609778D01*
X127014696Y-39620183D01*
X127016403Y-39663635D01*
X127016500Y-39668582D01*
X127016500Y-40459500D01*
X126996498Y-40527621D01*
X126942842Y-40574114D01*
X126890500Y-40585500D01*
X126782392Y-40585500D01*
X126734404Y-40591818D01*
X126699248Y-40608211D01*
X126629058Y-40618872D01*
X126592754Y-40608212D01*
X126557596Y-40591818D01*
X126509608Y-40585500D01*
X126401500Y-40585500D01*
X126333379Y-40565498D01*
X126286886Y-40511842D01*
X126275500Y-40459500D01*
X126275500Y-39313384D01*
X126295502Y-39245263D01*
X126312405Y-39224289D01*
X126846178Y-38690516D01*
X126908490Y-38656490D01*
X126937252Y-38653627D01*
X127061318Y-38655576D01*
X127061321Y-38655576D01*
X127068916Y-38655695D01*
X127223332Y-38620329D01*
X127293742Y-38584917D01*
X127358072Y-38552563D01*
X127358075Y-38552561D01*
X127364855Y-38549151D01*
X127370626Y-38544222D01*
X127370629Y-38544220D01*
X127479536Y-38451204D01*
X127479536Y-38451203D01*
X127485314Y-38446269D01*
X127577755Y-38317624D01*
X127636842Y-38170641D01*
X127652251Y-38062366D01*
X127658581Y-38017891D01*
X127658581Y-38017888D01*
X127659162Y-38013807D01*
X127659307Y-38000000D01*
X127657147Y-37982146D01*
X127650669Y-37928616D01*
X127640276Y-37842733D01*
X127584280Y-37694546D01*
X127518378Y-37598658D01*
X127498855Y-37570251D01*
X127498854Y-37570249D01*
X127494553Y-37563992D01*
X127376275Y-37458611D01*
X127369559Y-37455055D01*
X127363326Y-37450723D01*
X127364965Y-37448365D01*
X127323687Y-37408122D01*
X127307500Y-37346338D01*
X127307500Y-37327609D01*
X127327502Y-37259488D01*
X127381158Y-37212995D01*
X127389270Y-37209627D01*
X127422764Y-37197071D01*
X127429943Y-37191691D01*
X127429946Y-37191689D01*
X127531224Y-37115785D01*
X127538404Y-37110404D01*
X127562809Y-37077840D01*
X127619689Y-37001946D01*
X127619691Y-37001943D01*
X127625071Y-36994764D01*
X127675798Y-36859448D01*
X127682500Y-36797756D01*
X127682500Y-35727885D01*
X128206000Y-35727885D01*
X128210475Y-35743124D01*
X128211865Y-35744329D01*
X128219548Y-35746000D01*
X128941885Y-35746000D01*
X128957124Y-35741525D01*
X128958329Y-35740135D01*
X128960000Y-35732452D01*
X128960000Y-35727885D01*
X129468000Y-35727885D01*
X129472475Y-35743124D01*
X129473865Y-35744329D01*
X129481548Y-35746000D01*
X130203884Y-35746000D01*
X130219123Y-35741525D01*
X130220328Y-35740135D01*
X130221999Y-35732452D01*
X130221999Y-35202905D01*
X130221662Y-35196386D01*
X130211743Y-35100794D01*
X130208851Y-35087400D01*
X130157412Y-34933216D01*
X130151239Y-34920038D01*
X130065937Y-34782193D01*
X130056901Y-34770792D01*
X129942171Y-34656261D01*
X129930760Y-34647249D01*
X129792757Y-34562184D01*
X129779576Y-34556037D01*
X129625290Y-34504862D01*
X129611914Y-34501995D01*
X129517562Y-34492328D01*
X129511145Y-34492000D01*
X129486115Y-34492000D01*
X129470876Y-34496475D01*
X129469671Y-34497865D01*
X129468000Y-34505548D01*
X129468000Y-35727885D01*
X128960000Y-35727885D01*
X128960000Y-34510116D01*
X128955525Y-34494877D01*
X128954135Y-34493672D01*
X128946452Y-34492001D01*
X128916905Y-34492001D01*
X128910386Y-34492338D01*
X128814794Y-34502257D01*
X128801400Y-34505149D01*
X128647216Y-34556588D01*
X128634038Y-34562761D01*
X128496193Y-34648063D01*
X128484792Y-34657099D01*
X128370261Y-34771829D01*
X128361249Y-34783240D01*
X128276184Y-34921243D01*
X128270037Y-34934424D01*
X128218862Y-35088710D01*
X128215995Y-35102086D01*
X128206328Y-35196438D01*
X128206000Y-35202855D01*
X128206000Y-35727885D01*
X127682500Y-35727885D01*
X127682500Y-35202244D01*
X127675798Y-35140552D01*
X127625071Y-35005236D01*
X127619691Y-34998057D01*
X127619689Y-34998054D01*
X127543785Y-34896776D01*
X127538404Y-34889596D01*
X127517977Y-34874287D01*
X127429946Y-34808311D01*
X127429943Y-34808309D01*
X127422764Y-34802929D01*
X127332241Y-34768994D01*
X127294843Y-34754974D01*
X127294841Y-34754974D01*
X127287448Y-34752202D01*
X127279598Y-34751349D01*
X127279597Y-34751349D01*
X127229153Y-34745869D01*
X127229152Y-34745869D01*
X127225756Y-34745500D01*
X126630244Y-34745500D01*
X126626848Y-34745869D01*
X126626847Y-34745869D01*
X126576403Y-34751349D01*
X126576402Y-34751349D01*
X126568552Y-34752202D01*
X126561159Y-34754974D01*
X126561157Y-34754974D01*
X126523759Y-34768994D01*
X126433236Y-34802929D01*
X126426057Y-34808309D01*
X126426054Y-34808311D01*
X126338023Y-34874287D01*
X126317596Y-34889596D01*
X126312215Y-34896776D01*
X126236311Y-34998054D01*
X126236309Y-34998057D01*
X126230929Y-35005236D01*
X126180202Y-35140552D01*
X126173500Y-35202244D01*
X126173500Y-36797756D01*
X126180202Y-36859448D01*
X126230929Y-36994764D01*
X126236309Y-37001943D01*
X126236311Y-37001946D01*
X126293191Y-37077840D01*
X126317596Y-37110404D01*
X126324776Y-37115785D01*
X126426054Y-37191689D01*
X126426057Y-37191691D01*
X126433236Y-37197071D01*
X126466730Y-37209627D01*
X126523494Y-37252269D01*
X126548194Y-37318830D01*
X126548500Y-37327609D01*
X126548500Y-37469119D01*
X126528498Y-37537240D01*
X126516137Y-37553429D01*
X126515762Y-37553845D01*
X126510039Y-37558838D01*
X126418950Y-37688444D01*
X126407369Y-37718149D01*
X126365325Y-37825986D01*
X126361406Y-37836037D01*
X126360414Y-37843570D01*
X126360414Y-37843571D01*
X126342171Y-37982146D01*
X126340729Y-37993096D01*
X126341563Y-38000647D01*
X126346963Y-38049564D01*
X126334557Y-38119468D01*
X126310820Y-38152485D01*
X126048915Y-38414391D01*
X125839255Y-38624051D01*
X125776942Y-38658076D01*
X125706127Y-38653012D01*
X125664633Y-38627483D01*
X125660417Y-38623586D01*
X125656848Y-38620154D01*
X125306478Y-38269784D01*
X125291336Y-38251036D01*
X125290221Y-38249811D01*
X125284571Y-38241060D01*
X125276393Y-38234613D01*
X125276391Y-38234611D01*
X125258200Y-38220271D01*
X125253759Y-38216325D01*
X125253697Y-38216398D01*
X125249733Y-38213039D01*
X125246056Y-38209362D01*
X125230308Y-38198108D01*
X125225638Y-38194602D01*
X125185353Y-38162844D01*
X125176719Y-38159812D01*
X125169266Y-38154486D01*
X125120150Y-38139797D01*
X125114499Y-38137961D01*
X125105742Y-38134885D01*
X125048100Y-38093438D01*
X125022017Y-38027406D01*
X125021500Y-38016006D01*
X125021500Y-37327609D01*
X125041502Y-37259488D01*
X125095158Y-37212995D01*
X125103270Y-37209627D01*
X125136764Y-37197071D01*
X125143943Y-37191691D01*
X125143946Y-37191689D01*
X125245224Y-37115785D01*
X125252404Y-37110404D01*
X125276809Y-37077840D01*
X125333689Y-37001946D01*
X125333691Y-37001943D01*
X125339071Y-36994764D01*
X125389798Y-36859448D01*
X125396500Y-36797756D01*
X125396500Y-35202244D01*
X125389798Y-35140552D01*
X125339071Y-35005236D01*
X125333691Y-34998057D01*
X125333689Y-34998054D01*
X125257785Y-34896776D01*
X125252404Y-34889596D01*
X125231977Y-34874287D01*
X125143946Y-34808311D01*
X125143943Y-34808309D01*
X125136764Y-34802929D01*
X125046241Y-34768994D01*
X125008843Y-34754974D01*
X125008841Y-34754974D01*
X125001448Y-34752202D01*
X124993598Y-34751349D01*
X124993597Y-34751349D01*
X124943153Y-34745869D01*
X124943152Y-34745869D01*
X124939756Y-34745500D01*
X124344244Y-34745500D01*
X124340848Y-34745869D01*
X124340847Y-34745869D01*
X124290403Y-34751349D01*
X124290402Y-34751349D01*
X124282552Y-34752202D01*
X124275159Y-34754974D01*
X124275157Y-34754974D01*
X124237759Y-34768994D01*
X124147236Y-34802929D01*
X124140057Y-34808309D01*
X124140054Y-34808311D01*
X124052023Y-34874287D01*
X124031596Y-34889596D01*
X124026215Y-34896776D01*
X123950311Y-34998054D01*
X123950309Y-34998057D01*
X123944929Y-35005236D01*
X123894202Y-35140552D01*
X123887500Y-35202244D01*
X123887500Y-36797756D01*
X123894202Y-36859448D01*
X123944929Y-36994764D01*
X123950309Y-37001943D01*
X123950311Y-37001946D01*
X124007191Y-37077840D01*
X124031596Y-37110404D01*
X124038776Y-37115785D01*
X124140054Y-37191689D01*
X124140057Y-37191691D01*
X124147236Y-37197071D01*
X124180730Y-37209627D01*
X124237494Y-37252269D01*
X124262194Y-37318830D01*
X124262500Y-37327609D01*
X124262500Y-37729508D01*
X124242498Y-37797629D01*
X124188842Y-37844122D01*
X124118568Y-37854226D01*
X124105805Y-37851712D01*
X124090004Y-37847743D01*
X124090000Y-37847743D01*
X124082633Y-37845892D01*
X124075034Y-37845852D01*
X124075033Y-37845852D01*
X124009181Y-37845507D01*
X123924221Y-37845062D01*
X123916841Y-37846834D01*
X123916839Y-37846834D01*
X123777563Y-37880271D01*
X123777560Y-37880272D01*
X123770184Y-37882043D01*
X123629414Y-37954700D01*
X123510039Y-38058838D01*
X123418950Y-38188444D01*
X123393973Y-38252508D01*
X123366178Y-38323798D01*
X123361406Y-38336037D01*
X123360414Y-38343570D01*
X123360414Y-38343571D01*
X123342299Y-38481173D01*
X123340729Y-38493096D01*
X123347709Y-38556318D01*
X123355136Y-38623586D01*
X123358113Y-38650553D01*
X123360723Y-38657684D01*
X123360723Y-38657686D01*
X123405331Y-38779583D01*
X123412553Y-38799319D01*
X123416789Y-38805622D01*
X123416789Y-38805623D01*
X123491232Y-38916405D01*
X123500908Y-38930805D01*
X123506527Y-38935918D01*
X123506528Y-38935919D01*
X123594854Y-39016289D01*
X123618076Y-39037419D01*
X123757293Y-39113008D01*
X123910522Y-39153207D01*
X123994477Y-39154526D01*
X124061319Y-39155576D01*
X124061322Y-39155576D01*
X124068916Y-39155695D01*
X124223332Y-39120329D01*
X124308523Y-39077483D01*
X124358072Y-39052563D01*
X124358075Y-39052561D01*
X124364855Y-39049151D01*
X124370626Y-39044222D01*
X124370629Y-39044220D01*
X124479542Y-38951199D01*
X124479543Y-38951198D01*
X124485314Y-38946269D01*
X124489743Y-38940106D01*
X124489748Y-38940100D01*
X124492804Y-38935847D01*
X124548798Y-38892199D01*
X124582153Y-38886660D01*
X124581876Y-38884320D01*
X124615223Y-38880373D01*
X124630033Y-38879500D01*
X124790616Y-38879500D01*
X124858737Y-38899502D01*
X124879711Y-38916405D01*
X124979595Y-39016289D01*
X125013621Y-39078601D01*
X125016500Y-39105384D01*
X125016500Y-40760406D01*
X125004695Y-40813655D01*
X125001891Y-40819668D01*
X125001890Y-40819671D01*
X124997818Y-40828404D01*
X124991500Y-40876392D01*
X124991500Y-41181000D01*
X124971498Y-41249121D01*
X124917842Y-41295614D01*
X124865500Y-41307000D01*
X124864115Y-41307000D01*
X124848876Y-41311475D01*
X124847671Y-41312865D01*
X124846000Y-41320548D01*
X124846000Y-41934500D01*
X124825998Y-42002621D01*
X124772342Y-42049114D01*
X124720000Y-42060500D01*
X124568137Y-42060500D01*
X124500016Y-42040498D01*
X124453523Y-41986842D01*
X124443419Y-41916568D01*
X124472913Y-41851988D01*
X124532639Y-41813604D01*
X124543124Y-41810525D01*
X124544329Y-41809135D01*
X124546000Y-41801452D01*
X124546000Y-41325115D01*
X124541525Y-41309876D01*
X124540135Y-41308671D01*
X124532452Y-41307000D01*
X124311908Y-41307000D01*
X124303700Y-41307538D01*
X124201995Y-41320928D01*
X124186175Y-41325167D01*
X124059614Y-41377590D01*
X124045431Y-41385779D01*
X123936752Y-41469171D01*
X123925172Y-41480750D01*
X123841777Y-41589434D01*
X123833590Y-41603615D01*
X123781167Y-41730175D01*
X123776928Y-41745995D01*
X123770208Y-41797040D01*
X123772419Y-41811222D01*
X123785576Y-41815000D01*
X124249763Y-41815000D01*
X124317884Y-41835002D01*
X124364377Y-41888658D01*
X124374481Y-41958932D01*
X124344987Y-42023512D01*
X124285261Y-42061896D01*
X124271691Y-42064764D01*
X124268960Y-42065560D01*
X124259404Y-42066818D01*
X124250672Y-42070890D01*
X124250671Y-42070890D01*
X124181393Y-42103195D01*
X124128143Y-42115000D01*
X123785958Y-42115000D01*
X123772187Y-42119044D01*
X123770158Y-42132583D01*
X123776928Y-42184005D01*
X123781167Y-42199825D01*
X123833590Y-42326386D01*
X123841779Y-42340569D01*
X123925171Y-42449248D01*
X123936754Y-42460832D01*
X123967587Y-42484491D01*
X124009454Y-42541829D01*
X124016500Y-42575668D01*
X124016500Y-42578608D01*
X124022818Y-42626596D01*
X124039211Y-42661752D01*
X124049872Y-42731942D01*
X124039212Y-42768246D01*
X124022818Y-42803404D01*
X124016500Y-42851392D01*
X124016500Y-43078608D01*
X124022818Y-43126596D01*
X124039211Y-43161752D01*
X124049872Y-43231942D01*
X124039212Y-43268246D01*
X124022818Y-43303404D01*
X124016500Y-43351392D01*
X124016500Y-43578608D01*
X124022818Y-43626596D01*
X124039211Y-43661752D01*
X124049872Y-43731942D01*
X124039212Y-43768246D01*
X124022818Y-43803404D01*
X124016500Y-43851392D01*
X124016500Y-44078608D01*
X124022818Y-44126596D01*
X124039211Y-44161752D01*
X124049872Y-44231942D01*
X124039212Y-44268246D01*
X124022818Y-44303404D01*
X124016500Y-44351392D01*
X124016500Y-44578608D01*
X124022818Y-44626596D01*
X124026890Y-44635328D01*
X124026890Y-44635329D01*
X124065527Y-44718187D01*
X124071926Y-44731909D01*
X124154091Y-44814074D01*
X124164083Y-44818733D01*
X124164084Y-44818734D01*
X124250671Y-44859110D01*
X124250672Y-44859110D01*
X124259404Y-44863182D01*
X124268957Y-44864440D01*
X124268958Y-44864440D01*
X124294858Y-44867850D01*
X124307392Y-44869500D01*
X124865500Y-44869500D01*
X124933621Y-44889502D01*
X124980114Y-44943158D01*
X124991500Y-44995500D01*
X124991500Y-45553608D01*
X124997818Y-45601596D01*
X125001890Y-45610328D01*
X125001890Y-45610329D01*
X125035850Y-45683156D01*
X125046926Y-45706909D01*
X125129091Y-45789074D01*
X125139083Y-45793733D01*
X125139084Y-45793734D01*
X125225671Y-45834110D01*
X125225672Y-45834110D01*
X125234404Y-45838182D01*
X125243957Y-45839440D01*
X125243958Y-45839440D01*
X125269858Y-45842850D01*
X125282392Y-45844500D01*
X125390500Y-45844500D01*
X125458621Y-45864502D01*
X125505114Y-45918158D01*
X125516500Y-45970500D01*
X125516500Y-46168616D01*
X125496498Y-46236737D01*
X125479595Y-46257711D01*
X124739784Y-46997522D01*
X124721036Y-47012664D01*
X124719811Y-47013779D01*
X124711060Y-47019429D01*
X124704613Y-47027607D01*
X124704611Y-47027609D01*
X124690271Y-47045800D01*
X124686325Y-47050241D01*
X124686398Y-47050303D01*
X124683039Y-47054267D01*
X124679362Y-47057944D01*
X124668108Y-47073692D01*
X124664602Y-47078362D01*
X124632844Y-47118647D01*
X124629812Y-47127281D01*
X124624486Y-47134734D01*
X124617285Y-47158814D01*
X124609799Y-47183844D01*
X124607964Y-47189492D01*
X124590982Y-47237851D01*
X124590500Y-47243416D01*
X124590500Y-47246124D01*
X124590386Y-47248758D01*
X124590357Y-47248856D01*
X124590193Y-47248849D01*
X124590149Y-47249553D01*
X124588287Y-47255778D01*
X124588696Y-47266183D01*
X124590403Y-47309635D01*
X124590500Y-47314582D01*
X124590500Y-48153092D01*
X124570498Y-48221213D01*
X124516842Y-48267706D01*
X124508729Y-48271074D01*
X124487365Y-48279083D01*
X124480186Y-48284463D01*
X124480183Y-48284465D01*
X124430468Y-48321725D01*
X124377456Y-48361456D01*
X124372077Y-48368633D01*
X124300465Y-48464183D01*
X124300463Y-48464186D01*
X124295083Y-48471365D01*
X124291933Y-48479769D01*
X124291932Y-48479770D01*
X124264293Y-48553500D01*
X124246870Y-48599976D01*
X124246017Y-48607826D01*
X124246017Y-48607827D01*
X124240869Y-48655214D01*
X124240500Y-48658611D01*
X124240501Y-49199388D01*
X124246870Y-49258024D01*
X124295083Y-49386635D01*
X124300463Y-49393814D01*
X124300465Y-49393817D01*
X124334375Y-49439062D01*
X124349815Y-49459662D01*
X124349837Y-49459692D01*
X124374685Y-49526198D01*
X124359633Y-49595581D01*
X124315314Y-49642402D01*
X124267827Y-49671788D01*
X124256426Y-49680824D01*
X124146014Y-49791429D01*
X124137002Y-49802840D01*
X124054996Y-49935880D01*
X124048849Y-49949061D01*
X123999509Y-50097814D01*
X123996642Y-50111190D01*
X123987328Y-50202097D01*
X123987071Y-50207126D01*
X123991475Y-50222124D01*
X123992865Y-50223329D01*
X124000548Y-50225000D01*
X125098000Y-50225000D01*
X125166121Y-50245002D01*
X125212614Y-50298658D01*
X125224000Y-50351000D01*
X125224000Y-51418885D01*
X125228475Y-51434124D01*
X125229865Y-51435329D01*
X125237548Y-51437000D01*
X125265438Y-51437000D01*
X125271953Y-51436663D01*
X125364057Y-51427106D01*
X125377456Y-51424212D01*
X125526107Y-51374619D01*
X125539285Y-51368446D01*
X125668197Y-51288672D01*
X125736649Y-51269834D01*
X125804418Y-51290995D01*
X125849990Y-51345436D01*
X125860500Y-51395816D01*
X125860500Y-51539614D01*
X125840498Y-51607735D01*
X125823596Y-51628709D01*
X125696992Y-51755314D01*
X125669811Y-51782495D01*
X125661790Y-51789851D01*
X125638315Y-51809584D01*
X125629936Y-51816627D01*
X125624563Y-51825551D01*
X125617800Y-51833470D01*
X125617311Y-51833053D01*
X125610346Y-51841960D01*
X125357711Y-52094595D01*
X125295399Y-52128621D01*
X125268616Y-52131500D01*
X123909384Y-52131500D01*
X123841263Y-52111498D01*
X123820289Y-52094595D01*
X122475132Y-50749438D01*
X123987000Y-50749438D01*
X123987337Y-50755953D01*
X123996894Y-50848057D01*
X123999788Y-50861456D01*
X124049381Y-51010107D01*
X124055555Y-51023286D01*
X124137788Y-51156173D01*
X124146824Y-51167574D01*
X124257429Y-51277986D01*
X124268840Y-51286998D01*
X124401880Y-51369004D01*
X124415061Y-51375151D01*
X124563814Y-51424491D01*
X124577190Y-51427358D01*
X124668097Y-51436672D01*
X124674513Y-51437000D01*
X124697885Y-51437000D01*
X124713124Y-51432525D01*
X124714329Y-51431135D01*
X124716000Y-51423452D01*
X124716000Y-50751115D01*
X124711525Y-50735876D01*
X124710135Y-50734671D01*
X124702452Y-50733000D01*
X124005115Y-50733000D01*
X123989876Y-50737475D01*
X123988671Y-50738865D01*
X123987000Y-50746548D01*
X123987000Y-50749438D01*
X122475132Y-50749438D01*
X118528405Y-46802711D01*
X118494379Y-46740399D01*
X118491500Y-46713616D01*
X118491500Y-46247486D01*
X118511502Y-46179365D01*
X118565158Y-46132872D01*
X118617500Y-46121486D01*
X118862000Y-46121486D01*
X118961301Y-46101734D01*
X119045484Y-46045484D01*
X119101734Y-45961301D01*
X119121486Y-45862000D01*
X119121486Y-44712000D01*
X119118163Y-44678076D01*
X119117458Y-44670877D01*
X119117457Y-44670874D01*
X119116553Y-44661643D01*
X119096648Y-44613446D01*
X119089132Y-44542850D01*
X119095801Y-44520180D01*
X119101734Y-44511301D01*
X119121486Y-44412000D01*
X119121486Y-43708398D01*
X119141488Y-43640277D01*
X119158391Y-43619303D01*
X119482178Y-43295516D01*
X119544490Y-43261490D01*
X119573252Y-43258627D01*
X119697318Y-43260576D01*
X119697321Y-43260576D01*
X119704916Y-43260695D01*
X119859332Y-43225329D01*
X119940268Y-43184623D01*
X119994072Y-43157563D01*
X119994075Y-43157561D01*
X120000855Y-43154151D01*
X120006626Y-43149222D01*
X120006629Y-43149220D01*
X120115536Y-43056204D01*
X120115536Y-43056203D01*
X120121314Y-43051269D01*
X120213755Y-42922624D01*
X120272842Y-42775641D01*
X120280308Y-42723177D01*
X120294581Y-42622891D01*
X120294581Y-42622888D01*
X120295162Y-42618807D01*
X120295238Y-42611536D01*
X120295264Y-42609134D01*
X120295264Y-42609128D01*
X120295307Y-42605000D01*
X120276276Y-42447733D01*
X120220280Y-42299546D01*
X120139411Y-42181880D01*
X120134855Y-42175251D01*
X120134854Y-42175249D01*
X120130553Y-42168992D01*
X120012275Y-42063611D01*
X120004889Y-42059700D01*
X119936541Y-42023512D01*
X119872274Y-41989484D01*
X119718633Y-41950892D01*
X119711034Y-41950852D01*
X119711033Y-41950852D01*
X119645181Y-41950507D01*
X119560221Y-41950062D01*
X119552841Y-41951834D01*
X119552839Y-41951834D01*
X119413563Y-41985271D01*
X119413560Y-41985272D01*
X119406184Y-41987043D01*
X119265414Y-42059700D01*
X119146039Y-42163838D01*
X119054950Y-42293444D01*
X119036578Y-42340566D01*
X119002546Y-42427854D01*
X118997406Y-42441037D01*
X118996414Y-42448570D01*
X118996414Y-42448571D01*
X118977725Y-42590533D01*
X118976729Y-42598096D01*
X118979544Y-42623591D01*
X118982963Y-42654566D01*
X118970557Y-42724470D01*
X118946819Y-42757487D01*
X118706595Y-42997711D01*
X118644283Y-43031737D01*
X118573468Y-43026672D01*
X118516632Y-42984125D01*
X118491821Y-42917605D01*
X118491500Y-42908616D01*
X118491500Y-41597384D01*
X118511502Y-41529263D01*
X118528405Y-41508289D01*
X122078216Y-37958478D01*
X122096964Y-37943336D01*
X122098189Y-37942221D01*
X122106940Y-37936571D01*
X122113387Y-37928393D01*
X122113389Y-37928391D01*
X122127729Y-37910200D01*
X122131675Y-37905759D01*
X122131602Y-37905697D01*
X122134961Y-37901733D01*
X122138638Y-37898056D01*
X122149892Y-37882308D01*
X122153398Y-37877638D01*
X122185156Y-37837353D01*
X122188188Y-37828719D01*
X122193514Y-37821266D01*
X122208203Y-37772150D01*
X122210036Y-37766508D01*
X122224390Y-37725633D01*
X122224390Y-37725632D01*
X122227018Y-37718149D01*
X122227500Y-37712584D01*
X122227500Y-37709876D01*
X122227614Y-37707242D01*
X122227643Y-37707144D01*
X122227807Y-37707151D01*
X122227851Y-37706447D01*
X122229713Y-37700222D01*
X122227597Y-37646365D01*
X122227500Y-37641418D01*
X122227500Y-37327609D01*
X122247502Y-37259488D01*
X122301158Y-37212995D01*
X122309270Y-37209627D01*
X122342764Y-37197071D01*
X122349943Y-37191691D01*
X122349946Y-37191689D01*
X122451224Y-37115785D01*
X122458404Y-37110404D01*
X122482809Y-37077840D01*
X122539689Y-37001946D01*
X122539691Y-37001943D01*
X122545071Y-36994764D01*
X122595798Y-36859448D01*
X122602500Y-36797756D01*
X122602500Y-35202244D01*
X122595798Y-35140552D01*
X122545071Y-35005236D01*
X122539691Y-34998057D01*
X122539689Y-34998054D01*
X122463785Y-34896776D01*
X122458404Y-34889596D01*
X122437977Y-34874287D01*
X122349946Y-34808311D01*
X122349943Y-34808309D01*
X122342764Y-34802929D01*
X122252241Y-34768994D01*
X122214843Y-34754974D01*
X122214841Y-34754974D01*
X122207448Y-34752202D01*
X122199598Y-34751349D01*
X122199597Y-34751349D01*
X122149153Y-34745869D01*
X122149152Y-34745869D01*
X122145756Y-34745500D01*
X121550244Y-34745500D01*
X121546848Y-34745869D01*
X121546847Y-34745869D01*
X121496403Y-34751349D01*
X121496402Y-34751349D01*
X121488552Y-34752202D01*
X121481159Y-34754974D01*
X121481157Y-34754974D01*
X121443759Y-34768994D01*
X121353236Y-34802929D01*
X121346057Y-34808309D01*
X121346054Y-34808311D01*
X121258023Y-34874287D01*
X121237596Y-34889596D01*
X121232215Y-34896776D01*
X121156311Y-34998054D01*
X121156309Y-34998057D01*
X121150929Y-35005236D01*
X121100202Y-35140552D01*
X121093500Y-35202244D01*
X121093500Y-36797756D01*
X121100202Y-36859448D01*
X121150929Y-36994764D01*
X121156309Y-37001943D01*
X121156311Y-37001946D01*
X121213191Y-37077840D01*
X121237596Y-37110404D01*
X121244776Y-37115785D01*
X121346054Y-37191689D01*
X121346057Y-37191691D01*
X121353236Y-37197071D01*
X121386730Y-37209627D01*
X121443494Y-37252269D01*
X121468194Y-37318830D01*
X121468500Y-37327609D01*
X121468500Y-37442616D01*
X121448498Y-37510737D01*
X121431595Y-37531711D01*
X117881784Y-41081522D01*
X117863036Y-41096664D01*
X117861811Y-41097779D01*
X117853060Y-41103429D01*
X117846613Y-41111607D01*
X117846611Y-41111609D01*
X117832271Y-41129800D01*
X117828325Y-41134241D01*
X117828398Y-41134303D01*
X117825039Y-41138267D01*
X117821362Y-41141944D01*
X117810108Y-41157692D01*
X117806602Y-41162362D01*
X117774844Y-41202647D01*
X117771812Y-41211281D01*
X117766486Y-41218734D01*
X117763501Y-41228715D01*
X117751799Y-41267844D01*
X117749964Y-41273492D01*
X117735610Y-41314367D01*
X117732982Y-41321851D01*
X117732500Y-41327416D01*
X117732500Y-41330124D01*
X117732386Y-41332758D01*
X117732357Y-41332856D01*
X117732193Y-41332849D01*
X117732149Y-41333553D01*
X117730287Y-41339778D01*
X117730696Y-41350183D01*
X117732403Y-41393635D01*
X117732500Y-41398582D01*
X117732500Y-43026514D01*
X117712498Y-43094635D01*
X117658842Y-43141128D01*
X117606500Y-43152514D01*
X117362000Y-43152514D01*
X117262699Y-43172266D01*
X117252380Y-43179161D01*
X117244206Y-43184623D01*
X117178516Y-43228516D01*
X117122266Y-43312699D01*
X117102514Y-43412000D01*
X117102514Y-44412000D01*
X117107553Y-44462889D01*
X117122609Y-44499129D01*
X117127253Y-44510308D01*
X117134915Y-44580890D01*
X117128192Y-44603830D01*
X117122266Y-44612699D01*
X117119846Y-44624868D01*
X117119845Y-44624869D01*
X117111081Y-44668932D01*
X117102514Y-44712000D01*
X117102514Y-44856500D01*
X117082512Y-44924621D01*
X117028856Y-44971114D01*
X116976514Y-44982500D01*
X115691486Y-44982500D01*
X115623365Y-44962498D01*
X115576872Y-44908842D01*
X115565486Y-44856500D01*
X115565486Y-44675000D01*
X115560553Y-44624643D01*
X115540648Y-44576446D01*
X115533132Y-44505850D01*
X115539801Y-44483180D01*
X115545734Y-44474301D01*
X115565486Y-44375000D01*
X115565486Y-43708398D01*
X115585488Y-43640277D01*
X115602391Y-43619303D01*
X115926178Y-43295516D01*
X115988490Y-43261490D01*
X116017252Y-43258627D01*
X116141318Y-43260576D01*
X116141321Y-43260576D01*
X116148916Y-43260695D01*
X116303332Y-43225329D01*
X116384268Y-43184623D01*
X116438072Y-43157563D01*
X116438075Y-43157561D01*
X116444855Y-43154151D01*
X116450626Y-43149222D01*
X116450629Y-43149220D01*
X116559536Y-43056204D01*
X116559536Y-43056203D01*
X116565314Y-43051269D01*
X116657755Y-42922624D01*
X116716842Y-42775641D01*
X116724308Y-42723177D01*
X116738581Y-42622891D01*
X116738581Y-42622888D01*
X116739162Y-42618807D01*
X116739238Y-42611536D01*
X116739264Y-42609134D01*
X116739264Y-42609128D01*
X116739307Y-42605000D01*
X116720276Y-42447733D01*
X116664280Y-42299546D01*
X116583411Y-42181880D01*
X116578855Y-42175251D01*
X116578854Y-42175249D01*
X116574553Y-42168992D01*
X116456275Y-42063611D01*
X116437828Y-42053844D01*
X116421878Y-42045398D01*
X116371036Y-41995845D01*
X116355055Y-41926670D01*
X116379010Y-41859837D01*
X116391744Y-41844950D01*
X119792216Y-38444478D01*
X119810964Y-38429336D01*
X119812189Y-38428221D01*
X119820940Y-38422571D01*
X119827387Y-38414393D01*
X119827389Y-38414391D01*
X119841729Y-38396200D01*
X119845675Y-38391759D01*
X119845602Y-38391697D01*
X119848961Y-38387733D01*
X119852638Y-38384056D01*
X119863892Y-38368308D01*
X119867398Y-38363638D01*
X119899156Y-38323353D01*
X119902188Y-38314719D01*
X119907514Y-38307266D01*
X119922203Y-38258150D01*
X119924036Y-38252508D01*
X119938390Y-38211633D01*
X119938390Y-38211632D01*
X119941018Y-38204149D01*
X119941500Y-38198584D01*
X119941500Y-38195876D01*
X119941614Y-38193242D01*
X119941643Y-38193144D01*
X119941807Y-38193151D01*
X119941851Y-38192447D01*
X119943713Y-38186222D01*
X119941597Y-38132365D01*
X119941500Y-38127418D01*
X119941500Y-37327609D01*
X119961502Y-37259488D01*
X120015158Y-37212995D01*
X120023270Y-37209627D01*
X120056764Y-37197071D01*
X120063943Y-37191691D01*
X120063946Y-37191689D01*
X120165224Y-37115785D01*
X120172404Y-37110404D01*
X120196809Y-37077840D01*
X120253689Y-37001946D01*
X120253691Y-37001943D01*
X120259071Y-36994764D01*
X120309798Y-36859448D01*
X120316500Y-36797756D01*
X120316500Y-35202244D01*
X120309798Y-35140552D01*
X120259071Y-35005236D01*
X120253691Y-34998057D01*
X120253689Y-34998054D01*
X120177785Y-34896776D01*
X120172404Y-34889596D01*
X120151977Y-34874287D01*
X120063946Y-34808311D01*
X120063943Y-34808309D01*
X120056764Y-34802929D01*
X119966241Y-34768994D01*
X119928843Y-34754974D01*
X119928841Y-34754974D01*
X119921448Y-34752202D01*
X119913598Y-34751349D01*
X119913597Y-34751349D01*
X119863153Y-34745869D01*
X119863152Y-34745869D01*
X119859756Y-34745500D01*
X119264244Y-34745500D01*
X119260848Y-34745869D01*
X119260847Y-34745869D01*
X119210403Y-34751349D01*
X119210402Y-34751349D01*
X119202552Y-34752202D01*
X119195159Y-34754974D01*
X119195157Y-34754974D01*
X119157759Y-34768994D01*
X119067236Y-34802929D01*
X119060057Y-34808309D01*
X119060054Y-34808311D01*
X118972023Y-34874287D01*
X118951596Y-34889596D01*
X118946215Y-34896776D01*
X118870311Y-34998054D01*
X118870309Y-34998057D01*
X118864929Y-35005236D01*
X118814202Y-35140552D01*
X118807500Y-35202244D01*
X118807500Y-36797756D01*
X118814202Y-36859448D01*
X118864929Y-36994764D01*
X118870309Y-37001943D01*
X118870311Y-37001946D01*
X118927191Y-37077840D01*
X118951596Y-37110404D01*
X118958776Y-37115785D01*
X119060054Y-37191689D01*
X119060057Y-37191691D01*
X119067236Y-37197071D01*
X119100730Y-37209627D01*
X119157494Y-37252269D01*
X119182194Y-37318830D01*
X119182500Y-37327609D01*
X119182500Y-37928616D01*
X119162498Y-37996737D01*
X119145595Y-38017711D01*
X114325784Y-42837522D01*
X114307036Y-42852664D01*
X114305811Y-42853779D01*
X114297060Y-42859429D01*
X114290613Y-42867607D01*
X114290611Y-42867609D01*
X114276271Y-42885800D01*
X114272325Y-42890241D01*
X114272398Y-42890303D01*
X114269039Y-42894267D01*
X114265362Y-42897944D01*
X114254108Y-42913692D01*
X114250602Y-42918362D01*
X114218844Y-42958647D01*
X114215812Y-42967281D01*
X114210486Y-42974734D01*
X114201868Y-43003552D01*
X114195799Y-43023844D01*
X114193963Y-43029496D01*
X114193341Y-43031267D01*
X114151896Y-43088911D01*
X114085865Y-43114997D01*
X114074460Y-43115514D01*
X113806000Y-43115514D01*
X113706699Y-43135266D01*
X113622516Y-43191516D01*
X113566266Y-43275699D01*
X113546514Y-43375000D01*
X113546514Y-44375000D01*
X113551553Y-44425889D01*
X113566609Y-44462129D01*
X113571253Y-44473308D01*
X113578915Y-44543890D01*
X113572192Y-44566830D01*
X113566266Y-44575699D01*
X113563846Y-44587868D01*
X113563845Y-44587869D01*
X113556142Y-44626596D01*
X113546514Y-44675000D01*
X113546514Y-44819500D01*
X113526512Y-44887621D01*
X113472856Y-44934114D01*
X113420514Y-44945500D01*
X112135486Y-44945500D01*
X112067365Y-44925498D01*
X112020872Y-44871842D01*
X112009486Y-44819500D01*
X112009486Y-44675000D01*
X112004553Y-44624643D01*
X111984648Y-44576446D01*
X111977132Y-44505850D01*
X111983801Y-44483180D01*
X111989734Y-44474301D01*
X112009486Y-44375000D01*
X112009486Y-43708398D01*
X112029488Y-43640277D01*
X112046391Y-43619303D01*
X112370178Y-43295516D01*
X112432490Y-43261490D01*
X112461252Y-43258627D01*
X112585318Y-43260576D01*
X112585321Y-43260576D01*
X112592916Y-43260695D01*
X112747332Y-43225329D01*
X112828268Y-43184623D01*
X112882072Y-43157563D01*
X112882075Y-43157561D01*
X112888855Y-43154151D01*
X112894626Y-43149222D01*
X112894629Y-43149220D01*
X113003536Y-43056204D01*
X113003536Y-43056203D01*
X113009314Y-43051269D01*
X113101755Y-42922624D01*
X113160842Y-42775641D01*
X113168308Y-42723177D01*
X113182581Y-42622891D01*
X113182581Y-42622888D01*
X113183162Y-42618807D01*
X113183238Y-42611536D01*
X113183264Y-42609134D01*
X113183264Y-42609128D01*
X113183307Y-42605000D01*
X113164276Y-42447733D01*
X113108280Y-42299546D01*
X113027411Y-42181880D01*
X113022855Y-42175251D01*
X113022854Y-42175249D01*
X113018553Y-42168992D01*
X112900275Y-42063611D01*
X112892889Y-42059700D01*
X112824541Y-42023512D01*
X112760274Y-41989484D01*
X112606633Y-41950892D01*
X112599034Y-41950852D01*
X112599033Y-41950852D01*
X112565664Y-41950677D01*
X112489940Y-41950281D01*
X112421926Y-41929923D01*
X112375715Y-41876024D01*
X112365979Y-41805699D01*
X112395810Y-41741273D01*
X112401506Y-41735188D01*
X113320289Y-40816405D01*
X113382601Y-40782379D01*
X113409384Y-40779500D01*
X114796080Y-40779500D01*
X114820028Y-40782049D01*
X114821693Y-40782128D01*
X114831876Y-40784320D01*
X114842217Y-40783096D01*
X114865223Y-40780373D01*
X114871154Y-40780023D01*
X114871146Y-40779928D01*
X114876324Y-40779500D01*
X114881524Y-40779500D01*
X114886653Y-40778646D01*
X114886656Y-40778646D01*
X114900565Y-40776331D01*
X114906443Y-40775494D01*
X114947001Y-40770694D01*
X114947002Y-40770694D01*
X114957341Y-40769470D01*
X114965593Y-40765507D01*
X114974626Y-40764004D01*
X114983795Y-40759057D01*
X114983797Y-40759056D01*
X115019732Y-40739666D01*
X115025025Y-40736969D01*
X115064082Y-40718215D01*
X115064086Y-40718212D01*
X115071232Y-40714781D01*
X115075508Y-40711186D01*
X115077431Y-40709263D01*
X115079363Y-40707491D01*
X115079442Y-40707448D01*
X115079555Y-40707572D01*
X115080095Y-40707096D01*
X115085814Y-40704010D01*
X115122417Y-40664413D01*
X115125846Y-40660848D01*
X117506216Y-38280478D01*
X117524964Y-38265336D01*
X117526189Y-38264221D01*
X117534940Y-38258571D01*
X117541387Y-38250393D01*
X117541389Y-38250391D01*
X117555729Y-38232200D01*
X117559675Y-38227759D01*
X117559602Y-38227697D01*
X117562961Y-38223733D01*
X117566638Y-38220056D01*
X117577892Y-38204308D01*
X117581398Y-38199638D01*
X117613156Y-38159353D01*
X117616188Y-38150719D01*
X117621514Y-38143266D01*
X117636203Y-38094150D01*
X117638036Y-38088508D01*
X117652390Y-38047633D01*
X117652390Y-38047632D01*
X117655018Y-38040149D01*
X117655500Y-38034584D01*
X117655500Y-38031876D01*
X117655614Y-38029242D01*
X117655643Y-38029144D01*
X117655807Y-38029151D01*
X117655851Y-38028447D01*
X117657713Y-38022222D01*
X117655597Y-37968365D01*
X117655500Y-37963418D01*
X117655500Y-37327609D01*
X117675502Y-37259488D01*
X117729158Y-37212995D01*
X117737270Y-37209627D01*
X117770764Y-37197071D01*
X117777943Y-37191691D01*
X117777946Y-37191689D01*
X117879224Y-37115785D01*
X117886404Y-37110404D01*
X117910809Y-37077840D01*
X117967689Y-37001946D01*
X117967691Y-37001943D01*
X117973071Y-36994764D01*
X118023798Y-36859448D01*
X118030500Y-36797756D01*
X118030500Y-35202244D01*
X118023798Y-35140552D01*
X117973071Y-35005236D01*
X117967691Y-34998057D01*
X117967689Y-34998054D01*
X117891785Y-34896776D01*
X117886404Y-34889596D01*
X117865977Y-34874287D01*
X117777946Y-34808311D01*
X117777943Y-34808309D01*
X117770764Y-34802929D01*
X117680241Y-34768994D01*
X117642843Y-34754974D01*
X117642841Y-34754974D01*
X117635448Y-34752202D01*
X117627598Y-34751349D01*
X117627597Y-34751349D01*
X117577153Y-34745869D01*
X117577152Y-34745869D01*
X117573756Y-34745500D01*
X116978244Y-34745500D01*
X116974848Y-34745869D01*
X116974847Y-34745869D01*
X116924403Y-34751349D01*
X116924402Y-34751349D01*
X116916552Y-34752202D01*
X116909159Y-34754974D01*
X116909157Y-34754974D01*
X116871759Y-34768994D01*
X116781236Y-34802929D01*
X116774057Y-34808309D01*
X116774054Y-34808311D01*
X116686023Y-34874287D01*
X116665596Y-34889596D01*
X116660215Y-34896776D01*
X116584311Y-34998054D01*
X116584309Y-34998057D01*
X116578929Y-35005236D01*
X116528202Y-35140552D01*
X116521500Y-35202244D01*
X116521500Y-36797756D01*
X116528202Y-36859448D01*
X116578929Y-36994764D01*
X116584309Y-37001943D01*
X116584311Y-37001946D01*
X116641191Y-37077840D01*
X116665596Y-37110404D01*
X116672776Y-37115785D01*
X116774054Y-37191689D01*
X116774057Y-37191691D01*
X116781236Y-37197071D01*
X116814730Y-37209627D01*
X116871494Y-37252269D01*
X116896194Y-37318830D01*
X116896500Y-37327609D01*
X116896500Y-37764616D01*
X116876498Y-37832737D01*
X116859595Y-37853711D01*
X114729711Y-39983595D01*
X114667399Y-40017621D01*
X114640616Y-40020500D01*
X113621943Y-40020500D01*
X113553822Y-40000498D01*
X113507329Y-39946842D01*
X113497225Y-39876568D01*
X113526719Y-39811988D01*
X113534253Y-39804852D01*
X113535814Y-39804010D01*
X113540536Y-39798901D01*
X113540542Y-39798896D01*
X113572416Y-39764414D01*
X113575846Y-39760848D01*
X115220216Y-38116478D01*
X115238964Y-38101336D01*
X115240189Y-38100221D01*
X115248940Y-38094571D01*
X115255387Y-38086393D01*
X115255389Y-38086391D01*
X115269729Y-38068200D01*
X115273675Y-38063759D01*
X115273602Y-38063697D01*
X115276961Y-38059733D01*
X115280638Y-38056056D01*
X115291892Y-38040308D01*
X115295398Y-38035638D01*
X115327156Y-37995353D01*
X115330188Y-37986719D01*
X115335514Y-37979266D01*
X115350203Y-37930150D01*
X115352036Y-37924508D01*
X115366390Y-37883633D01*
X115366390Y-37883632D01*
X115369018Y-37876149D01*
X115369500Y-37870584D01*
X115369500Y-37867876D01*
X115369614Y-37865242D01*
X115369643Y-37865144D01*
X115369807Y-37865151D01*
X115369851Y-37864447D01*
X115371713Y-37858222D01*
X115369597Y-37804365D01*
X115369500Y-37799418D01*
X115369500Y-37327609D01*
X115389502Y-37259488D01*
X115443158Y-37212995D01*
X115451270Y-37209627D01*
X115484764Y-37197071D01*
X115491943Y-37191691D01*
X115491946Y-37191689D01*
X115593224Y-37115785D01*
X115600404Y-37110404D01*
X115624809Y-37077840D01*
X115681689Y-37001946D01*
X115681691Y-37001943D01*
X115687071Y-36994764D01*
X115737798Y-36859448D01*
X115744500Y-36797756D01*
X115744500Y-35202244D01*
X115737798Y-35140552D01*
X115687071Y-35005236D01*
X115681691Y-34998057D01*
X115681689Y-34998054D01*
X115605785Y-34896776D01*
X115600404Y-34889596D01*
X115579977Y-34874287D01*
X115491946Y-34808311D01*
X115491943Y-34808309D01*
X115484764Y-34802929D01*
X115394241Y-34768994D01*
X115356843Y-34754974D01*
X115356841Y-34754974D01*
X115349448Y-34752202D01*
X115341598Y-34751349D01*
X115341597Y-34751349D01*
X115291153Y-34745869D01*
X115291152Y-34745869D01*
X115287756Y-34745500D01*
X114692244Y-34745500D01*
X114688848Y-34745869D01*
X114688847Y-34745869D01*
X114638403Y-34751349D01*
X114638402Y-34751349D01*
X114630552Y-34752202D01*
X114623159Y-34754974D01*
X114623157Y-34754974D01*
X114585759Y-34768994D01*
X114495236Y-34802929D01*
X114488057Y-34808309D01*
X114488054Y-34808311D01*
X114400023Y-34874287D01*
X114379596Y-34889596D01*
X114374215Y-34896776D01*
X114298311Y-34998054D01*
X114298309Y-34998057D01*
X114292929Y-35005236D01*
X114242202Y-35140552D01*
X114235500Y-35202244D01*
X114235500Y-36797756D01*
X114242202Y-36859448D01*
X114292929Y-36994764D01*
X114298309Y-37001943D01*
X114298311Y-37001946D01*
X114355191Y-37077840D01*
X114379596Y-37110404D01*
X114386776Y-37115785D01*
X114488054Y-37191689D01*
X114488057Y-37191691D01*
X114495236Y-37197071D01*
X114528730Y-37209627D01*
X114585494Y-37252269D01*
X114610194Y-37318830D01*
X114610500Y-37327609D01*
X114610500Y-37600616D01*
X114590498Y-37668737D01*
X114573595Y-37689711D01*
X113179711Y-39083595D01*
X113117399Y-39117621D01*
X113090616Y-39120500D01*
X110906450Y-39120500D01*
X110882503Y-39117951D01*
X110880837Y-39117872D01*
X110870654Y-39115680D01*
X110860312Y-39116904D01*
X110860309Y-39116904D01*
X110837317Y-39119626D01*
X110831376Y-39119977D01*
X110831384Y-39120072D01*
X110826204Y-39120500D01*
X110821006Y-39120500D01*
X110815884Y-39121353D01*
X110815879Y-39121353D01*
X110801957Y-39123671D01*
X110796080Y-39124508D01*
X110789579Y-39125277D01*
X110755527Y-39129307D01*
X110755525Y-39129308D01*
X110745189Y-39130531D01*
X110736940Y-39134492D01*
X110727904Y-39135996D01*
X110718735Y-39140943D01*
X110718733Y-39140944D01*
X110682770Y-39160348D01*
X110677481Y-39163043D01*
X110638445Y-39181788D01*
X110631298Y-39185220D01*
X110627022Y-39188814D01*
X110625082Y-39190754D01*
X110623171Y-39192507D01*
X110623081Y-39192556D01*
X110622969Y-39192433D01*
X110622434Y-39192905D01*
X110616716Y-39195990D01*
X110609649Y-39203635D01*
X110580114Y-39235586D01*
X110576684Y-39239152D01*
X107213784Y-42602052D01*
X107195036Y-42617194D01*
X107193811Y-42618309D01*
X107185060Y-42623959D01*
X107178613Y-42632137D01*
X107178611Y-42632139D01*
X107164271Y-42650330D01*
X107160325Y-42654771D01*
X107160398Y-42654833D01*
X107157039Y-42658797D01*
X107153362Y-42662474D01*
X107142108Y-42678222D01*
X107138602Y-42682892D01*
X107106844Y-42723177D01*
X107103812Y-42731811D01*
X107098486Y-42739264D01*
X107095501Y-42749245D01*
X107083799Y-42788374D01*
X107081964Y-42794022D01*
X107067610Y-42834897D01*
X107064982Y-42842381D01*
X107064500Y-42847946D01*
X107064500Y-42850654D01*
X107064386Y-42853288D01*
X107064357Y-42853386D01*
X107064193Y-42853379D01*
X107064149Y-42854083D01*
X107062287Y-42860308D01*
X107063518Y-42891634D01*
X107064403Y-42914165D01*
X107064500Y-42919112D01*
X107064500Y-42989514D01*
X107044498Y-43057635D01*
X106990842Y-43104128D01*
X106938500Y-43115514D01*
X106694000Y-43115514D01*
X106594699Y-43135266D01*
X106510516Y-43191516D01*
X106454266Y-43275699D01*
X106434514Y-43375000D01*
X106434514Y-44375000D01*
X106439553Y-44425889D01*
X106454609Y-44462129D01*
X106459253Y-44473308D01*
X106466915Y-44543890D01*
X106460192Y-44566830D01*
X106454266Y-44575699D01*
X106451846Y-44587868D01*
X106451845Y-44587869D01*
X106444142Y-44626596D01*
X106434514Y-44675000D01*
X106434514Y-45825000D01*
X105838680Y-45825000D01*
X105838680Y-40057779D01*
X105840928Y-40036831D01*
X105840984Y-40033649D01*
X105843617Y-40021520D01*
X105842547Y-40015602D01*
X105829050Y-39811819D01*
X105780461Y-39607366D01*
X105778408Y-39602517D01*
X105778406Y-39602511D01*
X105700581Y-39418699D01*
X105700580Y-39418698D01*
X105698527Y-39413848D01*
X105585533Y-39236663D01*
X105508369Y-39151279D01*
X105448164Y-39084661D01*
X105448161Y-39084659D01*
X105444630Y-39080751D01*
X105363053Y-39016289D01*
X105283887Y-38953732D01*
X105283884Y-38953730D01*
X105279747Y-38950461D01*
X105232401Y-38924500D01*
X105100105Y-38851959D01*
X105100101Y-38851957D01*
X105095481Y-38849424D01*
X105053655Y-38834893D01*
X104901944Y-38782186D01*
X104901940Y-38782185D01*
X104896972Y-38780459D01*
X104795017Y-38763253D01*
X104694953Y-38746366D01*
X104694949Y-38746366D01*
X104689754Y-38745489D01*
X104479606Y-38745489D01*
X104474411Y-38746366D01*
X104474407Y-38746366D01*
X104374343Y-38763253D01*
X104272388Y-38780459D01*
X104267420Y-38782185D01*
X104267416Y-38782186D01*
X104115705Y-38834893D01*
X104073879Y-38849424D01*
X104069259Y-38851957D01*
X104069255Y-38851959D01*
X103936959Y-38924500D01*
X103889613Y-38950461D01*
X103885476Y-38953730D01*
X103885473Y-38953732D01*
X103806307Y-39016289D01*
X103724730Y-39080751D01*
X103721199Y-39084659D01*
X103721196Y-39084661D01*
X103660991Y-39151279D01*
X103583827Y-39236663D01*
X103470833Y-39413848D01*
X103468780Y-39418698D01*
X103468779Y-39418699D01*
X103390954Y-39602511D01*
X103390952Y-39602517D01*
X103388899Y-39607366D01*
X103340310Y-39811819D01*
X103339962Y-39817071D01*
X103339962Y-39817072D01*
X103335827Y-39879500D01*
X103326813Y-40015602D01*
X103325743Y-40021520D01*
X103328376Y-40033649D01*
X103328432Y-40036831D01*
X103330680Y-40057779D01*
X103330680Y-57476221D01*
X103328432Y-57497169D01*
X103328376Y-57500351D01*
X103325743Y-57512480D01*
X101764000Y-57512480D01*
X101764000Y-36957425D01*
X101766421Y-36932844D01*
X101768976Y-36920000D01*
X101766556Y-36907830D01*
X101766556Y-36895419D01*
X101766757Y-36895419D01*
X101765992Y-36884528D01*
X101766038Y-36883721D01*
X101780870Y-36619607D01*
X101782451Y-36605570D01*
X101787753Y-36574369D01*
X101831663Y-36315934D01*
X101834807Y-36302159D01*
X101887543Y-36119108D01*
X101916141Y-36019844D01*
X101920802Y-36006523D01*
X102033234Y-35735088D01*
X102039363Y-35722361D01*
X102181474Y-35465232D01*
X102188991Y-35453269D01*
X102358994Y-35213671D01*
X102367804Y-35202623D01*
X102371179Y-35198847D01*
X102563571Y-34983560D01*
X102573561Y-34973570D01*
X102633463Y-34920038D01*
X102792624Y-34777803D01*
X102803671Y-34768994D01*
X102823431Y-34754974D01*
X103043269Y-34598991D01*
X103055232Y-34591474D01*
X103157501Y-34534951D01*
X103312365Y-34449361D01*
X103325088Y-34443234D01*
X103596523Y-34330802D01*
X103609844Y-34326141D01*
X103805400Y-34269802D01*
X103892159Y-34244807D01*
X103905934Y-34241663D01*
X104050752Y-34217057D01*
X104195575Y-34192450D01*
X104209607Y-34190870D01*
X104474531Y-34175992D01*
X104485419Y-34176757D01*
X104485419Y-34176556D01*
X104497830Y-34176556D01*
X104510000Y-34178976D01*
X104522847Y-34176421D01*
X104547425Y-34174000D01*
X141472575Y-34174000D01*
X141497153Y-34176421D01*
G37*
%TD.AperFunction*%
%TA.AperFunction,Conductor*%
G36*
X131170567Y-44889502D02*
G01*
X131178011Y-44894674D01*
X131211179Y-44919532D01*
X131211182Y-44919534D01*
X131218365Y-44924917D01*
X131226769Y-44928067D01*
X131226770Y-44928068D01*
X131339581Y-44970358D01*
X131339582Y-44970358D01*
X131346976Y-44973130D01*
X131354826Y-44973983D01*
X131354827Y-44973983D01*
X131402205Y-44979130D01*
X131405611Y-44979500D01*
X131700956Y-44979500D01*
X131996388Y-44979499D01*
X131999782Y-44979130D01*
X131999788Y-44979130D01*
X132047166Y-44973984D01*
X132047170Y-44973983D01*
X132055024Y-44973130D01*
X132062424Y-44970356D01*
X132062428Y-44970355D01*
X132128682Y-44945518D01*
X132172910Y-44937500D01*
X135172839Y-44937500D01*
X135240960Y-44957502D01*
X135261934Y-44974405D01*
X135604595Y-45317066D01*
X135638621Y-45379378D01*
X135641500Y-45406161D01*
X135641500Y-45746501D01*
X135621498Y-45814622D01*
X135567842Y-45861115D01*
X135515500Y-45872501D01*
X135370934Y-45872501D01*
X135335182Y-45879612D01*
X135308874Y-45884844D01*
X135308872Y-45884845D01*
X135296699Y-45887266D01*
X135286379Y-45894161D01*
X135286378Y-45894162D01*
X135229339Y-45932275D01*
X135161587Y-45953490D01*
X135093120Y-45934707D01*
X135048817Y-45888019D01*
X135040788Y-45873354D01*
X134964285Y-45771276D01*
X134951724Y-45758715D01*
X134849649Y-45682214D01*
X134834054Y-45673676D01*
X134713606Y-45628522D01*
X134698351Y-45624895D01*
X134647486Y-45619369D01*
X134640672Y-45619000D01*
X134118115Y-45619000D01*
X134102876Y-45623475D01*
X134101671Y-45624865D01*
X134100000Y-45632548D01*
X134100000Y-47255000D01*
X134079998Y-47323121D01*
X134026342Y-47369614D01*
X133974000Y-47381000D01*
X132606116Y-47381000D01*
X132590877Y-47385475D01*
X132589672Y-47386865D01*
X132588001Y-47394548D01*
X132588001Y-48171669D01*
X132588371Y-48178490D01*
X132593895Y-48229352D01*
X132597521Y-48244604D01*
X132642676Y-48365054D01*
X132651214Y-48380649D01*
X132724126Y-48477935D01*
X132748974Y-48544442D01*
X132733921Y-48613824D01*
X132683747Y-48664054D01*
X132623300Y-48679500D01*
X130953507Y-48679500D01*
X130948231Y-48679389D01*
X130935513Y-48678856D01*
X130888701Y-48676894D01*
X130850885Y-48685764D01*
X130848173Y-48686400D01*
X130836500Y-48688563D01*
X130803780Y-48693045D01*
X130795268Y-48694211D01*
X130787385Y-48697623D01*
X130787383Y-48697623D01*
X130782395Y-48699782D01*
X130761128Y-48706816D01*
X130747460Y-48710022D01*
X130739937Y-48714158D01*
X130739934Y-48714159D01*
X130710982Y-48730076D01*
X130700321Y-48735298D01*
X130662126Y-48751827D01*
X130655454Y-48757230D01*
X130655452Y-48757231D01*
X130651219Y-48760659D01*
X130632633Y-48773148D01*
X130626117Y-48776730D01*
X130626110Y-48776735D01*
X130620331Y-48779912D01*
X130612517Y-48786656D01*
X130589096Y-48810077D01*
X130579306Y-48818893D01*
X130549382Y-48843125D01*
X130544406Y-48850127D01*
X130544404Y-48850129D01*
X130539135Y-48857543D01*
X130525524Y-48873649D01*
X129380864Y-50018310D01*
X129377055Y-50021963D01*
X129339501Y-50056496D01*
X129339499Y-50056499D01*
X129333178Y-50062311D01*
X129328653Y-50069609D01*
X129328652Y-50069610D01*
X129311242Y-50097689D01*
X129304521Y-50107468D01*
X129279355Y-50140623D01*
X129276192Y-50148613D01*
X129276190Y-50148616D01*
X129275653Y-50149972D01*
X129274835Y-50151021D01*
X129271975Y-50156096D01*
X129271211Y-50155665D01*
X129231981Y-50205947D01*
X129164978Y-50229425D01*
X129095919Y-50212952D01*
X129046729Y-50161758D01*
X129032500Y-50103592D01*
X129032500Y-46854885D01*
X132588000Y-46854885D01*
X132592475Y-46870124D01*
X132593865Y-46871329D01*
X132601548Y-46873000D01*
X133573885Y-46873000D01*
X133589124Y-46868525D01*
X133590329Y-46867135D01*
X133592000Y-46859452D01*
X133592000Y-45637116D01*
X133587525Y-45621877D01*
X133586135Y-45620672D01*
X133578452Y-45619001D01*
X133051331Y-45619001D01*
X133044510Y-45619371D01*
X132993648Y-45624895D01*
X132978396Y-45628521D01*
X132857946Y-45673676D01*
X132842351Y-45682214D01*
X132740276Y-45758715D01*
X132727715Y-45771276D01*
X132651214Y-45873351D01*
X132642676Y-45888946D01*
X132597522Y-46009394D01*
X132593895Y-46024649D01*
X132588369Y-46075514D01*
X132588000Y-46082328D01*
X132588000Y-46854885D01*
X129032500Y-46854885D01*
X129032500Y-46468925D01*
X129035050Y-46444967D01*
X129035128Y-46443308D01*
X129037321Y-46433124D01*
X129036097Y-46422782D01*
X129036097Y-46422779D01*
X129033374Y-46399779D01*
X129033024Y-46393848D01*
X129032928Y-46393856D01*
X129032500Y-46388680D01*
X129032500Y-46383476D01*
X129029327Y-46364412D01*
X129028496Y-46358566D01*
X129024750Y-46326922D01*
X129022470Y-46307659D01*
X129018507Y-46299407D01*
X129017004Y-46290374D01*
X129001895Y-46262371D01*
X128992666Y-46245268D01*
X128989969Y-46239975D01*
X128971215Y-46200919D01*
X128971214Y-46200918D01*
X128967781Y-46193768D01*
X128964187Y-46189493D01*
X128962262Y-46187568D01*
X128960491Y-46185638D01*
X128960445Y-46185553D01*
X128960568Y-46185441D01*
X128960096Y-46184906D01*
X128957010Y-46179186D01*
X128917413Y-46142583D01*
X128913848Y-46139154D01*
X128337405Y-45562711D01*
X128303379Y-45500399D01*
X128300500Y-45473616D01*
X128300500Y-44995500D01*
X128320502Y-44927379D01*
X128374158Y-44880886D01*
X128426500Y-44869500D01*
X131102446Y-44869500D01*
X131170567Y-44889502D01*
G37*
%TD.AperFunction*%
%TD*%
M02*
