M48
; DRILL file {KiCad 6.0.2-378541a8eb~116~ubuntu20.04.1} date Mon 07 Mar 2022 20:32:19
; FORMAT={-:-/ absolute / inch / decimal}
; #@! TF.CreationDate,2022-03-07T20:32:19+02:00
; #@! TF.GenerationSoftware,Kicad,Pcbnew,6.0.2-378541a8eb~116~ubuntu20.04.1
; #@! TF.FileFunction,Plated,1,2,PTH
FMAT,2
INCH
; #@! TA.AperFunction,Plated,PTH,ViaDrill
T1C0.0157
%
G90
G05
T1
X4.2901Y-1.6774
X4.4301Y-1.6774
X4.4551Y-2.2224
X4.5201Y-2.2224
X4.5701Y-1.6774
X4.5701Y-2.2224
X4.6501Y-2.2174
X4.7101Y-1.6774
X4.7501Y-2.2774
X4.8251Y-2.2774
X4.8819Y-1.5157
X4.9901Y-2.0724
X5.0Y-1.4961
X5.0201Y-2.3074
X5.0301Y-1.8524
X5.1401Y-2.1674
X5.1651Y-2.2224
X5.1772Y-1.5551
X5.1969Y-1.8504
X5.1969Y-1.8898
X5.3851Y-1.9574
T0
M30
