%TF.GenerationSoftware,KiCad,Pcbnew,6.0.2-378541a8eb~116~ubuntu20.04.1*%
%TF.CreationDate,2022-03-05T23:19:36+02:00*%
%TF.ProjectId,ActionPCB,41637469-6f6e-4504-9342-2e6b69636164,rev?*%
%TF.SameCoordinates,Original*%
%TF.FileFunction,Legend,Top*%
%TF.FilePolarity,Positive*%
%FSLAX46Y46*%
G04 Gerber Fmt 4.6, Leading zero omitted, Abs format (unit mm)*
G04 Created by KiCad (PCBNEW 6.0.2-378541a8eb~116~ubuntu20.04.1) date 2022-03-05 23:19:36*
%MOMM*%
%LPD*%
G01*
G04 APERTURE LIST*
%ADD10C,0.150000*%
%ADD11C,0.120000*%
G04 APERTURE END LIST*
D10*
%TO.C,U1*%
X123065095Y-39136380D02*
X123065095Y-39945904D01*
X123112714Y-40041142D01*
X123160333Y-40088761D01*
X123255571Y-40136380D01*
X123446047Y-40136380D01*
X123541285Y-40088761D01*
X123588904Y-40041142D01*
X123636523Y-39945904D01*
X123636523Y-39136380D01*
X124636523Y-40136380D02*
X124065095Y-40136380D01*
X124350809Y-40136380D02*
X124350809Y-39136380D01*
X124255571Y-39279238D01*
X124160333Y-39374476D01*
X124065095Y-39422095D01*
%TO.C,P16*%
X112071714Y-35564380D02*
X112071714Y-34564380D01*
X112452666Y-34564380D01*
X112547904Y-34612000D01*
X112595523Y-34659619D01*
X112643142Y-34754857D01*
X112643142Y-34897714D01*
X112595523Y-34992952D01*
X112547904Y-35040571D01*
X112452666Y-35088190D01*
X112071714Y-35088190D01*
X113595523Y-35564380D02*
X113024095Y-35564380D01*
X113309809Y-35564380D02*
X113309809Y-34564380D01*
X113214571Y-34707238D01*
X113119333Y-34802476D01*
X113024095Y-34850095D01*
X114452666Y-34564380D02*
X114262190Y-34564380D01*
X114166952Y-34612000D01*
X114119333Y-34659619D01*
X114024095Y-34802476D01*
X113976476Y-34992952D01*
X113976476Y-35373904D01*
X114024095Y-35469142D01*
X114071714Y-35516761D01*
X114166952Y-35564380D01*
X114357428Y-35564380D01*
X114452666Y-35516761D01*
X114500285Y-35469142D01*
X114547904Y-35373904D01*
X114547904Y-35135809D01*
X114500285Y-35040571D01*
X114452666Y-34992952D01*
X114357428Y-34945333D01*
X114166952Y-34945333D01*
X114071714Y-34992952D01*
X114024095Y-35040571D01*
X113976476Y-35135809D01*
%TO.C,P4*%
X124993904Y-61167380D02*
X124993904Y-60167380D01*
X125374857Y-60167380D01*
X125470095Y-60215000D01*
X125517714Y-60262619D01*
X125565333Y-60357857D01*
X125565333Y-60500714D01*
X125517714Y-60595952D01*
X125470095Y-60643571D01*
X125374857Y-60691190D01*
X124993904Y-60691190D01*
X126422476Y-60500714D02*
X126422476Y-61167380D01*
X126184380Y-60119761D02*
X125946285Y-60834047D01*
X126565333Y-60834047D01*
%TO.C,D2*%
X129819904Y-54741380D02*
X129819904Y-53741380D01*
X130058000Y-53741380D01*
X130200857Y-53789000D01*
X130296095Y-53884238D01*
X130343714Y-53979476D01*
X130391333Y-54169952D01*
X130391333Y-54312809D01*
X130343714Y-54503285D01*
X130296095Y-54598523D01*
X130200857Y-54693761D01*
X130058000Y-54741380D01*
X129819904Y-54741380D01*
X130772285Y-53836619D02*
X130819904Y-53789000D01*
X130915142Y-53741380D01*
X131153238Y-53741380D01*
X131248476Y-53789000D01*
X131296095Y-53836619D01*
X131343714Y-53931857D01*
X131343714Y-54027095D01*
X131296095Y-54169952D01*
X130724666Y-54741380D01*
X131343714Y-54741380D01*
%TO.C,R3*%
X136232333Y-51566380D02*
X135899000Y-51090190D01*
X135660904Y-51566380D02*
X135660904Y-50566380D01*
X136041857Y-50566380D01*
X136137095Y-50614000D01*
X136184714Y-50661619D01*
X136232333Y-50756857D01*
X136232333Y-50899714D01*
X136184714Y-50994952D01*
X136137095Y-51042571D01*
X136041857Y-51090190D01*
X135660904Y-51090190D01*
X136565666Y-50566380D02*
X137184714Y-50566380D01*
X136851380Y-50947333D01*
X136994238Y-50947333D01*
X137089476Y-50994952D01*
X137137095Y-51042571D01*
X137184714Y-51137809D01*
X137184714Y-51375904D01*
X137137095Y-51471142D01*
X137089476Y-51518761D01*
X136994238Y-51566380D01*
X136708523Y-51566380D01*
X136613285Y-51518761D01*
X136565666Y-51471142D01*
%TO.C,P14*%
X118421714Y-37215380D02*
X118421714Y-36215380D01*
X118802666Y-36215380D01*
X118897904Y-36263000D01*
X118945523Y-36310619D01*
X118993142Y-36405857D01*
X118993142Y-36548714D01*
X118945523Y-36643952D01*
X118897904Y-36691571D01*
X118802666Y-36739190D01*
X118421714Y-36739190D01*
X119945523Y-37215380D02*
X119374095Y-37215380D01*
X119659809Y-37215380D02*
X119659809Y-36215380D01*
X119564571Y-36358238D01*
X119469333Y-36453476D01*
X119374095Y-36501095D01*
X120802666Y-36548714D02*
X120802666Y-37215380D01*
X120564571Y-36167761D02*
X120326476Y-36882047D01*
X120945523Y-36882047D01*
%TO.C,JP2*%
X124644666Y-57551380D02*
X124644666Y-58265666D01*
X124597047Y-58408523D01*
X124501809Y-58503761D01*
X124358952Y-58551380D01*
X124263714Y-58551380D01*
X125120857Y-58551380D02*
X125120857Y-57551380D01*
X125501809Y-57551380D01*
X125597047Y-57599000D01*
X125644666Y-57646619D01*
X125692285Y-57741857D01*
X125692285Y-57884714D01*
X125644666Y-57979952D01*
X125597047Y-58027571D01*
X125501809Y-58075190D01*
X125120857Y-58075190D01*
X126073238Y-57646619D02*
X126120857Y-57599000D01*
X126216095Y-57551380D01*
X126454190Y-57551380D01*
X126549428Y-57599000D01*
X126597047Y-57646619D01*
X126644666Y-57741857D01*
X126644666Y-57837095D01*
X126597047Y-57979952D01*
X126025619Y-58551380D01*
X126644666Y-58551380D01*
%TO.C,C4*%
X138252333Y-36612142D02*
X138204714Y-36659761D01*
X138061857Y-36707380D01*
X137966619Y-36707380D01*
X137823761Y-36659761D01*
X137728523Y-36564523D01*
X137680904Y-36469285D01*
X137633285Y-36278809D01*
X137633285Y-36135952D01*
X137680904Y-35945476D01*
X137728523Y-35850238D01*
X137823761Y-35755000D01*
X137966619Y-35707380D01*
X138061857Y-35707380D01*
X138204714Y-35755000D01*
X138252333Y-35802619D01*
X139109476Y-36040714D02*
X139109476Y-36707380D01*
X138871380Y-35659761D02*
X138633285Y-36374047D01*
X139252333Y-36374047D01*
%TO.C,P3*%
X127279904Y-61167380D02*
X127279904Y-60167380D01*
X127660857Y-60167380D01*
X127756095Y-60215000D01*
X127803714Y-60262619D01*
X127851333Y-60357857D01*
X127851333Y-60500714D01*
X127803714Y-60595952D01*
X127756095Y-60643571D01*
X127660857Y-60691190D01*
X127279904Y-60691190D01*
X128184666Y-60167380D02*
X128803714Y-60167380D01*
X128470380Y-60548333D01*
X128613238Y-60548333D01*
X128708476Y-60595952D01*
X128756095Y-60643571D01*
X128803714Y-60738809D01*
X128803714Y-60976904D01*
X128756095Y-61072142D01*
X128708476Y-61119761D01*
X128613238Y-61167380D01*
X128327523Y-61167380D01*
X128232285Y-61119761D01*
X128184666Y-61072142D01*
%TO.C,P12*%
X123501714Y-37088380D02*
X123501714Y-36088380D01*
X123882666Y-36088380D01*
X123977904Y-36136000D01*
X124025523Y-36183619D01*
X124073142Y-36278857D01*
X124073142Y-36421714D01*
X124025523Y-36516952D01*
X123977904Y-36564571D01*
X123882666Y-36612190D01*
X123501714Y-36612190D01*
X125025523Y-37088380D02*
X124454095Y-37088380D01*
X124739809Y-37088380D02*
X124739809Y-36088380D01*
X124644571Y-36231238D01*
X124549333Y-36326476D01*
X124454095Y-36374095D01*
X125406476Y-36183619D02*
X125454095Y-36136000D01*
X125549333Y-36088380D01*
X125787428Y-36088380D01*
X125882666Y-36136000D01*
X125930285Y-36183619D01*
X125977904Y-36278857D01*
X125977904Y-36374095D01*
X125930285Y-36516952D01*
X125358857Y-37088380D01*
X125977904Y-37088380D01*
%TO.C,P11*%
X126295714Y-37088380D02*
X126295714Y-36088380D01*
X126676666Y-36088380D01*
X126771904Y-36136000D01*
X126819523Y-36183619D01*
X126867142Y-36278857D01*
X126867142Y-36421714D01*
X126819523Y-36516952D01*
X126771904Y-36564571D01*
X126676666Y-36612190D01*
X126295714Y-36612190D01*
X127819523Y-37088380D02*
X127248095Y-37088380D01*
X127533809Y-37088380D02*
X127533809Y-36088380D01*
X127438571Y-36231238D01*
X127343333Y-36326476D01*
X127248095Y-36374095D01*
X128771904Y-37088380D02*
X128200476Y-37088380D01*
X128486190Y-37088380D02*
X128486190Y-36088380D01*
X128390952Y-36231238D01*
X128295714Y-36326476D01*
X128200476Y-36374095D01*
%TO.C,U2*%
X130812095Y-40279380D02*
X130812095Y-41088904D01*
X130859714Y-41184142D01*
X130907333Y-41231761D01*
X131002571Y-41279380D01*
X131193047Y-41279380D01*
X131288285Y-41231761D01*
X131335904Y-41184142D01*
X131383523Y-41088904D01*
X131383523Y-40279380D01*
X131812095Y-40374619D02*
X131859714Y-40327000D01*
X131954952Y-40279380D01*
X132193047Y-40279380D01*
X132288285Y-40327000D01*
X132335904Y-40374619D01*
X132383523Y-40469857D01*
X132383523Y-40565095D01*
X132335904Y-40707952D01*
X131764476Y-41279380D01*
X132383523Y-41279380D01*
%TO.C,JP7*%
X106610666Y-46248380D02*
X106610666Y-46962666D01*
X106563047Y-47105523D01*
X106467809Y-47200761D01*
X106324952Y-47248380D01*
X106229714Y-47248380D01*
X107086857Y-47248380D02*
X107086857Y-46248380D01*
X107467809Y-46248380D01*
X107563047Y-46296000D01*
X107610666Y-46343619D01*
X107658285Y-46438857D01*
X107658285Y-46581714D01*
X107610666Y-46676952D01*
X107563047Y-46724571D01*
X107467809Y-46772190D01*
X107086857Y-46772190D01*
X107991619Y-46248380D02*
X108658285Y-46248380D01*
X108229714Y-47248380D01*
%TO.C,JP6*%
X110293666Y-46338380D02*
X110293666Y-47052666D01*
X110246047Y-47195523D01*
X110150809Y-47290761D01*
X110007952Y-47338380D01*
X109912714Y-47338380D01*
X110769857Y-47338380D02*
X110769857Y-46338380D01*
X111150809Y-46338380D01*
X111246047Y-46386000D01*
X111293666Y-46433619D01*
X111341285Y-46528857D01*
X111341285Y-46671714D01*
X111293666Y-46766952D01*
X111246047Y-46814571D01*
X111150809Y-46862190D01*
X110769857Y-46862190D01*
X112198428Y-46338380D02*
X112007952Y-46338380D01*
X111912714Y-46386000D01*
X111865095Y-46433619D01*
X111769857Y-46576476D01*
X111722238Y-46766952D01*
X111722238Y-47147904D01*
X111769857Y-47243142D01*
X111817476Y-47290761D01*
X111912714Y-47338380D01*
X112103190Y-47338380D01*
X112198428Y-47290761D01*
X112246047Y-47243142D01*
X112293666Y-47147904D01*
X112293666Y-46909809D01*
X112246047Y-46814571D01*
X112198428Y-46766952D01*
X112103190Y-46719333D01*
X111912714Y-46719333D01*
X111817476Y-46766952D01*
X111769857Y-46814571D01*
X111722238Y-46909809D01*
%TO.C,P8*%
X115341904Y-61167380D02*
X115341904Y-60167380D01*
X115722857Y-60167380D01*
X115818095Y-60215000D01*
X115865714Y-60262619D01*
X115913333Y-60357857D01*
X115913333Y-60500714D01*
X115865714Y-60595952D01*
X115818095Y-60643571D01*
X115722857Y-60691190D01*
X115341904Y-60691190D01*
X116484761Y-60595952D02*
X116389523Y-60548333D01*
X116341904Y-60500714D01*
X116294285Y-60405476D01*
X116294285Y-60357857D01*
X116341904Y-60262619D01*
X116389523Y-60215000D01*
X116484761Y-60167380D01*
X116675238Y-60167380D01*
X116770476Y-60215000D01*
X116818095Y-60262619D01*
X116865714Y-60357857D01*
X116865714Y-60405476D01*
X116818095Y-60500714D01*
X116770476Y-60548333D01*
X116675238Y-60595952D01*
X116484761Y-60595952D01*
X116389523Y-60643571D01*
X116341904Y-60691190D01*
X116294285Y-60786428D01*
X116294285Y-60976904D01*
X116341904Y-61072142D01*
X116389523Y-61119761D01*
X116484761Y-61167380D01*
X116675238Y-61167380D01*
X116770476Y-61119761D01*
X116818095Y-61072142D01*
X116865714Y-60976904D01*
X116865714Y-60786428D01*
X116818095Y-60691190D01*
X116770476Y-60643571D01*
X116675238Y-60595952D01*
%TO.C,C1*%
X124803333Y-52360142D02*
X124755714Y-52407761D01*
X124612857Y-52455380D01*
X124517619Y-52455380D01*
X124374761Y-52407761D01*
X124279523Y-52312523D01*
X124231904Y-52217285D01*
X124184285Y-52026809D01*
X124184285Y-51883952D01*
X124231904Y-51693476D01*
X124279523Y-51598238D01*
X124374761Y-51503000D01*
X124517619Y-51455380D01*
X124612857Y-51455380D01*
X124755714Y-51503000D01*
X124803333Y-51550619D01*
X125755714Y-52455380D02*
X125184285Y-52455380D01*
X125470000Y-52455380D02*
X125470000Y-51455380D01*
X125374761Y-51598238D01*
X125279523Y-51693476D01*
X125184285Y-51741095D01*
%TO.C,R2*%
X121628333Y-53725380D02*
X121295000Y-53249190D01*
X121056904Y-53725380D02*
X121056904Y-52725380D01*
X121437857Y-52725380D01*
X121533095Y-52773000D01*
X121580714Y-52820619D01*
X121628333Y-52915857D01*
X121628333Y-53058714D01*
X121580714Y-53153952D01*
X121533095Y-53201571D01*
X121437857Y-53249190D01*
X121056904Y-53249190D01*
X122009285Y-52820619D02*
X122056904Y-52773000D01*
X122152142Y-52725380D01*
X122390238Y-52725380D01*
X122485476Y-52773000D01*
X122533095Y-52820619D01*
X122580714Y-52915857D01*
X122580714Y-53011095D01*
X122533095Y-53153952D01*
X121961666Y-53725380D01*
X122580714Y-53725380D01*
%TO.C,C2*%
X127343333Y-52360142D02*
X127295714Y-52407761D01*
X127152857Y-52455380D01*
X127057619Y-52455380D01*
X126914761Y-52407761D01*
X126819523Y-52312523D01*
X126771904Y-52217285D01*
X126724285Y-52026809D01*
X126724285Y-51883952D01*
X126771904Y-51693476D01*
X126819523Y-51598238D01*
X126914761Y-51503000D01*
X127057619Y-51455380D01*
X127152857Y-51455380D01*
X127295714Y-51503000D01*
X127343333Y-51550619D01*
X127724285Y-51550619D02*
X127771904Y-51503000D01*
X127867142Y-51455380D01*
X128105238Y-51455380D01*
X128200476Y-51503000D01*
X128248095Y-51550619D01*
X128295714Y-51645857D01*
X128295714Y-51741095D01*
X128248095Y-51883952D01*
X127676666Y-52455380D01*
X128295714Y-52455380D01*
%TO.C,JP5*%
X113722666Y-46338380D02*
X113722666Y-47052666D01*
X113675047Y-47195523D01*
X113579809Y-47290761D01*
X113436952Y-47338380D01*
X113341714Y-47338380D01*
X114198857Y-47338380D02*
X114198857Y-46338380D01*
X114579809Y-46338380D01*
X114675047Y-46386000D01*
X114722666Y-46433619D01*
X114770285Y-46528857D01*
X114770285Y-46671714D01*
X114722666Y-46766952D01*
X114675047Y-46814571D01*
X114579809Y-46862190D01*
X114198857Y-46862190D01*
X115675047Y-46338380D02*
X115198857Y-46338380D01*
X115151238Y-46814571D01*
X115198857Y-46766952D01*
X115294095Y-46719333D01*
X115532190Y-46719333D01*
X115627428Y-46766952D01*
X115675047Y-46814571D01*
X115722666Y-46909809D01*
X115722666Y-47147904D01*
X115675047Y-47243142D01*
X115627428Y-47290761D01*
X115532190Y-47338380D01*
X115294095Y-47338380D01*
X115198857Y-47290761D01*
X115151238Y-47243142D01*
%TO.C,D1*%
X129819904Y-49915380D02*
X129819904Y-48915380D01*
X130058000Y-48915380D01*
X130200857Y-48963000D01*
X130296095Y-49058238D01*
X130343714Y-49153476D01*
X130391333Y-49343952D01*
X130391333Y-49486809D01*
X130343714Y-49677285D01*
X130296095Y-49772523D01*
X130200857Y-49867761D01*
X130058000Y-49915380D01*
X129819904Y-49915380D01*
X131343714Y-49915380D02*
X130772285Y-49915380D01*
X131058000Y-49915380D02*
X131058000Y-48915380D01*
X130962761Y-49058238D01*
X130867523Y-49153476D01*
X130772285Y-49201095D01*
%TO.C,C5*%
X132058142Y-47826666D02*
X132105761Y-47874285D01*
X132153380Y-48017142D01*
X132153380Y-48112380D01*
X132105761Y-48255238D01*
X132010523Y-48350476D01*
X131915285Y-48398095D01*
X131724809Y-48445714D01*
X131581952Y-48445714D01*
X131391476Y-48398095D01*
X131296238Y-48350476D01*
X131201000Y-48255238D01*
X131153380Y-48112380D01*
X131153380Y-48017142D01*
X131201000Y-47874285D01*
X131248619Y-47826666D01*
X131153380Y-46921904D02*
X131153380Y-47398095D01*
X131629571Y-47445714D01*
X131581952Y-47398095D01*
X131534333Y-47302857D01*
X131534333Y-47064761D01*
X131581952Y-46969523D01*
X131629571Y-46921904D01*
X131724809Y-46874285D01*
X131962904Y-46874285D01*
X132058142Y-46921904D01*
X132105761Y-46969523D01*
X132153380Y-47064761D01*
X132153380Y-47302857D01*
X132105761Y-47398095D01*
X132058142Y-47445714D01*
%TO.C,P13*%
X121215714Y-37215380D02*
X121215714Y-36215380D01*
X121596666Y-36215380D01*
X121691904Y-36263000D01*
X121739523Y-36310619D01*
X121787142Y-36405857D01*
X121787142Y-36548714D01*
X121739523Y-36643952D01*
X121691904Y-36691571D01*
X121596666Y-36739190D01*
X121215714Y-36739190D01*
X122739523Y-37215380D02*
X122168095Y-37215380D01*
X122453809Y-37215380D02*
X122453809Y-36215380D01*
X122358571Y-36358238D01*
X122263333Y-36453476D01*
X122168095Y-36501095D01*
X123072857Y-36215380D02*
X123691904Y-36215380D01*
X123358571Y-36596333D01*
X123501428Y-36596333D01*
X123596666Y-36643952D01*
X123644285Y-36691571D01*
X123691904Y-36786809D01*
X123691904Y-37024904D01*
X123644285Y-37120142D01*
X123596666Y-37167761D01*
X123501428Y-37215380D01*
X123215714Y-37215380D01*
X123120476Y-37167761D01*
X123072857Y-37120142D01*
%TO.C,R4*%
X136233333Y-53217380D02*
X135900000Y-52741190D01*
X135661904Y-53217380D02*
X135661904Y-52217380D01*
X136042857Y-52217380D01*
X136138095Y-52265000D01*
X136185714Y-52312619D01*
X136233333Y-52407857D01*
X136233333Y-52550714D01*
X136185714Y-52645952D01*
X136138095Y-52693571D01*
X136042857Y-52741190D01*
X135661904Y-52741190D01*
X137090476Y-52550714D02*
X137090476Y-53217380D01*
X136852380Y-52169761D02*
X136614285Y-52884047D01*
X137233333Y-52884047D01*
%TO.C,P2*%
X129565904Y-61167380D02*
X129565904Y-60167380D01*
X129946857Y-60167380D01*
X130042095Y-60215000D01*
X130089714Y-60262619D01*
X130137333Y-60357857D01*
X130137333Y-60500714D01*
X130089714Y-60595952D01*
X130042095Y-60643571D01*
X129946857Y-60691190D01*
X129565904Y-60691190D01*
X130518285Y-60262619D02*
X130565904Y-60215000D01*
X130661142Y-60167380D01*
X130899238Y-60167380D01*
X130994476Y-60215000D01*
X131042095Y-60262619D01*
X131089714Y-60357857D01*
X131089714Y-60453095D01*
X131042095Y-60595952D01*
X130470666Y-61167380D01*
X131089714Y-61167380D01*
%TO.C,P15*%
X116008714Y-37215380D02*
X116008714Y-36215380D01*
X116389666Y-36215380D01*
X116484904Y-36263000D01*
X116532523Y-36310619D01*
X116580142Y-36405857D01*
X116580142Y-36548714D01*
X116532523Y-36643952D01*
X116484904Y-36691571D01*
X116389666Y-36739190D01*
X116008714Y-36739190D01*
X117532523Y-37215380D02*
X116961095Y-37215380D01*
X117246809Y-37215380D02*
X117246809Y-36215380D01*
X117151571Y-36358238D01*
X117056333Y-36453476D01*
X116961095Y-36501095D01*
X118437285Y-36215380D02*
X117961095Y-36215380D01*
X117913476Y-36691571D01*
X117961095Y-36643952D01*
X118056333Y-36596333D01*
X118294428Y-36596333D01*
X118389666Y-36643952D01*
X118437285Y-36691571D01*
X118484904Y-36786809D01*
X118484904Y-37024904D01*
X118437285Y-37120142D01*
X118389666Y-37167761D01*
X118294428Y-37215380D01*
X118056333Y-37215380D01*
X117961095Y-37167761D01*
X117913476Y-37120142D01*
%TO.C,C3*%
X134341333Y-36706142D02*
X134293714Y-36753761D01*
X134150857Y-36801380D01*
X134055619Y-36801380D01*
X133912761Y-36753761D01*
X133817523Y-36658523D01*
X133769904Y-36563285D01*
X133722285Y-36372809D01*
X133722285Y-36229952D01*
X133769904Y-36039476D01*
X133817523Y-35944238D01*
X133912761Y-35849000D01*
X134055619Y-35801380D01*
X134150857Y-35801380D01*
X134293714Y-35849000D01*
X134341333Y-35896619D01*
X134674666Y-35801380D02*
X135293714Y-35801380D01*
X134960380Y-36182333D01*
X135103238Y-36182333D01*
X135198476Y-36229952D01*
X135246095Y-36277571D01*
X135293714Y-36372809D01*
X135293714Y-36610904D01*
X135246095Y-36706142D01*
X135198476Y-36753761D01*
X135103238Y-36801380D01*
X134817523Y-36801380D01*
X134722285Y-36753761D01*
X134674666Y-36706142D01*
%TO.C,P6*%
X119913904Y-61167380D02*
X119913904Y-60167380D01*
X120294857Y-60167380D01*
X120390095Y-60215000D01*
X120437714Y-60262619D01*
X120485333Y-60357857D01*
X120485333Y-60500714D01*
X120437714Y-60595952D01*
X120390095Y-60643571D01*
X120294857Y-60691190D01*
X119913904Y-60691190D01*
X121342476Y-60167380D02*
X121152000Y-60167380D01*
X121056761Y-60215000D01*
X121009142Y-60262619D01*
X120913904Y-60405476D01*
X120866285Y-60595952D01*
X120866285Y-60976904D01*
X120913904Y-61072142D01*
X120961523Y-61119761D01*
X121056761Y-61167380D01*
X121247238Y-61167380D01*
X121342476Y-61119761D01*
X121390095Y-61072142D01*
X121437714Y-60976904D01*
X121437714Y-60738809D01*
X121390095Y-60643571D01*
X121342476Y-60595952D01*
X121247238Y-60548333D01*
X121056761Y-60548333D01*
X120961523Y-60595952D01*
X120913904Y-60643571D01*
X120866285Y-60738809D01*
%TO.C,P1*%
X131851904Y-61167380D02*
X131851904Y-60167380D01*
X132232857Y-60167380D01*
X132328095Y-60215000D01*
X132375714Y-60262619D01*
X132423333Y-60357857D01*
X132423333Y-60500714D01*
X132375714Y-60595952D01*
X132328095Y-60643571D01*
X132232857Y-60691190D01*
X131851904Y-60691190D01*
X133375714Y-61167380D02*
X132804285Y-61167380D01*
X133090000Y-61167380D02*
X133090000Y-60167380D01*
X132994761Y-60310238D01*
X132899523Y-60405476D01*
X132804285Y-60453095D01*
%TO.C,JP1*%
X132518666Y-57065380D02*
X132518666Y-57779666D01*
X132471047Y-57922523D01*
X132375809Y-58017761D01*
X132232952Y-58065380D01*
X132137714Y-58065380D01*
X132994857Y-58065380D02*
X132994857Y-57065380D01*
X133375809Y-57065380D01*
X133471047Y-57113000D01*
X133518666Y-57160619D01*
X133566285Y-57255857D01*
X133566285Y-57398714D01*
X133518666Y-57493952D01*
X133471047Y-57541571D01*
X133375809Y-57589190D01*
X132994857Y-57589190D01*
X134518666Y-58065380D02*
X133947238Y-58065380D01*
X134232952Y-58065380D02*
X134232952Y-57065380D01*
X134137714Y-57208238D01*
X134042476Y-57303476D01*
X133947238Y-57351095D01*
%TO.C,P7*%
X117627904Y-61167380D02*
X117627904Y-60167380D01*
X118008857Y-60167380D01*
X118104095Y-60215000D01*
X118151714Y-60262619D01*
X118199333Y-60357857D01*
X118199333Y-60500714D01*
X118151714Y-60595952D01*
X118104095Y-60643571D01*
X118008857Y-60691190D01*
X117627904Y-60691190D01*
X118532666Y-60167380D02*
X119199333Y-60167380D01*
X118770761Y-61167380D01*
%TO.C,JP4*%
X117151666Y-46338380D02*
X117151666Y-47052666D01*
X117104047Y-47195523D01*
X117008809Y-47290761D01*
X116865952Y-47338380D01*
X116770714Y-47338380D01*
X117627857Y-47338380D02*
X117627857Y-46338380D01*
X118008809Y-46338380D01*
X118104047Y-46386000D01*
X118151666Y-46433619D01*
X118199285Y-46528857D01*
X118199285Y-46671714D01*
X118151666Y-46766952D01*
X118104047Y-46814571D01*
X118008809Y-46862190D01*
X117627857Y-46862190D01*
X119056428Y-46671714D02*
X119056428Y-47338380D01*
X118818333Y-46290761D02*
X118580238Y-47005047D01*
X119199285Y-47005047D01*
%TO.C,JP3*%
X127438666Y-57551380D02*
X127438666Y-58265666D01*
X127391047Y-58408523D01*
X127295809Y-58503761D01*
X127152952Y-58551380D01*
X127057714Y-58551380D01*
X127914857Y-58551380D02*
X127914857Y-57551380D01*
X128295809Y-57551380D01*
X128391047Y-57599000D01*
X128438666Y-57646619D01*
X128486285Y-57741857D01*
X128486285Y-57884714D01*
X128438666Y-57979952D01*
X128391047Y-58027571D01*
X128295809Y-58075190D01*
X127914857Y-58075190D01*
X128819619Y-57551380D02*
X129438666Y-57551380D01*
X129105333Y-57932333D01*
X129248190Y-57932333D01*
X129343428Y-57979952D01*
X129391047Y-58027571D01*
X129438666Y-58122809D01*
X129438666Y-58360904D01*
X129391047Y-58456142D01*
X129343428Y-58503761D01*
X129248190Y-58551380D01*
X128962476Y-58551380D01*
X128867238Y-58503761D01*
X128819619Y-58456142D01*
%TO.C,P9*%
X131470904Y-37088380D02*
X131470904Y-36088380D01*
X131851857Y-36088380D01*
X131947095Y-36136000D01*
X131994714Y-36183619D01*
X132042333Y-36278857D01*
X132042333Y-36421714D01*
X131994714Y-36516952D01*
X131947095Y-36564571D01*
X131851857Y-36612190D01*
X131470904Y-36612190D01*
X132518523Y-37088380D02*
X132709000Y-37088380D01*
X132804238Y-37040761D01*
X132851857Y-36993142D01*
X132947095Y-36850285D01*
X132994714Y-36659809D01*
X132994714Y-36278857D01*
X132947095Y-36183619D01*
X132899476Y-36136000D01*
X132804238Y-36088380D01*
X132613761Y-36088380D01*
X132518523Y-36136000D01*
X132470904Y-36183619D01*
X132423285Y-36278857D01*
X132423285Y-36516952D01*
X132470904Y-36612190D01*
X132518523Y-36659809D01*
X132613761Y-36707428D01*
X132804238Y-36707428D01*
X132899476Y-36659809D01*
X132947095Y-36612190D01*
X132994714Y-36516952D01*
%TO.C,P10*%
X128962714Y-37088380D02*
X128962714Y-36088380D01*
X129343666Y-36088380D01*
X129438904Y-36136000D01*
X129486523Y-36183619D01*
X129534142Y-36278857D01*
X129534142Y-36421714D01*
X129486523Y-36516952D01*
X129438904Y-36564571D01*
X129343666Y-36612190D01*
X128962714Y-36612190D01*
X130486523Y-37088380D02*
X129915095Y-37088380D01*
X130200809Y-37088380D02*
X130200809Y-36088380D01*
X130105571Y-36231238D01*
X130010333Y-36326476D01*
X129915095Y-36374095D01*
X131105571Y-36088380D02*
X131200809Y-36088380D01*
X131296047Y-36136000D01*
X131343666Y-36183619D01*
X131391285Y-36278857D01*
X131438904Y-36469333D01*
X131438904Y-36707428D01*
X131391285Y-36897904D01*
X131343666Y-36993142D01*
X131296047Y-37040761D01*
X131200809Y-37088380D01*
X131105571Y-37088380D01*
X131010333Y-37040761D01*
X130962714Y-36993142D01*
X130915095Y-36897904D01*
X130867476Y-36707428D01*
X130867476Y-36469333D01*
X130915095Y-36278857D01*
X130962714Y-36183619D01*
X131010333Y-36136000D01*
X131105571Y-36088380D01*
%TO.C,P5*%
X122199904Y-61167380D02*
X122199904Y-60167380D01*
X122580857Y-60167380D01*
X122676095Y-60215000D01*
X122723714Y-60262619D01*
X122771333Y-60357857D01*
X122771333Y-60500714D01*
X122723714Y-60595952D01*
X122676095Y-60643571D01*
X122580857Y-60691190D01*
X122199904Y-60691190D01*
X123676095Y-60167380D02*
X123199904Y-60167380D01*
X123152285Y-60643571D01*
X123199904Y-60595952D01*
X123295142Y-60548333D01*
X123533238Y-60548333D01*
X123628476Y-60595952D01*
X123676095Y-60643571D01*
X123723714Y-60738809D01*
X123723714Y-60976904D01*
X123676095Y-61072142D01*
X123628476Y-61119761D01*
X123533238Y-61167380D01*
X123295142Y-61167380D01*
X123199904Y-61119761D01*
X123152285Y-61072142D01*
%TO.C,R1*%
X119723333Y-53725380D02*
X119390000Y-53249190D01*
X119151904Y-53725380D02*
X119151904Y-52725380D01*
X119532857Y-52725380D01*
X119628095Y-52773000D01*
X119675714Y-52820619D01*
X119723333Y-52915857D01*
X119723333Y-53058714D01*
X119675714Y-53153952D01*
X119628095Y-53201571D01*
X119532857Y-53249190D01*
X119151904Y-53249190D01*
X120675714Y-53725380D02*
X120104285Y-53725380D01*
X120390000Y-53725380D02*
X120390000Y-52725380D01*
X120294761Y-52868238D01*
X120199523Y-52963476D01*
X120104285Y-53011095D01*
%TO.C,U1*%
X128796000Y-45365000D02*
X128271000Y-45365000D01*
X124496000Y-45365000D02*
X125021000Y-45365000D01*
X124496000Y-41065000D02*
X125021000Y-41065000D01*
X124496000Y-45365000D02*
X124496000Y-44840000D01*
X128796000Y-45365000D02*
X128796000Y-44840000D01*
X128796000Y-41065000D02*
X128796000Y-41590000D01*
X128796000Y-41065000D02*
X128271000Y-41065000D01*
D11*
%TO.C,P16*%
X116780000Y-35239000D02*
G75*
G03*
X116780000Y-35239000I-700000J0D01*
G01*
%TO.C,P4*%
X126432000Y-62163000D02*
G75*
G03*
X126432000Y-62163000I-700000J0D01*
G01*
%TO.C,D2*%
X131992000Y-52030000D02*
X129707000Y-52030000D01*
X131992000Y-53500000D02*
X131992000Y-52030000D01*
X129707000Y-53500000D02*
X131992000Y-53500000D01*
%TO.C,R3*%
X134160258Y-50464500D02*
X133685742Y-50464500D01*
X134160258Y-51509500D02*
X133685742Y-51509500D01*
%TO.C,P14*%
X121352000Y-35239000D02*
G75*
G03*
X121352000Y-35239000I-700000J0D01*
G01*
%TO.C,JP2*%
X124478000Y-54159000D02*
X126478000Y-54159000D01*
X126478000Y-56959000D02*
X124478000Y-56959000D01*
X124478000Y-56959000D02*
X124478000Y-54159000D01*
X126478000Y-54159000D02*
X126478000Y-56959000D01*
%TO.C,C4*%
X138559580Y-37269000D02*
X138278420Y-37269000D01*
X138559580Y-38289000D02*
X138278420Y-38289000D01*
%TO.C,P3*%
X128718000Y-62163000D02*
G75*
G03*
X128718000Y-62163000I-700000J0D01*
G01*
%TO.C,P12*%
X126432000Y-35239000D02*
G75*
G03*
X126432000Y-35239000I-700000J0D01*
G01*
%TO.C,P11*%
X128718000Y-35239000D02*
G75*
G03*
X128718000Y-35239000I-700000J0D01*
G01*
%TO.C,U2*%
X139556000Y-42067000D02*
X138296000Y-42067000D01*
X132736000Y-48077000D02*
X132736000Y-42067000D01*
X132736000Y-42067000D02*
X133996000Y-42067000D01*
X139556000Y-45827000D02*
X139556000Y-42067000D01*
%TO.C,JP7*%
X106444000Y-43200000D02*
X108444000Y-43200000D01*
X106444000Y-46000000D02*
X106444000Y-43200000D01*
X108444000Y-43200000D02*
X108444000Y-46000000D01*
X108444000Y-46000000D02*
X106444000Y-46000000D01*
%TO.C,JP6*%
X112000000Y-43200000D02*
X112000000Y-46000000D01*
X110000000Y-46000000D02*
X110000000Y-43200000D01*
X110000000Y-43200000D02*
X112000000Y-43200000D01*
X112000000Y-46000000D02*
X110000000Y-46000000D01*
%TO.C,P8*%
X116780000Y-62163000D02*
G75*
G03*
X116780000Y-62163000I-700000J0D01*
G01*
%TO.C,C1*%
X125480000Y-49563420D02*
X125480000Y-49844580D01*
X124460000Y-49563420D02*
X124460000Y-49844580D01*
%TO.C,R2*%
X121145500Y-55321742D02*
X121145500Y-55796258D01*
X122190500Y-55321742D02*
X122190500Y-55796258D01*
%TO.C,C2*%
X128020000Y-49576420D02*
X128020000Y-49857580D01*
X127000000Y-49576420D02*
X127000000Y-49857580D01*
%TO.C,JP5*%
X115556000Y-43200000D02*
X115556000Y-46000000D01*
X115556000Y-46000000D02*
X113556000Y-46000000D01*
X113556000Y-43200000D02*
X115556000Y-43200000D01*
X113556000Y-46000000D02*
X113556000Y-43200000D01*
%TO.C,D1*%
X132017500Y-51722000D02*
X132017500Y-50252000D01*
X132017500Y-50252000D02*
X129732500Y-50252000D01*
X129732500Y-51722000D02*
X132017500Y-51722000D01*
%TO.C,C5*%
X132211000Y-45106420D02*
X132211000Y-45387580D01*
X131191000Y-45106420D02*
X131191000Y-45387580D01*
%TO.C,P13*%
X123638000Y-35239000D02*
G75*
G03*
X123638000Y-35239000I-700000J0D01*
G01*
%TO.C,R4*%
X134161258Y-53287500D02*
X133686742Y-53287500D01*
X134161258Y-52242500D02*
X133686742Y-52242500D01*
%TO.C,P2*%
X131004000Y-62163000D02*
G75*
G03*
X131004000Y-62163000I-700000J0D01*
G01*
%TO.C,P15*%
X119066000Y-35239000D02*
G75*
G03*
X119066000Y-35239000I-700000J0D01*
G01*
%TO.C,C3*%
X134367420Y-37269000D02*
X134648580Y-37269000D01*
X134367420Y-38289000D02*
X134648580Y-38289000D01*
%TO.C,P6*%
X121352000Y-62163000D02*
G75*
G03*
X121352000Y-62163000I-700000J0D01*
G01*
%TO.C,P1*%
X133290000Y-62163000D02*
G75*
G03*
X133290000Y-62163000I-700000J0D01*
G01*
%TO.C,JP1*%
X131952000Y-56813000D02*
X131952000Y-54813000D01*
X131952000Y-54813000D02*
X134752000Y-54813000D01*
X134752000Y-54813000D02*
X134752000Y-56813000D01*
X134752000Y-56813000D02*
X131952000Y-56813000D01*
%TO.C,P7*%
X119066000Y-62163000D02*
G75*
G03*
X119066000Y-62163000I-700000J0D01*
G01*
%TO.C,JP4*%
X119112000Y-46037000D02*
X117112000Y-46037000D01*
X119112000Y-43237000D02*
X119112000Y-46037000D01*
X117112000Y-46037000D02*
X117112000Y-43237000D01*
X117112000Y-43237000D02*
X119112000Y-43237000D01*
%TO.C,JP3*%
X129272000Y-56922000D02*
X127272000Y-56922000D01*
X127272000Y-54122000D02*
X129272000Y-54122000D01*
X129272000Y-54122000D02*
X129272000Y-56922000D01*
X127272000Y-56922000D02*
X127272000Y-54122000D01*
%TO.C,P9*%
X133290000Y-35239000D02*
G75*
G03*
X133290000Y-35239000I-700000J0D01*
G01*
%TO.C,P10*%
X131004000Y-35239000D02*
G75*
G03*
X131004000Y-35239000I-700000J0D01*
G01*
%TO.C,P5*%
X123638000Y-62163000D02*
G75*
G03*
X123638000Y-62163000I-700000J0D01*
G01*
%TO.C,R1*%
X119367500Y-55321742D02*
X119367500Y-55796258D01*
X120412500Y-55321742D02*
X120412500Y-55796258D01*
%TD*%
M02*
