%TF.GenerationSoftware,KiCad,Pcbnew,6.0.2-378541a8eb~116~ubuntu20.04.1*%
%TF.CreationDate,2022-03-05T23:19:35+02:00*%
%TF.ProjectId,ActionPCB,41637469-6f6e-4504-9342-2e6b69636164,rev?*%
%TF.SameCoordinates,Original*%
%TF.FileFunction,Copper,L1,Top*%
%TF.FilePolarity,Positive*%
%FSLAX46Y46*%
G04 Gerber Fmt 4.6, Leading zero omitted, Abs format (unit mm)*
G04 Created by KiCad (PCBNEW 6.0.2-378541a8eb~116~ubuntu20.04.1) date 2022-03-05 23:19:35*
%MOMM*%
%LPD*%
G01*
G04 APERTURE LIST*
G04 Aperture macros list*
%AMRoundRect*
0 Rectangle with rounded corners*
0 $1 Rounding radius*
0 $2 $3 $4 $5 $6 $7 $8 $9 X,Y pos of 4 corners*
0 Add a 4 corners polygon primitive as box body*
4,1,4,$2,$3,$4,$5,$6,$7,$8,$9,$2,$3,0*
0 Add four circle primitives for the rounded corners*
1,1,$1+$1,$2,$3*
1,1,$1+$1,$4,$5*
1,1,$1+$1,$6,$7*
1,1,$1+$1,$8,$9*
0 Add four rect primitives between the rounded corners*
20,1,$1+$1,$2,$3,$4,$5,0*
20,1,$1+$1,$4,$5,$6,$7,0*
20,1,$1+$1,$6,$7,$8,$9,0*
20,1,$1+$1,$8,$9,$2,$3,0*%
%AMFreePoly0*
4,1,6,0.500000,-0.750000,-0.650000,-0.750000,-0.150000,0.000000,-0.650000,0.750000,0.500000,0.750000,0.500000,-0.750000,0.500000,-0.750000,$1*%
%AMFreePoly1*
4,1,6,1.000000,0.000000,0.500000,-0.750000,-0.500000,-0.750000,-0.500000,0.750000,0.500000,0.750000,1.000000,0.000000,1.000000,0.000000,$1*%
G04 Aperture macros list end*
%TA.AperFunction,SMDPad,CuDef*%
%ADD10RoundRect,0.075000X0.075000X-0.350000X0.075000X0.350000X-0.075000X0.350000X-0.075000X-0.350000X0*%
%TD*%
%TA.AperFunction,SMDPad,CuDef*%
%ADD11RoundRect,0.075000X-0.350000X-0.075000X0.350000X-0.075000X0.350000X0.075000X-0.350000X0.075000X0*%
%TD*%
%TA.AperFunction,SMDPad,CuDef*%
%ADD12C,1.000000*%
%TD*%
%TA.AperFunction,SMDPad,CuDef*%
%ADD13RoundRect,0.218750X0.218750X0.256250X-0.218750X0.256250X-0.218750X-0.256250X0.218750X-0.256250X0*%
%TD*%
%TA.AperFunction,SMDPad,CuDef*%
%ADD14RoundRect,0.200000X0.200000X0.275000X-0.200000X0.275000X-0.200000X-0.275000X0.200000X-0.275000X0*%
%TD*%
%TA.AperFunction,SMDPad,CuDef*%
%ADD15FreePoly0,270.000000*%
%TD*%
%TA.AperFunction,SMDPad,CuDef*%
%ADD16FreePoly1,270.000000*%
%TD*%
%TA.AperFunction,SMDPad,CuDef*%
%ADD17RoundRect,0.225000X0.225000X0.250000X-0.225000X0.250000X-0.225000X-0.250000X0.225000X-0.250000X0*%
%TD*%
%TA.AperFunction,SMDPad,CuDef*%
%ADD18R,1.500000X2.000000*%
%TD*%
%TA.AperFunction,SMDPad,CuDef*%
%ADD19R,3.800000X2.000000*%
%TD*%
%TA.AperFunction,SMDPad,CuDef*%
%ADD20RoundRect,0.225000X-0.250000X0.225000X-0.250000X-0.225000X0.250000X-0.225000X0.250000X0.225000X0*%
%TD*%
%TA.AperFunction,SMDPad,CuDef*%
%ADD21RoundRect,0.200000X-0.275000X0.200000X-0.275000X-0.200000X0.275000X-0.200000X0.275000X0.200000X0*%
%TD*%
%TA.AperFunction,SMDPad,CuDef*%
%ADD22RoundRect,0.225000X-0.225000X-0.250000X0.225000X-0.250000X0.225000X0.250000X-0.225000X0.250000X0*%
%TD*%
%TA.AperFunction,SMDPad,CuDef*%
%ADD23FreePoly0,180.000000*%
%TD*%
%TA.AperFunction,SMDPad,CuDef*%
%ADD24FreePoly1,180.000000*%
%TD*%
%TA.AperFunction,ViaPad*%
%ADD25C,0.800000*%
%TD*%
%TA.AperFunction,Conductor*%
%ADD26C,0.250000*%
%TD*%
%TA.AperFunction,Conductor*%
%ADD27C,0.500000*%
%TD*%
%TA.AperFunction,Conductor*%
%ADD28C,0.600000*%
%TD*%
G04 APERTURE END LIST*
D10*
%TO.P,U1,24,SDA*%
%TO.N,/SDA*%
X125396000Y-41265000D03*
%TO.P,U1,23,SCL*%
%TO.N,/SCL*%
X125896000Y-41265000D03*
%TO.P,U1,22*%
%TO.N,N/C*%
X126396000Y-41265000D03*
%TO.P,U1,21*%
X126896000Y-41265000D03*
%TO.P,U1,20,CPOUT*%
%TO.N,Net-(C3-Pad1)*%
X127396000Y-41265000D03*
%TO.P,U1,19*%
%TO.N,N/C*%
X127896000Y-41265000D03*
D11*
%TO.P,U1,18,GND*%
%TO.N,GND*%
X128596000Y-41965000D03*
%TO.P,U1,17*%
%TO.N,N/C*%
X128596000Y-42465000D03*
%TO.P,U1,16*%
X128596000Y-42965000D03*
%TO.P,U1,15*%
X128596000Y-43465000D03*
%TO.P,U1,14*%
X128596000Y-43965000D03*
%TO.P,U1,13,VDD*%
%TO.N,+3V3*%
X128596000Y-44465000D03*
D10*
%TO.P,U1,12,INT*%
%TO.N,/INT*%
X127896000Y-45165000D03*
%TO.P,U1,11,FSYNC*%
%TO.N,Net-(JP1-Pad2)*%
X127396000Y-45165000D03*
%TO.P,U1,10,REGOUT*%
%TO.N,Net-(C2-Pad1)*%
X126896000Y-45165000D03*
%TO.P,U1,9,AD0*%
%TO.N,/AD0*%
X126396000Y-45165000D03*
%TO.P,U1,8,VDDIO*%
%TO.N,Net-(C1-Pad1)*%
X125896000Y-45165000D03*
%TO.P,U1,7,AUX_SCL*%
%TO.N,unconnected-(U1-Pad7)*%
X125396000Y-45165000D03*
D11*
%TO.P,U1,6,AUX_SDA*%
%TO.N,unconnected-(U1-Pad6)*%
X124696000Y-44465000D03*
%TO.P,U1,5*%
%TO.N,N/C*%
X124696000Y-43965000D03*
%TO.P,U1,4*%
X124696000Y-43465000D03*
%TO.P,U1,3*%
X124696000Y-42965000D03*
%TO.P,U1,2*%
X124696000Y-42465000D03*
%TO.P,U1,1,CLKIN*%
%TO.N,GND*%
X124696000Y-41965000D03*
%TD*%
D12*
%TO.P,P16,1,1*%
%TO.N,/CH4*%
X116080000Y-35239000D03*
%TD*%
%TO.P,P4,1,1*%
%TO.N,/SDA*%
X125732000Y-62163000D03*
%TD*%
D13*
%TO.P,D2,2,A*%
%TO.N,/AD0*%
X129719500Y-52765000D03*
%TO.P,D2,1,K*%
%TO.N,Net-(D2-Pad1)*%
X131294500Y-52765000D03*
%TD*%
D14*
%TO.P,R3,2*%
%TO.N,Net-(D1-Pad1)*%
X133098000Y-50987000D03*
%TO.P,R3,1*%
%TO.N,GND*%
X134748000Y-50987000D03*
%TD*%
D12*
%TO.P,P14,1,1*%
%TO.N,/CH2*%
X120652000Y-35239000D03*
%TD*%
D15*
%TO.P,JP2,2,B*%
%TO.N,+3V3*%
X125478000Y-56284000D03*
D16*
%TO.P,JP2,1,A*%
%TO.N,/INT*%
X125478000Y-54834000D03*
%TD*%
D17*
%TO.P,C4,2*%
%TO.N,GND*%
X137644000Y-37779000D03*
%TO.P,C4,1*%
%TO.N,VCC*%
X139194000Y-37779000D03*
%TD*%
D12*
%TO.P,P3,1,1*%
%TO.N,/SCL*%
X128018000Y-62163000D03*
%TD*%
%TO.P,P12,1,1*%
%TO.N,/SDA*%
X125732000Y-35239000D03*
%TD*%
%TO.P,P11,1,1*%
%TO.N,/SCL*%
X128018000Y-35239000D03*
%TD*%
D18*
%TO.P,U2,3,VI*%
%TO.N,VCC*%
X138446000Y-47127000D03*
%TO.P,U2,2,VO*%
%TO.N,+3V3*%
X136146000Y-47127000D03*
D19*
X136146000Y-40827000D03*
D18*
%TO.P,U2,1,GND*%
%TO.N,GND*%
X133846000Y-47127000D03*
%TD*%
D15*
%TO.P,JP7,2,B*%
%TO.N,/AD0*%
X107444000Y-45325000D03*
D16*
%TO.P,JP7,1,A*%
%TO.N,/CH4*%
X107444000Y-43875000D03*
%TD*%
D15*
%TO.P,JP6,2,B*%
%TO.N,/AD0*%
X111000000Y-45325000D03*
D16*
%TO.P,JP6,1,A*%
%TO.N,/CH3*%
X111000000Y-43875000D03*
%TD*%
D12*
%TO.P,P8,1,1*%
%TO.N,/CH4*%
X116080000Y-62163000D03*
%TD*%
D20*
%TO.P,C1,2*%
%TO.N,GND*%
X124970000Y-50479000D03*
%TO.P,C1,1*%
%TO.N,Net-(C1-Pad1)*%
X124970000Y-48929000D03*
%TD*%
D21*
%TO.P,R2,2*%
%TO.N,/SCL*%
X121668000Y-56384000D03*
%TO.P,R2,1*%
%TO.N,+3V3*%
X121668000Y-54734000D03*
%TD*%
D20*
%TO.P,C2,2*%
%TO.N,GND*%
X127510000Y-50492000D03*
%TO.P,C2,1*%
%TO.N,Net-(C2-Pad1)*%
X127510000Y-48942000D03*
%TD*%
D15*
%TO.P,JP5,2,B*%
%TO.N,/AD0*%
X114556000Y-45325000D03*
D16*
%TO.P,JP5,1,A*%
%TO.N,/CH2*%
X114556000Y-43875000D03*
%TD*%
D13*
%TO.P,D1,2,A*%
%TO.N,+3V3*%
X129745000Y-50987000D03*
%TO.P,D1,1,K*%
%TO.N,Net-(D1-Pad1)*%
X131320000Y-50987000D03*
%TD*%
D20*
%TO.P,C5,2*%
%TO.N,GND*%
X131701000Y-46022000D03*
%TO.P,C5,1*%
%TO.N,+3V3*%
X131701000Y-44472000D03*
%TD*%
D12*
%TO.P,P13,1,1*%
%TO.N,/CH1*%
X122938000Y-35239000D03*
%TD*%
D14*
%TO.P,R4,2*%
%TO.N,Net-(D2-Pad1)*%
X133099000Y-52765000D03*
%TO.P,R4,1*%
%TO.N,GND*%
X134749000Y-52765000D03*
%TD*%
D12*
%TO.P,P2,1,1*%
%TO.N,GND*%
X130304000Y-62163000D03*
%TD*%
%TO.P,P15,1,1*%
%TO.N,/CH3*%
X118366000Y-35239000D03*
%TD*%
D22*
%TO.P,C3,2*%
%TO.N,GND*%
X135283000Y-37779000D03*
%TO.P,C3,1*%
%TO.N,Net-(C3-Pad1)*%
X133733000Y-37779000D03*
%TD*%
D12*
%TO.P,P6,1,1*%
%TO.N,/CH2*%
X120652000Y-62163000D03*
%TD*%
%TO.P,P1,1,1*%
%TO.N,VCC*%
X132590000Y-62163000D03*
%TD*%
D23*
%TO.P,JP1,2,B*%
%TO.N,Net-(JP1-Pad2)*%
X132627000Y-55813000D03*
D24*
%TO.P,JP1,1,A*%
%TO.N,GND*%
X134077000Y-55813000D03*
%TD*%
D12*
%TO.P,P7,1,1*%
%TO.N,/CH3*%
X118366000Y-62163000D03*
%TD*%
D15*
%TO.P,JP4,2,B*%
%TO.N,/AD0*%
X118112000Y-45362000D03*
D16*
%TO.P,JP4,1,A*%
%TO.N,/CH1*%
X118112000Y-43912000D03*
%TD*%
D15*
%TO.P,JP3,2,B*%
%TO.N,GND*%
X128272000Y-56247000D03*
D16*
%TO.P,JP3,1,A*%
%TO.N,/INT*%
X128272000Y-54797000D03*
%TD*%
D12*
%TO.P,P9,1,1*%
%TO.N,VCC*%
X132590000Y-35239000D03*
%TD*%
%TO.P,P10,1,1*%
%TO.N,GND*%
X130304000Y-35239000D03*
%TD*%
%TO.P,P5,1,1*%
%TO.N,/CH1*%
X122938000Y-62163000D03*
%TD*%
D21*
%TO.P,R1,2*%
%TO.N,/SDA*%
X119890000Y-56384000D03*
%TO.P,R1,1*%
%TO.N,+3V3*%
X119890000Y-54734000D03*
%TD*%
D25*
%TO.N,GND*%
X130900000Y-47600000D03*
X130304000Y-60639000D03*
%TO.N,+3V3*%
X127510000Y-58607000D03*
X136781000Y-49717000D03*
%TO.N,/AD0*%
X130558000Y-55051000D03*
X126748000Y-52638000D03*
%TO.N,Net-(JP1-Pad2)*%
X131193000Y-56448000D03*
X127764000Y-47050000D03*
%TO.N,/CH1*%
X118112000Y-56321000D03*
X119636000Y-42605000D03*
%TO.N,/CH2*%
X116080000Y-56448000D03*
X116080000Y-42605000D03*
%TO.N,/CH3*%
X114810000Y-56448000D03*
X112524000Y-42605000D03*
%TO.N,/CH4*%
X108968000Y-42605000D03*
X113159000Y-56448000D03*
%TO.N,/SCL*%
X122557000Y-57845000D03*
X127764000Y-37271000D03*
%TO.N,/SDA*%
X123573000Y-37525000D03*
X120652000Y-57845000D03*
%TD*%
D26*
%TO.N,GND*%
X131373000Y-47127000D02*
X130900000Y-47600000D01*
X133846000Y-47127000D02*
X131373000Y-47127000D01*
%TO.N,Net-(C1-Pad1)*%
X124970000Y-47304000D02*
X125896000Y-46378000D01*
X124970000Y-48929000D02*
X124970000Y-47304000D01*
X125896000Y-46378000D02*
X125896000Y-45165000D01*
%TO.N,GND*%
X130304000Y-62163000D02*
X130304000Y-60639000D01*
%TO.N,Net-(C2-Pad1)*%
X127510000Y-48193000D02*
X127510000Y-48942000D01*
X126896000Y-47579000D02*
X127510000Y-48193000D01*
X126896000Y-45165000D02*
X126896000Y-47579000D01*
%TO.N,Net-(C3-Pad1)*%
X127396000Y-41265000D02*
X127396000Y-39658000D01*
X129275000Y-37779000D02*
X133733000Y-37779000D01*
X127396000Y-39658000D02*
X129275000Y-37779000D01*
D27*
%TO.N,VCC*%
X139194000Y-37779000D02*
X139194000Y-45907000D01*
X138446000Y-46655000D02*
X138446000Y-47127000D01*
X138446000Y-56307000D02*
X132590000Y-62163000D01*
X139194000Y-45907000D02*
X138446000Y-46655000D01*
X138446000Y-47127000D02*
X138446000Y-56307000D01*
X138686000Y-35239000D02*
X139194000Y-35747000D01*
X139194000Y-35747000D02*
X139194000Y-37779000D01*
X132590000Y-35239000D02*
X138686000Y-35239000D01*
D26*
%TO.N,+3V3*%
X131701000Y-44472000D02*
X131694000Y-44465000D01*
X121668000Y-54734000D02*
X119890000Y-54734000D01*
D27*
X136146000Y-45145000D02*
X135384000Y-44383000D01*
D26*
X134314000Y-49209000D02*
X136146000Y-47377000D01*
X130939000Y-49209000D02*
X134314000Y-49209000D01*
X121668000Y-54734000D02*
X122621000Y-54734000D01*
X125478000Y-56575000D02*
X127510000Y-58607000D01*
X122621000Y-54734000D02*
X124208000Y-56321000D01*
D27*
X135384000Y-43113000D02*
X136146000Y-42351000D01*
D26*
X136146000Y-47377000D02*
X136146000Y-47127000D01*
X125441000Y-56321000D02*
X125478000Y-56284000D01*
X136146000Y-49082000D02*
X136781000Y-49717000D01*
X129745000Y-50403000D02*
X130939000Y-49209000D01*
D28*
X135384000Y-44383000D02*
X131790000Y-44383000D01*
D26*
X125478000Y-56284000D02*
X125478000Y-56575000D01*
D28*
X131694000Y-44465000D02*
X128596000Y-44465000D01*
D26*
X129745000Y-50987000D02*
X129745000Y-50403000D01*
X136146000Y-47127000D02*
X136146000Y-49082000D01*
D27*
X136146000Y-47127000D02*
X136146000Y-45145000D01*
D26*
X124208000Y-56321000D02*
X125441000Y-56321000D01*
D27*
X135384000Y-44383000D02*
X135384000Y-43113000D01*
D26*
X131790000Y-44383000D02*
X131701000Y-44472000D01*
D27*
X136146000Y-42351000D02*
X136146000Y-40827000D01*
D26*
%TO.N,/AD0*%
X129719500Y-52765000D02*
X129719500Y-53069500D01*
X126396000Y-46767000D02*
X126240000Y-46923000D01*
X125478000Y-52511000D02*
X123700000Y-52511000D01*
X125922500Y-52066500D02*
X126494000Y-52638000D01*
X126240000Y-46923000D02*
X126240000Y-51749000D01*
X114593000Y-45362000D02*
X114556000Y-45325000D01*
X111000000Y-45325000D02*
X107444000Y-45325000D01*
X123700000Y-52511000D02*
X118112000Y-46923000D01*
X118112000Y-46923000D02*
X118112000Y-45362000D01*
X118112000Y-45362000D02*
X114593000Y-45362000D01*
X126494000Y-52638000D02*
X126748000Y-52638000D01*
X114556000Y-45325000D02*
X111000000Y-45325000D01*
X126396000Y-45165000D02*
X126396000Y-46767000D01*
X125922500Y-52066500D02*
X125478000Y-52511000D01*
X126240000Y-51749000D02*
X125922500Y-52066500D01*
X129719500Y-53069500D02*
X130558000Y-53908000D01*
X130558000Y-53908000D02*
X130558000Y-55051000D01*
%TO.N,Net-(JP1-Pad2)*%
X131828000Y-55813000D02*
X131193000Y-56448000D01*
X132627000Y-55813000D02*
X131828000Y-55813000D01*
X127396000Y-45165000D02*
X127396000Y-46682000D01*
X127396000Y-46682000D02*
X127764000Y-47050000D01*
%TO.N,/INT*%
X127896000Y-45658000D02*
X128653000Y-46415000D01*
X127896000Y-45165000D02*
X127896000Y-45658000D01*
X128653000Y-46415000D02*
X128653000Y-54416000D01*
X125478000Y-54834000D02*
X128235000Y-54834000D01*
X128653000Y-54416000D02*
X128272000Y-54797000D01*
X128235000Y-54834000D02*
X128272000Y-54797000D01*
%TO.N,/CH1*%
X122938000Y-35239000D02*
X118112000Y-40065000D01*
X118112000Y-43912000D02*
X118329000Y-43912000D01*
X122938000Y-62163000D02*
X118112000Y-57337000D01*
X118112000Y-40065000D02*
X118112000Y-43912000D01*
X118112000Y-57337000D02*
X118112000Y-56321000D01*
X118329000Y-43912000D02*
X119636000Y-42605000D01*
%TO.N,/CH2*%
X114810000Y-43875000D02*
X116080000Y-42605000D01*
X116080000Y-57591000D02*
X116080000Y-56448000D01*
X120652000Y-62163000D02*
X116080000Y-57591000D01*
X120652000Y-35239000D02*
X114556000Y-41335000D01*
X114556000Y-41335000D02*
X114556000Y-43875000D01*
X114556000Y-43875000D02*
X114810000Y-43875000D01*
%TO.N,/CH3*%
X118366000Y-62163000D02*
X114810000Y-58607000D01*
X114810000Y-58607000D02*
X114810000Y-56448000D01*
X111000000Y-42605000D02*
X111000000Y-43875000D01*
X111000000Y-43875000D02*
X111254000Y-43875000D01*
X111254000Y-43875000D02*
X112524000Y-42605000D01*
X118366000Y-35239000D02*
X111000000Y-42605000D01*
%TO.N,/CH4*%
X116080000Y-62163000D02*
X113159000Y-59242000D01*
X116080000Y-35239000D02*
X115113530Y-35239000D01*
X115113530Y-35239000D02*
X107444000Y-42908530D01*
X107698000Y-43875000D02*
X108968000Y-42605000D01*
X113159000Y-59242000D02*
X113159000Y-56448000D01*
X107444000Y-43875000D02*
X107698000Y-43875000D01*
X107444000Y-42908530D02*
X107444000Y-43875000D01*
%TO.N,/SCL*%
X123827000Y-59115000D02*
X126113000Y-59115000D01*
X128018000Y-61020000D02*
X128018000Y-62163000D01*
X126684500Y-36572500D02*
X125896000Y-37361000D01*
X121668000Y-56384000D02*
X121668000Y-56956000D01*
X127383000Y-37271000D02*
X127764000Y-37271000D01*
X126684500Y-36572500D02*
X127383000Y-37271000D01*
X122557000Y-57845000D02*
X123827000Y-59115000D01*
X121668000Y-56956000D02*
X122557000Y-57845000D01*
X125896000Y-37361000D02*
X125896000Y-41265000D01*
X126113000Y-59115000D02*
X128018000Y-61020000D01*
X128018000Y-35239000D02*
X126684500Y-36572500D01*
%TO.N,/SDA*%
X119890000Y-56384000D02*
X119890000Y-57591000D01*
X125732000Y-35239000D02*
X124970000Y-36001000D01*
X125732000Y-60766000D02*
X125732000Y-62163000D01*
X124970000Y-36001000D02*
X124970000Y-37525000D01*
X124970000Y-37525000D02*
X123573000Y-37525000D01*
X125396000Y-40618000D02*
X125396000Y-41265000D01*
X120652000Y-57845000D02*
X121160000Y-57845000D01*
X125351000Y-60385000D02*
X125732000Y-60766000D01*
X119890000Y-57591000D02*
X120144000Y-57845000D01*
X120144000Y-57845000D02*
X120652000Y-57845000D01*
X121160000Y-57845000D02*
X123700000Y-60385000D01*
X124970000Y-40192000D02*
X125396000Y-40618000D01*
X124970000Y-37525000D02*
X124970000Y-40192000D01*
X123700000Y-60385000D02*
X125351000Y-60385000D01*
%TO.N,Net-(D1-Pad1)*%
X131320000Y-50987000D02*
X133098000Y-50987000D01*
%TO.N,Net-(D2-Pad1)*%
X131294500Y-52765000D02*
X133099000Y-52765000D01*
%TD*%
%TA.AperFunction,Conductor*%
%TO.N,GND*%
G36*
X130287195Y-34002002D02*
G01*
X130303473Y-34020787D01*
X130306306Y-34015986D01*
X130369717Y-33984056D01*
X130392384Y-33982000D01*
X141385514Y-33982000D01*
X141407392Y-33983914D01*
X141425320Y-33987075D01*
X141436175Y-33985161D01*
X141442886Y-33985161D01*
X141461717Y-33984044D01*
X141717316Y-33998398D01*
X141731348Y-33999979D01*
X141825556Y-34015986D01*
X142012697Y-34047783D01*
X142026472Y-34050927D01*
X142300697Y-34129930D01*
X142314034Y-34134597D01*
X142408175Y-34173591D01*
X142577690Y-34243806D01*
X142590413Y-34249933D01*
X142677631Y-34298137D01*
X142840185Y-34387978D01*
X142852148Y-34395495D01*
X143084887Y-34560631D01*
X143095934Y-34569440D01*
X143276152Y-34730493D01*
X143308726Y-34759603D01*
X143318716Y-34769593D01*
X143460824Y-34928611D01*
X143508879Y-34982385D01*
X143517688Y-34993431D01*
X143556688Y-35048397D01*
X143682825Y-35226172D01*
X143690342Y-35238135D01*
X143722939Y-35297115D01*
X143811461Y-35457281D01*
X143828385Y-35487903D01*
X143834516Y-35500634D01*
X143943723Y-35764286D01*
X143948390Y-35777623D01*
X144027393Y-36051848D01*
X144030537Y-36065623D01*
X144038874Y-36114690D01*
X144073066Y-36315924D01*
X144078340Y-36346967D01*
X144079922Y-36361004D01*
X144094246Y-36616062D01*
X144094276Y-36616600D01*
X144093159Y-36635434D01*
X144093159Y-36642145D01*
X144091245Y-36653000D01*
X144093159Y-36663854D01*
X144094406Y-36670926D01*
X144096320Y-36692806D01*
X144096320Y-60613194D01*
X144094406Y-60635072D01*
X144091245Y-60653000D01*
X144093159Y-60663855D01*
X144093159Y-60670566D01*
X144094276Y-60689397D01*
X144081157Y-60922999D01*
X144079922Y-60944992D01*
X144078341Y-60959028D01*
X144066659Y-61027783D01*
X144030537Y-61240377D01*
X144027393Y-61254152D01*
X143948390Y-61528377D01*
X143943723Y-61541714D01*
X143895529Y-61658067D01*
X143840476Y-61790978D01*
X143834516Y-61805366D01*
X143828387Y-61818093D01*
X143820687Y-61832025D01*
X143690342Y-62067865D01*
X143682825Y-62079828D01*
X143517689Y-62312567D01*
X143508880Y-62323614D01*
X143348148Y-62503473D01*
X143318717Y-62536406D01*
X143308727Y-62546396D01*
X143219352Y-62626267D01*
X143095935Y-62736559D01*
X143084889Y-62745368D01*
X143053296Y-62767784D01*
X142852148Y-62910505D01*
X142840185Y-62918022D01*
X142832794Y-62922107D01*
X142590413Y-63056067D01*
X142577690Y-63062194D01*
X142521342Y-63085534D01*
X142314034Y-63171403D01*
X142300697Y-63176070D01*
X142026472Y-63255073D01*
X142012697Y-63258217D01*
X141872025Y-63282119D01*
X141731348Y-63306021D01*
X141717316Y-63307602D01*
X141461717Y-63321956D01*
X141442886Y-63320839D01*
X141436175Y-63320839D01*
X141425320Y-63318925D01*
X141407392Y-63322086D01*
X141385514Y-63324000D01*
X130770239Y-63324000D01*
X130702118Y-63303998D01*
X130655625Y-63250342D01*
X130645521Y-63180068D01*
X130675015Y-63115488D01*
X130713428Y-63085534D01*
X130799507Y-63042052D01*
X130809791Y-63032407D01*
X130807553Y-63025763D01*
X130316812Y-62535022D01*
X130302868Y-62527408D01*
X130301035Y-62527539D01*
X130294420Y-62531790D01*
X129806458Y-63019752D01*
X129799698Y-63032132D01*
X129804607Y-63038690D01*
X129892858Y-63088012D01*
X129942563Y-63138706D01*
X129956971Y-63208225D01*
X129931507Y-63274498D01*
X129874256Y-63316483D01*
X129831387Y-63324000D01*
X104465126Y-63324000D01*
X104443248Y-63322086D01*
X104425320Y-63318925D01*
X104414465Y-63320839D01*
X104407754Y-63320839D01*
X104388923Y-63321956D01*
X104133324Y-63307602D01*
X104119292Y-63306021D01*
X103978615Y-63282119D01*
X103837943Y-63258217D01*
X103824168Y-63255073D01*
X103549943Y-63176070D01*
X103536606Y-63171403D01*
X103329298Y-63085534D01*
X103272950Y-63062194D01*
X103260227Y-63056067D01*
X103017846Y-62922107D01*
X103010455Y-62918022D01*
X102998492Y-62910505D01*
X102797344Y-62767784D01*
X102765751Y-62745368D01*
X102754705Y-62736559D01*
X102631289Y-62626267D01*
X102541913Y-62546396D01*
X102531923Y-62536406D01*
X102502492Y-62503473D01*
X102341760Y-62323614D01*
X102332951Y-62312567D01*
X102167815Y-62079828D01*
X102160298Y-62067865D01*
X102029953Y-61832025D01*
X102022253Y-61818093D01*
X102016124Y-61805366D01*
X102010165Y-61790978D01*
X101955111Y-61658067D01*
X101906917Y-61541714D01*
X101902250Y-61528377D01*
X101823247Y-61254152D01*
X101820103Y-61240377D01*
X101783981Y-61027783D01*
X101772299Y-60959028D01*
X101770718Y-60944992D01*
X101769483Y-60922999D01*
X101756364Y-60689397D01*
X101757481Y-60670566D01*
X101757481Y-60663855D01*
X101759395Y-60653000D01*
X101756234Y-60635072D01*
X101754320Y-60613194D01*
X101754320Y-56647613D01*
X103116677Y-56647613D01*
X103117055Y-56649998D01*
X103131340Y-56865665D01*
X103181866Y-57078270D01*
X103183919Y-57083119D01*
X103183921Y-57083125D01*
X103247394Y-57233039D01*
X103267066Y-57279502D01*
X103269899Y-57283945D01*
X103269902Y-57283950D01*
X103349644Y-57408992D01*
X103384565Y-57463752D01*
X103423365Y-57506685D01*
X103519307Y-57612846D01*
X103531085Y-57625879D01*
X103571305Y-57657661D01*
X103698402Y-57758093D01*
X103698405Y-57758095D01*
X103702542Y-57761364D01*
X103736476Y-57779971D01*
X103889530Y-57863894D01*
X103889534Y-57863896D01*
X103894154Y-57866429D01*
X104100578Y-57938143D01*
X104105767Y-57939019D01*
X104105772Y-57939020D01*
X104310860Y-57973631D01*
X104316057Y-57974508D01*
X104534583Y-57974508D01*
X104539780Y-57973631D01*
X104744868Y-57939020D01*
X104744873Y-57939019D01*
X104750062Y-57938143D01*
X104956486Y-57866429D01*
X104961106Y-57863896D01*
X104961110Y-57863894D01*
X105114164Y-57779971D01*
X105148098Y-57761364D01*
X105152235Y-57758095D01*
X105152238Y-57758093D01*
X105279335Y-57657661D01*
X105319555Y-57625879D01*
X105331334Y-57612846D01*
X105427275Y-57506685D01*
X105466075Y-57463752D01*
X105500996Y-57408992D01*
X105580738Y-57283950D01*
X105580741Y-57283945D01*
X105583574Y-57279502D01*
X105603246Y-57233039D01*
X105666719Y-57083125D01*
X105666721Y-57083119D01*
X105668774Y-57078270D01*
X105719300Y-56865665D01*
X105733585Y-56649998D01*
X105733963Y-56647613D01*
X105731635Y-56635635D01*
X105729320Y-56611595D01*
X105729320Y-56441096D01*
X112499729Y-56441096D01*
X112506067Y-56498501D01*
X112515819Y-56586830D01*
X112517113Y-56598553D01*
X112519723Y-56605684D01*
X112519723Y-56605686D01*
X112556343Y-56705754D01*
X112571553Y-56747319D01*
X112575789Y-56753622D01*
X112575789Y-56753623D01*
X112621862Y-56822186D01*
X112659908Y-56878805D01*
X112665527Y-56883918D01*
X112665528Y-56883919D01*
X112738299Y-56950135D01*
X112775222Y-57010775D01*
X112779500Y-57043329D01*
X112779500Y-59188080D01*
X112776951Y-59212028D01*
X112776872Y-59213693D01*
X112774680Y-59223876D01*
X112775904Y-59234217D01*
X112778627Y-59257223D01*
X112778977Y-59263154D01*
X112779072Y-59263146D01*
X112779500Y-59268324D01*
X112779500Y-59273524D01*
X112780354Y-59278653D01*
X112780354Y-59278656D01*
X112782669Y-59292565D01*
X112783506Y-59298443D01*
X112789530Y-59349341D01*
X112793493Y-59357593D01*
X112794996Y-59366626D01*
X112799943Y-59375795D01*
X112799944Y-59375797D01*
X112819334Y-59411732D01*
X112822031Y-59417025D01*
X112840785Y-59456082D01*
X112840788Y-59456086D01*
X112844219Y-59463232D01*
X112847814Y-59467508D01*
X112849737Y-59469431D01*
X112851509Y-59471363D01*
X112851552Y-59471442D01*
X112851428Y-59471555D01*
X112851904Y-59472095D01*
X112854990Y-59477814D01*
X112862635Y-59484881D01*
X112894586Y-59514416D01*
X112898152Y-59517846D01*
X115300920Y-61920614D01*
X115334946Y-61982926D01*
X115336831Y-62025500D01*
X115320800Y-62152399D01*
X115337318Y-62320862D01*
X115390748Y-62481479D01*
X115394397Y-62487504D01*
X115468370Y-62609647D01*
X115478435Y-62626267D01*
X115483326Y-62631332D01*
X115483327Y-62631333D01*
X115511446Y-62660451D01*
X115596021Y-62748031D01*
X115737660Y-62840717D01*
X115896315Y-62899720D01*
X115903296Y-62900651D01*
X115903298Y-62900652D01*
X116057118Y-62921176D01*
X116057122Y-62921176D01*
X116064099Y-62922107D01*
X116071110Y-62921469D01*
X116071114Y-62921469D01*
X116225652Y-62907405D01*
X116232673Y-62906766D01*
X116393659Y-62854458D01*
X116539056Y-62767784D01*
X116661638Y-62651052D01*
X116665539Y-62645181D01*
X116751410Y-62515935D01*
X116751411Y-62515933D01*
X116755311Y-62510063D01*
X116815420Y-62351824D01*
X116838978Y-62184200D01*
X116839140Y-62172580D01*
X116839219Y-62166962D01*
X116839219Y-62166957D01*
X116839274Y-62163000D01*
X116828603Y-62067865D01*
X116821191Y-62001780D01*
X116821190Y-62001777D01*
X116820406Y-61994784D01*
X116764738Y-61834929D01*
X116675038Y-61691379D01*
X116666846Y-61683129D01*
X116560726Y-61576266D01*
X116555764Y-61571269D01*
X116539574Y-61560994D01*
X116488177Y-61528377D01*
X116412844Y-61480569D01*
X116385442Y-61470812D01*
X116260016Y-61426149D01*
X116260011Y-61426148D01*
X116253381Y-61423787D01*
X116246395Y-61422954D01*
X116246391Y-61422953D01*
X116121471Y-61408058D01*
X116085301Y-61403745D01*
X116078298Y-61404481D01*
X116078297Y-61404481D01*
X115938879Y-61419134D01*
X115869041Y-61406362D01*
X115836614Y-61382919D01*
X113575405Y-59121711D01*
X113541380Y-59059399D01*
X113538500Y-59032616D01*
X113538500Y-57042730D01*
X113558502Y-56974609D01*
X113582669Y-56946919D01*
X113638536Y-56899204D01*
X113644314Y-56894269D01*
X113736755Y-56765624D01*
X113795842Y-56618641D01*
X113818162Y-56461807D01*
X113818307Y-56448000D01*
X113817472Y-56441096D01*
X114150729Y-56441096D01*
X114157067Y-56498501D01*
X114166819Y-56586830D01*
X114168113Y-56598553D01*
X114170723Y-56605684D01*
X114170723Y-56605686D01*
X114207343Y-56705754D01*
X114222553Y-56747319D01*
X114226789Y-56753622D01*
X114226789Y-56753623D01*
X114272862Y-56822186D01*
X114310908Y-56878805D01*
X114316527Y-56883918D01*
X114316528Y-56883919D01*
X114389299Y-56950135D01*
X114426222Y-57010775D01*
X114430500Y-57043329D01*
X114430500Y-58553080D01*
X114427951Y-58577028D01*
X114427872Y-58578693D01*
X114425680Y-58588876D01*
X114428971Y-58616682D01*
X114429627Y-58622223D01*
X114429977Y-58628154D01*
X114430072Y-58628146D01*
X114430500Y-58633324D01*
X114430500Y-58638524D01*
X114431354Y-58643653D01*
X114431354Y-58643656D01*
X114433669Y-58657565D01*
X114434506Y-58663443D01*
X114440530Y-58714341D01*
X114444493Y-58722593D01*
X114445996Y-58731626D01*
X114450943Y-58740795D01*
X114450944Y-58740797D01*
X114470334Y-58776732D01*
X114473031Y-58782025D01*
X114491785Y-58821082D01*
X114491788Y-58821086D01*
X114495219Y-58828232D01*
X114498814Y-58832508D01*
X114500737Y-58834431D01*
X114502509Y-58836363D01*
X114502552Y-58836442D01*
X114502428Y-58836555D01*
X114502904Y-58837095D01*
X114505990Y-58842814D01*
X114513635Y-58849881D01*
X114545586Y-58879416D01*
X114549152Y-58882846D01*
X117586920Y-61920614D01*
X117620946Y-61982926D01*
X117622831Y-62025500D01*
X117606800Y-62152399D01*
X117623318Y-62320862D01*
X117676748Y-62481479D01*
X117680397Y-62487504D01*
X117754370Y-62609647D01*
X117764435Y-62626267D01*
X117769326Y-62631332D01*
X117769327Y-62631333D01*
X117797446Y-62660451D01*
X117882021Y-62748031D01*
X118023660Y-62840717D01*
X118182315Y-62899720D01*
X118189296Y-62900651D01*
X118189298Y-62900652D01*
X118343118Y-62921176D01*
X118343122Y-62921176D01*
X118350099Y-62922107D01*
X118357110Y-62921469D01*
X118357114Y-62921469D01*
X118511652Y-62907405D01*
X118518673Y-62906766D01*
X118679659Y-62854458D01*
X118825056Y-62767784D01*
X118947638Y-62651052D01*
X118951539Y-62645181D01*
X119037410Y-62515935D01*
X119037411Y-62515933D01*
X119041311Y-62510063D01*
X119101420Y-62351824D01*
X119124978Y-62184200D01*
X119125140Y-62172580D01*
X119125219Y-62166962D01*
X119125219Y-62166957D01*
X119125274Y-62163000D01*
X119114603Y-62067865D01*
X119107191Y-62001780D01*
X119107190Y-62001777D01*
X119106406Y-61994784D01*
X119050738Y-61834929D01*
X118961038Y-61691379D01*
X118952846Y-61683129D01*
X118846726Y-61576266D01*
X118841764Y-61571269D01*
X118825574Y-61560994D01*
X118774177Y-61528377D01*
X118698844Y-61480569D01*
X118671442Y-61470812D01*
X118546016Y-61426149D01*
X118546011Y-61426148D01*
X118539381Y-61423787D01*
X118532395Y-61422954D01*
X118532391Y-61422953D01*
X118407471Y-61408058D01*
X118371301Y-61403745D01*
X118364298Y-61404481D01*
X118364297Y-61404481D01*
X118224878Y-61419134D01*
X118155040Y-61406362D01*
X118122613Y-61382919D01*
X115226405Y-58486711D01*
X115192379Y-58424399D01*
X115189500Y-58397616D01*
X115189500Y-57042730D01*
X115209502Y-56974609D01*
X115233669Y-56946919D01*
X115289536Y-56899204D01*
X115295314Y-56894269D01*
X115342478Y-56828634D01*
X115398470Y-56784988D01*
X115469173Y-56778542D01*
X115532138Y-56811345D01*
X115549380Y-56831887D01*
X115576668Y-56872497D01*
X115576671Y-56872500D01*
X115580908Y-56878805D01*
X115586527Y-56883918D01*
X115586528Y-56883919D01*
X115659299Y-56950135D01*
X115696222Y-57010775D01*
X115700500Y-57043329D01*
X115700500Y-57537080D01*
X115697951Y-57561028D01*
X115697872Y-57562693D01*
X115695680Y-57572876D01*
X115696904Y-57583217D01*
X115699627Y-57606223D01*
X115699977Y-57612154D01*
X115700072Y-57612146D01*
X115700500Y-57617324D01*
X115700500Y-57622524D01*
X115701354Y-57627653D01*
X115701354Y-57627656D01*
X115703669Y-57641565D01*
X115704506Y-57647443D01*
X115709275Y-57687733D01*
X115710530Y-57698341D01*
X115714493Y-57706593D01*
X115715996Y-57715626D01*
X115720943Y-57724795D01*
X115720944Y-57724797D01*
X115740334Y-57760732D01*
X115743031Y-57766025D01*
X115761785Y-57805082D01*
X115761788Y-57805086D01*
X115765219Y-57812232D01*
X115768814Y-57816508D01*
X115770737Y-57818431D01*
X115772509Y-57820363D01*
X115772552Y-57820442D01*
X115772428Y-57820555D01*
X115772904Y-57821095D01*
X115775990Y-57826814D01*
X115783635Y-57833881D01*
X115815586Y-57863416D01*
X115819152Y-57866846D01*
X119872920Y-61920614D01*
X119906946Y-61982926D01*
X119908831Y-62025500D01*
X119892800Y-62152399D01*
X119909318Y-62320862D01*
X119962748Y-62481479D01*
X119966397Y-62487504D01*
X120040370Y-62609647D01*
X120050435Y-62626267D01*
X120055326Y-62631332D01*
X120055327Y-62631333D01*
X120083446Y-62660451D01*
X120168021Y-62748031D01*
X120309660Y-62840717D01*
X120468315Y-62899720D01*
X120475296Y-62900651D01*
X120475298Y-62900652D01*
X120629118Y-62921176D01*
X120629122Y-62921176D01*
X120636099Y-62922107D01*
X120643110Y-62921469D01*
X120643114Y-62921469D01*
X120797652Y-62907405D01*
X120804673Y-62906766D01*
X120965659Y-62854458D01*
X121111056Y-62767784D01*
X121233638Y-62651052D01*
X121237539Y-62645181D01*
X121323410Y-62515935D01*
X121323411Y-62515933D01*
X121327311Y-62510063D01*
X121387420Y-62351824D01*
X121410978Y-62184200D01*
X121411140Y-62172580D01*
X121411219Y-62166962D01*
X121411219Y-62166957D01*
X121411274Y-62163000D01*
X121400603Y-62067865D01*
X121393191Y-62001780D01*
X121393190Y-62001777D01*
X121392406Y-61994784D01*
X121336738Y-61834929D01*
X121247038Y-61691379D01*
X121238846Y-61683129D01*
X121132726Y-61576266D01*
X121127764Y-61571269D01*
X121111574Y-61560994D01*
X121060177Y-61528377D01*
X120984844Y-61480569D01*
X120957442Y-61470812D01*
X120832016Y-61426149D01*
X120832011Y-61426148D01*
X120825381Y-61423787D01*
X120818395Y-61422954D01*
X120818391Y-61422953D01*
X120693471Y-61408058D01*
X120657301Y-61403745D01*
X120650298Y-61404481D01*
X120650297Y-61404481D01*
X120510878Y-61419134D01*
X120441040Y-61406362D01*
X120408613Y-61382919D01*
X116496405Y-57470711D01*
X116462379Y-57408399D01*
X116459500Y-57381616D01*
X116459500Y-57042730D01*
X116479502Y-56974609D01*
X116503669Y-56946919D01*
X116559536Y-56899204D01*
X116565314Y-56894269D01*
X116657755Y-56765624D01*
X116716842Y-56618641D01*
X116739162Y-56461807D01*
X116739307Y-56448000D01*
X116723103Y-56314096D01*
X117452729Y-56314096D01*
X117458305Y-56364600D01*
X117468582Y-56457682D01*
X117470113Y-56471553D01*
X117472723Y-56478684D01*
X117472723Y-56478686D01*
X117521361Y-56611595D01*
X117524553Y-56620319D01*
X117528789Y-56626622D01*
X117528789Y-56626623D01*
X117605100Y-56740185D01*
X117612908Y-56751805D01*
X117618527Y-56756918D01*
X117618528Y-56756919D01*
X117691299Y-56823135D01*
X117728222Y-56883775D01*
X117732500Y-56916329D01*
X117732500Y-57283080D01*
X117729951Y-57307028D01*
X117729872Y-57308693D01*
X117727680Y-57318876D01*
X117731218Y-57348765D01*
X117731627Y-57352223D01*
X117731977Y-57358154D01*
X117732072Y-57358146D01*
X117732500Y-57363324D01*
X117732500Y-57368524D01*
X117733354Y-57373653D01*
X117733354Y-57373656D01*
X117735669Y-57387565D01*
X117736506Y-57393443D01*
X117738369Y-57409179D01*
X117742530Y-57444341D01*
X117746493Y-57452593D01*
X117747996Y-57461626D01*
X117752943Y-57470795D01*
X117752944Y-57470797D01*
X117772334Y-57506732D01*
X117775031Y-57512025D01*
X117793785Y-57551082D01*
X117793788Y-57551086D01*
X117797219Y-57558232D01*
X117800814Y-57562508D01*
X117802737Y-57564431D01*
X117804509Y-57566363D01*
X117804552Y-57566442D01*
X117804428Y-57566555D01*
X117804904Y-57567095D01*
X117807990Y-57572814D01*
X117815635Y-57579881D01*
X117847586Y-57609416D01*
X117851152Y-57612846D01*
X122158920Y-61920614D01*
X122192946Y-61982926D01*
X122194831Y-62025500D01*
X122178800Y-62152399D01*
X122195318Y-62320862D01*
X122248748Y-62481479D01*
X122252397Y-62487504D01*
X122326370Y-62609647D01*
X122336435Y-62626267D01*
X122341326Y-62631332D01*
X122341327Y-62631333D01*
X122369446Y-62660451D01*
X122454021Y-62748031D01*
X122595660Y-62840717D01*
X122754315Y-62899720D01*
X122761296Y-62900651D01*
X122761298Y-62900652D01*
X122915118Y-62921176D01*
X122915122Y-62921176D01*
X122922099Y-62922107D01*
X122929110Y-62921469D01*
X122929114Y-62921469D01*
X123083652Y-62907405D01*
X123090673Y-62906766D01*
X123251659Y-62854458D01*
X123397056Y-62767784D01*
X123519638Y-62651052D01*
X123523539Y-62645181D01*
X123609410Y-62515935D01*
X123609411Y-62515933D01*
X123613311Y-62510063D01*
X123673420Y-62351824D01*
X123696978Y-62184200D01*
X123697140Y-62172580D01*
X123697219Y-62166962D01*
X123697219Y-62166957D01*
X123697274Y-62163000D01*
X123686603Y-62067865D01*
X123679191Y-62001780D01*
X123679190Y-62001777D01*
X123678406Y-61994784D01*
X123622738Y-61834929D01*
X123533038Y-61691379D01*
X123524846Y-61683129D01*
X123418726Y-61576266D01*
X123413764Y-61571269D01*
X123397574Y-61560994D01*
X123346177Y-61528377D01*
X123270844Y-61480569D01*
X123243442Y-61470812D01*
X123118016Y-61426149D01*
X123118011Y-61426148D01*
X123111381Y-61423787D01*
X123104395Y-61422954D01*
X123104391Y-61422953D01*
X122979471Y-61408058D01*
X122943301Y-61403745D01*
X122936298Y-61404481D01*
X122936297Y-61404481D01*
X122796878Y-61419134D01*
X122727040Y-61406362D01*
X122694613Y-61382919D01*
X118528405Y-57216711D01*
X118494379Y-57154399D01*
X118491500Y-57127616D01*
X118491500Y-56915730D01*
X118511502Y-56847609D01*
X118535669Y-56819919D01*
X118591536Y-56772204D01*
X118597314Y-56767269D01*
X118689755Y-56638624D01*
X118748842Y-56491641D01*
X118769526Y-56346303D01*
X118770581Y-56338891D01*
X118770581Y-56338888D01*
X118771162Y-56334807D01*
X118771307Y-56321000D01*
X118752276Y-56163733D01*
X118739410Y-56129685D01*
X119160500Y-56129685D01*
X119160501Y-56638314D01*
X119160780Y-56641262D01*
X119160780Y-56641271D01*
X119162782Y-56662454D01*
X119163507Y-56670127D01*
X119208791Y-56799076D01*
X119289990Y-56909010D01*
X119399924Y-56990209D01*
X119426250Y-56999454D01*
X119483895Y-57040898D01*
X119509982Y-57106928D01*
X119510500Y-57118336D01*
X119510500Y-57537080D01*
X119507951Y-57561028D01*
X119507872Y-57562693D01*
X119505680Y-57572876D01*
X119506904Y-57583217D01*
X119509627Y-57606223D01*
X119509977Y-57612154D01*
X119510072Y-57612146D01*
X119510500Y-57617324D01*
X119510500Y-57622524D01*
X119511354Y-57627653D01*
X119511354Y-57627656D01*
X119513669Y-57641565D01*
X119514506Y-57647443D01*
X119519275Y-57687733D01*
X119520530Y-57698341D01*
X119524493Y-57706593D01*
X119525996Y-57715626D01*
X119530943Y-57724795D01*
X119530944Y-57724797D01*
X119550334Y-57760732D01*
X119553031Y-57766025D01*
X119571785Y-57805082D01*
X119571788Y-57805086D01*
X119575219Y-57812232D01*
X119578814Y-57816508D01*
X119580737Y-57818431D01*
X119582509Y-57820363D01*
X119582552Y-57820442D01*
X119582428Y-57820555D01*
X119582904Y-57821095D01*
X119585990Y-57826814D01*
X119593635Y-57833881D01*
X119625586Y-57863416D01*
X119629152Y-57866846D01*
X119837522Y-58075216D01*
X119852664Y-58093964D01*
X119853779Y-58095189D01*
X119859429Y-58103940D01*
X119867607Y-58110387D01*
X119867609Y-58110389D01*
X119885800Y-58124729D01*
X119890244Y-58128678D01*
X119890306Y-58128604D01*
X119894263Y-58131957D01*
X119897944Y-58135638D01*
X119913654Y-58146865D01*
X119918380Y-58150413D01*
X119958647Y-58182156D01*
X119967284Y-58185189D01*
X119974734Y-58190513D01*
X119984710Y-58193497D01*
X119984711Y-58193497D01*
X120000046Y-58198083D01*
X120023849Y-58205202D01*
X120029486Y-58207034D01*
X120070366Y-58221390D01*
X120070370Y-58221391D01*
X120077280Y-58223818D01*
X120077281Y-58223818D01*
X120077852Y-58224019D01*
X120077820Y-58224111D01*
X120136801Y-58256154D01*
X120143332Y-58264074D01*
X120143708Y-58263749D01*
X120148669Y-58269496D01*
X120152908Y-58275805D01*
X120158528Y-58280919D01*
X120158530Y-58280921D01*
X120264460Y-58377309D01*
X120270076Y-58382419D01*
X120409293Y-58458008D01*
X120562522Y-58498207D01*
X120646477Y-58499526D01*
X120713319Y-58500576D01*
X120713322Y-58500576D01*
X120720916Y-58500695D01*
X120875332Y-58465329D01*
X121016855Y-58394151D01*
X121022633Y-58389216D01*
X121023786Y-58388450D01*
X121091594Y-58367413D01*
X121160012Y-58386374D01*
X121182609Y-58404303D01*
X122292721Y-59514416D01*
X123393524Y-60615219D01*
X123408661Y-60633961D01*
X123409779Y-60635190D01*
X123415429Y-60643940D01*
X123423607Y-60650387D01*
X123441799Y-60664728D01*
X123446241Y-60668676D01*
X123446303Y-60668603D01*
X123450268Y-60671963D01*
X123453943Y-60675638D01*
X123458165Y-60678655D01*
X123458171Y-60678660D01*
X123469650Y-60686862D01*
X123474399Y-60690428D01*
X123514647Y-60722156D01*
X123523284Y-60725189D01*
X123530734Y-60730513D01*
X123540710Y-60733497D01*
X123540711Y-60733497D01*
X123543985Y-60734476D01*
X123579849Y-60745202D01*
X123585486Y-60747034D01*
X123626367Y-60761390D01*
X123633851Y-60764018D01*
X123639416Y-60764500D01*
X123642124Y-60764500D01*
X123644758Y-60764614D01*
X123644856Y-60764643D01*
X123644849Y-60764807D01*
X123645553Y-60764851D01*
X123651778Y-60766713D01*
X123705635Y-60764597D01*
X123710582Y-60764500D01*
X125141616Y-60764500D01*
X125209737Y-60784502D01*
X125230711Y-60801405D01*
X125315595Y-60886289D01*
X125349621Y-60948601D01*
X125352500Y-60975384D01*
X125352500Y-61440154D01*
X125332498Y-61508275D01*
X125292523Y-61547471D01*
X125264544Y-61564684D01*
X125143605Y-61683117D01*
X125051909Y-61825400D01*
X125049498Y-61832025D01*
X124996425Y-61977840D01*
X124996424Y-61977845D01*
X124994015Y-61984463D01*
X124972800Y-62152399D01*
X124989318Y-62320862D01*
X125042748Y-62481479D01*
X125046397Y-62487504D01*
X125120370Y-62609647D01*
X125130435Y-62626267D01*
X125135326Y-62631332D01*
X125135327Y-62631333D01*
X125163446Y-62660451D01*
X125248021Y-62748031D01*
X125389660Y-62840717D01*
X125548315Y-62899720D01*
X125555296Y-62900651D01*
X125555298Y-62900652D01*
X125709118Y-62921176D01*
X125709122Y-62921176D01*
X125716099Y-62922107D01*
X125723110Y-62921469D01*
X125723114Y-62921469D01*
X125877652Y-62907405D01*
X125884673Y-62906766D01*
X126045659Y-62854458D01*
X126191056Y-62767784D01*
X126313638Y-62651052D01*
X126317539Y-62645181D01*
X126403410Y-62515935D01*
X126403411Y-62515933D01*
X126407311Y-62510063D01*
X126467420Y-62351824D01*
X126490978Y-62184200D01*
X126491140Y-62172580D01*
X126491219Y-62166962D01*
X126491219Y-62166957D01*
X126491274Y-62163000D01*
X126480603Y-62067865D01*
X126473191Y-62001780D01*
X126473190Y-62001777D01*
X126472406Y-61994784D01*
X126416738Y-61834929D01*
X126327038Y-61691379D01*
X126318846Y-61683129D01*
X126212726Y-61576266D01*
X126207764Y-61571269D01*
X126169984Y-61547293D01*
X126123187Y-61493904D01*
X126111500Y-61440909D01*
X126111500Y-60819920D01*
X126114049Y-60795973D01*
X126114128Y-60794307D01*
X126116320Y-60784124D01*
X126115096Y-60773782D01*
X126115096Y-60773779D01*
X126112374Y-60750787D01*
X126112023Y-60744846D01*
X126111928Y-60744854D01*
X126111500Y-60739674D01*
X126111500Y-60734476D01*
X126110596Y-60729041D01*
X126108329Y-60715427D01*
X126107492Y-60709547D01*
X126102693Y-60668997D01*
X126102692Y-60668995D01*
X126101469Y-60658659D01*
X126097508Y-60650410D01*
X126096004Y-60641374D01*
X126087009Y-60624703D01*
X126071652Y-60596240D01*
X126068957Y-60590951D01*
X126050212Y-60551915D01*
X126046780Y-60544768D01*
X126043186Y-60540492D01*
X126041246Y-60538552D01*
X126039493Y-60536641D01*
X126039444Y-60536551D01*
X126039567Y-60536439D01*
X126039095Y-60535904D01*
X126036010Y-60530186D01*
X125996413Y-60493583D01*
X125992848Y-60490154D01*
X125657478Y-60154784D01*
X125642336Y-60136036D01*
X125641221Y-60134811D01*
X125635571Y-60126060D01*
X125627393Y-60119613D01*
X125627391Y-60119611D01*
X125609200Y-60105271D01*
X125604759Y-60101325D01*
X125604697Y-60101398D01*
X125600733Y-60098039D01*
X125597056Y-60094362D01*
X125581308Y-60083108D01*
X125576638Y-60079602D01*
X125536353Y-60047844D01*
X125527719Y-60044812D01*
X125520266Y-60039486D01*
X125471150Y-60024797D01*
X125465508Y-60022964D01*
X125424633Y-60008610D01*
X125424632Y-60008610D01*
X125417149Y-60005982D01*
X125411584Y-60005500D01*
X125408876Y-60005500D01*
X125406242Y-60005386D01*
X125406144Y-60005357D01*
X125406151Y-60005193D01*
X125405447Y-60005149D01*
X125399222Y-60003287D01*
X125345365Y-60005403D01*
X125340418Y-60005500D01*
X123909384Y-60005500D01*
X123841263Y-59985498D01*
X123820289Y-59968595D01*
X123512382Y-59660688D01*
X123478356Y-59598376D01*
X123483421Y-59527561D01*
X123525968Y-59470725D01*
X123592488Y-59445914D01*
X123643201Y-59452702D01*
X123644905Y-59453300D01*
X123651512Y-59456066D01*
X123657734Y-59460513D01*
X123667710Y-59463497D01*
X123667711Y-59463497D01*
X123681123Y-59467508D01*
X123706849Y-59475202D01*
X123712486Y-59477034D01*
X123734832Y-59484881D01*
X123760851Y-59494018D01*
X123766416Y-59494500D01*
X123769124Y-59494500D01*
X123771758Y-59494614D01*
X123771856Y-59494643D01*
X123771849Y-59494807D01*
X123772553Y-59494851D01*
X123778778Y-59496713D01*
X123832635Y-59494597D01*
X123837582Y-59494500D01*
X125903616Y-59494500D01*
X125971737Y-59514502D01*
X125992711Y-59531405D01*
X127601595Y-61140289D01*
X127635621Y-61202601D01*
X127638500Y-61229384D01*
X127638500Y-61440154D01*
X127618498Y-61508275D01*
X127578523Y-61547471D01*
X127550544Y-61564684D01*
X127429605Y-61683117D01*
X127337909Y-61825400D01*
X127335498Y-61832025D01*
X127282425Y-61977840D01*
X127282424Y-61977845D01*
X127280015Y-61984463D01*
X127258800Y-62152399D01*
X127275318Y-62320862D01*
X127328748Y-62481479D01*
X127332397Y-62487504D01*
X127406370Y-62609647D01*
X127416435Y-62626267D01*
X127421326Y-62631332D01*
X127421327Y-62631333D01*
X127449446Y-62660451D01*
X127534021Y-62748031D01*
X127675660Y-62840717D01*
X127834315Y-62899720D01*
X127841296Y-62900651D01*
X127841298Y-62900652D01*
X127995118Y-62921176D01*
X127995122Y-62921176D01*
X128002099Y-62922107D01*
X128009110Y-62921469D01*
X128009114Y-62921469D01*
X128163652Y-62907405D01*
X128170673Y-62906766D01*
X128331659Y-62854458D01*
X128477056Y-62767784D01*
X128599638Y-62651052D01*
X128603539Y-62645181D01*
X128689410Y-62515935D01*
X128689411Y-62515933D01*
X128693311Y-62510063D01*
X128753420Y-62351824D01*
X128776978Y-62184200D01*
X128777140Y-62172580D01*
X128777219Y-62166962D01*
X128777219Y-62166957D01*
X128777274Y-62163000D01*
X128776377Y-62155002D01*
X129291738Y-62155002D01*
X129307248Y-62339705D01*
X129309461Y-62351764D01*
X129360554Y-62529945D01*
X129365066Y-62541342D01*
X129425148Y-62658250D01*
X129434865Y-62668468D01*
X129441666Y-62666124D01*
X129931978Y-62175812D01*
X129938356Y-62164132D01*
X130668408Y-62164132D01*
X130668539Y-62165965D01*
X130672790Y-62172580D01*
X131160661Y-62660451D01*
X131173041Y-62667211D01*
X131179775Y-62662170D01*
X131226262Y-62580337D01*
X131231256Y-62569121D01*
X131289759Y-62393253D01*
X131292479Y-62381281D01*
X131316039Y-62194784D01*
X131316531Y-62187757D01*
X131316828Y-62166523D01*
X131316533Y-62159494D01*
X131315837Y-62152399D01*
X131830800Y-62152399D01*
X131847318Y-62320862D01*
X131900748Y-62481479D01*
X131904397Y-62487504D01*
X131978370Y-62609647D01*
X131988435Y-62626267D01*
X131993326Y-62631332D01*
X131993327Y-62631333D01*
X132021446Y-62660451D01*
X132106021Y-62748031D01*
X132247660Y-62840717D01*
X132406315Y-62899720D01*
X132413296Y-62900651D01*
X132413298Y-62900652D01*
X132567118Y-62921176D01*
X132567122Y-62921176D01*
X132574099Y-62922107D01*
X132581110Y-62921469D01*
X132581114Y-62921469D01*
X132735652Y-62907405D01*
X132742673Y-62906766D01*
X132903659Y-62854458D01*
X133049056Y-62767784D01*
X133171638Y-62651052D01*
X133175539Y-62645181D01*
X133261410Y-62515935D01*
X133261411Y-62515933D01*
X133265311Y-62510063D01*
X133325420Y-62351824D01*
X133348978Y-62184200D01*
X133349208Y-62167707D01*
X133370158Y-62099873D01*
X133386101Y-62080370D01*
X138628857Y-56837613D01*
X140116677Y-56837613D01*
X140117055Y-56839998D01*
X140131340Y-57055665D01*
X140181866Y-57268270D01*
X140183919Y-57273119D01*
X140183921Y-57273125D01*
X140264631Y-57463752D01*
X140267066Y-57469502D01*
X140269899Y-57473945D01*
X140269902Y-57473950D01*
X140364650Y-57622524D01*
X140384565Y-57653752D01*
X140388098Y-57657661D01*
X140484111Y-57763901D01*
X140531085Y-57815879D01*
X140580190Y-57854682D01*
X140698402Y-57948093D01*
X140698405Y-57948095D01*
X140702542Y-57951364D01*
X140718808Y-57960283D01*
X140889530Y-58053894D01*
X140889534Y-58053896D01*
X140894154Y-58056429D01*
X141100578Y-58128143D01*
X141105767Y-58129019D01*
X141105772Y-58129020D01*
X141310860Y-58163631D01*
X141316057Y-58164508D01*
X141534583Y-58164508D01*
X141539780Y-58163631D01*
X141744868Y-58129020D01*
X141744873Y-58129019D01*
X141750062Y-58128143D01*
X141956486Y-58056429D01*
X141961106Y-58053896D01*
X141961110Y-58053894D01*
X142131832Y-57960283D01*
X142148098Y-57951364D01*
X142152235Y-57948095D01*
X142152238Y-57948093D01*
X142270450Y-57854682D01*
X142319555Y-57815879D01*
X142366530Y-57763901D01*
X142462542Y-57657661D01*
X142466075Y-57653752D01*
X142485990Y-57622524D01*
X142580738Y-57473950D01*
X142580741Y-57473945D01*
X142583574Y-57469502D01*
X142586009Y-57463752D01*
X142666719Y-57273125D01*
X142666721Y-57273119D01*
X142668774Y-57268270D01*
X142719300Y-57055665D01*
X142733585Y-56839998D01*
X142733963Y-56837613D01*
X142731635Y-56825635D01*
X142729320Y-56801595D01*
X142729320Y-39384405D01*
X142731635Y-39360362D01*
X142731859Y-39359210D01*
X142733963Y-39348387D01*
X142733585Y-39346002D01*
X142719300Y-39130335D01*
X142668774Y-38917730D01*
X142666721Y-38912881D01*
X142666719Y-38912875D01*
X142585629Y-38721351D01*
X142585628Y-38721348D01*
X142583574Y-38716498D01*
X142580741Y-38712055D01*
X142580738Y-38712050D01*
X142468909Y-38536692D01*
X142466075Y-38532248D01*
X142398132Y-38457068D01*
X142323089Y-38374031D01*
X142323086Y-38374029D01*
X142319555Y-38370121D01*
X142253130Y-38317632D01*
X142152238Y-38237907D01*
X142152235Y-38237905D01*
X142148098Y-38234636D01*
X142057914Y-38185186D01*
X141961110Y-38132106D01*
X141961106Y-38132104D01*
X141956486Y-38129571D01*
X141750062Y-38057857D01*
X141744873Y-38056981D01*
X141744868Y-38056980D01*
X141539780Y-38022369D01*
X141539779Y-38022369D01*
X141534583Y-38021492D01*
X141316057Y-38021492D01*
X141310861Y-38022369D01*
X141310860Y-38022369D01*
X141105772Y-38056980D01*
X141105767Y-38056981D01*
X141100578Y-38057857D01*
X140894154Y-38129571D01*
X140889534Y-38132104D01*
X140889530Y-38132106D01*
X140792726Y-38185186D01*
X140702542Y-38234636D01*
X140698405Y-38237905D01*
X140698402Y-38237907D01*
X140597510Y-38317632D01*
X140531085Y-38370121D01*
X140527554Y-38374029D01*
X140527551Y-38374031D01*
X140452508Y-38457068D01*
X140384565Y-38532248D01*
X140381731Y-38536692D01*
X140269902Y-38712050D01*
X140269899Y-38712055D01*
X140267066Y-38716498D01*
X140265012Y-38721348D01*
X140265011Y-38721351D01*
X140183921Y-38912875D01*
X140183919Y-38912881D01*
X140181866Y-38917730D01*
X140131340Y-39130335D01*
X140117055Y-39346002D01*
X140116677Y-39348387D01*
X140118781Y-39359210D01*
X140119005Y-39360362D01*
X140121320Y-39384405D01*
X140121320Y-56801595D01*
X140119005Y-56825635D01*
X140116677Y-56837613D01*
X138628857Y-56837613D01*
X138752792Y-56713678D01*
X138762235Y-56706133D01*
X138761912Y-56705754D01*
X138768745Y-56699938D01*
X138776339Y-56695147D01*
X138782283Y-56688417D01*
X138782285Y-56688415D01*
X138811678Y-56655134D01*
X138817024Y-56649446D01*
X138828351Y-56638119D01*
X138831038Y-56634534D01*
X138834550Y-56629848D01*
X138840937Y-56622003D01*
X138859726Y-56600729D01*
X138872001Y-56586830D01*
X138875816Y-56578703D01*
X138877669Y-56575883D01*
X138886078Y-56561887D01*
X138887688Y-56558946D01*
X138893071Y-56551764D01*
X138909544Y-56507822D01*
X138913471Y-56498501D01*
X138920226Y-56484115D01*
X138933417Y-56456018D01*
X138934798Y-56447147D01*
X138935783Y-56443925D01*
X138939923Y-56428142D01*
X138940645Y-56424858D01*
X138943798Y-56416448D01*
X138947276Y-56369643D01*
X138948430Y-56359595D01*
X138949751Y-56351114D01*
X138949751Y-56351113D01*
X138950500Y-56346303D01*
X138950500Y-56330934D01*
X138950847Y-56321596D01*
X138953843Y-56281284D01*
X138953843Y-56281283D01*
X138954508Y-56272333D01*
X138952635Y-56263558D01*
X138952043Y-56254874D01*
X138950500Y-56240258D01*
X138950500Y-48507499D01*
X138970502Y-48439378D01*
X139024158Y-48392885D01*
X139076500Y-48381499D01*
X139221066Y-48381499D01*
X139256818Y-48374388D01*
X139283126Y-48369156D01*
X139283128Y-48369155D01*
X139295301Y-48366734D01*
X139305621Y-48359839D01*
X139305622Y-48359838D01*
X139369168Y-48317377D01*
X139379484Y-48310484D01*
X139435734Y-48226301D01*
X139450500Y-48152067D01*
X139450499Y-46416162D01*
X139470501Y-46348041D01*
X139487404Y-46327067D01*
X139500794Y-46313677D01*
X139510234Y-46306135D01*
X139509911Y-46305755D01*
X139516747Y-46299937D01*
X139524339Y-46295147D01*
X139559672Y-46255140D01*
X139565017Y-46249454D01*
X139576351Y-46238120D01*
X139579038Y-46234534D01*
X139579043Y-46234529D01*
X139582557Y-46229841D01*
X139588938Y-46222003D01*
X139612658Y-46195144D01*
X139620001Y-46186830D01*
X139623816Y-46178705D01*
X139625669Y-46175884D01*
X139634077Y-46161888D01*
X139635686Y-46158950D01*
X139641071Y-46151764D01*
X139644513Y-46142584D01*
X139657544Y-46107822D01*
X139661471Y-46098501D01*
X139663191Y-46094839D01*
X139681417Y-46056018D01*
X139682798Y-46047147D01*
X139683783Y-46043925D01*
X139687923Y-46028142D01*
X139688645Y-46024858D01*
X139691798Y-46016448D01*
X139695276Y-45969643D01*
X139696430Y-45959595D01*
X139697751Y-45951114D01*
X139697751Y-45951113D01*
X139698500Y-45946303D01*
X139698500Y-45930934D01*
X139698847Y-45921596D01*
X139701843Y-45881284D01*
X139701843Y-45881283D01*
X139702508Y-45872333D01*
X139700635Y-45863558D01*
X139700043Y-45854874D01*
X139698500Y-45840258D01*
X139698500Y-38481820D01*
X139718502Y-38413699D01*
X139748935Y-38380994D01*
X139754360Y-38376928D01*
X139761544Y-38371544D01*
X139802730Y-38316590D01*
X139838535Y-38268817D01*
X139838537Y-38268814D01*
X139843917Y-38261635D01*
X139873009Y-38184031D01*
X139889358Y-38140419D01*
X139889358Y-38140418D01*
X139892130Y-38133024D01*
X139898500Y-38074389D01*
X139898499Y-37483612D01*
X139897940Y-37478465D01*
X139892984Y-37432834D01*
X139892983Y-37432830D01*
X139892130Y-37424976D01*
X139843917Y-37296365D01*
X139838537Y-37289186D01*
X139838535Y-37289183D01*
X139802731Y-37241411D01*
X139761544Y-37186456D01*
X139748935Y-37177006D01*
X139706420Y-37120146D01*
X139698500Y-37076180D01*
X139698500Y-35817624D01*
X139699841Y-35805619D01*
X139699345Y-35805579D01*
X139700065Y-35796632D01*
X139702046Y-35787876D01*
X139698742Y-35734618D01*
X139698500Y-35726816D01*
X139698500Y-35710774D01*
X139697035Y-35700543D01*
X139696003Y-35690477D01*
X139693654Y-35652600D01*
X139693654Y-35652598D01*
X139693098Y-35643641D01*
X139690051Y-35635201D01*
X139689370Y-35631911D01*
X139685416Y-35616054D01*
X139684473Y-35612829D01*
X139683201Y-35603948D01*
X139663773Y-35561218D01*
X139659969Y-35551875D01*
X139644027Y-35507715D01*
X139638732Y-35500467D01*
X139637147Y-35497486D01*
X139628907Y-35483387D01*
X139627103Y-35480567D01*
X139623388Y-35472395D01*
X139592751Y-35436838D01*
X139586469Y-35428926D01*
X139581404Y-35421993D01*
X139581393Y-35421980D01*
X139578526Y-35418056D01*
X139567671Y-35407201D01*
X139561313Y-35400354D01*
X139534915Y-35369718D01*
X139529056Y-35362918D01*
X139521522Y-35358035D01*
X139514955Y-35352306D01*
X139503544Y-35343074D01*
X139092675Y-34932204D01*
X139085134Y-34922766D01*
X139084755Y-34923089D01*
X139078937Y-34916253D01*
X139074147Y-34908661D01*
X139065926Y-34901400D01*
X139034141Y-34873329D01*
X139028454Y-34867983D01*
X139017120Y-34856649D01*
X139008845Y-34850447D01*
X139001000Y-34844060D01*
X138972557Y-34818940D01*
X138965830Y-34812999D01*
X138957708Y-34809186D01*
X138954907Y-34807346D01*
X138940912Y-34798937D01*
X138937949Y-34797315D01*
X138930764Y-34791930D01*
X138922354Y-34788777D01*
X138922352Y-34788776D01*
X138886818Y-34775454D01*
X138877502Y-34771529D01*
X138835018Y-34751583D01*
X138826144Y-34750201D01*
X138822917Y-34749215D01*
X138807134Y-34745075D01*
X138803856Y-34744354D01*
X138795448Y-34741202D01*
X138781691Y-34740180D01*
X138748643Y-34737724D01*
X138738596Y-34736570D01*
X138730114Y-34735249D01*
X138730111Y-34735249D01*
X138725303Y-34734500D01*
X138709938Y-34734500D01*
X138700601Y-34734154D01*
X138684519Y-34732959D01*
X138651333Y-34730493D01*
X138642558Y-34732366D01*
X138633862Y-34732959D01*
X138619262Y-34734500D01*
X133204837Y-34734500D01*
X133136716Y-34714498D01*
X133115431Y-34697284D01*
X133070726Y-34652266D01*
X133065764Y-34647269D01*
X132922844Y-34556569D01*
X132895442Y-34546812D01*
X132770016Y-34502149D01*
X132770011Y-34502148D01*
X132763381Y-34499787D01*
X132756395Y-34498954D01*
X132756391Y-34498953D01*
X132637287Y-34484751D01*
X132595301Y-34479745D01*
X132588298Y-34480481D01*
X132588297Y-34480481D01*
X132433965Y-34496701D01*
X132433961Y-34496702D01*
X132426957Y-34497438D01*
X132420286Y-34499709D01*
X132273387Y-34549717D01*
X132273384Y-34549718D01*
X132266717Y-34551988D01*
X132260719Y-34555678D01*
X132260717Y-34555679D01*
X132128543Y-34636993D01*
X132128541Y-34636995D01*
X132122544Y-34640684D01*
X132117511Y-34645613D01*
X132011717Y-34749215D01*
X132001605Y-34759117D01*
X131997794Y-34765031D01*
X131997792Y-34765033D01*
X131974126Y-34801755D01*
X131909909Y-34901400D01*
X131902015Y-34923089D01*
X131854425Y-35053840D01*
X131854424Y-35053845D01*
X131852015Y-35060463D01*
X131830800Y-35228399D01*
X131847318Y-35396862D01*
X131900748Y-35557479D01*
X131904397Y-35563504D01*
X131984357Y-35695533D01*
X131988435Y-35702267D01*
X131993325Y-35707331D01*
X131993327Y-35707333D01*
X132043384Y-35759168D01*
X132106021Y-35824031D01*
X132247660Y-35916717D01*
X132406315Y-35975720D01*
X132413296Y-35976651D01*
X132413298Y-35976652D01*
X132567118Y-35997176D01*
X132567122Y-35997176D01*
X132574099Y-35998107D01*
X132581110Y-35997469D01*
X132581114Y-35997469D01*
X132735652Y-35983405D01*
X132742673Y-35982766D01*
X132903659Y-35930458D01*
X133043004Y-35847392D01*
X133043006Y-35847391D01*
X133043009Y-35847389D01*
X133049056Y-35843784D01*
X133117872Y-35778253D01*
X133180995Y-35745762D01*
X133204761Y-35743500D01*
X138424839Y-35743500D01*
X138492960Y-35763502D01*
X138513934Y-35780405D01*
X138652595Y-35919066D01*
X138686621Y-35981378D01*
X138689500Y-36008161D01*
X138689500Y-37018837D01*
X138669498Y-37086958D01*
X138615842Y-37133451D01*
X138545568Y-37143555D01*
X138480988Y-37114061D01*
X138456355Y-37085139D01*
X138451210Y-37076824D01*
X138442176Y-37065426D01*
X138331571Y-36955014D01*
X138320160Y-36946002D01*
X138187120Y-36863996D01*
X138173939Y-36857849D01*
X138025186Y-36808509D01*
X138011810Y-36805642D01*
X137920903Y-36796328D01*
X137915874Y-36796071D01*
X137900876Y-36800475D01*
X137899671Y-36801865D01*
X137898000Y-36809548D01*
X137898000Y-38743885D01*
X137902475Y-38759124D01*
X137903865Y-38760329D01*
X137911548Y-38762000D01*
X137914438Y-38762000D01*
X137920953Y-38761663D01*
X138013057Y-38752106D01*
X138026456Y-38749212D01*
X138175107Y-38699619D01*
X138188286Y-38693445D01*
X138321173Y-38611212D01*
X138332574Y-38602176D01*
X138442986Y-38491571D01*
X138451998Y-38480160D01*
X138456240Y-38473278D01*
X138509012Y-38425785D01*
X138579084Y-38414361D01*
X138644208Y-38442635D01*
X138683707Y-38501629D01*
X138689500Y-38539394D01*
X138689500Y-45645839D01*
X138669498Y-45713960D01*
X138652595Y-45734934D01*
X138551934Y-45835595D01*
X138489622Y-45869621D01*
X138462839Y-45872500D01*
X137760420Y-45872501D01*
X137670934Y-45872501D01*
X137635182Y-45879612D01*
X137608874Y-45884844D01*
X137608872Y-45884845D01*
X137596699Y-45887266D01*
X137586379Y-45894161D01*
X137586378Y-45894162D01*
X137559489Y-45912129D01*
X137512516Y-45943516D01*
X137456266Y-46027699D01*
X137441500Y-46101933D01*
X137441501Y-48152066D01*
X137456266Y-48226301D01*
X137463161Y-48236620D01*
X137463162Y-48236622D01*
X137483932Y-48267706D01*
X137512516Y-48310484D01*
X137596699Y-48366734D01*
X137670933Y-48381500D01*
X137815500Y-48381500D01*
X137883621Y-48401502D01*
X137930114Y-48455158D01*
X137941500Y-48507500D01*
X137941500Y-56045839D01*
X137921498Y-56113960D01*
X137904595Y-56134934D01*
X132671994Y-61367535D01*
X132609682Y-61401561D01*
X132595230Y-61403067D01*
X132595301Y-61403745D01*
X132433965Y-61420701D01*
X132433961Y-61420702D01*
X132426957Y-61421438D01*
X132420286Y-61423709D01*
X132273387Y-61473717D01*
X132273384Y-61473718D01*
X132266717Y-61475988D01*
X132260719Y-61479678D01*
X132260717Y-61479679D01*
X132128543Y-61560993D01*
X132128542Y-61560994D01*
X132122544Y-61564684D01*
X132001605Y-61683117D01*
X131909909Y-61825400D01*
X131907498Y-61832025D01*
X131854425Y-61977840D01*
X131854424Y-61977845D01*
X131852015Y-61984463D01*
X131830800Y-62152399D01*
X131315837Y-62152399D01*
X131298188Y-61972397D01*
X131295805Y-61960362D01*
X131242233Y-61782924D01*
X131237559Y-61771584D01*
X131182562Y-61668148D01*
X131172702Y-61658067D01*
X131165575Y-61660635D01*
X130676022Y-62150188D01*
X130668408Y-62164132D01*
X129938356Y-62164132D01*
X129939592Y-62161868D01*
X129939461Y-62160035D01*
X129935210Y-62153420D01*
X129447121Y-61665331D01*
X129434741Y-61658571D01*
X129428353Y-61663353D01*
X129375997Y-61758586D01*
X129371166Y-61769858D01*
X129315120Y-61946538D01*
X129312570Y-61958532D01*
X129291909Y-62142733D01*
X129291738Y-62155002D01*
X128776377Y-62155002D01*
X128766603Y-62067865D01*
X128759191Y-62001780D01*
X128759190Y-62001777D01*
X128758406Y-61994784D01*
X128702738Y-61834929D01*
X128613038Y-61691379D01*
X128604846Y-61683129D01*
X128498726Y-61576266D01*
X128493764Y-61571269D01*
X128455984Y-61547293D01*
X128409187Y-61493904D01*
X128397500Y-61440909D01*
X128397500Y-61294101D01*
X129798820Y-61294101D01*
X129801274Y-61301064D01*
X130291188Y-61790978D01*
X130305132Y-61798592D01*
X130306965Y-61798461D01*
X130313580Y-61794210D01*
X130801834Y-61305956D01*
X130808594Y-61293576D01*
X130803935Y-61287353D01*
X130701924Y-61232196D01*
X130690619Y-61227444D01*
X130513554Y-61172633D01*
X130501541Y-61170167D01*
X130317199Y-61150792D01*
X130304931Y-61150707D01*
X130120345Y-61167505D01*
X130108296Y-61169803D01*
X129930483Y-61222137D01*
X129919108Y-61226732D01*
X129808969Y-61284312D01*
X129798820Y-61294101D01*
X128397500Y-61294101D01*
X128397500Y-61073920D01*
X128400049Y-61049972D01*
X128400128Y-61048307D01*
X128402320Y-61038124D01*
X128398373Y-61004777D01*
X128398023Y-60998846D01*
X128397928Y-60998854D01*
X128397500Y-60993676D01*
X128397500Y-60988476D01*
X128395321Y-60975384D01*
X128394331Y-60969435D01*
X128393494Y-60963557D01*
X128388694Y-60922999D01*
X128388694Y-60922998D01*
X128387470Y-60912659D01*
X128383507Y-60904407D01*
X128382004Y-60895374D01*
X128357665Y-60850266D01*
X128354969Y-60844975D01*
X128336215Y-60805918D01*
X128336212Y-60805914D01*
X128332781Y-60798768D01*
X128329186Y-60794492D01*
X128327263Y-60792569D01*
X128325491Y-60790637D01*
X128325448Y-60790558D01*
X128325572Y-60790445D01*
X128325096Y-60789905D01*
X128322010Y-60784186D01*
X128282413Y-60747583D01*
X128278848Y-60744154D01*
X126419478Y-58884784D01*
X126404336Y-58866036D01*
X126403221Y-58864811D01*
X126397571Y-58856060D01*
X126389393Y-58849613D01*
X126389391Y-58849611D01*
X126371200Y-58835271D01*
X126366759Y-58831325D01*
X126366697Y-58831398D01*
X126362733Y-58828039D01*
X126359056Y-58824362D01*
X126343308Y-58813108D01*
X126338638Y-58809602D01*
X126298353Y-58777844D01*
X126289719Y-58774812D01*
X126282266Y-58769486D01*
X126233150Y-58754797D01*
X126227508Y-58752964D01*
X126186633Y-58738610D01*
X126186632Y-58738610D01*
X126179149Y-58735982D01*
X126173584Y-58735500D01*
X126170876Y-58735500D01*
X126168242Y-58735386D01*
X126168144Y-58735357D01*
X126168151Y-58735193D01*
X126167447Y-58735149D01*
X126161222Y-58733287D01*
X126107365Y-58735403D01*
X126102418Y-58735500D01*
X124036384Y-58735500D01*
X123968263Y-58715498D01*
X123947289Y-58698595D01*
X123247143Y-57998449D01*
X123213117Y-57936137D01*
X123211495Y-57891601D01*
X123215581Y-57862892D01*
X123215581Y-57862886D01*
X123216162Y-57858807D01*
X123216307Y-57845000D01*
X123214962Y-57833881D01*
X123206186Y-57761364D01*
X123197276Y-57687733D01*
X123141280Y-57539546D01*
X123106730Y-57489275D01*
X123055855Y-57415251D01*
X123055854Y-57415249D01*
X123051553Y-57408992D01*
X122933275Y-57303611D01*
X122925889Y-57299700D01*
X122882651Y-57276807D01*
X122793274Y-57229484D01*
X122639633Y-57190892D01*
X122632034Y-57190852D01*
X122632033Y-57190852D01*
X122571626Y-57190536D01*
X122490335Y-57190110D01*
X122422321Y-57169752D01*
X122401901Y-57153207D01*
X122297851Y-57049157D01*
X122263825Y-56986845D01*
X122268890Y-56916030D01*
X122285595Y-56885202D01*
X122294979Y-56872497D01*
X122349209Y-56799076D01*
X122394493Y-56670127D01*
X122395219Y-56662454D01*
X122397219Y-56641290D01*
X122397500Y-56638315D01*
X122397499Y-56129686D01*
X122394493Y-56097873D01*
X122349209Y-55968924D01*
X122268010Y-55858990D01*
X122158076Y-55777791D01*
X122029127Y-55732507D01*
X122021485Y-55731785D01*
X122021482Y-55731784D01*
X122006579Y-55730376D01*
X121997315Y-55729500D01*
X121668223Y-55729500D01*
X121338686Y-55729501D01*
X121335738Y-55729780D01*
X121335729Y-55729780D01*
X121314522Y-55731784D01*
X121314520Y-55731784D01*
X121306873Y-55732507D01*
X121177924Y-55777791D01*
X121067990Y-55858990D01*
X120986791Y-55968924D01*
X120941507Y-56097873D01*
X120940785Y-56105515D01*
X120940784Y-56105518D01*
X120939986Y-56113960D01*
X120938500Y-56129685D01*
X120938501Y-56638314D01*
X120938780Y-56641262D01*
X120938780Y-56641271D01*
X120940782Y-56662454D01*
X120941507Y-56670127D01*
X120986791Y-56799076D01*
X121067990Y-56909010D01*
X121177924Y-56990209D01*
X121186808Y-56993329D01*
X121186812Y-56993331D01*
X121230431Y-57008648D01*
X121288076Y-57050091D01*
X121303731Y-57079032D01*
X121303996Y-57080626D01*
X121318188Y-57106928D01*
X121328334Y-57125732D01*
X121331031Y-57131025D01*
X121349785Y-57170082D01*
X121349788Y-57170086D01*
X121353219Y-57177232D01*
X121356814Y-57181508D01*
X121358737Y-57183431D01*
X121360509Y-57185363D01*
X121360552Y-57185442D01*
X121360428Y-57185555D01*
X121360904Y-57186095D01*
X121363990Y-57191814D01*
X121371635Y-57198881D01*
X121403586Y-57228416D01*
X121407152Y-57231846D01*
X121474618Y-57299312D01*
X121508644Y-57361624D01*
X121503579Y-57432439D01*
X121461032Y-57489275D01*
X121394512Y-57514086D01*
X121343753Y-57507282D01*
X121342708Y-57506915D01*
X121342053Y-57506685D01*
X121335496Y-57503938D01*
X121329266Y-57499486D01*
X121280150Y-57484797D01*
X121274508Y-57482964D01*
X121233629Y-57468608D01*
X121233624Y-57468607D01*
X121226149Y-57465982D01*
X121225594Y-57465934D01*
X121166089Y-57433605D01*
X121151155Y-57415688D01*
X121150855Y-57415251D01*
X121150853Y-57415249D01*
X121146553Y-57408992D01*
X121028275Y-57303611D01*
X121020889Y-57299700D01*
X120977651Y-57276807D01*
X120888274Y-57229484D01*
X120734633Y-57190892D01*
X120727034Y-57190852D01*
X120727033Y-57190852D01*
X120661181Y-57190507D01*
X120576221Y-57190062D01*
X120568841Y-57191834D01*
X120568839Y-57191834D01*
X120488283Y-57211174D01*
X120417375Y-57207627D01*
X120359641Y-57166307D01*
X120333411Y-57100333D01*
X120347013Y-57030652D01*
X120384009Y-56987304D01*
X120433093Y-56951050D01*
X120490010Y-56909010D01*
X120571209Y-56799076D01*
X120616493Y-56670127D01*
X120617219Y-56662454D01*
X120619219Y-56641290D01*
X120619500Y-56638315D01*
X120619499Y-56129686D01*
X120616493Y-56097873D01*
X120571209Y-55968924D01*
X120490010Y-55858990D01*
X120380076Y-55777791D01*
X120251127Y-55732507D01*
X120243485Y-55731785D01*
X120243482Y-55731784D01*
X120228579Y-55730376D01*
X120219315Y-55729500D01*
X119890223Y-55729500D01*
X119560686Y-55729501D01*
X119557738Y-55729780D01*
X119557729Y-55729780D01*
X119536522Y-55731784D01*
X119536520Y-55731784D01*
X119528873Y-55732507D01*
X119399924Y-55777791D01*
X119289990Y-55858990D01*
X119208791Y-55968924D01*
X119163507Y-56097873D01*
X119162785Y-56105515D01*
X119162784Y-56105518D01*
X119161986Y-56113960D01*
X119160500Y-56129685D01*
X118739410Y-56129685D01*
X118696280Y-56015546D01*
X118622152Y-55907689D01*
X118610855Y-55891251D01*
X118610854Y-55891249D01*
X118606553Y-55884992D01*
X118488275Y-55779611D01*
X118480889Y-55775700D01*
X118354988Y-55709039D01*
X118354989Y-55709039D01*
X118348274Y-55705484D01*
X118194633Y-55666892D01*
X118187034Y-55666852D01*
X118187033Y-55666852D01*
X118121181Y-55666507D01*
X118036221Y-55666062D01*
X118028841Y-55667834D01*
X118028839Y-55667834D01*
X117889563Y-55701271D01*
X117889560Y-55701272D01*
X117882184Y-55703043D01*
X117741414Y-55775700D01*
X117622039Y-55879838D01*
X117530950Y-56009444D01*
X117508730Y-56066435D01*
X117479056Y-56142546D01*
X117473406Y-56157037D01*
X117472414Y-56164570D01*
X117472414Y-56164571D01*
X117455805Y-56290733D01*
X117452729Y-56314096D01*
X116723103Y-56314096D01*
X116720276Y-56290733D01*
X116664280Y-56142546D01*
X116647309Y-56117853D01*
X116578855Y-56018251D01*
X116578854Y-56018249D01*
X116574553Y-56011992D01*
X116564717Y-56003228D01*
X116461946Y-55911664D01*
X116456275Y-55906611D01*
X116448889Y-55902700D01*
X116359260Y-55855244D01*
X116316274Y-55832484D01*
X116162633Y-55793892D01*
X116155034Y-55793852D01*
X116155033Y-55793852D01*
X116089181Y-55793507D01*
X116004221Y-55793062D01*
X115996841Y-55794834D01*
X115996839Y-55794834D01*
X115857563Y-55828271D01*
X115857560Y-55828272D01*
X115850184Y-55830043D01*
X115709414Y-55902700D01*
X115590039Y-56006838D01*
X115585672Y-56013052D01*
X115585669Y-56013055D01*
X115548153Y-56066435D01*
X115492619Y-56110667D01*
X115421987Y-56117853D01*
X115358682Y-56085712D01*
X115341226Y-56065352D01*
X115331734Y-56051540D01*
X115327815Y-56045839D01*
X115308855Y-56018251D01*
X115308854Y-56018249D01*
X115304553Y-56011992D01*
X115294717Y-56003228D01*
X115191946Y-55911664D01*
X115186275Y-55906611D01*
X115178889Y-55902700D01*
X115089260Y-55855244D01*
X115046274Y-55832484D01*
X114892633Y-55793892D01*
X114885034Y-55793852D01*
X114885033Y-55793852D01*
X114819181Y-55793507D01*
X114734221Y-55793062D01*
X114726841Y-55794834D01*
X114726839Y-55794834D01*
X114587563Y-55828271D01*
X114587560Y-55828272D01*
X114580184Y-55830043D01*
X114439414Y-55902700D01*
X114320039Y-56006838D01*
X114228950Y-56136444D01*
X114217984Y-56164571D01*
X114174626Y-56275779D01*
X114171406Y-56284037D01*
X114170414Y-56291570D01*
X114170414Y-56291571D01*
X114153630Y-56419063D01*
X114150729Y-56441096D01*
X113817472Y-56441096D01*
X113799276Y-56290733D01*
X113743280Y-56142546D01*
X113726309Y-56117853D01*
X113657855Y-56018251D01*
X113657854Y-56018249D01*
X113653553Y-56011992D01*
X113643717Y-56003228D01*
X113540946Y-55911664D01*
X113535275Y-55906611D01*
X113527889Y-55902700D01*
X113438260Y-55855244D01*
X113395274Y-55832484D01*
X113241633Y-55793892D01*
X113234034Y-55793852D01*
X113234033Y-55793852D01*
X113168181Y-55793507D01*
X113083221Y-55793062D01*
X113075841Y-55794834D01*
X113075839Y-55794834D01*
X112936563Y-55828271D01*
X112936560Y-55828272D01*
X112929184Y-55830043D01*
X112788414Y-55902700D01*
X112669039Y-56006838D01*
X112577950Y-56136444D01*
X112566984Y-56164571D01*
X112523626Y-56275779D01*
X112520406Y-56284037D01*
X112519414Y-56291570D01*
X112519414Y-56291571D01*
X112502630Y-56419063D01*
X112499729Y-56441096D01*
X105729320Y-56441096D01*
X105729320Y-45825000D01*
X106434514Y-45825000D01*
X106454266Y-45924301D01*
X106510516Y-46008484D01*
X106594699Y-46064734D01*
X106694000Y-46084486D01*
X108194000Y-46084486D01*
X108293301Y-46064734D01*
X108377484Y-46008484D01*
X108433734Y-45924301D01*
X108453486Y-45825000D01*
X108453486Y-45818812D01*
X108453551Y-45818152D01*
X108480132Y-45752319D01*
X108538086Y-45711308D01*
X108578944Y-45704500D01*
X109865056Y-45704500D01*
X109933177Y-45724502D01*
X109979670Y-45778158D01*
X109990449Y-45818152D01*
X109990514Y-45818812D01*
X109990514Y-45825000D01*
X110010266Y-45924301D01*
X110066516Y-46008484D01*
X110150699Y-46064734D01*
X110250000Y-46084486D01*
X111750000Y-46084486D01*
X111849301Y-46064734D01*
X111933484Y-46008484D01*
X111989734Y-45924301D01*
X112009486Y-45825000D01*
X112009486Y-45818812D01*
X112009551Y-45818152D01*
X112036132Y-45752319D01*
X112094086Y-45711308D01*
X112134944Y-45704500D01*
X113421056Y-45704500D01*
X113489177Y-45724502D01*
X113535670Y-45778158D01*
X113546449Y-45818152D01*
X113546514Y-45818812D01*
X113546514Y-45825000D01*
X113566266Y-45924301D01*
X113622516Y-46008484D01*
X113706699Y-46064734D01*
X113806000Y-46084486D01*
X115306000Y-46084486D01*
X115405301Y-46064734D01*
X115489484Y-46008484D01*
X115545734Y-45924301D01*
X115561922Y-45842918D01*
X115594830Y-45780009D01*
X115656525Y-45744877D01*
X115685501Y-45741500D01*
X116977056Y-45741500D01*
X117045177Y-45761502D01*
X117091670Y-45815158D01*
X117102449Y-45855152D01*
X117102514Y-45855812D01*
X117102514Y-45862000D01*
X117122266Y-45961301D01*
X117178516Y-46045484D01*
X117262699Y-46101734D01*
X117362000Y-46121486D01*
X117606500Y-46121486D01*
X117674621Y-46141488D01*
X117721114Y-46195144D01*
X117732500Y-46247486D01*
X117732500Y-46869080D01*
X117729951Y-46893028D01*
X117729872Y-46894693D01*
X117727680Y-46904876D01*
X117728904Y-46915217D01*
X117731627Y-46938223D01*
X117731977Y-46944154D01*
X117732072Y-46944146D01*
X117732500Y-46949324D01*
X117732500Y-46954524D01*
X117733354Y-46959653D01*
X117733354Y-46959656D01*
X117735669Y-46973565D01*
X117736506Y-46979443D01*
X117741239Y-47019429D01*
X117742530Y-47030341D01*
X117746493Y-47038593D01*
X117747996Y-47047626D01*
X117752943Y-47056795D01*
X117752944Y-47056797D01*
X117772334Y-47092732D01*
X117775031Y-47098025D01*
X117793785Y-47137082D01*
X117793788Y-47137086D01*
X117797219Y-47144232D01*
X117800814Y-47148508D01*
X117802737Y-47150431D01*
X117804509Y-47152363D01*
X117804552Y-47152442D01*
X117804428Y-47152555D01*
X117804904Y-47153095D01*
X117807990Y-47158814D01*
X117815635Y-47165881D01*
X117847586Y-47195416D01*
X117851152Y-47198846D01*
X123393522Y-52741216D01*
X123408664Y-52759964D01*
X123409779Y-52761189D01*
X123415429Y-52769940D01*
X123423607Y-52776387D01*
X123423609Y-52776389D01*
X123441800Y-52790729D01*
X123446244Y-52794678D01*
X123446306Y-52794604D01*
X123450263Y-52797957D01*
X123453944Y-52801638D01*
X123469654Y-52812865D01*
X123474380Y-52816413D01*
X123514647Y-52848156D01*
X123523284Y-52851189D01*
X123530734Y-52856513D01*
X123540710Y-52859497D01*
X123540711Y-52859497D01*
X123556046Y-52864083D01*
X123579849Y-52871202D01*
X123585486Y-52873034D01*
X123626199Y-52887331D01*
X123633851Y-52890018D01*
X123639416Y-52890500D01*
X123642124Y-52890500D01*
X123644758Y-52890614D01*
X123644856Y-52890643D01*
X123644849Y-52890807D01*
X123645553Y-52890851D01*
X123651778Y-52892713D01*
X123705635Y-52890597D01*
X123710582Y-52890500D01*
X125424080Y-52890500D01*
X125448028Y-52893049D01*
X125449693Y-52893128D01*
X125459876Y-52895320D01*
X125470217Y-52894096D01*
X125493223Y-52891373D01*
X125499154Y-52891023D01*
X125499146Y-52890928D01*
X125504324Y-52890500D01*
X125509524Y-52890500D01*
X125514653Y-52889646D01*
X125514656Y-52889646D01*
X125528565Y-52887331D01*
X125534443Y-52886494D01*
X125575001Y-52881694D01*
X125575002Y-52881694D01*
X125585341Y-52880470D01*
X125593593Y-52876507D01*
X125602626Y-52875004D01*
X125611795Y-52870057D01*
X125611797Y-52870056D01*
X125647732Y-52850666D01*
X125653025Y-52847969D01*
X125692082Y-52829215D01*
X125692086Y-52829212D01*
X125699232Y-52825781D01*
X125703508Y-52822186D01*
X125705431Y-52820263D01*
X125707363Y-52818491D01*
X125707442Y-52818448D01*
X125707555Y-52818572D01*
X125708095Y-52818096D01*
X125713814Y-52815010D01*
X125750417Y-52775413D01*
X125753846Y-52771848D01*
X125833405Y-52692289D01*
X125895717Y-52658263D01*
X125966532Y-52663328D01*
X126011595Y-52692289D01*
X126085434Y-52766128D01*
X126114665Y-52811923D01*
X126157941Y-52930183D01*
X126157943Y-52930187D01*
X126160553Y-52937319D01*
X126164789Y-52943622D01*
X126164789Y-52943623D01*
X126219382Y-53024865D01*
X126248908Y-53068805D01*
X126254527Y-53073918D01*
X126254528Y-53073919D01*
X126360460Y-53170309D01*
X126366076Y-53175419D01*
X126505293Y-53251008D01*
X126658522Y-53291207D01*
X126742477Y-53292526D01*
X126809319Y-53293576D01*
X126809322Y-53293576D01*
X126816916Y-53293695D01*
X126971332Y-53258329D01*
X127051204Y-53218158D01*
X127106072Y-53190563D01*
X127106075Y-53190561D01*
X127112855Y-53187151D01*
X127118626Y-53182222D01*
X127118629Y-53182220D01*
X127227536Y-53089204D01*
X127227536Y-53089203D01*
X127233314Y-53084269D01*
X127325755Y-52955624D01*
X127384842Y-52808641D01*
X127401401Y-52692289D01*
X127406581Y-52655891D01*
X127406581Y-52655888D01*
X127407162Y-52651807D01*
X127407307Y-52638000D01*
X127388276Y-52480733D01*
X127332280Y-52332546D01*
X127242553Y-52201992D01*
X127124275Y-52096611D01*
X126984274Y-52022484D01*
X126830633Y-51983892D01*
X126823034Y-51983852D01*
X126823033Y-51983852D01*
X126787905Y-51983668D01*
X126737062Y-51983402D01*
X126669048Y-51963044D01*
X126622837Y-51909145D01*
X126613101Y-51838819D01*
X126615168Y-51830474D01*
X126614723Y-51830378D01*
X126616391Y-51822628D01*
X126619018Y-51815149D01*
X126619500Y-51809584D01*
X126619500Y-51806876D01*
X126619614Y-51804242D01*
X126619643Y-51804144D01*
X126619807Y-51804151D01*
X126619851Y-51803447D01*
X126621713Y-51797222D01*
X126619597Y-51743365D01*
X126619500Y-51738418D01*
X126619500Y-51408969D01*
X126639502Y-51340848D01*
X126693158Y-51294355D01*
X126763432Y-51284251D01*
X126811616Y-51301709D01*
X126941880Y-51382004D01*
X126955061Y-51388151D01*
X127103814Y-51437491D01*
X127117190Y-51440358D01*
X127208097Y-51449672D01*
X127214513Y-51450000D01*
X127237885Y-51450000D01*
X127253124Y-51445525D01*
X127254329Y-51444135D01*
X127256000Y-51436452D01*
X127256000Y-50364000D01*
X127276002Y-50295879D01*
X127329658Y-50249386D01*
X127382000Y-50238000D01*
X127638000Y-50238000D01*
X127706121Y-50258002D01*
X127752614Y-50311658D01*
X127764000Y-50364000D01*
X127764000Y-51431885D01*
X127768475Y-51447124D01*
X127769865Y-51448329D01*
X127777548Y-51450000D01*
X127805438Y-51450000D01*
X127811953Y-51449663D01*
X127904057Y-51440106D01*
X127917456Y-51437212D01*
X128066107Y-51387619D01*
X128079284Y-51381446D01*
X128081201Y-51380260D01*
X128082691Y-51379850D01*
X128085906Y-51378344D01*
X128086164Y-51378894D01*
X128149654Y-51361425D01*
X128217423Y-51382589D01*
X128262992Y-51437031D01*
X128273500Y-51487407D01*
X128273500Y-53911514D01*
X128253498Y-53979635D01*
X128199842Y-54026128D01*
X128147500Y-54037514D01*
X127522000Y-54037514D01*
X127422699Y-54057266D01*
X127338516Y-54113516D01*
X127282266Y-54197699D01*
X127262514Y-54297000D01*
X127262514Y-54328500D01*
X127242512Y-54396621D01*
X127188856Y-54443114D01*
X127136514Y-54454500D01*
X126612944Y-54454500D01*
X126544823Y-54434498D01*
X126498330Y-54380842D01*
X126487551Y-54340848D01*
X126487486Y-54340187D01*
X126487486Y-54334000D01*
X126467734Y-54234699D01*
X126411484Y-54150516D01*
X126327301Y-54094266D01*
X126228000Y-54074514D01*
X124728000Y-54074514D01*
X124628699Y-54094266D01*
X124544516Y-54150516D01*
X124488266Y-54234699D01*
X124468514Y-54334000D01*
X124468514Y-55334000D01*
X124473553Y-55384889D01*
X124488609Y-55421129D01*
X124493253Y-55432308D01*
X124500915Y-55502890D01*
X124494192Y-55525830D01*
X124488266Y-55534699D01*
X124485846Y-55546868D01*
X124485845Y-55546869D01*
X124476860Y-55592042D01*
X124468514Y-55634000D01*
X124468514Y-55740630D01*
X124448512Y-55808751D01*
X124394856Y-55855244D01*
X124324582Y-55865348D01*
X124260002Y-55835854D01*
X124253419Y-55829725D01*
X122927478Y-54503784D01*
X122912336Y-54485036D01*
X122911221Y-54483811D01*
X122905571Y-54475060D01*
X122897393Y-54468613D01*
X122897391Y-54468611D01*
X122879200Y-54454271D01*
X122874759Y-54450325D01*
X122874697Y-54450398D01*
X122870733Y-54447039D01*
X122867056Y-54443362D01*
X122851308Y-54432108D01*
X122846638Y-54428602D01*
X122806353Y-54396844D01*
X122797719Y-54393812D01*
X122790266Y-54388486D01*
X122741150Y-54373797D01*
X122735508Y-54371964D01*
X122694633Y-54357610D01*
X122694632Y-54357610D01*
X122687149Y-54354982D01*
X122681584Y-54354500D01*
X122678876Y-54354500D01*
X122676242Y-54354386D01*
X122676144Y-54354357D01*
X122676151Y-54354193D01*
X122675447Y-54354149D01*
X122669222Y-54352287D01*
X122615365Y-54354403D01*
X122610418Y-54354500D01*
X122439064Y-54354500D01*
X122370943Y-54334498D01*
X122337713Y-54303359D01*
X122273605Y-54216564D01*
X122273602Y-54216561D01*
X122268010Y-54208990D01*
X122158076Y-54127791D01*
X122029127Y-54082507D01*
X122021485Y-54081785D01*
X122021482Y-54081784D01*
X122006579Y-54080376D01*
X121997315Y-54079500D01*
X121668223Y-54079500D01*
X121338686Y-54079501D01*
X121335738Y-54079780D01*
X121335729Y-54079780D01*
X121314522Y-54081784D01*
X121314520Y-54081784D01*
X121306873Y-54082507D01*
X121177924Y-54127791D01*
X121067990Y-54208990D01*
X121062398Y-54216561D01*
X121062395Y-54216564D01*
X120998287Y-54303359D01*
X120941726Y-54346270D01*
X120896936Y-54354500D01*
X120661064Y-54354500D01*
X120592943Y-54334498D01*
X120559713Y-54303359D01*
X120495605Y-54216564D01*
X120495602Y-54216561D01*
X120490010Y-54208990D01*
X120380076Y-54127791D01*
X120251127Y-54082507D01*
X120243485Y-54081785D01*
X120243482Y-54081784D01*
X120228579Y-54080376D01*
X120219315Y-54079500D01*
X119890223Y-54079500D01*
X119560686Y-54079501D01*
X119557738Y-54079780D01*
X119557729Y-54079780D01*
X119536522Y-54081784D01*
X119536520Y-54081784D01*
X119528873Y-54082507D01*
X119399924Y-54127791D01*
X119289990Y-54208990D01*
X119208791Y-54318924D01*
X119163507Y-54447873D01*
X119162785Y-54455515D01*
X119162784Y-54455518D01*
X119162721Y-54456187D01*
X119160500Y-54479685D01*
X119160501Y-54988314D01*
X119163507Y-55020127D01*
X119208791Y-55149076D01*
X119289990Y-55259010D01*
X119399924Y-55340209D01*
X119528873Y-55385493D01*
X119536515Y-55386215D01*
X119536518Y-55386216D01*
X119551421Y-55387624D01*
X119560685Y-55388500D01*
X119889777Y-55388500D01*
X120219314Y-55388499D01*
X120222262Y-55388220D01*
X120222271Y-55388220D01*
X120243478Y-55386216D01*
X120243480Y-55386216D01*
X120251127Y-55385493D01*
X120380076Y-55340209D01*
X120490010Y-55259010D01*
X120495602Y-55251439D01*
X120495605Y-55251436D01*
X120559713Y-55164641D01*
X120616274Y-55121730D01*
X120661064Y-55113500D01*
X120896936Y-55113500D01*
X120965057Y-55133502D01*
X120998287Y-55164641D01*
X121062395Y-55251436D01*
X121062398Y-55251439D01*
X121067990Y-55259010D01*
X121177924Y-55340209D01*
X121306873Y-55385493D01*
X121314515Y-55386215D01*
X121314518Y-55386216D01*
X121329421Y-55387624D01*
X121338685Y-55388500D01*
X121667777Y-55388500D01*
X121997314Y-55388499D01*
X122000262Y-55388220D01*
X122000271Y-55388220D01*
X122021478Y-55386216D01*
X122021480Y-55386216D01*
X122029127Y-55385493D01*
X122158076Y-55340209D01*
X122268010Y-55259010D01*
X122326053Y-55180426D01*
X122382613Y-55137517D01*
X122453394Y-55131997D01*
X122516498Y-55166192D01*
X123901522Y-56551216D01*
X123916664Y-56569964D01*
X123917779Y-56571189D01*
X123923429Y-56579940D01*
X123931607Y-56586387D01*
X123931609Y-56586389D01*
X123949800Y-56600729D01*
X123954241Y-56604675D01*
X123954303Y-56604602D01*
X123958267Y-56607961D01*
X123961944Y-56611638D01*
X123977692Y-56622892D01*
X123982362Y-56626398D01*
X124022647Y-56658156D01*
X124031281Y-56661188D01*
X124038734Y-56666514D01*
X124087850Y-56681203D01*
X124093492Y-56683036D01*
X124127980Y-56695147D01*
X124141851Y-56700018D01*
X124147416Y-56700500D01*
X124150124Y-56700500D01*
X124152758Y-56700614D01*
X124152856Y-56700643D01*
X124152849Y-56700807D01*
X124153553Y-56700851D01*
X124159778Y-56702713D01*
X124213635Y-56700597D01*
X124218582Y-56700500D01*
X124348499Y-56700500D01*
X124416620Y-56720502D01*
X124463113Y-56774158D01*
X124472078Y-56801918D01*
X124488266Y-56883301D01*
X124544516Y-56967484D01*
X124628699Y-57023734D01*
X124728000Y-57043486D01*
X125357602Y-57043486D01*
X125425723Y-57063488D01*
X125446697Y-57080391D01*
X126820249Y-58453943D01*
X126854275Y-58516255D01*
X126856076Y-58559482D01*
X126850729Y-58600096D01*
X126854972Y-58638524D01*
X126866022Y-58738610D01*
X126868113Y-58757553D01*
X126870723Y-58764684D01*
X126870723Y-58764686D01*
X126913317Y-58881079D01*
X126922553Y-58906319D01*
X127010908Y-59037805D01*
X127016527Y-59042918D01*
X127016528Y-59042919D01*
X127062562Y-59084806D01*
X127128076Y-59144419D01*
X127267293Y-59220008D01*
X127420522Y-59260207D01*
X127504477Y-59261526D01*
X127571319Y-59262576D01*
X127571322Y-59262576D01*
X127578916Y-59262695D01*
X127733332Y-59227329D01*
X127811371Y-59188080D01*
X127868072Y-59159563D01*
X127868075Y-59159561D01*
X127874855Y-59156151D01*
X127880626Y-59151222D01*
X127880629Y-59151220D01*
X127989536Y-59058204D01*
X127989536Y-59058203D01*
X127995314Y-59053269D01*
X128087755Y-58924624D01*
X128146842Y-58777641D01*
X128167911Y-58629599D01*
X128168581Y-58624891D01*
X128168581Y-58624888D01*
X128169162Y-58620807D01*
X128169307Y-58607000D01*
X128167561Y-58592567D01*
X128156443Y-58500695D01*
X128150276Y-58449733D01*
X128094280Y-58301546D01*
X128041061Y-58224111D01*
X128008855Y-58177251D01*
X128008854Y-58177249D01*
X128004553Y-58170992D01*
X127997276Y-58164508D01*
X127907700Y-58084700D01*
X127886275Y-58065611D01*
X127746274Y-57991484D01*
X127592633Y-57952892D01*
X127585034Y-57952852D01*
X127585033Y-57952852D01*
X127524626Y-57952536D01*
X127443335Y-57952110D01*
X127375321Y-57931752D01*
X127354901Y-57915207D01*
X126482878Y-57043184D01*
X126448852Y-56980872D01*
X126453917Y-56910057D01*
X126456398Y-56905213D01*
X126456090Y-56905085D01*
X126460839Y-56893620D01*
X126467734Y-56883301D01*
X126487486Y-56784000D01*
X126487486Y-55634000D01*
X126482553Y-55583643D01*
X126462648Y-55535446D01*
X126455132Y-55464850D01*
X126461801Y-55442180D01*
X126467734Y-55433301D01*
X126487486Y-55334000D01*
X126487486Y-55327812D01*
X126487551Y-55327152D01*
X126514132Y-55261319D01*
X126572086Y-55220308D01*
X126612944Y-55213500D01*
X127140106Y-55213500D01*
X127208227Y-55233502D01*
X127254720Y-55287158D01*
X127265493Y-55327085D01*
X127267553Y-55347889D01*
X127306396Y-55441388D01*
X127378063Y-55512905D01*
X128128063Y-56012905D01*
X128221111Y-56051447D01*
X128233487Y-56051460D01*
X128301684Y-56051531D01*
X128322357Y-56051553D01*
X128415937Y-56012905D01*
X128421363Y-56009288D01*
X129163352Y-55514629D01*
X129163361Y-55514622D01*
X129165937Y-55512905D01*
X129205484Y-55480484D01*
X129215931Y-55464850D01*
X129254839Y-55406620D01*
X129261734Y-55396301D01*
X129281486Y-55297000D01*
X129281486Y-54297000D01*
X129261734Y-54197699D01*
X129205484Y-54113516D01*
X129176675Y-54094266D01*
X129131619Y-54064160D01*
X129131618Y-54064159D01*
X129121301Y-54057266D01*
X129109873Y-54054993D01*
X129055002Y-54010776D01*
X129032500Y-53938914D01*
X129032500Y-53513663D01*
X129052502Y-53445542D01*
X129106158Y-53399049D01*
X129176432Y-53388945D01*
X129234065Y-53412837D01*
X129271147Y-53440628D01*
X129279548Y-53443778D01*
X129279551Y-53443779D01*
X129355475Y-53472242D01*
X129398081Y-53488214D01*
X129405934Y-53489067D01*
X129405938Y-53489068D01*
X129452548Y-53494131D01*
X129452552Y-53494131D01*
X129455947Y-53494500D01*
X129555616Y-53494500D01*
X129623737Y-53514502D01*
X129644711Y-53531405D01*
X130141595Y-54028289D01*
X130175621Y-54090601D01*
X130178500Y-54117384D01*
X130178500Y-54456187D01*
X130158498Y-54524308D01*
X130135330Y-54551135D01*
X130068039Y-54609838D01*
X129976950Y-54739444D01*
X129974190Y-54746524D01*
X129925026Y-54872623D01*
X129919406Y-54887037D01*
X129918414Y-54894570D01*
X129918414Y-54894571D01*
X129901885Y-55020127D01*
X129898729Y-55044096D01*
X129902160Y-55075171D01*
X129913781Y-55180428D01*
X129916113Y-55201553D01*
X129918723Y-55208684D01*
X129918723Y-55208686D01*
X129963442Y-55330886D01*
X129970553Y-55350319D01*
X129974789Y-55356622D01*
X129974789Y-55356623D01*
X130054165Y-55474746D01*
X130058908Y-55481805D01*
X130064527Y-55486918D01*
X130064528Y-55486919D01*
X130170460Y-55583309D01*
X130176076Y-55588419D01*
X130315293Y-55664008D01*
X130468522Y-55704207D01*
X130552477Y-55705526D01*
X130619319Y-55706576D01*
X130619322Y-55706576D01*
X130626916Y-55706695D01*
X130707721Y-55688188D01*
X130778587Y-55692477D01*
X130835885Y-55734399D01*
X130861423Y-55800643D01*
X130847092Y-55870179D01*
X130818680Y-55905957D01*
X130816695Y-55907689D01*
X130703039Y-56006838D01*
X130611950Y-56136444D01*
X130600984Y-56164571D01*
X130557626Y-56275779D01*
X130554406Y-56284037D01*
X130553414Y-56291570D01*
X130553414Y-56291571D01*
X130536630Y-56419063D01*
X130533729Y-56441096D01*
X130540067Y-56498501D01*
X130549819Y-56586830D01*
X130551113Y-56598553D01*
X130553723Y-56605684D01*
X130553723Y-56605686D01*
X130590343Y-56705754D01*
X130605553Y-56747319D01*
X130609789Y-56753622D01*
X130609789Y-56753623D01*
X130655862Y-56822186D01*
X130693908Y-56878805D01*
X130699527Y-56883918D01*
X130699528Y-56883919D01*
X130793261Y-56969209D01*
X130811076Y-56985419D01*
X130950293Y-57061008D01*
X131103522Y-57101207D01*
X131187477Y-57102526D01*
X131254319Y-57103576D01*
X131254322Y-57103576D01*
X131261916Y-57103695D01*
X131416332Y-57068329D01*
X131494448Y-57029041D01*
X131551072Y-57000563D01*
X131551075Y-57000561D01*
X131557855Y-56997151D01*
X131563626Y-56992222D01*
X131563629Y-56992220D01*
X131672536Y-56899204D01*
X131672536Y-56899203D01*
X131678314Y-56894269D01*
X131756841Y-56784988D01*
X131765879Y-56772410D01*
X131821873Y-56728762D01*
X131892577Y-56722316D01*
X131942035Y-56748700D01*
X131943516Y-56746484D01*
X131982317Y-56772410D01*
X132027699Y-56802734D01*
X132127000Y-56822486D01*
X133277000Y-56822486D01*
X133296782Y-56820548D01*
X133318123Y-56818458D01*
X133318126Y-56818457D01*
X133327357Y-56817553D01*
X133420937Y-56778905D01*
X133492604Y-56707388D01*
X133531447Y-56613889D01*
X133531553Y-56512643D01*
X133492905Y-56419063D01*
X133459960Y-56369645D01*
X133135458Y-55882892D01*
X133114314Y-55815117D01*
X133135458Y-55743108D01*
X133491195Y-55209502D01*
X133492905Y-55206937D01*
X133507057Y-55180428D01*
X133512366Y-55170484D01*
X133512367Y-55170481D01*
X133516734Y-55162301D01*
X133536486Y-55063000D01*
X133516734Y-54963699D01*
X133460484Y-54879516D01*
X133376301Y-54823266D01*
X133277000Y-54803514D01*
X132127000Y-54803514D01*
X132027699Y-54823266D01*
X131943516Y-54879516D01*
X131887266Y-54963699D01*
X131867514Y-55063000D01*
X131867514Y-55314182D01*
X131847512Y-55382303D01*
X131793856Y-55428796D01*
X131756326Y-55439308D01*
X131720659Y-55443530D01*
X131712407Y-55447493D01*
X131703374Y-55448996D01*
X131694205Y-55453943D01*
X131694203Y-55453944D01*
X131658268Y-55473334D01*
X131652975Y-55476031D01*
X131631413Y-55486385D01*
X131606768Y-55498219D01*
X131602493Y-55501813D01*
X131600568Y-55503738D01*
X131598638Y-55505509D01*
X131598553Y-55505555D01*
X131598441Y-55505432D01*
X131597906Y-55505904D01*
X131592186Y-55508990D01*
X131585119Y-55516635D01*
X131555584Y-55548586D01*
X131552154Y-55552152D01*
X131347411Y-55756895D01*
X131285099Y-55790921D01*
X131257658Y-55793798D01*
X131117221Y-55793062D01*
X131109841Y-55794834D01*
X131109839Y-55794834D01*
X131042998Y-55810881D01*
X130972090Y-55807333D01*
X130914356Y-55766014D01*
X130888126Y-55700040D01*
X130901729Y-55630359D01*
X130931754Y-55592551D01*
X131037532Y-55502208D01*
X131037535Y-55502205D01*
X131043314Y-55497269D01*
X131135755Y-55368624D01*
X131194842Y-55221641D01*
X131217162Y-55064807D01*
X131217307Y-55051000D01*
X131198276Y-54893733D01*
X131142280Y-54745546D01*
X131052553Y-54614992D01*
X130979681Y-54550065D01*
X130942126Y-54489816D01*
X130937500Y-54455989D01*
X130937500Y-53961920D01*
X130940049Y-53937972D01*
X130940128Y-53936307D01*
X130942320Y-53926124D01*
X130938373Y-53892777D01*
X130938023Y-53886846D01*
X130937928Y-53886854D01*
X130937500Y-53881676D01*
X130937500Y-53876476D01*
X130936646Y-53871344D01*
X130934331Y-53857435D01*
X130933494Y-53851557D01*
X130928694Y-53810999D01*
X130928694Y-53810998D01*
X130927470Y-53800659D01*
X130923507Y-53792407D01*
X130922004Y-53783374D01*
X130897665Y-53738266D01*
X130894969Y-53732975D01*
X130876214Y-53693917D01*
X130876213Y-53693916D01*
X130872781Y-53686768D01*
X130869220Y-53682532D01*
X130849373Y-53615476D01*
X130869228Y-53547312D01*
X130922783Y-53500704D01*
X130988980Y-53489941D01*
X131030947Y-53494500D01*
X131294461Y-53494500D01*
X131558052Y-53494499D01*
X131615919Y-53488214D01*
X131670755Y-53467657D01*
X131734449Y-53443779D01*
X131734452Y-53443778D01*
X131742853Y-53440628D01*
X131851330Y-53359330D01*
X131932628Y-53250853D01*
X131941844Y-53226269D01*
X131984486Y-53169505D01*
X132051048Y-53144806D01*
X132059826Y-53144500D01*
X132364664Y-53144500D01*
X132432785Y-53164502D01*
X132479278Y-53218158D01*
X132483545Y-53228747D01*
X132492791Y-53255076D01*
X132573990Y-53365010D01*
X132683924Y-53446209D01*
X132812873Y-53491493D01*
X132820515Y-53492215D01*
X132820518Y-53492216D01*
X132835421Y-53493624D01*
X132844685Y-53494500D01*
X133098828Y-53494500D01*
X133353314Y-53494499D01*
X133356262Y-53494220D01*
X133356271Y-53494220D01*
X133377478Y-53492216D01*
X133377480Y-53492216D01*
X133385127Y-53491493D01*
X133514076Y-53446209D01*
X133624010Y-53365010D01*
X133676612Y-53293792D01*
X133733174Y-53250881D01*
X133803956Y-53245362D01*
X133866486Y-53278986D01*
X133891628Y-53320209D01*
X133893591Y-53319323D01*
X133902921Y-53339988D01*
X133983824Y-53473574D01*
X133993131Y-53485443D01*
X134103557Y-53595869D01*
X134115426Y-53605176D01*
X134249012Y-53686079D01*
X134262757Y-53692285D01*
X134412644Y-53739256D01*
X134425694Y-53741869D01*
X134480586Y-53746913D01*
X134492124Y-53743525D01*
X134493329Y-53742135D01*
X134495000Y-53734452D01*
X134495000Y-53729884D01*
X135003000Y-53729884D01*
X135007475Y-53745123D01*
X135008865Y-53746328D01*
X135013294Y-53747291D01*
X135072315Y-53741868D01*
X135085351Y-53739257D01*
X135235243Y-53692285D01*
X135248988Y-53686079D01*
X135382574Y-53605176D01*
X135394443Y-53595869D01*
X135504869Y-53485443D01*
X135514176Y-53473574D01*
X135595079Y-53339988D01*
X135601285Y-53326243D01*
X135648256Y-53176356D01*
X135650869Y-53163306D01*
X135656734Y-53099479D01*
X135657000Y-53093691D01*
X135657000Y-53037115D01*
X135652525Y-53021876D01*
X135651135Y-53020671D01*
X135643452Y-53019000D01*
X135021115Y-53019000D01*
X135005876Y-53023475D01*
X135004671Y-53024865D01*
X135003000Y-53032548D01*
X135003000Y-53729884D01*
X134495000Y-53729884D01*
X134495000Y-52013550D01*
X134494000Y-52006594D01*
X134494000Y-51738450D01*
X135002000Y-51738450D01*
X135003000Y-51745406D01*
X135003000Y-52492885D01*
X135007475Y-52508124D01*
X135008865Y-52509329D01*
X135016548Y-52511000D01*
X135638884Y-52511000D01*
X135654123Y-52506525D01*
X135655328Y-52505135D01*
X135656999Y-52497452D01*
X135656999Y-52436295D01*
X135656736Y-52430546D01*
X135650868Y-52366685D01*
X135648257Y-52353649D01*
X135601285Y-52203757D01*
X135595079Y-52190012D01*
X135514176Y-52056426D01*
X135504869Y-52044557D01*
X135424907Y-51964595D01*
X135390881Y-51902283D01*
X135395946Y-51831468D01*
X135424907Y-51786405D01*
X135503869Y-51707443D01*
X135513176Y-51695574D01*
X135594079Y-51561988D01*
X135600285Y-51548243D01*
X135647256Y-51398356D01*
X135649870Y-51385301D01*
X135655734Y-51321479D01*
X135656000Y-51315691D01*
X135656000Y-51259115D01*
X135651525Y-51243876D01*
X135650135Y-51242671D01*
X135642452Y-51241000D01*
X135020115Y-51241000D01*
X135004876Y-51245475D01*
X135003671Y-51246865D01*
X135002000Y-51254548D01*
X135002000Y-51738450D01*
X134494000Y-51738450D01*
X134494000Y-50714885D01*
X135002000Y-50714885D01*
X135006475Y-50730124D01*
X135007865Y-50731329D01*
X135015548Y-50733000D01*
X135637884Y-50733000D01*
X135653123Y-50728525D01*
X135654328Y-50727135D01*
X135655999Y-50719452D01*
X135655999Y-50658295D01*
X135655736Y-50652546D01*
X135649868Y-50588685D01*
X135647257Y-50575649D01*
X135600285Y-50425757D01*
X135594079Y-50412012D01*
X135513176Y-50278426D01*
X135503869Y-50266557D01*
X135393443Y-50156131D01*
X135381574Y-50146824D01*
X135247988Y-50065921D01*
X135234243Y-50059715D01*
X135084356Y-50012744D01*
X135071306Y-50010131D01*
X135016414Y-50005087D01*
X135004876Y-50008475D01*
X135003671Y-50009865D01*
X135002000Y-50017548D01*
X135002000Y-50714885D01*
X134494000Y-50714885D01*
X134494000Y-50022116D01*
X134489525Y-50006877D01*
X134488135Y-50005672D01*
X134483706Y-50004709D01*
X134424685Y-50010132D01*
X134411649Y-50012743D01*
X134261757Y-50059715D01*
X134248012Y-50065921D01*
X134114426Y-50146824D01*
X134102557Y-50156131D01*
X133992131Y-50266557D01*
X133982824Y-50278426D01*
X133901921Y-50412012D01*
X133892591Y-50432677D01*
X133890144Y-50431572D01*
X133857755Y-50480037D01*
X133792655Y-50508367D01*
X133722574Y-50497004D01*
X133675613Y-50458208D01*
X133628602Y-50394561D01*
X133623010Y-50386990D01*
X133513076Y-50305791D01*
X133384127Y-50260507D01*
X133376485Y-50259785D01*
X133376482Y-50259784D01*
X133361579Y-50258376D01*
X133352315Y-50257500D01*
X133098172Y-50257500D01*
X132843686Y-50257501D01*
X132840738Y-50257780D01*
X132840729Y-50257780D01*
X132819522Y-50259784D01*
X132819520Y-50259784D01*
X132811873Y-50260507D01*
X132682924Y-50305791D01*
X132572990Y-50386990D01*
X132491791Y-50496924D01*
X132487357Y-50509551D01*
X132482546Y-50523250D01*
X132441102Y-50580895D01*
X132375072Y-50606982D01*
X132363664Y-50607500D01*
X132085326Y-50607500D01*
X132017205Y-50587498D01*
X131970712Y-50533842D01*
X131967344Y-50525731D01*
X131961278Y-50509549D01*
X131961277Y-50509548D01*
X131958128Y-50501147D01*
X131876830Y-50392670D01*
X131768353Y-50311372D01*
X131759952Y-50308222D01*
X131759949Y-50308221D01*
X131656829Y-50269563D01*
X131641419Y-50263786D01*
X131633566Y-50262933D01*
X131633562Y-50262932D01*
X131586952Y-50257869D01*
X131586948Y-50257869D01*
X131583553Y-50257500D01*
X131320039Y-50257500D01*
X131056448Y-50257501D01*
X130998581Y-50263786D01*
X130943745Y-50284343D01*
X130880051Y-50308221D01*
X130880048Y-50308222D01*
X130871647Y-50311372D01*
X130763170Y-50392670D01*
X130681872Y-50501147D01*
X130678722Y-50509548D01*
X130678721Y-50509551D01*
X130669615Y-50533842D01*
X130651976Y-50580895D01*
X130650482Y-50584879D01*
X130607840Y-50641643D01*
X130541279Y-50666343D01*
X130471930Y-50651135D01*
X130421812Y-50600849D01*
X130414518Y-50584879D01*
X130413025Y-50580895D01*
X130395385Y-50533842D01*
X130386279Y-50509551D01*
X130386278Y-50509548D01*
X130383128Y-50501147D01*
X130377746Y-50493965D01*
X130377745Y-50493964D01*
X130363142Y-50474479D01*
X130338295Y-50407972D01*
X130353349Y-50338590D01*
X130374874Y-50309820D01*
X131059289Y-49625405D01*
X131121601Y-49591379D01*
X131148384Y-49588500D01*
X134260080Y-49588500D01*
X134284028Y-49591049D01*
X134285693Y-49591128D01*
X134295876Y-49593320D01*
X134306217Y-49592096D01*
X134307730Y-49591917D01*
X134329223Y-49589373D01*
X134335154Y-49589023D01*
X134335146Y-49588928D01*
X134340324Y-49588500D01*
X134345524Y-49588500D01*
X134350653Y-49587646D01*
X134350656Y-49587646D01*
X134364565Y-49585331D01*
X134370443Y-49584494D01*
X134411001Y-49579694D01*
X134411002Y-49579694D01*
X134421341Y-49578470D01*
X134429593Y-49574507D01*
X134438626Y-49573004D01*
X134447795Y-49568057D01*
X134447797Y-49568056D01*
X134483732Y-49548666D01*
X134489025Y-49545969D01*
X134528082Y-49527215D01*
X134528086Y-49527212D01*
X134535232Y-49523781D01*
X134539508Y-49520186D01*
X134541431Y-49518263D01*
X134543363Y-49516491D01*
X134543442Y-49516448D01*
X134543555Y-49516572D01*
X134544095Y-49516096D01*
X134549814Y-49513010D01*
X134586417Y-49473413D01*
X134589846Y-49469848D01*
X135551405Y-48508289D01*
X135613717Y-48474263D01*
X135684532Y-48479328D01*
X135741368Y-48521875D01*
X135766179Y-48588395D01*
X135766500Y-48597384D01*
X135766500Y-49028080D01*
X135763951Y-49052028D01*
X135763872Y-49053693D01*
X135761680Y-49063876D01*
X135762904Y-49074217D01*
X135765627Y-49097223D01*
X135765977Y-49103154D01*
X135766072Y-49103146D01*
X135766500Y-49108324D01*
X135766500Y-49113524D01*
X135767354Y-49118653D01*
X135767354Y-49118656D01*
X135769669Y-49132565D01*
X135770506Y-49138443D01*
X135776530Y-49189341D01*
X135780493Y-49197593D01*
X135781996Y-49206626D01*
X135786943Y-49215795D01*
X135786944Y-49215797D01*
X135806334Y-49251732D01*
X135809031Y-49257025D01*
X135827785Y-49296082D01*
X135827788Y-49296086D01*
X135831219Y-49303232D01*
X135834814Y-49307508D01*
X135836737Y-49309431D01*
X135838509Y-49311363D01*
X135838552Y-49311442D01*
X135838428Y-49311555D01*
X135838904Y-49312095D01*
X135841990Y-49317814D01*
X135849635Y-49324881D01*
X135881586Y-49354416D01*
X135885152Y-49357846D01*
X136091249Y-49563943D01*
X136125275Y-49626255D01*
X136127076Y-49669482D01*
X136126133Y-49676645D01*
X136122905Y-49701166D01*
X136121729Y-49710096D01*
X136139113Y-49867553D01*
X136141723Y-49874684D01*
X136141723Y-49874686D01*
X136190683Y-50008475D01*
X136193553Y-50016319D01*
X136281908Y-50147805D01*
X136287527Y-50152918D01*
X136287528Y-50152919D01*
X136388727Y-50245002D01*
X136399076Y-50254419D01*
X136538293Y-50330008D01*
X136691522Y-50370207D01*
X136775477Y-50371526D01*
X136842319Y-50372576D01*
X136842322Y-50372576D01*
X136849916Y-50372695D01*
X137004332Y-50337329D01*
X137074742Y-50301917D01*
X137139072Y-50269563D01*
X137139075Y-50269561D01*
X137145855Y-50266151D01*
X137151626Y-50261222D01*
X137151629Y-50261220D01*
X137260536Y-50168204D01*
X137260536Y-50168203D01*
X137266314Y-50163269D01*
X137358755Y-50034624D01*
X137417842Y-49887641D01*
X137440162Y-49730807D01*
X137440307Y-49717000D01*
X137438561Y-49702567D01*
X137431776Y-49646500D01*
X137421276Y-49559733D01*
X137365280Y-49411546D01*
X137300860Y-49317814D01*
X137279855Y-49287251D01*
X137279854Y-49287249D01*
X137275553Y-49280992D01*
X137157275Y-49175611D01*
X137017274Y-49101484D01*
X136863633Y-49062892D01*
X136856034Y-49062852D01*
X136856033Y-49062852D01*
X136795626Y-49062536D01*
X136714335Y-49062110D01*
X136646321Y-49041752D01*
X136625901Y-49025207D01*
X136562405Y-48961711D01*
X136528379Y-48899399D01*
X136525500Y-48872616D01*
X136525500Y-48507499D01*
X136545502Y-48439378D01*
X136599158Y-48392885D01*
X136651500Y-48381499D01*
X136921066Y-48381499D01*
X136956818Y-48374388D01*
X136983126Y-48369156D01*
X136983128Y-48369155D01*
X136995301Y-48366734D01*
X137005621Y-48359839D01*
X137005622Y-48359838D01*
X137069168Y-48317377D01*
X137079484Y-48310484D01*
X137135734Y-48226301D01*
X137150500Y-48152067D01*
X137150499Y-46101934D01*
X137141367Y-46056018D01*
X137138156Y-46039874D01*
X137138155Y-46039872D01*
X137135734Y-46027699D01*
X137128217Y-46016448D01*
X137086377Y-45953832D01*
X137079484Y-45943516D01*
X136995301Y-45887266D01*
X136921067Y-45872500D01*
X136776500Y-45872500D01*
X136708379Y-45852498D01*
X136661886Y-45798842D01*
X136650500Y-45746500D01*
X136650500Y-45215630D01*
X136651842Y-45203622D01*
X136651346Y-45203582D01*
X136652066Y-45194631D01*
X136654047Y-45185877D01*
X136652158Y-45155430D01*
X136650742Y-45132607D01*
X136650500Y-45124805D01*
X136650500Y-45108774D01*
X136649035Y-45098541D01*
X136648004Y-45088481D01*
X136645654Y-45050601D01*
X136645654Y-45050600D01*
X136645098Y-45041642D01*
X136642050Y-45033199D01*
X136641371Y-45029920D01*
X136637416Y-45014055D01*
X136636473Y-45010831D01*
X136635201Y-45001948D01*
X136631487Y-44993779D01*
X136631485Y-44993773D01*
X136615775Y-44959221D01*
X136611961Y-44949852D01*
X136610361Y-44945419D01*
X136596028Y-44905716D01*
X136590731Y-44898466D01*
X136589154Y-44895499D01*
X136580907Y-44881386D01*
X136579102Y-44878563D01*
X136575388Y-44870395D01*
X136544753Y-44834842D01*
X136538475Y-44826936D01*
X136530527Y-44816056D01*
X136519665Y-44805194D01*
X136513307Y-44798347D01*
X136486915Y-44767718D01*
X136481056Y-44760918D01*
X136473521Y-44756034D01*
X136466949Y-44750301D01*
X136455545Y-44741074D01*
X135925840Y-44211369D01*
X135902663Y-44179466D01*
X135902226Y-44178607D01*
X135888500Y-44121420D01*
X135888500Y-43374161D01*
X135908502Y-43306040D01*
X135925405Y-43285066D01*
X136452794Y-42757677D01*
X136462234Y-42750135D01*
X136461911Y-42749755D01*
X136468747Y-42743937D01*
X136476339Y-42739147D01*
X136511672Y-42699140D01*
X136517017Y-42693454D01*
X136528351Y-42682120D01*
X136531038Y-42678534D01*
X136531043Y-42678529D01*
X136534557Y-42673841D01*
X136540938Y-42666003D01*
X136566058Y-42637559D01*
X136572001Y-42630830D01*
X136575816Y-42622705D01*
X136577669Y-42619884D01*
X136586077Y-42605888D01*
X136587686Y-42602950D01*
X136593071Y-42595764D01*
X136597870Y-42582964D01*
X136609544Y-42551822D01*
X136613471Y-42542501D01*
X136629602Y-42508144D01*
X136629602Y-42508143D01*
X136633417Y-42500018D01*
X136634798Y-42491147D01*
X136635783Y-42487925D01*
X136639923Y-42472142D01*
X136640645Y-42468858D01*
X136643798Y-42460448D01*
X136647276Y-42413643D01*
X136648430Y-42403595D01*
X136649751Y-42395114D01*
X136649751Y-42395113D01*
X136650500Y-42390303D01*
X136650500Y-42374934D01*
X136650847Y-42365596D01*
X136653843Y-42325284D01*
X136653843Y-42325283D01*
X136654508Y-42316333D01*
X136652635Y-42307558D01*
X136652043Y-42298874D01*
X136650500Y-42284258D01*
X136650500Y-42207499D01*
X136670502Y-42139378D01*
X136724158Y-42092885D01*
X136776500Y-42081499D01*
X138071066Y-42081499D01*
X138106818Y-42074388D01*
X138133126Y-42069156D01*
X138133128Y-42069155D01*
X138145301Y-42066734D01*
X138155621Y-42059839D01*
X138155622Y-42059838D01*
X138219168Y-42017377D01*
X138229484Y-42010484D01*
X138269329Y-41950852D01*
X138278839Y-41936620D01*
X138285734Y-41926301D01*
X138300500Y-41852067D01*
X138300499Y-39801934D01*
X138285734Y-39727699D01*
X138229484Y-39643516D01*
X138145301Y-39587266D01*
X138071067Y-39572500D01*
X136146156Y-39572500D01*
X134220934Y-39572501D01*
X134185182Y-39579612D01*
X134158874Y-39584844D01*
X134158872Y-39584845D01*
X134146699Y-39587266D01*
X134136379Y-39594161D01*
X134136378Y-39594162D01*
X134113008Y-39609778D01*
X134062516Y-39643516D01*
X134006266Y-39727699D01*
X133991500Y-39801933D01*
X133991501Y-41852066D01*
X133997679Y-41883127D01*
X134002570Y-41907716D01*
X134006266Y-41926301D01*
X134013161Y-41936620D01*
X134013162Y-41936622D01*
X134040767Y-41977935D01*
X134062516Y-42010484D01*
X134146699Y-42066734D01*
X134220933Y-42081500D01*
X135397839Y-42081500D01*
X135465960Y-42101502D01*
X135512453Y-42155158D01*
X135522557Y-42225432D01*
X135493063Y-42290012D01*
X135486934Y-42296595D01*
X135077206Y-42706323D01*
X135067766Y-42713865D01*
X135068089Y-42714245D01*
X135061253Y-42720063D01*
X135053661Y-42724853D01*
X135047719Y-42731581D01*
X135018329Y-42764859D01*
X135012983Y-42770546D01*
X135001649Y-42781880D01*
X134998964Y-42785463D01*
X134998962Y-42785465D01*
X134995447Y-42790155D01*
X134989062Y-42797998D01*
X134957999Y-42833170D01*
X134954186Y-42841292D01*
X134952346Y-42844093D01*
X134943937Y-42858088D01*
X134942315Y-42861051D01*
X134936930Y-42868236D01*
X134933777Y-42876646D01*
X134933776Y-42876648D01*
X134920454Y-42912182D01*
X134916530Y-42921495D01*
X134896583Y-42963982D01*
X134895201Y-42972856D01*
X134894215Y-42976083D01*
X134890075Y-42991866D01*
X134889354Y-42995144D01*
X134886202Y-43003552D01*
X134885537Y-43012503D01*
X134882724Y-43050357D01*
X134881570Y-43060404D01*
X134880742Y-43065724D01*
X134879500Y-43073697D01*
X134879500Y-43089062D01*
X134879154Y-43098399D01*
X134875493Y-43147667D01*
X134877366Y-43156442D01*
X134877959Y-43165138D01*
X134879500Y-43179738D01*
X134879500Y-43702500D01*
X134859498Y-43770621D01*
X134805842Y-43817114D01*
X134753500Y-43828500D01*
X132223593Y-43828500D01*
X132179364Y-43820482D01*
X132175230Y-43818932D01*
X132110507Y-43794669D01*
X132062419Y-43776642D01*
X132062418Y-43776642D01*
X132055024Y-43773870D01*
X132047174Y-43773017D01*
X132047173Y-43773017D01*
X131999786Y-43767869D01*
X131999785Y-43767869D01*
X131996389Y-43767500D01*
X131701044Y-43767500D01*
X131405612Y-43767501D01*
X131402218Y-43767870D01*
X131402212Y-43767870D01*
X131354834Y-43773016D01*
X131354830Y-43773017D01*
X131346976Y-43773870D01*
X131218365Y-43822083D01*
X131211186Y-43827463D01*
X131211183Y-43827465D01*
X131133981Y-43885326D01*
X131067474Y-43910174D01*
X131058415Y-43910500D01*
X129393388Y-43910500D01*
X129325267Y-43890498D01*
X129278774Y-43836842D01*
X129272422Y-43819760D01*
X129270440Y-43812960D01*
X129269182Y-43803404D01*
X129252789Y-43768248D01*
X129242128Y-43698058D01*
X129252788Y-43661754D01*
X129269182Y-43626596D01*
X129275500Y-43578608D01*
X129275500Y-43351392D01*
X129269182Y-43303404D01*
X129252789Y-43268248D01*
X129242128Y-43198058D01*
X129252788Y-43161754D01*
X129269182Y-43126596D01*
X129275500Y-43078608D01*
X129275500Y-42851392D01*
X129269182Y-42803404D01*
X129252789Y-42768248D01*
X129242128Y-42698058D01*
X129252788Y-42661754D01*
X129269182Y-42626596D01*
X129275500Y-42578608D01*
X129275500Y-42575902D01*
X129299802Y-42509544D01*
X129324413Y-42484491D01*
X129355251Y-42460828D01*
X129366824Y-42449255D01*
X129450223Y-42340566D01*
X129458410Y-42326385D01*
X129510833Y-42199825D01*
X129515072Y-42184005D01*
X129521792Y-42132960D01*
X129519581Y-42118778D01*
X129506424Y-42115000D01*
X129163857Y-42115000D01*
X129110607Y-42103195D01*
X129041329Y-42070890D01*
X129041328Y-42070890D01*
X129032596Y-42066818D01*
X129023043Y-42065560D01*
X129013785Y-42062862D01*
X129014366Y-42060868D01*
X128960864Y-42037200D01*
X128921772Y-41977935D01*
X128920927Y-41906943D01*
X128958597Y-41846764D01*
X129022822Y-41816505D01*
X129042237Y-41815000D01*
X129506042Y-41815000D01*
X129519813Y-41810956D01*
X129521842Y-41797417D01*
X129515072Y-41745995D01*
X129510833Y-41730175D01*
X129458410Y-41603614D01*
X129450221Y-41589431D01*
X129366829Y-41480752D01*
X129355250Y-41469172D01*
X129246566Y-41385777D01*
X129232385Y-41377590D01*
X129105825Y-41325167D01*
X129090005Y-41320928D01*
X128988300Y-41307538D01*
X128980092Y-41307000D01*
X128764115Y-41307000D01*
X128748876Y-41311475D01*
X128747671Y-41312865D01*
X128746000Y-41320548D01*
X128746000Y-41796885D01*
X128750475Y-41812124D01*
X128761053Y-41821290D01*
X128805214Y-41845404D01*
X128839239Y-41907716D01*
X128834175Y-41978532D01*
X128791628Y-42035368D01*
X128725108Y-42060179D01*
X128716119Y-42060500D01*
X128572000Y-42060500D01*
X128503879Y-42040498D01*
X128457386Y-41986842D01*
X128446000Y-41934500D01*
X128446000Y-41325115D01*
X128441525Y-41309876D01*
X128440135Y-41308671D01*
X128432452Y-41307000D01*
X128426500Y-41307000D01*
X128358379Y-41286998D01*
X128311886Y-41233342D01*
X128300500Y-41181000D01*
X128300500Y-40876392D01*
X128294182Y-40828404D01*
X128273238Y-40783488D01*
X128249734Y-40733084D01*
X128249733Y-40733083D01*
X128245074Y-40723091D01*
X128162909Y-40640926D01*
X128152916Y-40636266D01*
X128066329Y-40595890D01*
X128066328Y-40595890D01*
X128057596Y-40591818D01*
X128048043Y-40590560D01*
X128048042Y-40590560D01*
X128013694Y-40586038D01*
X128013695Y-40586038D01*
X128009608Y-40585500D01*
X127901500Y-40585500D01*
X127833379Y-40565498D01*
X127786886Y-40511842D01*
X127775500Y-40459500D01*
X127775500Y-39867384D01*
X127795502Y-39799263D01*
X127812405Y-39778289D01*
X129395289Y-38195405D01*
X129457601Y-38161379D01*
X129484384Y-38158500D01*
X132957092Y-38158500D01*
X133025213Y-38178502D01*
X133071706Y-38232158D01*
X133075074Y-38240271D01*
X133083083Y-38261635D01*
X133088463Y-38268814D01*
X133088465Y-38268817D01*
X133146830Y-38346692D01*
X133165456Y-38371544D01*
X133172633Y-38376923D01*
X133268183Y-38448535D01*
X133268186Y-38448537D01*
X133275365Y-38453917D01*
X133283769Y-38457067D01*
X133283770Y-38457068D01*
X133396581Y-38499358D01*
X133396582Y-38499358D01*
X133403976Y-38502130D01*
X133411826Y-38502983D01*
X133411827Y-38502983D01*
X133430909Y-38505056D01*
X133462611Y-38508500D01*
X133732920Y-38508500D01*
X134003388Y-38508499D01*
X134006782Y-38508130D01*
X134006788Y-38508130D01*
X134054166Y-38502984D01*
X134054170Y-38502983D01*
X134062024Y-38502130D01*
X134169001Y-38462027D01*
X134182230Y-38457068D01*
X134182231Y-38457067D01*
X134190635Y-38453917D01*
X134197814Y-38448537D01*
X134197817Y-38448535D01*
X134263692Y-38399163D01*
X134330198Y-38374315D01*
X134399581Y-38389367D01*
X134446402Y-38433686D01*
X134475788Y-38481173D01*
X134484824Y-38492574D01*
X134595429Y-38602986D01*
X134606840Y-38611998D01*
X134739880Y-38694004D01*
X134753061Y-38700151D01*
X134901814Y-38749491D01*
X134915190Y-38752358D01*
X135006097Y-38761672D01*
X135011126Y-38761929D01*
X135026124Y-38757525D01*
X135027329Y-38756135D01*
X135029000Y-38748452D01*
X135029000Y-38743885D01*
X135537000Y-38743885D01*
X135541475Y-38759124D01*
X135542865Y-38760329D01*
X135550548Y-38762000D01*
X135553438Y-38762000D01*
X135559953Y-38761663D01*
X135652057Y-38752106D01*
X135665456Y-38749212D01*
X135814107Y-38699619D01*
X135827286Y-38693445D01*
X135960173Y-38611212D01*
X135971574Y-38602176D01*
X136081986Y-38491571D01*
X136090998Y-38480160D01*
X136173004Y-38347120D01*
X136179151Y-38333939D01*
X136228491Y-38185186D01*
X136231358Y-38171810D01*
X136240672Y-38080903D01*
X136241000Y-38074487D01*
X136241000Y-38074438D01*
X136686000Y-38074438D01*
X136686337Y-38080953D01*
X136695894Y-38173057D01*
X136698788Y-38186456D01*
X136748381Y-38335107D01*
X136754555Y-38348286D01*
X136836788Y-38481173D01*
X136845824Y-38492574D01*
X136956429Y-38602986D01*
X136967840Y-38611998D01*
X137100880Y-38694004D01*
X137114061Y-38700151D01*
X137262814Y-38749491D01*
X137276190Y-38752358D01*
X137367097Y-38761672D01*
X137372126Y-38761929D01*
X137387124Y-38757525D01*
X137388329Y-38756135D01*
X137390000Y-38748452D01*
X137390000Y-38051115D01*
X137385525Y-38035876D01*
X137384135Y-38034671D01*
X137376452Y-38033000D01*
X136704115Y-38033000D01*
X136688876Y-38037475D01*
X136687671Y-38038865D01*
X136686000Y-38046548D01*
X136686000Y-38074438D01*
X136241000Y-38074438D01*
X136241000Y-38051115D01*
X136236525Y-38035876D01*
X136235135Y-38034671D01*
X136227452Y-38033000D01*
X135555115Y-38033000D01*
X135539876Y-38037475D01*
X135538671Y-38038865D01*
X135537000Y-38046548D01*
X135537000Y-38743885D01*
X135029000Y-38743885D01*
X135029000Y-37506885D01*
X135537000Y-37506885D01*
X135541475Y-37522124D01*
X135542865Y-37523329D01*
X135550548Y-37525000D01*
X136222885Y-37525000D01*
X136238124Y-37520525D01*
X136239329Y-37519135D01*
X136241000Y-37511452D01*
X136241000Y-37506885D01*
X136686000Y-37506885D01*
X136690475Y-37522124D01*
X136691865Y-37523329D01*
X136699548Y-37525000D01*
X137371885Y-37525000D01*
X137387124Y-37520525D01*
X137388329Y-37519135D01*
X137390000Y-37511452D01*
X137390000Y-36814115D01*
X137385525Y-36798876D01*
X137384135Y-36797671D01*
X137376452Y-36796000D01*
X137373562Y-36796000D01*
X137367047Y-36796337D01*
X137274943Y-36805894D01*
X137261544Y-36808788D01*
X137112893Y-36858381D01*
X137099714Y-36864555D01*
X136966827Y-36946788D01*
X136955426Y-36955824D01*
X136845014Y-37066429D01*
X136836002Y-37077840D01*
X136753996Y-37210880D01*
X136747849Y-37224061D01*
X136698509Y-37372814D01*
X136695642Y-37386190D01*
X136686328Y-37477097D01*
X136686000Y-37483514D01*
X136686000Y-37506885D01*
X136241000Y-37506885D01*
X136241000Y-37483562D01*
X136240663Y-37477047D01*
X136231106Y-37384943D01*
X136228212Y-37371544D01*
X136178619Y-37222893D01*
X136172445Y-37209714D01*
X136090212Y-37076827D01*
X136081176Y-37065426D01*
X135970571Y-36955014D01*
X135959160Y-36946002D01*
X135826120Y-36863996D01*
X135812939Y-36857849D01*
X135664186Y-36808509D01*
X135650810Y-36805642D01*
X135559903Y-36796328D01*
X135554874Y-36796071D01*
X135539876Y-36800475D01*
X135538671Y-36801865D01*
X135537000Y-36809548D01*
X135537000Y-37506885D01*
X135029000Y-37506885D01*
X135029000Y-36814115D01*
X135024525Y-36798876D01*
X135023135Y-36797671D01*
X135015452Y-36796000D01*
X135012562Y-36796000D01*
X135006047Y-36796337D01*
X134913943Y-36805894D01*
X134900544Y-36808788D01*
X134751893Y-36858381D01*
X134738714Y-36864555D01*
X134605827Y-36946788D01*
X134594426Y-36955824D01*
X134484014Y-37066429D01*
X134475002Y-37077840D01*
X134446486Y-37124102D01*
X134393714Y-37171595D01*
X134323642Y-37183019D01*
X134263661Y-37158812D01*
X134197821Y-37109468D01*
X134197816Y-37109465D01*
X134190635Y-37104083D01*
X134179370Y-37099860D01*
X134069419Y-37058642D01*
X134069418Y-37058642D01*
X134062024Y-37055870D01*
X134054174Y-37055017D01*
X134054173Y-37055017D01*
X134006786Y-37049869D01*
X134006785Y-37049869D01*
X134003389Y-37049500D01*
X133733080Y-37049500D01*
X133462612Y-37049501D01*
X133459218Y-37049870D01*
X133459212Y-37049870D01*
X133411834Y-37055016D01*
X133411830Y-37055017D01*
X133403976Y-37055870D01*
X133275365Y-37104083D01*
X133268186Y-37109463D01*
X133268183Y-37109465D01*
X133185285Y-37171595D01*
X133165456Y-37186456D01*
X133160077Y-37193633D01*
X133088465Y-37289183D01*
X133088463Y-37289186D01*
X133083083Y-37296365D01*
X133079932Y-37304771D01*
X133075074Y-37317729D01*
X133032433Y-37374494D01*
X132965871Y-37399194D01*
X132957092Y-37399500D01*
X129328920Y-37399500D01*
X129304973Y-37396951D01*
X129303307Y-37396872D01*
X129293124Y-37394680D01*
X129282782Y-37395904D01*
X129282779Y-37395904D01*
X129259787Y-37398626D01*
X129253846Y-37398977D01*
X129253854Y-37399072D01*
X129248674Y-37399500D01*
X129243476Y-37399500D01*
X129238354Y-37400353D01*
X129238349Y-37400353D01*
X129224427Y-37402671D01*
X129218550Y-37403508D01*
X129212049Y-37404277D01*
X129177997Y-37408307D01*
X129177995Y-37408308D01*
X129167659Y-37409531D01*
X129159410Y-37413492D01*
X129150374Y-37414996D01*
X129141205Y-37419943D01*
X129141203Y-37419944D01*
X129105240Y-37439348D01*
X129099951Y-37442043D01*
X129060915Y-37460788D01*
X129053768Y-37464220D01*
X129049492Y-37467814D01*
X129047552Y-37469754D01*
X129045641Y-37471507D01*
X129045551Y-37471556D01*
X129045439Y-37471433D01*
X129044904Y-37471905D01*
X129039186Y-37474990D01*
X129032119Y-37482635D01*
X129002584Y-37514586D01*
X128999154Y-37518152D01*
X127165784Y-39351522D01*
X127147036Y-39366664D01*
X127145811Y-39367779D01*
X127137060Y-39373429D01*
X127130613Y-39381607D01*
X127130611Y-39381609D01*
X127116271Y-39399800D01*
X127112325Y-39404241D01*
X127112398Y-39404303D01*
X127109039Y-39408267D01*
X127105362Y-39411944D01*
X127094108Y-39427692D01*
X127090602Y-39432362D01*
X127058844Y-39472647D01*
X127055812Y-39481281D01*
X127050486Y-39488734D01*
X127047501Y-39498715D01*
X127035799Y-39537844D01*
X127033964Y-39543492D01*
X127023353Y-39573709D01*
X127016982Y-39591851D01*
X127016500Y-39597416D01*
X127016500Y-39600124D01*
X127016386Y-39602758D01*
X127016357Y-39602856D01*
X127016193Y-39602849D01*
X127016149Y-39603553D01*
X127014287Y-39609778D01*
X127014696Y-39620183D01*
X127016403Y-39663635D01*
X127016500Y-39668582D01*
X127016500Y-40459500D01*
X126996498Y-40527621D01*
X126942842Y-40574114D01*
X126890500Y-40585500D01*
X126782392Y-40585500D01*
X126734404Y-40591818D01*
X126699248Y-40608211D01*
X126629058Y-40618872D01*
X126592754Y-40608212D01*
X126557596Y-40591818D01*
X126509608Y-40585500D01*
X126401500Y-40585500D01*
X126333379Y-40565498D01*
X126286886Y-40511842D01*
X126275500Y-40459500D01*
X126275500Y-37570384D01*
X126295502Y-37502263D01*
X126312405Y-37481289D01*
X126595405Y-37198289D01*
X126657717Y-37164263D01*
X126728532Y-37169328D01*
X126773595Y-37198289D01*
X127076522Y-37501216D01*
X127091664Y-37519964D01*
X127092779Y-37521189D01*
X127098429Y-37529940D01*
X127106607Y-37536387D01*
X127106609Y-37536389D01*
X127124800Y-37550729D01*
X127129244Y-37554678D01*
X127129306Y-37554604D01*
X127133263Y-37557957D01*
X127136944Y-37561638D01*
X127152654Y-37572865D01*
X127157373Y-37576407D01*
X127191321Y-37603169D01*
X127217891Y-37631836D01*
X127264908Y-37701805D01*
X127382076Y-37808419D01*
X127521293Y-37884008D01*
X127674522Y-37924207D01*
X127758477Y-37925526D01*
X127825319Y-37926576D01*
X127825322Y-37926576D01*
X127832916Y-37926695D01*
X127987332Y-37891329D01*
X128057742Y-37855917D01*
X128122072Y-37823563D01*
X128122075Y-37823561D01*
X128128855Y-37820151D01*
X128134626Y-37815222D01*
X128134629Y-37815220D01*
X128243536Y-37722204D01*
X128243536Y-37722203D01*
X128249314Y-37717269D01*
X128341755Y-37588624D01*
X128400842Y-37441641D01*
X128419181Y-37312778D01*
X128422581Y-37288891D01*
X128422581Y-37288888D01*
X128423162Y-37284807D01*
X128423307Y-37271000D01*
X128404276Y-37113733D01*
X128348280Y-36965546D01*
X128306854Y-36905271D01*
X128262855Y-36841251D01*
X128262854Y-36841249D01*
X128258553Y-36834992D01*
X128140275Y-36729611D01*
X128132889Y-36725700D01*
X128049942Y-36681782D01*
X128000274Y-36655484D01*
X127846633Y-36616892D01*
X127839034Y-36616852D01*
X127839033Y-36616852D01*
X127773181Y-36616507D01*
X127688221Y-36616062D01*
X127680841Y-36617834D01*
X127680839Y-36617834D01*
X127541563Y-36651271D01*
X127541560Y-36651272D01*
X127534184Y-36653043D01*
X127478504Y-36681782D01*
X127462665Y-36689957D01*
X127392958Y-36703426D01*
X127327034Y-36677071D01*
X127315780Y-36667086D01*
X127310289Y-36661595D01*
X127276263Y-36599283D01*
X127281328Y-36528468D01*
X127310289Y-36483405D01*
X127685562Y-36108132D01*
X129799698Y-36108132D01*
X129804607Y-36114690D01*
X129893118Y-36164157D01*
X129904357Y-36169067D01*
X130080641Y-36226345D01*
X130092615Y-36228978D01*
X130276676Y-36250926D01*
X130288925Y-36251183D01*
X130473742Y-36236962D01*
X130485822Y-36234831D01*
X130664345Y-36184986D01*
X130675778Y-36180552D01*
X130799507Y-36118052D01*
X130809791Y-36108407D01*
X130807553Y-36101763D01*
X130316812Y-35611022D01*
X130302868Y-35603408D01*
X130301035Y-35603539D01*
X130294420Y-35607790D01*
X129806458Y-36095752D01*
X129799698Y-36108132D01*
X127685562Y-36108132D01*
X127775864Y-36017830D01*
X127838176Y-35983804D01*
X127881622Y-35982032D01*
X127914717Y-35986448D01*
X127995118Y-35997176D01*
X127995122Y-35997176D01*
X128002099Y-35998107D01*
X128009110Y-35997469D01*
X128009114Y-35997469D01*
X128163652Y-35983405D01*
X128170673Y-35982766D01*
X128331659Y-35930458D01*
X128477056Y-35843784D01*
X128599638Y-35727052D01*
X128606696Y-35716429D01*
X128689410Y-35591935D01*
X128689411Y-35591933D01*
X128693311Y-35586063D01*
X128753420Y-35427824D01*
X128765331Y-35343074D01*
X128776427Y-35264123D01*
X128776427Y-35264118D01*
X128776978Y-35260200D01*
X128777274Y-35239000D01*
X128776377Y-35231002D01*
X129291738Y-35231002D01*
X129307248Y-35415705D01*
X129309461Y-35427764D01*
X129360554Y-35605945D01*
X129365066Y-35617342D01*
X129425148Y-35734250D01*
X129434865Y-35744468D01*
X129441666Y-35742124D01*
X129931978Y-35251812D01*
X129938356Y-35240132D01*
X130668408Y-35240132D01*
X130668539Y-35241965D01*
X130672790Y-35248580D01*
X131160661Y-35736451D01*
X131173041Y-35743211D01*
X131179775Y-35738170D01*
X131226262Y-35656337D01*
X131231256Y-35645121D01*
X131289759Y-35469253D01*
X131292479Y-35457281D01*
X131316039Y-35270784D01*
X131316531Y-35263757D01*
X131316828Y-35242523D01*
X131316533Y-35235494D01*
X131298188Y-35048397D01*
X131295805Y-35036362D01*
X131242233Y-34858924D01*
X131237559Y-34847584D01*
X131182562Y-34744148D01*
X131172702Y-34734067D01*
X131165575Y-34736635D01*
X130676022Y-35226188D01*
X130668408Y-35240132D01*
X129938356Y-35240132D01*
X129939592Y-35237868D01*
X129939461Y-35236035D01*
X129935210Y-35229420D01*
X129447121Y-34741331D01*
X129434741Y-34734571D01*
X129428353Y-34739353D01*
X129375997Y-34834586D01*
X129371166Y-34845858D01*
X129315120Y-35022538D01*
X129312570Y-35034532D01*
X129291909Y-35218733D01*
X129291738Y-35231002D01*
X128776377Y-35231002D01*
X128758406Y-35070784D01*
X128702738Y-34910929D01*
X128613038Y-34767379D01*
X128601142Y-34755399D01*
X128498726Y-34652266D01*
X128493764Y-34647269D01*
X128350844Y-34556569D01*
X128323442Y-34546812D01*
X128198016Y-34502149D01*
X128198011Y-34502148D01*
X128191381Y-34499787D01*
X128184395Y-34498954D01*
X128184391Y-34498953D01*
X128065287Y-34484751D01*
X128023301Y-34479745D01*
X128016298Y-34480481D01*
X128016297Y-34480481D01*
X127861965Y-34496701D01*
X127861961Y-34496702D01*
X127854957Y-34497438D01*
X127848286Y-34499709D01*
X127701387Y-34549717D01*
X127701384Y-34549718D01*
X127694717Y-34551988D01*
X127688719Y-34555678D01*
X127688717Y-34555679D01*
X127556543Y-34636993D01*
X127556541Y-34636995D01*
X127550544Y-34640684D01*
X127545511Y-34645613D01*
X127439717Y-34749215D01*
X127429605Y-34759117D01*
X127425794Y-34765031D01*
X127425792Y-34765033D01*
X127402126Y-34801755D01*
X127337909Y-34901400D01*
X127330015Y-34923089D01*
X127282425Y-35053840D01*
X127282424Y-35053845D01*
X127280015Y-35060463D01*
X127258800Y-35228399D01*
X127260130Y-35241965D01*
X127273803Y-35381415D01*
X127260543Y-35451162D01*
X127237500Y-35482805D01*
X126458992Y-36261314D01*
X126431811Y-36288495D01*
X126423791Y-36295850D01*
X126391936Y-36322627D01*
X126386563Y-36331551D01*
X126379800Y-36339470D01*
X126379311Y-36339053D01*
X126372346Y-36347960D01*
X125665784Y-37054522D01*
X125647036Y-37069664D01*
X125645811Y-37070779D01*
X125637060Y-37076429D01*
X125630613Y-37084607D01*
X125630611Y-37084609D01*
X125616271Y-37102800D01*
X125612325Y-37107241D01*
X125612398Y-37107303D01*
X125609039Y-37111267D01*
X125605362Y-37114944D01*
X125594108Y-37130692D01*
X125590602Y-37135362D01*
X125574447Y-37155854D01*
X125516568Y-37196966D01*
X125445647Y-37200258D01*
X125384205Y-37164686D01*
X125351748Y-37101543D01*
X125349500Y-37077846D01*
X125349500Y-36210384D01*
X125369502Y-36142263D01*
X125386405Y-36121289D01*
X125489864Y-36017830D01*
X125552176Y-35983804D01*
X125595622Y-35982032D01*
X125628717Y-35986448D01*
X125709118Y-35997176D01*
X125709122Y-35997176D01*
X125716099Y-35998107D01*
X125723110Y-35997469D01*
X125723114Y-35997469D01*
X125877652Y-35983405D01*
X125884673Y-35982766D01*
X126045659Y-35930458D01*
X126191056Y-35843784D01*
X126313638Y-35727052D01*
X126320696Y-35716429D01*
X126403410Y-35591935D01*
X126403411Y-35591933D01*
X126407311Y-35586063D01*
X126467420Y-35427824D01*
X126479331Y-35343074D01*
X126490427Y-35264123D01*
X126490427Y-35264118D01*
X126490978Y-35260200D01*
X126491274Y-35239000D01*
X126472406Y-35070784D01*
X126416738Y-34910929D01*
X126327038Y-34767379D01*
X126315142Y-34755399D01*
X126212726Y-34652266D01*
X126207764Y-34647269D01*
X126064844Y-34556569D01*
X126037442Y-34546812D01*
X125912016Y-34502149D01*
X125912011Y-34502148D01*
X125905381Y-34499787D01*
X125898395Y-34498954D01*
X125898391Y-34498953D01*
X125779287Y-34484751D01*
X125737301Y-34479745D01*
X125730298Y-34480481D01*
X125730297Y-34480481D01*
X125575965Y-34496701D01*
X125575961Y-34496702D01*
X125568957Y-34497438D01*
X125562286Y-34499709D01*
X125415387Y-34549717D01*
X125415384Y-34549718D01*
X125408717Y-34551988D01*
X125402719Y-34555678D01*
X125402717Y-34555679D01*
X125270543Y-34636993D01*
X125270541Y-34636995D01*
X125264544Y-34640684D01*
X125259511Y-34645613D01*
X125153717Y-34749215D01*
X125143605Y-34759117D01*
X125139794Y-34765031D01*
X125139792Y-34765033D01*
X125116126Y-34801755D01*
X125051909Y-34901400D01*
X125044015Y-34923089D01*
X124996425Y-35053840D01*
X124996424Y-35053845D01*
X124994015Y-35060463D01*
X124972800Y-35228399D01*
X124987804Y-35381417D01*
X124974545Y-35451163D01*
X124951500Y-35482806D01*
X124739784Y-35694522D01*
X124721036Y-35709664D01*
X124719811Y-35710779D01*
X124711060Y-35716429D01*
X124704613Y-35724607D01*
X124704611Y-35724609D01*
X124690271Y-35742800D01*
X124686325Y-35747241D01*
X124686398Y-35747303D01*
X124683039Y-35751267D01*
X124679362Y-35754944D01*
X124668108Y-35770692D01*
X124664602Y-35775362D01*
X124632844Y-35815647D01*
X124629812Y-35824281D01*
X124624486Y-35831734D01*
X124621501Y-35841715D01*
X124609799Y-35880844D01*
X124607964Y-35886492D01*
X124593791Y-35926851D01*
X124590982Y-35934851D01*
X124590500Y-35940416D01*
X124590500Y-35943124D01*
X124590386Y-35945758D01*
X124590357Y-35945856D01*
X124590193Y-35945849D01*
X124590149Y-35946553D01*
X124588287Y-35952778D01*
X124589225Y-35976652D01*
X124590403Y-36006635D01*
X124590500Y-36011582D01*
X124590500Y-37019500D01*
X124570498Y-37087621D01*
X124516842Y-37134114D01*
X124464500Y-37145500D01*
X124172682Y-37145500D01*
X124104561Y-37125498D01*
X124078114Y-37099860D01*
X124076878Y-37100949D01*
X124071855Y-37095251D01*
X124067553Y-37088992D01*
X124053453Y-37076429D01*
X123954946Y-36988664D01*
X123949275Y-36983611D01*
X123941889Y-36979700D01*
X123815988Y-36913039D01*
X123815989Y-36913039D01*
X123809274Y-36909484D01*
X123655633Y-36870892D01*
X123648034Y-36870852D01*
X123648033Y-36870852D01*
X123582181Y-36870507D01*
X123497221Y-36870062D01*
X123489841Y-36871834D01*
X123489839Y-36871834D01*
X123350563Y-36905271D01*
X123350560Y-36905272D01*
X123343184Y-36907043D01*
X123202414Y-36979700D01*
X123083039Y-37083838D01*
X122991950Y-37213444D01*
X122989190Y-37220524D01*
X122956344Y-37304770D01*
X122934406Y-37361037D01*
X122933414Y-37368570D01*
X122933414Y-37368571D01*
X122915205Y-37506885D01*
X122913729Y-37518096D01*
X122931113Y-37675553D01*
X122933723Y-37682684D01*
X122933723Y-37682686D01*
X122977865Y-37803309D01*
X122985553Y-37824319D01*
X122989789Y-37830622D01*
X122989789Y-37830623D01*
X123064703Y-37942106D01*
X123073908Y-37955805D01*
X123079527Y-37960918D01*
X123079528Y-37960919D01*
X123185460Y-38057309D01*
X123191076Y-38062419D01*
X123330293Y-38138008D01*
X123483522Y-38178207D01*
X123567477Y-38179526D01*
X123634319Y-38180576D01*
X123634322Y-38180576D01*
X123641916Y-38180695D01*
X123796332Y-38145329D01*
X123866742Y-38109917D01*
X123931072Y-38077563D01*
X123931075Y-38077561D01*
X123937855Y-38074151D01*
X123943626Y-38069222D01*
X123943629Y-38069220D01*
X124052542Y-37976199D01*
X124052543Y-37976198D01*
X124058314Y-37971269D01*
X124068586Y-37956974D01*
X124124581Y-37913326D01*
X124170909Y-37904500D01*
X124464500Y-37904500D01*
X124532621Y-37924502D01*
X124579114Y-37978158D01*
X124590500Y-38030500D01*
X124590500Y-40138080D01*
X124587951Y-40162028D01*
X124587872Y-40163693D01*
X124585680Y-40173876D01*
X124586904Y-40184217D01*
X124589627Y-40207223D01*
X124589977Y-40213154D01*
X124590072Y-40213146D01*
X124590500Y-40218324D01*
X124590500Y-40223524D01*
X124591354Y-40228653D01*
X124591354Y-40228656D01*
X124593669Y-40242565D01*
X124594506Y-40248443D01*
X124600530Y-40299341D01*
X124604493Y-40307593D01*
X124605996Y-40316626D01*
X124610943Y-40325795D01*
X124610944Y-40325797D01*
X124630334Y-40361732D01*
X124633031Y-40367025D01*
X124651785Y-40406082D01*
X124651788Y-40406086D01*
X124655219Y-40413232D01*
X124658814Y-40417508D01*
X124660737Y-40419431D01*
X124662509Y-40421363D01*
X124662552Y-40421442D01*
X124662428Y-40421555D01*
X124662904Y-40422095D01*
X124665990Y-40427814D01*
X124673635Y-40434881D01*
X124705586Y-40464416D01*
X124709152Y-40467846D01*
X124962482Y-40721176D01*
X124996508Y-40783488D01*
X124994966Y-40828029D01*
X124997818Y-40828404D01*
X124991500Y-40876392D01*
X124991500Y-41181000D01*
X124971498Y-41249121D01*
X124917842Y-41295614D01*
X124865500Y-41307000D01*
X124864115Y-41307000D01*
X124848876Y-41311475D01*
X124847671Y-41312865D01*
X124846000Y-41320548D01*
X124846000Y-41934500D01*
X124825998Y-42002621D01*
X124772342Y-42049114D01*
X124720000Y-42060500D01*
X124568137Y-42060500D01*
X124500016Y-42040498D01*
X124453523Y-41986842D01*
X124443419Y-41916568D01*
X124472913Y-41851988D01*
X124532639Y-41813604D01*
X124543124Y-41810525D01*
X124544329Y-41809135D01*
X124546000Y-41801452D01*
X124546000Y-41325115D01*
X124541525Y-41309876D01*
X124540135Y-41308671D01*
X124532452Y-41307000D01*
X124311908Y-41307000D01*
X124303700Y-41307538D01*
X124201995Y-41320928D01*
X124186175Y-41325167D01*
X124059614Y-41377590D01*
X124045431Y-41385779D01*
X123936752Y-41469171D01*
X123925172Y-41480750D01*
X123841777Y-41589434D01*
X123833590Y-41603615D01*
X123781167Y-41730175D01*
X123776928Y-41745995D01*
X123770208Y-41797040D01*
X123772419Y-41811222D01*
X123785576Y-41815000D01*
X124249763Y-41815000D01*
X124317884Y-41835002D01*
X124364377Y-41888658D01*
X124374481Y-41958932D01*
X124344987Y-42023512D01*
X124285261Y-42061896D01*
X124271691Y-42064764D01*
X124268960Y-42065560D01*
X124259404Y-42066818D01*
X124250672Y-42070890D01*
X124250671Y-42070890D01*
X124181393Y-42103195D01*
X124128143Y-42115000D01*
X123785958Y-42115000D01*
X123772187Y-42119044D01*
X123770158Y-42132583D01*
X123776928Y-42184005D01*
X123781167Y-42199825D01*
X123833590Y-42326386D01*
X123841779Y-42340569D01*
X123925171Y-42449248D01*
X123936754Y-42460832D01*
X123967587Y-42484491D01*
X124009454Y-42541829D01*
X124016500Y-42575668D01*
X124016500Y-42578608D01*
X124022818Y-42626596D01*
X124039211Y-42661752D01*
X124049872Y-42731942D01*
X124039212Y-42768246D01*
X124022818Y-42803404D01*
X124016500Y-42851392D01*
X124016500Y-43078608D01*
X124022818Y-43126596D01*
X124039211Y-43161752D01*
X124049872Y-43231942D01*
X124039212Y-43268246D01*
X124022818Y-43303404D01*
X124016500Y-43351392D01*
X124016500Y-43578608D01*
X124022818Y-43626596D01*
X124039211Y-43661752D01*
X124049872Y-43731942D01*
X124039212Y-43768246D01*
X124022818Y-43803404D01*
X124016500Y-43851392D01*
X124016500Y-44078608D01*
X124022818Y-44126596D01*
X124039211Y-44161752D01*
X124049872Y-44231942D01*
X124039212Y-44268246D01*
X124022818Y-44303404D01*
X124016500Y-44351392D01*
X124016500Y-44578608D01*
X124022818Y-44626596D01*
X124026890Y-44635328D01*
X124026890Y-44635329D01*
X124065527Y-44718187D01*
X124071926Y-44731909D01*
X124154091Y-44814074D01*
X124164083Y-44818733D01*
X124164084Y-44818734D01*
X124250671Y-44859110D01*
X124250672Y-44859110D01*
X124259404Y-44863182D01*
X124268957Y-44864440D01*
X124268958Y-44864440D01*
X124294858Y-44867850D01*
X124307392Y-44869500D01*
X124865500Y-44869500D01*
X124933621Y-44889502D01*
X124980114Y-44943158D01*
X124991500Y-44995500D01*
X124991500Y-45553608D01*
X124997818Y-45601596D01*
X125001890Y-45610328D01*
X125001890Y-45610329D01*
X125035505Y-45682416D01*
X125046926Y-45706909D01*
X125129091Y-45789074D01*
X125139083Y-45793733D01*
X125139084Y-45793734D01*
X125225671Y-45834110D01*
X125225672Y-45834110D01*
X125234404Y-45838182D01*
X125243957Y-45839440D01*
X125243958Y-45839440D01*
X125269858Y-45842850D01*
X125282392Y-45844500D01*
X125390500Y-45844500D01*
X125458621Y-45864502D01*
X125505114Y-45918158D01*
X125516500Y-45970500D01*
X125516500Y-46168616D01*
X125496498Y-46236737D01*
X125479595Y-46257711D01*
X124739784Y-46997522D01*
X124721036Y-47012664D01*
X124719811Y-47013779D01*
X124711060Y-47019429D01*
X124704613Y-47027607D01*
X124704611Y-47027609D01*
X124690271Y-47045800D01*
X124686325Y-47050241D01*
X124686398Y-47050303D01*
X124683039Y-47054267D01*
X124679362Y-47057944D01*
X124668108Y-47073692D01*
X124664602Y-47078362D01*
X124632844Y-47118647D01*
X124629812Y-47127281D01*
X124624486Y-47134734D01*
X124617285Y-47158814D01*
X124609799Y-47183844D01*
X124607964Y-47189492D01*
X124590982Y-47237851D01*
X124590500Y-47243416D01*
X124590500Y-47246124D01*
X124590386Y-47248758D01*
X124590357Y-47248856D01*
X124590193Y-47248849D01*
X124590149Y-47249553D01*
X124588287Y-47255778D01*
X124588696Y-47266183D01*
X124590403Y-47309635D01*
X124590500Y-47314582D01*
X124590500Y-48153092D01*
X124570498Y-48221213D01*
X124516842Y-48267706D01*
X124508729Y-48271074D01*
X124487365Y-48279083D01*
X124480186Y-48284463D01*
X124480183Y-48284465D01*
X124390720Y-48351515D01*
X124377456Y-48361456D01*
X124372077Y-48368633D01*
X124300465Y-48464183D01*
X124300463Y-48464186D01*
X124295083Y-48471365D01*
X124291933Y-48479769D01*
X124291932Y-48479770D01*
X124254237Y-48580325D01*
X124246870Y-48599976D01*
X124240500Y-48658611D01*
X124240501Y-49199388D01*
X124240870Y-49202782D01*
X124240870Y-49202788D01*
X124241243Y-49206215D01*
X124246870Y-49258024D01*
X124295083Y-49386635D01*
X124300463Y-49393814D01*
X124300465Y-49393817D01*
X124334375Y-49439062D01*
X124349815Y-49459662D01*
X124349837Y-49459692D01*
X124374685Y-49526198D01*
X124359633Y-49595581D01*
X124315314Y-49642402D01*
X124267827Y-49671788D01*
X124256426Y-49680824D01*
X124146014Y-49791429D01*
X124137002Y-49802840D01*
X124054996Y-49935880D01*
X124048849Y-49949061D01*
X123999509Y-50097814D01*
X123996642Y-50111190D01*
X123987328Y-50202097D01*
X123987071Y-50207126D01*
X123991475Y-50222124D01*
X123992865Y-50223329D01*
X124000548Y-50225000D01*
X125098000Y-50225000D01*
X125166121Y-50245002D01*
X125212614Y-50298658D01*
X125224000Y-50351000D01*
X125224000Y-51418885D01*
X125228475Y-51434124D01*
X125229865Y-51435329D01*
X125237548Y-51437000D01*
X125265438Y-51437000D01*
X125271953Y-51436663D01*
X125364057Y-51427106D01*
X125377456Y-51424212D01*
X125526107Y-51374619D01*
X125539285Y-51368446D01*
X125668197Y-51288672D01*
X125736649Y-51269834D01*
X125804418Y-51290995D01*
X125849990Y-51345436D01*
X125860500Y-51395816D01*
X125860500Y-51539614D01*
X125840498Y-51607735D01*
X125823596Y-51628709D01*
X125696992Y-51755314D01*
X125669811Y-51782495D01*
X125661790Y-51789851D01*
X125638315Y-51809584D01*
X125629936Y-51816627D01*
X125624563Y-51825551D01*
X125617800Y-51833470D01*
X125617311Y-51833053D01*
X125610346Y-51841960D01*
X125357711Y-52094595D01*
X125295399Y-52128621D01*
X125268616Y-52131500D01*
X123909384Y-52131500D01*
X123841263Y-52111498D01*
X123820289Y-52094595D01*
X122475132Y-50749438D01*
X123987000Y-50749438D01*
X123987337Y-50755953D01*
X123996894Y-50848057D01*
X123999788Y-50861456D01*
X124049381Y-51010107D01*
X124055555Y-51023286D01*
X124137788Y-51156173D01*
X124146824Y-51167574D01*
X124257429Y-51277986D01*
X124268840Y-51286998D01*
X124401880Y-51369004D01*
X124415061Y-51375151D01*
X124563814Y-51424491D01*
X124577190Y-51427358D01*
X124668097Y-51436672D01*
X124674513Y-51437000D01*
X124697885Y-51437000D01*
X124713124Y-51432525D01*
X124714329Y-51431135D01*
X124716000Y-51423452D01*
X124716000Y-50751115D01*
X124711525Y-50735876D01*
X124710135Y-50734671D01*
X124702452Y-50733000D01*
X124005115Y-50733000D01*
X123989876Y-50737475D01*
X123988671Y-50738865D01*
X123987000Y-50746548D01*
X123987000Y-50749438D01*
X122475132Y-50749438D01*
X118528405Y-46802711D01*
X118494379Y-46740399D01*
X118491500Y-46713616D01*
X118491500Y-46247486D01*
X118511502Y-46179365D01*
X118565158Y-46132872D01*
X118617500Y-46121486D01*
X118862000Y-46121486D01*
X118961301Y-46101734D01*
X119045484Y-46045484D01*
X119101734Y-45961301D01*
X119121486Y-45862000D01*
X119121486Y-44712000D01*
X119118163Y-44678076D01*
X119117458Y-44670877D01*
X119117457Y-44670874D01*
X119116553Y-44661643D01*
X119096648Y-44613446D01*
X119089132Y-44542850D01*
X119095801Y-44520180D01*
X119101734Y-44511301D01*
X119121486Y-44412000D01*
X119121486Y-43708398D01*
X119141488Y-43640277D01*
X119158391Y-43619303D01*
X119482178Y-43295516D01*
X119544490Y-43261490D01*
X119573252Y-43258627D01*
X119697318Y-43260576D01*
X119697321Y-43260576D01*
X119704916Y-43260695D01*
X119859332Y-43225329D01*
X119940268Y-43184623D01*
X119994072Y-43157563D01*
X119994075Y-43157561D01*
X120000855Y-43154151D01*
X120006626Y-43149222D01*
X120006629Y-43149220D01*
X120115536Y-43056204D01*
X120115536Y-43056203D01*
X120121314Y-43051269D01*
X120213755Y-42922624D01*
X120272842Y-42775641D01*
X120281472Y-42715000D01*
X120294581Y-42622891D01*
X120294581Y-42622888D01*
X120295162Y-42618807D01*
X120295307Y-42605000D01*
X120276276Y-42447733D01*
X120220280Y-42299546D01*
X120130553Y-42168992D01*
X120012275Y-42063611D01*
X120004889Y-42059700D01*
X119936541Y-42023512D01*
X119872274Y-41989484D01*
X119718633Y-41950892D01*
X119711034Y-41950852D01*
X119711033Y-41950852D01*
X119645181Y-41950507D01*
X119560221Y-41950062D01*
X119552841Y-41951834D01*
X119552839Y-41951834D01*
X119413563Y-41985271D01*
X119413560Y-41985272D01*
X119406184Y-41987043D01*
X119265414Y-42059700D01*
X119146039Y-42163838D01*
X119054950Y-42293444D01*
X119032416Y-42351241D01*
X119001314Y-42431014D01*
X118997406Y-42441037D01*
X118996414Y-42448570D01*
X118996414Y-42448571D01*
X118978143Y-42587357D01*
X118976729Y-42598096D01*
X118979544Y-42623591D01*
X118982963Y-42654566D01*
X118970557Y-42724470D01*
X118946819Y-42757487D01*
X118706595Y-42997711D01*
X118644283Y-43031737D01*
X118573468Y-43026672D01*
X118516632Y-42984125D01*
X118491821Y-42917605D01*
X118491500Y-42908616D01*
X118491500Y-40274384D01*
X118511502Y-40206263D01*
X118528405Y-40185289D01*
X122695864Y-36017830D01*
X122758176Y-35983804D01*
X122801622Y-35982032D01*
X122834717Y-35986448D01*
X122915118Y-35997176D01*
X122915122Y-35997176D01*
X122922099Y-35998107D01*
X122929110Y-35997469D01*
X122929114Y-35997469D01*
X123083652Y-35983405D01*
X123090673Y-35982766D01*
X123251659Y-35930458D01*
X123397056Y-35843784D01*
X123519638Y-35727052D01*
X123526696Y-35716429D01*
X123609410Y-35591935D01*
X123609411Y-35591933D01*
X123613311Y-35586063D01*
X123673420Y-35427824D01*
X123685331Y-35343074D01*
X123696427Y-35264123D01*
X123696427Y-35264118D01*
X123696978Y-35260200D01*
X123697274Y-35239000D01*
X123678406Y-35070784D01*
X123622738Y-34910929D01*
X123533038Y-34767379D01*
X123521142Y-34755399D01*
X123418726Y-34652266D01*
X123413764Y-34647269D01*
X123270844Y-34556569D01*
X123243442Y-34546812D01*
X123118016Y-34502149D01*
X123118011Y-34502148D01*
X123111381Y-34499787D01*
X123104395Y-34498954D01*
X123104391Y-34498953D01*
X122985287Y-34484751D01*
X122943301Y-34479745D01*
X122936298Y-34480481D01*
X122936297Y-34480481D01*
X122781965Y-34496701D01*
X122781961Y-34496702D01*
X122774957Y-34497438D01*
X122768286Y-34499709D01*
X122621387Y-34549717D01*
X122621384Y-34549718D01*
X122614717Y-34551988D01*
X122608719Y-34555678D01*
X122608717Y-34555679D01*
X122476543Y-34636993D01*
X122476541Y-34636995D01*
X122470544Y-34640684D01*
X122465511Y-34645613D01*
X122359717Y-34749215D01*
X122349605Y-34759117D01*
X122345794Y-34765031D01*
X122345792Y-34765033D01*
X122322126Y-34801755D01*
X122257909Y-34901400D01*
X122250015Y-34923089D01*
X122202425Y-35053840D01*
X122202424Y-35053845D01*
X122200015Y-35060463D01*
X122178800Y-35228399D01*
X122193804Y-35381417D01*
X122180545Y-35451163D01*
X122157500Y-35482806D01*
X117881784Y-39758522D01*
X117863036Y-39773664D01*
X117861811Y-39774779D01*
X117853060Y-39780429D01*
X117846613Y-39788607D01*
X117846611Y-39788609D01*
X117832271Y-39806800D01*
X117828325Y-39811241D01*
X117828398Y-39811303D01*
X117825039Y-39815267D01*
X117821362Y-39818944D01*
X117810108Y-39834692D01*
X117806602Y-39839362D01*
X117774844Y-39879647D01*
X117771812Y-39888281D01*
X117766486Y-39895734D01*
X117763501Y-39905715D01*
X117751799Y-39944844D01*
X117749964Y-39950492D01*
X117732982Y-39998851D01*
X117732500Y-40004416D01*
X117732500Y-40007124D01*
X117732386Y-40009758D01*
X117732357Y-40009856D01*
X117732193Y-40009849D01*
X117732149Y-40010553D01*
X117730287Y-40016778D01*
X117730696Y-40027183D01*
X117732403Y-40070635D01*
X117732500Y-40075582D01*
X117732500Y-43026514D01*
X117712498Y-43094635D01*
X117658842Y-43141128D01*
X117606500Y-43152514D01*
X117362000Y-43152514D01*
X117262699Y-43172266D01*
X117252380Y-43179161D01*
X117244206Y-43184623D01*
X117178516Y-43228516D01*
X117122266Y-43312699D01*
X117102514Y-43412000D01*
X117102514Y-44412000D01*
X117107553Y-44462889D01*
X117122609Y-44499129D01*
X117127253Y-44510308D01*
X117134915Y-44580890D01*
X117128192Y-44603830D01*
X117122266Y-44612699D01*
X117119846Y-44624868D01*
X117119845Y-44624869D01*
X117111081Y-44668932D01*
X117102514Y-44712000D01*
X117102514Y-44856500D01*
X117082512Y-44924621D01*
X117028856Y-44971114D01*
X116976514Y-44982500D01*
X115691486Y-44982500D01*
X115623365Y-44962498D01*
X115576872Y-44908842D01*
X115565486Y-44856500D01*
X115565486Y-44675000D01*
X115560553Y-44624643D01*
X115540648Y-44576446D01*
X115533132Y-44505850D01*
X115539801Y-44483180D01*
X115545734Y-44474301D01*
X115565486Y-44375000D01*
X115565486Y-43708398D01*
X115585488Y-43640277D01*
X115602391Y-43619303D01*
X115926178Y-43295516D01*
X115988490Y-43261490D01*
X116017252Y-43258627D01*
X116141318Y-43260576D01*
X116141321Y-43260576D01*
X116148916Y-43260695D01*
X116303332Y-43225329D01*
X116384268Y-43184623D01*
X116438072Y-43157563D01*
X116438075Y-43157561D01*
X116444855Y-43154151D01*
X116450626Y-43149222D01*
X116450629Y-43149220D01*
X116559536Y-43056204D01*
X116559536Y-43056203D01*
X116565314Y-43051269D01*
X116657755Y-42922624D01*
X116716842Y-42775641D01*
X116725472Y-42715000D01*
X116738581Y-42622891D01*
X116738581Y-42622888D01*
X116739162Y-42618807D01*
X116739307Y-42605000D01*
X116720276Y-42447733D01*
X116664280Y-42299546D01*
X116574553Y-42168992D01*
X116456275Y-42063611D01*
X116448889Y-42059700D01*
X116380541Y-42023512D01*
X116316274Y-41989484D01*
X116162633Y-41950892D01*
X116155034Y-41950852D01*
X116155033Y-41950852D01*
X116089181Y-41950507D01*
X116004221Y-41950062D01*
X115996841Y-41951834D01*
X115996839Y-41951834D01*
X115857563Y-41985271D01*
X115857560Y-41985272D01*
X115850184Y-41987043D01*
X115709414Y-42059700D01*
X115590039Y-42163838D01*
X115498950Y-42293444D01*
X115476416Y-42351241D01*
X115445314Y-42431014D01*
X115441406Y-42441037D01*
X115440414Y-42448570D01*
X115440414Y-42448571D01*
X115422143Y-42587357D01*
X115420729Y-42598096D01*
X115423544Y-42623591D01*
X115426963Y-42654566D01*
X115414557Y-42724470D01*
X115390819Y-42757487D01*
X115150595Y-42997711D01*
X115088283Y-43031737D01*
X115017468Y-43026672D01*
X114960632Y-42984125D01*
X114935821Y-42917605D01*
X114935500Y-42908616D01*
X114935500Y-41544384D01*
X114955502Y-41476263D01*
X114972405Y-41455289D01*
X120409864Y-36017830D01*
X120472176Y-35983804D01*
X120515622Y-35982032D01*
X120548717Y-35986448D01*
X120629118Y-35997176D01*
X120629122Y-35997176D01*
X120636099Y-35998107D01*
X120643110Y-35997469D01*
X120643114Y-35997469D01*
X120797652Y-35983405D01*
X120804673Y-35982766D01*
X120965659Y-35930458D01*
X121111056Y-35843784D01*
X121233638Y-35727052D01*
X121240696Y-35716429D01*
X121323410Y-35591935D01*
X121323411Y-35591933D01*
X121327311Y-35586063D01*
X121387420Y-35427824D01*
X121399331Y-35343074D01*
X121410427Y-35264123D01*
X121410427Y-35264118D01*
X121410978Y-35260200D01*
X121411274Y-35239000D01*
X121392406Y-35070784D01*
X121336738Y-34910929D01*
X121247038Y-34767379D01*
X121235142Y-34755399D01*
X121132726Y-34652266D01*
X121127764Y-34647269D01*
X120984844Y-34556569D01*
X120957442Y-34546812D01*
X120832016Y-34502149D01*
X120832011Y-34502148D01*
X120825381Y-34499787D01*
X120818395Y-34498954D01*
X120818391Y-34498953D01*
X120699287Y-34484751D01*
X120657301Y-34479745D01*
X120650298Y-34480481D01*
X120650297Y-34480481D01*
X120495965Y-34496701D01*
X120495961Y-34496702D01*
X120488957Y-34497438D01*
X120482286Y-34499709D01*
X120335387Y-34549717D01*
X120335384Y-34549718D01*
X120328717Y-34551988D01*
X120322719Y-34555678D01*
X120322717Y-34555679D01*
X120190543Y-34636993D01*
X120190541Y-34636995D01*
X120184544Y-34640684D01*
X120179511Y-34645613D01*
X120073717Y-34749215D01*
X120063605Y-34759117D01*
X120059794Y-34765031D01*
X120059792Y-34765033D01*
X120036126Y-34801755D01*
X119971909Y-34901400D01*
X119964015Y-34923089D01*
X119916425Y-35053840D01*
X119916424Y-35053845D01*
X119914015Y-35060463D01*
X119892800Y-35228399D01*
X119907804Y-35381417D01*
X119894545Y-35451163D01*
X119871500Y-35482806D01*
X114325784Y-41028522D01*
X114307036Y-41043664D01*
X114305811Y-41044779D01*
X114297060Y-41050429D01*
X114290613Y-41058607D01*
X114290611Y-41058609D01*
X114276271Y-41076800D01*
X114272325Y-41081241D01*
X114272398Y-41081303D01*
X114269039Y-41085267D01*
X114265362Y-41088944D01*
X114254108Y-41104692D01*
X114250602Y-41109362D01*
X114218844Y-41149647D01*
X114215812Y-41158281D01*
X114210486Y-41165734D01*
X114207501Y-41175715D01*
X114195799Y-41214844D01*
X114193964Y-41220492D01*
X114179610Y-41261367D01*
X114176982Y-41268851D01*
X114176500Y-41274416D01*
X114176500Y-41277124D01*
X114176386Y-41279758D01*
X114176357Y-41279856D01*
X114176193Y-41279849D01*
X114176149Y-41280553D01*
X114174287Y-41286778D01*
X114174696Y-41297183D01*
X114176403Y-41340635D01*
X114176500Y-41345582D01*
X114176500Y-42989514D01*
X114156498Y-43057635D01*
X114102842Y-43104128D01*
X114050500Y-43115514D01*
X113806000Y-43115514D01*
X113706699Y-43135266D01*
X113622516Y-43191516D01*
X113566266Y-43275699D01*
X113546514Y-43375000D01*
X113546514Y-44375000D01*
X113551553Y-44425889D01*
X113566609Y-44462129D01*
X113571253Y-44473308D01*
X113578915Y-44543890D01*
X113572192Y-44566830D01*
X113566266Y-44575699D01*
X113563846Y-44587868D01*
X113563845Y-44587869D01*
X113556142Y-44626596D01*
X113546514Y-44675000D01*
X113546514Y-44819500D01*
X113526512Y-44887621D01*
X113472856Y-44934114D01*
X113420514Y-44945500D01*
X112135486Y-44945500D01*
X112067365Y-44925498D01*
X112020872Y-44871842D01*
X112009486Y-44819500D01*
X112009486Y-44675000D01*
X112004553Y-44624643D01*
X111984648Y-44576446D01*
X111977132Y-44505850D01*
X111983801Y-44483180D01*
X111989734Y-44474301D01*
X112009486Y-44375000D01*
X112009486Y-43708398D01*
X112029488Y-43640277D01*
X112046391Y-43619303D01*
X112370178Y-43295516D01*
X112432490Y-43261490D01*
X112461252Y-43258627D01*
X112585318Y-43260576D01*
X112585321Y-43260576D01*
X112592916Y-43260695D01*
X112747332Y-43225329D01*
X112828268Y-43184623D01*
X112882072Y-43157563D01*
X112882075Y-43157561D01*
X112888855Y-43154151D01*
X112894626Y-43149222D01*
X112894629Y-43149220D01*
X113003536Y-43056204D01*
X113003536Y-43056203D01*
X113009314Y-43051269D01*
X113101755Y-42922624D01*
X113160842Y-42775641D01*
X113169472Y-42715000D01*
X113182581Y-42622891D01*
X113182581Y-42622888D01*
X113183162Y-42618807D01*
X113183307Y-42605000D01*
X113164276Y-42447733D01*
X113108280Y-42299546D01*
X113018553Y-42168992D01*
X112900275Y-42063611D01*
X112892889Y-42059700D01*
X112824541Y-42023512D01*
X112760274Y-41989484D01*
X112606633Y-41950892D01*
X112599034Y-41950852D01*
X112599033Y-41950852D01*
X112563478Y-41950666D01*
X112494914Y-41950307D01*
X112426900Y-41929949D01*
X112380689Y-41876050D01*
X112370953Y-41805725D01*
X112400784Y-41741299D01*
X112406480Y-41735214D01*
X118123864Y-36017830D01*
X118186176Y-35983804D01*
X118229622Y-35982032D01*
X118262717Y-35986448D01*
X118343118Y-35997176D01*
X118343122Y-35997176D01*
X118350099Y-35998107D01*
X118357110Y-35997469D01*
X118357114Y-35997469D01*
X118511652Y-35983405D01*
X118518673Y-35982766D01*
X118679659Y-35930458D01*
X118825056Y-35843784D01*
X118947638Y-35727052D01*
X118954696Y-35716429D01*
X119037410Y-35591935D01*
X119037411Y-35591933D01*
X119041311Y-35586063D01*
X119101420Y-35427824D01*
X119113331Y-35343074D01*
X119124427Y-35264123D01*
X119124427Y-35264118D01*
X119124978Y-35260200D01*
X119125274Y-35239000D01*
X119106406Y-35070784D01*
X119050738Y-34910929D01*
X118961038Y-34767379D01*
X118949142Y-34755399D01*
X118846726Y-34652266D01*
X118841764Y-34647269D01*
X118698844Y-34556569D01*
X118671442Y-34546812D01*
X118546016Y-34502149D01*
X118546011Y-34502148D01*
X118539381Y-34499787D01*
X118532395Y-34498954D01*
X118532391Y-34498953D01*
X118413287Y-34484751D01*
X118371301Y-34479745D01*
X118364298Y-34480481D01*
X118364297Y-34480481D01*
X118209965Y-34496701D01*
X118209961Y-34496702D01*
X118202957Y-34497438D01*
X118196286Y-34499709D01*
X118049387Y-34549717D01*
X118049384Y-34549718D01*
X118042717Y-34551988D01*
X118036719Y-34555678D01*
X118036717Y-34555679D01*
X117904543Y-34636993D01*
X117904541Y-34636995D01*
X117898544Y-34640684D01*
X117893511Y-34645613D01*
X117787717Y-34749215D01*
X117777605Y-34759117D01*
X117773794Y-34765031D01*
X117773792Y-34765033D01*
X117750126Y-34801755D01*
X117685909Y-34901400D01*
X117678015Y-34923089D01*
X117630425Y-35053840D01*
X117630424Y-35053845D01*
X117628015Y-35060463D01*
X117606800Y-35228399D01*
X117621804Y-35381417D01*
X117608545Y-35451163D01*
X117585500Y-35482806D01*
X110769784Y-42298522D01*
X110751036Y-42313664D01*
X110749811Y-42314779D01*
X110741060Y-42320429D01*
X110734613Y-42328607D01*
X110734611Y-42328609D01*
X110720271Y-42346800D01*
X110716325Y-42351241D01*
X110716398Y-42351303D01*
X110713039Y-42355267D01*
X110709362Y-42358944D01*
X110698108Y-42374692D01*
X110694602Y-42379362D01*
X110662844Y-42419647D01*
X110659812Y-42428281D01*
X110654486Y-42435734D01*
X110639905Y-42484491D01*
X110639799Y-42484844D01*
X110637964Y-42490492D01*
X110620982Y-42538851D01*
X110620500Y-42544416D01*
X110620500Y-42547124D01*
X110620386Y-42549758D01*
X110620357Y-42549856D01*
X110620193Y-42549849D01*
X110620149Y-42550553D01*
X110618287Y-42556778D01*
X110620344Y-42609134D01*
X110620403Y-42610635D01*
X110620500Y-42615582D01*
X110620500Y-42989514D01*
X110600498Y-43057635D01*
X110546842Y-43104128D01*
X110494500Y-43115514D01*
X110250000Y-43115514D01*
X110150699Y-43135266D01*
X110066516Y-43191516D01*
X110010266Y-43275699D01*
X109990514Y-43375000D01*
X109990514Y-44375000D01*
X109995553Y-44425889D01*
X110010609Y-44462129D01*
X110015253Y-44473308D01*
X110022915Y-44543890D01*
X110016192Y-44566830D01*
X110010266Y-44575699D01*
X110007846Y-44587868D01*
X110007845Y-44587869D01*
X110000142Y-44626596D01*
X109990514Y-44675000D01*
X109990514Y-44819500D01*
X109970512Y-44887621D01*
X109916856Y-44934114D01*
X109864514Y-44945500D01*
X108579486Y-44945500D01*
X108511365Y-44925498D01*
X108464872Y-44871842D01*
X108453486Y-44819500D01*
X108453486Y-44675000D01*
X108448553Y-44624643D01*
X108428648Y-44576446D01*
X108421132Y-44505850D01*
X108427801Y-44483180D01*
X108433734Y-44474301D01*
X108453486Y-44375000D01*
X108453486Y-43708398D01*
X108473488Y-43640277D01*
X108490391Y-43619303D01*
X108814178Y-43295516D01*
X108876490Y-43261490D01*
X108905252Y-43258627D01*
X109029318Y-43260576D01*
X109029321Y-43260576D01*
X109036916Y-43260695D01*
X109191332Y-43225329D01*
X109272268Y-43184623D01*
X109326072Y-43157563D01*
X109326075Y-43157561D01*
X109332855Y-43154151D01*
X109338626Y-43149222D01*
X109338629Y-43149220D01*
X109447536Y-43056204D01*
X109447536Y-43056203D01*
X109453314Y-43051269D01*
X109545755Y-42922624D01*
X109604842Y-42775641D01*
X109613472Y-42715000D01*
X109626581Y-42622891D01*
X109626581Y-42622888D01*
X109627162Y-42618807D01*
X109627307Y-42605000D01*
X109608276Y-42447733D01*
X109552280Y-42299546D01*
X109462553Y-42168992D01*
X109344275Y-42063611D01*
X109336889Y-42059700D01*
X109268541Y-42023512D01*
X109204274Y-41989484D01*
X109196910Y-41987634D01*
X109196904Y-41987632D01*
X109176430Y-41982489D01*
X109115235Y-41946493D01*
X109083216Y-41883127D01*
X109090537Y-41812509D01*
X109118033Y-41771191D01*
X115233819Y-35655405D01*
X115296131Y-35621379D01*
X115322914Y-35618500D01*
X115356707Y-35618500D01*
X115424828Y-35638502D01*
X115464482Y-35679228D01*
X115478435Y-35702267D01*
X115596021Y-35824031D01*
X115737660Y-35916717D01*
X115896315Y-35975720D01*
X115903296Y-35976651D01*
X115903298Y-35976652D01*
X116057118Y-35997176D01*
X116057122Y-35997176D01*
X116064099Y-35998107D01*
X116071110Y-35997469D01*
X116071114Y-35997469D01*
X116225652Y-35983405D01*
X116232673Y-35982766D01*
X116393659Y-35930458D01*
X116539056Y-35843784D01*
X116661638Y-35727052D01*
X116668696Y-35716429D01*
X116751410Y-35591935D01*
X116751411Y-35591933D01*
X116755311Y-35586063D01*
X116815420Y-35427824D01*
X116827331Y-35343074D01*
X116838427Y-35264123D01*
X116838427Y-35264118D01*
X116838978Y-35260200D01*
X116839274Y-35239000D01*
X116820406Y-35070784D01*
X116764738Y-34910929D01*
X116675038Y-34767379D01*
X116663142Y-34755399D01*
X116560726Y-34652266D01*
X116555764Y-34647269D01*
X116412844Y-34556569D01*
X116385442Y-34546812D01*
X116260016Y-34502149D01*
X116260011Y-34502148D01*
X116253381Y-34499787D01*
X116246395Y-34498954D01*
X116246391Y-34498953D01*
X116127287Y-34484751D01*
X116085301Y-34479745D01*
X116078298Y-34480481D01*
X116078297Y-34480481D01*
X115923965Y-34496701D01*
X115923961Y-34496702D01*
X115916957Y-34497438D01*
X115910286Y-34499709D01*
X115763387Y-34549717D01*
X115763384Y-34549718D01*
X115756717Y-34551988D01*
X115750719Y-34555678D01*
X115750717Y-34555679D01*
X115618543Y-34636993D01*
X115618541Y-34636995D01*
X115612544Y-34640684D01*
X115607511Y-34645613D01*
X115501717Y-34749215D01*
X115491605Y-34759117D01*
X115487793Y-34765032D01*
X115487789Y-34765037D01*
X115464126Y-34801755D01*
X115410412Y-34848180D01*
X115358215Y-34859500D01*
X115167450Y-34859500D01*
X115143503Y-34856951D01*
X115141837Y-34856872D01*
X115131654Y-34854680D01*
X115121312Y-34855904D01*
X115121309Y-34855904D01*
X115098317Y-34858626D01*
X115092376Y-34858977D01*
X115092384Y-34859072D01*
X115087204Y-34859500D01*
X115082006Y-34859500D01*
X115076884Y-34860353D01*
X115076879Y-34860353D01*
X115062957Y-34862671D01*
X115057080Y-34863508D01*
X115050579Y-34864277D01*
X115016527Y-34868307D01*
X115016525Y-34868308D01*
X115006189Y-34869531D01*
X114997940Y-34873492D01*
X114988904Y-34874996D01*
X114979735Y-34879943D01*
X114979733Y-34879944D01*
X114943770Y-34899348D01*
X114938481Y-34902043D01*
X114899445Y-34920788D01*
X114892298Y-34924220D01*
X114888022Y-34927814D01*
X114886082Y-34929754D01*
X114884171Y-34931507D01*
X114884081Y-34931556D01*
X114883969Y-34931433D01*
X114883434Y-34931905D01*
X114877716Y-34934990D01*
X114870649Y-34942635D01*
X114841114Y-34974586D01*
X114837684Y-34978152D01*
X107213784Y-42602052D01*
X107195036Y-42617194D01*
X107193811Y-42618309D01*
X107185060Y-42623959D01*
X107178613Y-42632137D01*
X107178611Y-42632139D01*
X107164271Y-42650330D01*
X107160325Y-42654771D01*
X107160398Y-42654833D01*
X107157039Y-42658797D01*
X107153362Y-42662474D01*
X107142108Y-42678222D01*
X107138602Y-42682892D01*
X107106844Y-42723177D01*
X107103812Y-42731811D01*
X107098486Y-42739264D01*
X107095501Y-42749245D01*
X107083799Y-42788374D01*
X107081964Y-42794022D01*
X107067610Y-42834897D01*
X107064982Y-42842381D01*
X107064500Y-42847946D01*
X107064500Y-42850654D01*
X107064386Y-42853288D01*
X107064357Y-42853386D01*
X107064193Y-42853379D01*
X107064149Y-42854083D01*
X107062287Y-42860308D01*
X107062696Y-42870713D01*
X107064403Y-42914165D01*
X107064500Y-42919112D01*
X107064500Y-42989514D01*
X107044498Y-43057635D01*
X106990842Y-43104128D01*
X106938500Y-43115514D01*
X106694000Y-43115514D01*
X106594699Y-43135266D01*
X106510516Y-43191516D01*
X106454266Y-43275699D01*
X106434514Y-43375000D01*
X106434514Y-44375000D01*
X106439553Y-44425889D01*
X106454609Y-44462129D01*
X106459253Y-44473308D01*
X106466915Y-44543890D01*
X106460192Y-44566830D01*
X106454266Y-44575699D01*
X106451846Y-44587868D01*
X106451845Y-44587869D01*
X106444142Y-44626596D01*
X106434514Y-44675000D01*
X106434514Y-45825000D01*
X105729320Y-45825000D01*
X105729320Y-39194405D01*
X105731635Y-39170362D01*
X105731859Y-39169210D01*
X105733963Y-39158387D01*
X105733585Y-39156002D01*
X105719300Y-38940335D01*
X105668774Y-38727730D01*
X105666721Y-38722881D01*
X105666719Y-38722875D01*
X105585629Y-38531351D01*
X105585628Y-38531348D01*
X105583574Y-38526498D01*
X105580741Y-38522055D01*
X105580738Y-38522050D01*
X105468909Y-38346692D01*
X105466075Y-38342248D01*
X105366583Y-38232158D01*
X105323089Y-38184031D01*
X105323086Y-38184029D01*
X105319555Y-38180121D01*
X105250018Y-38125173D01*
X105152238Y-38047907D01*
X105152235Y-38047905D01*
X105148098Y-38044636D01*
X105026859Y-37978158D01*
X104961110Y-37942106D01*
X104961106Y-37942104D01*
X104956486Y-37939571D01*
X104750062Y-37867857D01*
X104744873Y-37866981D01*
X104744868Y-37866980D01*
X104539780Y-37832369D01*
X104539779Y-37832369D01*
X104534583Y-37831492D01*
X104316057Y-37831492D01*
X104310861Y-37832369D01*
X104310860Y-37832369D01*
X104105772Y-37866980D01*
X104105767Y-37866981D01*
X104100578Y-37867857D01*
X103894154Y-37939571D01*
X103889534Y-37942104D01*
X103889530Y-37942106D01*
X103823781Y-37978158D01*
X103702542Y-38044636D01*
X103698405Y-38047905D01*
X103698402Y-38047907D01*
X103600622Y-38125173D01*
X103531085Y-38180121D01*
X103527554Y-38184029D01*
X103527551Y-38184031D01*
X103484057Y-38232158D01*
X103384565Y-38342248D01*
X103381731Y-38346692D01*
X103269902Y-38522050D01*
X103269899Y-38522055D01*
X103267066Y-38526498D01*
X103265012Y-38531348D01*
X103265011Y-38531351D01*
X103183921Y-38722875D01*
X103183919Y-38722881D01*
X103181866Y-38727730D01*
X103131340Y-38940335D01*
X103117055Y-39156002D01*
X103116677Y-39158387D01*
X103118781Y-39169210D01*
X103119005Y-39170362D01*
X103121320Y-39194405D01*
X103121320Y-56611595D01*
X103119005Y-56635635D01*
X103116677Y-56647613D01*
X101754320Y-56647613D01*
X101754320Y-36692806D01*
X101756234Y-36670926D01*
X101757481Y-36663854D01*
X101759395Y-36653000D01*
X101757481Y-36642145D01*
X101757481Y-36635434D01*
X101756364Y-36616600D01*
X101756395Y-36616062D01*
X101770718Y-36361004D01*
X101772300Y-36346967D01*
X101777575Y-36315924D01*
X101811766Y-36114690D01*
X101820103Y-36065623D01*
X101823247Y-36051848D01*
X101902250Y-35777623D01*
X101906917Y-35764286D01*
X102016124Y-35500634D01*
X102022255Y-35487903D01*
X102039180Y-35457281D01*
X102127701Y-35297115D01*
X102160298Y-35238135D01*
X102167815Y-35226172D01*
X102293952Y-35048397D01*
X102332952Y-34993431D01*
X102341761Y-34982385D01*
X102389817Y-34928611D01*
X102531924Y-34769593D01*
X102541914Y-34759603D01*
X102574488Y-34730493D01*
X102754706Y-34569440D01*
X102765753Y-34560631D01*
X102998492Y-34395495D01*
X103010455Y-34387978D01*
X103042801Y-34370101D01*
X129798820Y-34370101D01*
X129801274Y-34377064D01*
X130291188Y-34866978D01*
X130305132Y-34874592D01*
X130306965Y-34874461D01*
X130313580Y-34870210D01*
X130801834Y-34381956D01*
X130808594Y-34369576D01*
X130803935Y-34363353D01*
X130701924Y-34308196D01*
X130690619Y-34303444D01*
X130513554Y-34248633D01*
X130501541Y-34246167D01*
X130379213Y-34233310D01*
X130313557Y-34206297D01*
X130306182Y-34195728D01*
X130254572Y-34228896D01*
X130230494Y-34233481D01*
X130120345Y-34243505D01*
X130108296Y-34245803D01*
X129930483Y-34298137D01*
X129919108Y-34302732D01*
X129808969Y-34360312D01*
X129798820Y-34370101D01*
X103042801Y-34370101D01*
X103173009Y-34298137D01*
X103260227Y-34249933D01*
X103272950Y-34243806D01*
X103442465Y-34173591D01*
X103536606Y-34134597D01*
X103549943Y-34129930D01*
X103824168Y-34050927D01*
X103837943Y-34047783D01*
X104025084Y-34015986D01*
X104119292Y-33999979D01*
X104133324Y-33998398D01*
X104388923Y-33984044D01*
X104407754Y-33985161D01*
X104414465Y-33985161D01*
X104425320Y-33987075D01*
X104443248Y-33983914D01*
X104465126Y-33982000D01*
X130219074Y-33982000D01*
X130287195Y-34002002D01*
G37*
%TD.AperFunction*%
%TA.AperFunction,Conductor*%
G36*
X135240960Y-44957502D02*
G01*
X135261934Y-44974405D01*
X135604595Y-45317066D01*
X135638621Y-45379378D01*
X135641500Y-45406161D01*
X135641500Y-45746501D01*
X135621498Y-45814622D01*
X135567842Y-45861115D01*
X135515500Y-45872501D01*
X135370934Y-45872501D01*
X135335182Y-45879612D01*
X135308874Y-45884844D01*
X135308872Y-45884845D01*
X135296699Y-45887266D01*
X135286379Y-45894161D01*
X135286378Y-45894162D01*
X135229339Y-45932275D01*
X135161587Y-45953490D01*
X135093120Y-45934707D01*
X135048817Y-45888019D01*
X135040788Y-45873354D01*
X134964285Y-45771276D01*
X134951724Y-45758715D01*
X134849649Y-45682214D01*
X134834054Y-45673676D01*
X134713606Y-45628522D01*
X134698351Y-45624895D01*
X134647486Y-45619369D01*
X134640672Y-45619000D01*
X134118115Y-45619000D01*
X134102876Y-45623475D01*
X134101671Y-45624865D01*
X134100000Y-45632548D01*
X134100000Y-47255000D01*
X134079998Y-47323121D01*
X134026342Y-47369614D01*
X133974000Y-47381000D01*
X132606115Y-47381000D01*
X132590876Y-47385475D01*
X132589671Y-47386865D01*
X132588000Y-47394548D01*
X132588001Y-48171669D01*
X132588371Y-48178490D01*
X132593895Y-48229352D01*
X132597521Y-48244604D01*
X132642676Y-48365054D01*
X132651214Y-48380649D01*
X132727715Y-48482724D01*
X132740276Y-48495285D01*
X132842351Y-48571786D01*
X132857948Y-48580325D01*
X132871800Y-48585518D01*
X132928565Y-48628159D01*
X132953265Y-48694721D01*
X132938058Y-48764070D01*
X132887772Y-48814188D01*
X132827571Y-48829500D01*
X130992920Y-48829500D01*
X130968972Y-48826951D01*
X130967307Y-48826872D01*
X130957124Y-48824680D01*
X130946783Y-48825904D01*
X130923777Y-48828627D01*
X130917846Y-48828977D01*
X130917854Y-48829072D01*
X130912676Y-48829500D01*
X130907476Y-48829500D01*
X130902347Y-48830354D01*
X130902344Y-48830354D01*
X130888435Y-48832669D01*
X130882557Y-48833506D01*
X130841999Y-48838306D01*
X130841998Y-48838306D01*
X130831659Y-48839530D01*
X130823407Y-48843493D01*
X130814374Y-48844996D01*
X130805205Y-48849943D01*
X130805203Y-48849944D01*
X130769268Y-48869334D01*
X130763975Y-48872031D01*
X130724918Y-48890785D01*
X130724914Y-48890788D01*
X130717768Y-48894219D01*
X130713492Y-48897814D01*
X130711569Y-48899737D01*
X130709637Y-48901509D01*
X130709558Y-48901552D01*
X130709445Y-48901428D01*
X130708905Y-48901904D01*
X130703186Y-48904990D01*
X130696119Y-48912635D01*
X130666584Y-48944586D01*
X130663154Y-48948152D01*
X129514784Y-50096522D01*
X129496036Y-50111664D01*
X129494811Y-50112779D01*
X129486060Y-50118429D01*
X129479613Y-50126607D01*
X129479611Y-50126609D01*
X129465271Y-50144800D01*
X129461325Y-50149241D01*
X129461398Y-50149303D01*
X129458039Y-50153267D01*
X129454362Y-50156944D01*
X129443108Y-50172692D01*
X129439602Y-50177362D01*
X129407844Y-50217647D01*
X129404812Y-50226281D01*
X129399486Y-50233734D01*
X129398147Y-50238213D01*
X129352484Y-50288128D01*
X129331473Y-50298316D01*
X129305051Y-50308221D01*
X129305049Y-50308222D01*
X129296647Y-50311372D01*
X129289468Y-50316752D01*
X129289463Y-50316755D01*
X129234065Y-50358274D01*
X129167558Y-50383122D01*
X129098176Y-50368069D01*
X129047946Y-50317894D01*
X129032500Y-50257448D01*
X129032500Y-46468925D01*
X129035050Y-46444967D01*
X129035128Y-46443308D01*
X129037321Y-46433124D01*
X129036097Y-46422782D01*
X129036097Y-46422779D01*
X129033374Y-46399779D01*
X129033024Y-46393848D01*
X129032928Y-46393856D01*
X129032500Y-46388680D01*
X129032500Y-46383476D01*
X129029327Y-46364412D01*
X129028496Y-46358566D01*
X129023694Y-46318001D01*
X129022470Y-46307659D01*
X129018507Y-46299407D01*
X129017347Y-46292438D01*
X130718000Y-46292438D01*
X130718337Y-46298953D01*
X130727894Y-46391057D01*
X130730788Y-46404456D01*
X130780381Y-46553107D01*
X130786555Y-46566286D01*
X130868788Y-46699173D01*
X130877824Y-46710574D01*
X130988429Y-46820986D01*
X130999840Y-46829998D01*
X131132880Y-46912004D01*
X131146061Y-46918151D01*
X131294814Y-46967491D01*
X131308190Y-46970358D01*
X131399097Y-46979672D01*
X131405513Y-46980000D01*
X131428885Y-46980000D01*
X131444124Y-46975525D01*
X131445329Y-46974135D01*
X131447000Y-46966452D01*
X131447000Y-46294115D01*
X131442525Y-46278876D01*
X131441135Y-46277671D01*
X131433452Y-46276000D01*
X130736115Y-46276000D01*
X130720876Y-46280475D01*
X130719671Y-46281865D01*
X130718000Y-46289548D01*
X130718000Y-46292438D01*
X129017347Y-46292438D01*
X129017004Y-46290374D01*
X129009249Y-46276000D01*
X128992666Y-46245268D01*
X128989969Y-46239975D01*
X128971215Y-46200919D01*
X128971214Y-46200918D01*
X128967781Y-46193768D01*
X128964187Y-46189493D01*
X128962262Y-46187568D01*
X128960491Y-46185638D01*
X128960445Y-46185553D01*
X128960568Y-46185441D01*
X128960096Y-46184906D01*
X128957010Y-46179186D01*
X128917413Y-46142583D01*
X128913848Y-46139154D01*
X128337405Y-45562711D01*
X128303379Y-45500399D01*
X128300500Y-45473616D01*
X128300500Y-45124429D01*
X128320502Y-45056308D01*
X128374158Y-45009815D01*
X128444432Y-44999711D01*
X128461647Y-45003430D01*
X128514235Y-45018709D01*
X128525007Y-45019500D01*
X130887578Y-45019500D01*
X130955699Y-45039502D01*
X131002192Y-45093158D01*
X131012296Y-45163432D01*
X130982802Y-45228012D01*
X130976751Y-45234518D01*
X130877014Y-45334429D01*
X130868002Y-45345840D01*
X130785996Y-45478880D01*
X130779849Y-45492061D01*
X130730509Y-45640814D01*
X130727642Y-45654190D01*
X130718328Y-45745097D01*
X130718071Y-45750126D01*
X130722475Y-45765124D01*
X130723865Y-45766329D01*
X130731548Y-45768000D01*
X131829000Y-45768000D01*
X131897121Y-45788002D01*
X131943614Y-45841658D01*
X131955000Y-45894000D01*
X131955000Y-46961885D01*
X131959475Y-46977124D01*
X131960865Y-46978329D01*
X131968548Y-46980000D01*
X131996438Y-46980000D01*
X132002953Y-46979663D01*
X132095057Y-46970106D01*
X132108456Y-46967212D01*
X132257107Y-46917619D01*
X132270286Y-46911445D01*
X132409401Y-46825358D01*
X132410574Y-46827254D01*
X132466309Y-46804697D01*
X132536073Y-46817869D01*
X132578453Y-46857974D01*
X132593865Y-46871329D01*
X132601548Y-46873000D01*
X133573885Y-46873000D01*
X133589124Y-46868525D01*
X133590329Y-46867135D01*
X133592000Y-46859452D01*
X133592000Y-45637116D01*
X133587525Y-45621877D01*
X133586135Y-45620672D01*
X133578452Y-45619001D01*
X133051331Y-45619001D01*
X133044510Y-45619371D01*
X132993648Y-45624895D01*
X132978396Y-45628521D01*
X132857940Y-45673678D01*
X132841981Y-45682416D01*
X132772624Y-45697586D01*
X132706076Y-45672851D01*
X132661947Y-45611773D01*
X132621619Y-45490893D01*
X132615445Y-45477714D01*
X132533212Y-45344827D01*
X132524176Y-45333426D01*
X132413571Y-45223014D01*
X132402160Y-45214002D01*
X132355897Y-45185485D01*
X132308403Y-45132712D01*
X132296980Y-45062641D01*
X132321188Y-45002659D01*
X132332224Y-44987934D01*
X132389083Y-44945419D01*
X132433049Y-44937500D01*
X135172839Y-44937500D01*
X135240960Y-44957502D01*
G37*
%TD.AperFunction*%
%TD*%
M02*
