%TF.GenerationSoftware,KiCad,Pcbnew,6.0.2-378541a8eb~116~ubuntu20.04.1*%
%TF.CreationDate,2022-03-05T23:19:36+02:00*%
%TF.ProjectId,ActionPCB,41637469-6f6e-4504-9342-2e6b69636164,rev?*%
%TF.SameCoordinates,Original*%
%TF.FileFunction,Paste,Top*%
%TF.FilePolarity,Positive*%
%FSLAX46Y46*%
G04 Gerber Fmt 4.6, Leading zero omitted, Abs format (unit mm)*
G04 Created by KiCad (PCBNEW 6.0.2-378541a8eb~116~ubuntu20.04.1) date 2022-03-05 23:19:36*
%MOMM*%
%LPD*%
G01*
G04 APERTURE LIST*
G04 Aperture macros list*
%AMRoundRect*
0 Rectangle with rounded corners*
0 $1 Rounding radius*
0 $2 $3 $4 $5 $6 $7 $8 $9 X,Y pos of 4 corners*
0 Add a 4 corners polygon primitive as box body*
4,1,4,$2,$3,$4,$5,$6,$7,$8,$9,$2,$3,0*
0 Add four circle primitives for the rounded corners*
1,1,$1+$1,$2,$3*
1,1,$1+$1,$4,$5*
1,1,$1+$1,$6,$7*
1,1,$1+$1,$8,$9*
0 Add four rect primitives between the rounded corners*
20,1,$1+$1,$2,$3,$4,$5,0*
20,1,$1+$1,$4,$5,$6,$7,0*
20,1,$1+$1,$6,$7,$8,$9,0*
20,1,$1+$1,$8,$9,$2,$3,0*%
G04 Aperture macros list end*
%ADD10RoundRect,0.075000X0.075000X-0.350000X0.075000X0.350000X-0.075000X0.350000X-0.075000X-0.350000X0*%
%ADD11RoundRect,0.075000X-0.350000X-0.075000X0.350000X-0.075000X0.350000X0.075000X-0.350000X0.075000X0*%
%ADD12RoundRect,0.218750X0.218750X0.256250X-0.218750X0.256250X-0.218750X-0.256250X0.218750X-0.256250X0*%
%ADD13RoundRect,0.200000X0.200000X0.275000X-0.200000X0.275000X-0.200000X-0.275000X0.200000X-0.275000X0*%
%ADD14RoundRect,0.225000X0.225000X0.250000X-0.225000X0.250000X-0.225000X-0.250000X0.225000X-0.250000X0*%
%ADD15R,1.500000X2.000000*%
%ADD16R,3.800000X2.000000*%
%ADD17RoundRect,0.225000X-0.250000X0.225000X-0.250000X-0.225000X0.250000X-0.225000X0.250000X0.225000X0*%
%ADD18RoundRect,0.200000X-0.275000X0.200000X-0.275000X-0.200000X0.275000X-0.200000X0.275000X0.200000X0*%
%ADD19RoundRect,0.225000X-0.225000X-0.250000X0.225000X-0.250000X0.225000X0.250000X-0.225000X0.250000X0*%
G04 APERTURE END LIST*
D10*
%TO.C,U1*%
X125396000Y-41265000D03*
X125896000Y-41265000D03*
X126396000Y-41265000D03*
X126896000Y-41265000D03*
X127396000Y-41265000D03*
X127896000Y-41265000D03*
D11*
X128596000Y-41965000D03*
X128596000Y-42465000D03*
X128596000Y-42965000D03*
X128596000Y-43465000D03*
X128596000Y-43965000D03*
X128596000Y-44465000D03*
D10*
X127896000Y-45165000D03*
X127396000Y-45165000D03*
X126896000Y-45165000D03*
X126396000Y-45165000D03*
X125896000Y-45165000D03*
X125396000Y-45165000D03*
D11*
X124696000Y-44465000D03*
X124696000Y-43965000D03*
X124696000Y-43465000D03*
X124696000Y-42965000D03*
X124696000Y-42465000D03*
X124696000Y-41965000D03*
%TD*%
D12*
%TO.C,D2*%
X129719500Y-52765000D03*
X131294500Y-52765000D03*
%TD*%
D13*
%TO.C,R3*%
X133098000Y-50987000D03*
X134748000Y-50987000D03*
%TD*%
D14*
%TO.C,C4*%
X137644000Y-37779000D03*
X139194000Y-37779000D03*
%TD*%
D15*
%TO.C,U2*%
X138446000Y-47127000D03*
X136146000Y-47127000D03*
D16*
X136146000Y-40827000D03*
D15*
X133846000Y-47127000D03*
%TD*%
D17*
%TO.C,C1*%
X124970000Y-50479000D03*
X124970000Y-48929000D03*
%TD*%
D18*
%TO.C,R2*%
X121668000Y-56384000D03*
X121668000Y-54734000D03*
%TD*%
D17*
%TO.C,C2*%
X127510000Y-50492000D03*
X127510000Y-48942000D03*
%TD*%
D12*
%TO.C,D1*%
X129745000Y-50987000D03*
X131320000Y-50987000D03*
%TD*%
D17*
%TO.C,C5*%
X131701000Y-46022000D03*
X131701000Y-44472000D03*
%TD*%
D13*
%TO.C,R4*%
X133099000Y-52765000D03*
X134749000Y-52765000D03*
%TD*%
D19*
%TO.C,C3*%
X135283000Y-37779000D03*
X133733000Y-37779000D03*
%TD*%
D18*
%TO.C,R1*%
X119890000Y-56384000D03*
X119890000Y-54734000D03*
%TD*%
M02*
